<?xml version="1.0" standalone="no"?>
<!DOCTYPE svg PUBLIC "-//W3C//DTD SVG 1.1//EN" "http://www.w3.org/Graphics/SVG/1.1/DTD/svg11.dtd" >
<svg>
<metadata>
Created by FontForge 20090622 at Sat Feb 23 04:50:35 2019
 By ffonts
Copyright (c) 2016 by Studio Kmzero con Zerocalcare. All rights reserved.
</metadata>
<defs>
<font id="AdleryPro-Blockletter" horiz-adv-x="422" >
  <font-face 
    font-family="Adlery Pro"
    font-weight="500"
    font-stretch="normal"
    units-per-em="1000"
    panose-1="2 0 5 8 2 0 0 2 0 4"
    ascent="800"
    descent="-200"
    x-height="488"
    cap-height="538"
    bbox="-77 -323 1429 945"
    underline-thickness="50"
    underline-position="-50"
    unicode-range="U+0020-U+F6D8"
  />
<missing-glyph horiz-adv-x="186" 
 />
    <glyph glyph-name=".notdef" horiz-adv-x="186" 
 />
    <glyph glyph-name="o" unicode="o" horiz-adv-x="419" 
d="M388 335q2 -5 3.5 -15t2.5 -21v-18v-27q0 -1 -0.5 -2.5t0.5 -3.5q0 -1 -0.5 -2.5t-0.5 -2.5v-12q-1 -5 -1 -12l-3 -24q-2 -7 -3 -13.5t-3 -11.5q-2 -2 -2 -4q0 -4 -1 -6q-1 -1 -1 -6q-2 -5 -3.5 -10t-4.5 -10l-2 -4l-3 -10q-1 -3 -2 -5t-2 -5l-4 -8q-2 -5 -4 -9t-4 -9
q-3 -8 -7.5 -14.5l-8.5 -12.5l-4 -6l-8 -11v-1q-6 -13 -18 -23q-12 -12 -26 -19q-14 -10 -33 -16q-2 -1 -7 -1q-2 0 -3 -0.5t-3 -0.5l-5 -3q-2 -2 -4 -2q-5 -2 -9.5 -3t-9.5 -2l-14 -2h-17h-9t-9 2q-1 0 -2 0.5t-2 0.5q-3 0 -4 1l-9 3q-6 2 -11.5 4.5t-10.5 5.5
q-9 5 -16 11.5t-14 14.5l-3 7q-2 4 -4.5 7.5t-4.5 8.5q0 5 -2 11l-11 22q-4 10 -5 15q-2 5 -3 10.5l-2 10.5l-9 3q-6 13 -9.5 27t-5.5 28q0 3 -0.5 5t-0.5 4q-1 6 -1 12v11v24q0 6 0.5 12t1.5 12q2 14 5 28l6 28q5 16 10.5 29.5l10.5 25.5l3 5q1 3 2.5 5.5t3.5 4.5t4 6l5 4
q0 2 1.5 4t2.5 4l3 6l8 13l9.5 15.5t11.5 14.5l6 8l13 12l4 5h1l3 5q9 9 18 14q8 7 17 11t19 6q4 2 6 2q15 3 31 3h10q1 0 2 -1q7 0 11 -1l12 -3q2 -1 5 -1.5t5 -2.5q12 -4 22.5 -11t18.5 -15l8 -5l4 -4q2 -2 3 -2.5t2 -2.5l1 -1l4 -5q1 -2 3 -4t3 -4q1 0 1 -1q2 -2 2 -4
q1 -1 1 -2h1l7 -9l4 -9q2 -3 4 -6.5t4 -7.5l4 -7l3 -5l3 -5v-3v-2q2 -4 4 -10q0 -2 1 -4.5t1 -4.5q0 -1 0.5 -2t0.5 -3q0 -5 2 -8v-8zM345 306q1 2 0.5 4t-0.5 4q0 5 -1 9l-5 22q-3 7 -3 14q0 1 -0.5 2t-0.5 3q0 1 -1 2t-1 3q-1 3 -1.5 6.5t-2.5 7.5q-2 6 -5 13l-2 4t-3 4
q-5 8 -11 14t-14 10q-2 2 -6.5 4t-7.5 4h-1l-2 1q-4 1 -12 1q-1 0 -2 -0.5t-2 -0.5t-1.5 -0.5t-1.5 -0.5l-12 -4q-5 -2 -8 -4t-7 -4q-10 -4 -17 -13q-2 -2 -4 -3.5t-4 -3.5l-5 -9q-4 -5 -7.5 -10.5t-5.5 -10.5q-4 -6 -6 -12l-4 -12q-1 -1 -1 -4q-1 -1 -1 -4v-3v-3l-3.5 -3.5
t-2.5 -3.5q0 -1 -1 -1h1l-1 -1v-2v-2l-1 -1q-1 1 -2 1v-1v-1q-6 -12 -9 -26l-3 -13l-3 -8q0 -2 -1.5 -3t-1.5 -2q-2 -6 -2 -9l-3 -16q0 -9 -1 -14v-5v-13q-1 -4 -1.5 -6.5t0.5 -5.5v-4q-1 -5 -0.5 -10t1.5 -10l-3 -7l1 -1h4q-1 -8 -0.5 -15t1.5 -14q0 -1 0.5 -2t0.5 -2h4
q0 -1 -1 -1t-1 -1q-2 -6 -2 -10q-2 -10 -2 -16v-9q2 -21 8 -34q2 -6 4 -8q2 -5 4 -8.5t7 -8.5l3 -4l2 -3l2 -2q1 -2 2 -2.5t2 -1.5q2 -2 3.5 -2.5t2.5 -1.5l9 -6q2 0 3 -0.5t3 -0.5h2q2 0 3 0.5t3 0.5h5q7 0 12 2q7 0 15 4l13 9l7 6q6 5 11 11q2 1 3 2l3 3l4 4l4 4l4 4l3 5
q3 3 7 11l6 10l5 12l10 26q1 1 1 2q4 11 5 20q1 1 1 4q2 8 2 12q0 2 1 2v3q2 5 2 9.5t2 9.5q0 3 1 5.5t1 5.5q2 9 3.5 19t2.5 21q0 2 0.5 3.5t0.5 3.5l2 15.5t1 15.5q0 2 0.5 3.5t0.5 3.5q0 1 -0.5 1.5t-0.5 1.5q1 7 0 16z" />
    <glyph glyph-name="exclam" unicode="!" horiz-adv-x="216" 
d="M115 -31q-12 3 -24.5 7.5t-20.5 14.5q-6 7 -9 17q-2 2 0 8l2 10l3 14q1 20 8 33q5 8 15 13q3 3 7 3q3 1 10 1q8 2 17.5 0.5t15.5 -3.5q11 -4 23 -14q15 -15 18 -32q1 -8 -2 -22q-6 -19 -14.5 -29t-18 -14.5t-18 -5.5t-12.5 -1zM100 306q2 20 5.5 42.5t9.5 45.5l4 18.5
l4 18.5q-2 24 0 48l4 16l15 49q9 36 21 72q5 14 10 25.5t7 16.5q4 4 14 6h7t8 -2q8 -2 14.5 -6.5t11.5 -10.5l9 -15q5 -4 9.5 -10.5t4.5 -15.5q-1 -11 -3 -22.5t-2 -22.5q-2 -18 -3.5 -37.5t-4.5 -39.5l-15 -80l-10 -34l-9 -33q0 -14 -8 -21l-14 -31l-7.5 -13t-5.5 -13
q-5 -11 -6 -19q1 -5 -2 -8t-3 -4q0 -2 -0.5 -3.5t-0.5 -3.5q0 -5 -1 -9q-3 -12 -7.5 -20t-14.5 -8q-8 0 -20 6t-17 17q-2 4 -3 7.5t-1 8.5q-1 8 0 22.5t2 24.5q-1 3 -0.5 7t0.5 9q-1 4 -1 8v8q1 3 -1 6z" />
    <glyph glyph-name="A" unicode="A" horiz-adv-x="381" 
d="M249 161l-3 -1q-29 -3 -63.5 -12.5t-63.5 -16.5l-24 -57q-11 -10 -18 -22.5t-12 -25.5q0 -5 -6.5 -22t-16 -35t-19.5 -33t-16 -15q-4 2 -7.5 5t-4.5 8q-2 14 1.5 28t1.5 28q0 5 -2.5 9.5t-5.5 7.5l1 7q7 14 16.5 23t16.5 20q10 17 16 35.5t15 35.5l-11 -1q-5 4 -6.5 10
t-1.5 11q-1 4 0 9t6 7h13q15 2 23 16q10 18 16.5 43t12 52l10.5 53t12 47q13 40 34 75.5t44 70.5q1 5 5.5 9.5t9.5 6.5l6 -1l4 2l39 -7q19 -7 28 -22t13 -33.5t4 -38t2 -35.5q2 -13 7 -27t7 -27q2 -22 0.5 -47t-1.5 -47q0 -5 1 -10.5l2 -10.5q6 1 12 3.5l11 4.5l6 -12
q-2 -8 -9.5 -10.5t-12.5 -6.5l-5 -7h-2l-2 3l1 3q2 -12 5.5 -27.5t6 -31.5t3.5 -31t0 -27l2 -4q2 -39 15 -76t18 -75q1 -5 -2.5 -9t-5.5 -9l-6 -6q-7 -1 -11.5 -4.5t-10.5 -4.5q-9 -1 -19.5 5t-20.5 14t-18.5 17t-14.5 14q-7 18 -15.5 44t-10.5 46q-3 29 -3 57.5t4 57.5z
M242 210q-2 8 -3.5 15.5t-2.5 15.5q-4 32 -1.5 66.5t-0.5 66.5q-2 15 -6.5 29.5t-9.5 28.5q-9 -27 -22.5 -59.5l-26.5 -66.5t-23.5 -67t-11.5 -60q25 2 56 10.5t52 20.5z" />
    <glyph glyph-name="O" unicode="O" 
d="M73 410q9 0 19 9t20 21l20 24t19 19q2 17 14.5 27.5t25.5 19.5q14 2 26.5 6.5t26.5 4.5q22 0 40.5 -8t38.5 -15q17 -17 28 -29.5t24 -32.5q1 -1 2 -5t2.5 -7.5l2.5 -6t1 -0.5q6 -7 10 -27.5t6.5 -43.5t3.5 -44.5t1 -31.5q0 -48 -13 -95.5t-30 -92.5q-2 -24 -20.5 -51
t-45 -50.5t-56 -38.5t-52.5 -15q-49 0 -81.5 22.5t-52 58t-27.5 78.5t-8 84q0 26 3 55.5t9.5 59t17 57t25.5 48.5zM158 301l-2 -4l1 -15q-3 -3 -7 -13t-7 -21.5t-4 -22t1 -14.5q0 -10 -3 -19t-3 -19l2 -3q-1 -13 1 -35.5t7 -46t13 -44t20 -27.5q0 -8 11.5 -13.5t18.5 -5.5
q16 0 32 12t30.5 28.5t26 35t17.5 31.5v-2q8 13 13 27.5l10 28.5l7 26q1 3 2.5 9t-0.5 3l2 5q0 27 8 53t8 53q0 17 -1 36t-5 38t-11.5 36t-20.5 30h1q-7 10 -24.5 20l-28.5 16l-6 -2l-2 -4q-4 0 -12 -2t-16 -6t-14 -8.5t-6 -9.5q-11 -19 -20 -37t-11 -41q1 -1 1 -4
t-3.5 -9.5t-5.5 -9.5l-4 4l-2 -5h1l-7 -25l-7 3l-3 -11z" />
    <glyph glyph-name="I" unicode="I" horiz-adv-x="170" 
d="M136 263q-1 -1 -2 -2.5t1 -2.5q-3 -23 -9 -47l-12 -48t-10 -47.5t-4 -46.5q0 -27 -4 -47t-9.5 -32.5t-11.5 -16.5t-10 1q-2 0 -10 4t-10 4q-6 5 -15 14.5t-11 17.5l-3 4q-1 3 -1 11q0 15 4.5 29t4.5 28q0 33 3.5 66.5t8 67.5t8.5 68t4 69q0 2 0.5 4.5t0.5 4.5q3 7 2.5 14
t0.5 14q0 1 0.5 12.5t1.5 28t3 35t5.5 33.5t9 23.5t13.5 4.5q0 4 3.5 5.5t6.5 1.5q19 0 31.5 -13.5t19.5 -33t9.5 -40t2.5 -34.5q0 -11 -3 -24.5t-8 -24.5l1 -2h-1q1 -5 1.5 -10t0.5 -10q0 -8 -6 -33t-7 -50z" />
    <glyph glyph-name="F" unicode="F" horiz-adv-x="344" 
d="M157 335q0 -8 -4.5 -15.5t-6.5 -15.5q1 0 17.5 2t37.5 3.5t40 3t24 1.5q7 0 10.5 -7t4.5 -12q-1 0 -1 -4l-9 -13l-5 1l-5 -1l-3 1q-5 -5 -19 -9t-31 -6.5t-33 -3.5t-24 1l-3 -5l3 -11q-2 -2 -2.5 -10t0.5 -11h-1q-3 -12 -5.5 -26t-2.5 -26l1 1q-1 -5 -3 -21.5t-3.5 -35
t-2.5 -34t0 -18.5q-2 -3 -2.5 -12.5t-1 -20.5t-3 -20t-8.5 -10l-11 -12l-1 -15q-5 -9 -11 -15l-13 -13q-9 0 -16 5t-12 13t-8 17t-3 17q0 35 4 69t4 69l2 4q0 29 4 59t4 60l-5 4l-6 -1q-8 0 -14.5 3.5t-6.5 13.5t5 12.5t11.5 4t11.5 5t5 15.5q0 35 6.5 71t6.5 71
q0 13 -15 15t-25 -1q-5 2 -10 5.5t-5 9.5q0 8 8 14t14 8l3 -1l18 10q5 -1 9.5 -0.5t9.5 -1.5q2 1 6 1q9 9 22.5 11t25.5 2l-1 -1l20 -5l-1 -8q3 -4 10 -4q46 0 90.5 2t89.5 7q5 -2 13.5 -6t8.5 -11q0 -13 -13 -20.5t-33.5 -11t-45.5 -4.5t-49 -1.5t-43.5 -1.5t-29.5 -4
q0 -2 -0.5 -4t-0.5 -4q0 -29 4 -59t4 -59z" />
    <glyph glyph-name="C" unicode="C" horiz-adv-x="344" 
d="M345 146l4 -8q2 -6 2 -11q1 -2 1 -5v-5q-1 -2 -1 -3t-2 -3l-3 -8q-1 -3 -4 -7.5t-5 -6.5l-5.5 -8.5t-5.5 -7.5h-1l-3 -4q-2 -1 -2 -1.5t-1 -1.5l-6 -6t-7 -5l-14 -11q-5 -6 -15 -13q-1 -2 -2 -2.5t-3 -2.5l-8 -7q-8 -7 -15 -11t-15 -8l-10 -6l-27 -10q-4 -2 -5 -2
q-18 -5 -28 -5h-13q-2 0 -3.5 0.5t-3.5 0.5q-3 0 -7 2q-19 5 -39 17q-6 2 -11.5 5l-10.5 6l-8 6l-14 13l-4 5l-9 13l-6 13q-4 8 -6.5 15.5t-4.5 15.5q-2 5 -3 10l-2 10l-2 11q-1 5 -1 10.5v11.5q0 3 -0.5 6t-0.5 6v14v17.5t2 16.5v6l2 21l2 12l4 21l3 13l6 28l2 5
q6 25 16 46l5 11q5 11 10 20.5l10 18.5l3 5l16 21.5t17 18.5l4 4l9 7q14 13 31 21q11 6 23 10.5t24 7.5l13 3q2 0 3 0.5t3 0.5q3 0 6 0.5t6 0.5h11h3q4 0 8.5 -1t9.5 -3l13 -3q4 -2 5 -2l11 -4q14 -6 19 -20q2 -8 1 -12l-4 -6q0 -5 -2.5 -8t-2.5 -6t-2 -3q-2 -1 -3.5 -2
t-3.5 -2h-1q-3 0 -4 1l-4 -2q-1 0 -1 1v2q-3 1 -6.5 1.5t-7.5 2.5l-9 3q0 5 -2.5 13t-7.5 10h-5q-2 -1 -5 -1.5t-5 -2.5q-5 -2 -10 -6t-10 -9q-11 -11 -19 -23q-10 -13 -18 -28q-1 -2 -1 -3t-1 -2l-10 -17l-8 -18l-9 -19l-2 -6q-2 -7 -5.5 -13.5t-5.5 -13.5q-5 -14 -9 -28
l-8 -28l-8 -35q-2 -6 -2 -9l-3 -12q0 -2 -0.5 -4t-0.5 -4q0 -8 1 -13q0 -2 0.5 -2.5t0.5 -2.5v-5q2 -8 4 -12l4 -14t5 -14q1 -3 2.5 -6t3.5 -5q10 -19 19 -30q1 -2 2 -3.5t2 -3.5l5 -6q3 -5 10 -9q8 -5 16 -9.5t16 -4.5q5 0 11 2t11 4q2 0 3 0.5l3 1.5q8 3 19 10l9 8l15 12
l16 18l19 29q5 5 9 8.5t9 6.5l6 3q7 3 14 1z" />
    <glyph glyph-name="D" unicode="D" horiz-adv-x="396" 
d="M184 -16q-5 -2 -12.5 -7.5t-18.5 -10.5q-4 -3 -14 -6q-8 -2 -15.5 -3.5t-15.5 -0.5q-4 0 -5 1q-2 -1 -7 -1q-6 2 -7 3q-4 2 -5.5 5.5t-3.5 7.5q-4 6 -4 11q-5 -2 -9.5 -5t-11.5 -3h-2q-8 2 -11 4l-6 3q-4 4 -5 7q-2 2 -2 9l6 9l5 12q-1 2 -2 4.5t-1 4.5q0 4 1 6
q2 7 2 14.5t1 15.5q2 17 3 34t2 37v13.5t1 13.5q1 11 1 22v22q1 8 1 16v16q0 4 0.5 8t0.5 8v54q0 5 0.5 11.5t-0.5 12.5q0 5 0.5 9t0.5 9l2 44q1 7 1.5 14t0.5 13q2 14 3.5 25.5t3.5 22.5q0 2 0.5 3.5t0.5 3.5q-7 11 0 18.5t22 12t36.5 5t44 -2t43.5 -8.5t36 -16q2 -1 7 -1
h5q17 -4 34 -9q8 -2 15 -5t12 -7l5 -3q3 -1 5.5 -2t5.5 -3q10 -7 17.5 -17t12.5 -21l3 -6q2 -2 2.5 -5t2.5 -6q4 -8 5 -12l2 -4q0 -1 1 -2v-4v-2v-1l2 -12.5t1 -12.5v-27q0 -2 -0.5 -3t-0.5 -3l-3 -20q-1 -11 -5 -24l-4 -12q-1 -1 -1 -2t-1 -3t-1 -5l-22 -65
q-2 -2 -3.5 -6.5l-2.5 -7.5h-1v-1l-2 -4t-2 -5q-2 -4 -2 -6q-4 -8 -7 -16t-8 -16q-2 -3 -5 -6t-6 -8l-23 -37l-12 -19q-2 -4 -2 -3l-9 -13q-8 -11 -18 -19t-23 -16l-20 -11h-1l-3 -2zM112 53h1l31 14q3 2 6.5 4t5.5 4l5 5v1q3 0 5 2q3 3 6.5 7.5l7.5 9.5q5 4 8 8l6 8
q1 2 2 2.5t2 1.5l4 5q5 5 8.5 11t7.5 11l4 7q6 10 11 21.5l10 22.5q3 5 4.5 10.5t3.5 11.5q9 25 14 50l5 28q1 8 1.5 13.5t0.5 10.5v16v13q0 7 0.5 11t-0.5 9q0 5 -2 13q-6 16 -19 27q-3 2 -7.5 3.5t-9.5 3.5t-11 3t-11 2q-2 1 -7 1q-16 3 -30 -1t-26 -12q-3 -2 -5 -12
q-5 -14 -3 -30.5t3 -33.5q1 -7 1.5 -13.5t0.5 -12.5q0 -2 -0.5 -5t-0.5 -5q1 -5 0 -11t-1 -14l-3 -21l-2 -22q-2 -10 -3 -20.5t-3 -21.5q-1 -3 -0.5 -5.5t-0.5 -5.5l-2 -10l-2 -18t-3 -18q-1 -7 -1.5 -13.5t-2.5 -13.5l-2 -14z" />
    <glyph glyph-name="E" unicode="E" horiz-adv-x="340" 
d="M50 263q0 2 -3.5 4t-7 5t-7 7t-3.5 11q0 10 9 12.5t15 7.5q-1 3 -1 6.5v6.5l24 197l4 11l8 6q5 0 10.5 -1t9.5 -5l-5 2l10 2q4 -1 12 -1q6 0 15 -1t13 -6l-1 -8q3 -2 16 -2.5t31 0t38.5 1t38 1t29.5 1.5t13 1l7 -3q17 0 17 -14q0 -13 -9.5 -18t-20.5 0l-8 -7
q-9 -5 -17 -4.5t-18 0.5q-17 0 -35 -2t-36 -2h-9.5t-14 -1t-13.5 -2t-7 -4v-4q-5 -8 -6.5 -23.5t-1 -33.5t1.5 -34.5t1 -26.5q0 -9 -5 -17.5t-7 -17.5q4 0 19 1.5t32 3t30.5 3t15.5 2.5q6 0 12 0.5t12 0.5q8 0 12 -7t6 -13q-2 -7 -6 -15.5t-12 -10.5q-3 1 -6.5 1h-6.5
q-17 -8 -36 -7.5t-37 0.5l-1 -1l-7 3l-5 -6l-23 2l-4 -10v-9l-4 -5l4 -19l-6 -6v-8h1q0 -14 -1 -33t-2.5 -39.5t-4 -39.5t-5.5 -33h3l9 4l8 -2l1 1q18 2 37.5 6.5l39.5 9.5t39 8.5t35 3.5q14 0 17 -8t3 -19q0 -13 -9 -24t-21.5 -18t-27 -9.5t-25.5 0.5q-30 -7 -64.5 -6.5
t-65.5 -1.5l-12 -9q-8 0 -11 7l-1 -2q-2 -1 -9 -3.5t-9 -2.5q-10 0 -16.5 7t-11.5 15l2 3l-4 10q0 11 6.5 19t7.5 18q4 48 9.5 97t5.5 97z" />
    <glyph glyph-name="H" unicode="H" horiz-adv-x="443" 
d="M64 203l-26 -6l-11 5l-2 -1l-9 6l4 11l3 -2v3q1 1 4.5 5t7 7.5t6.5 4.5t3 -3q5 3 10.5 4t9.5 2.5t7 4.5t4 10q2 29 5 59t5 59q3 42 10 88.5t7 87.5q0 8 2.5 17t13.5 9q25 0 37.5 -20.5t17.5 -48t4.5 -55.5t-3.5 -44l1 -4q2 0 1.5 3t0.5 5l4 -22t2 -22t-2.5 -22.5
t-5.5 -22.5l3 -4q-2 -14 -4.5 -29t-2.5 -30l1 -5q39 2 77 5t77 10q1 10 4 35t7.5 56.5t10 65.5t13.5 62t18 46.5t23 18.5q9 0 12 -3t3.5 -7.5t-1 -10.5t-1.5 -11t1.5 -8.5t4 -6.5t4 -6t1.5 -9q0 -11 -5.5 -31t-5.5 -37q0 -21 -3.5 -47l-6.5 -47l1 -2q0 -11 -1.5 -22
t-1.5 -22l18 2t15 -1.5t8 -9.5t-4 -20l4 -5q-5 -7 -8.5 -10t-7.5 -4.5t-9 -1.5h-12q-4 0 -6.5 -13t-4 -29t-2.5 -31t-1 -18q-3 -22 -3 -37.5v-35.5q0 -5 -0.5 -13.5t-1.5 -17t-1 -16.5t1 -12l-2 -10l-3 -3q0 -12 -3.5 -26.5t-7.5 -25.5l1 -5q0 -8 -2.5 -12t-6.5 -6.5
t-7.5 -5.5t-6.5 -9q-2 -5 -9.5 -12t-5.5 -6l-7 -1q-8 0 -14 5.5t-9.5 13.5t-5 17t-1.5 15q0 66 4.5 134.5t18.5 133.5q1 3 3 7.5t-1 5.5l-11 4q-33 -9 -64 -9t-64 -7q-9 -2 -14 -4.5t-7 -13.5q-3 -24 -5.5 -52.5t-7 -57t-12 -55t-20.5 -46.5q-1 -10 -6 -21t-13.5 -20
t-18.5 -14.5t-21 -5.5t-18 9h-5l-2 -1q-10 0 -12.5 8.5t-2.5 16.5l4.5 6.5t5.5 5.5l-1 2l1 1q2 2 2.5 3.5t2.5 5.5q4 14 10.5 45t12 66l10 66t4.5 45z" />
    <glyph glyph-name="G" unicode="G" horiz-adv-x="397" 
d="M246 101q0 9 3.5 18.5t2.5 17.5q-1 11 -2.5 21.5t-1.5 21.5q0 15 10.5 25.5t25.5 17.5t31.5 10.5t27.5 3.5q10 0 17.5 -9.5t7.5 -18.5l9 -16.5t4 -18.5q0 -17 -5 -36t-11 -38.5t-10.5 -38.5t-2.5 -35l-31.5 -19.5t-34.5 -11.5t-24.5 16.5t-11.5 29.5q-13 -11 -22 -22
t-19 -20t-22 -14.5t-31 -5.5q-45 0 -72.5 16t-42.5 43t-20 62t-5 73q0 36 6 68t16 62t23 59l28 60v2q14 18 28.5 34.5t30.5 28.5t35.5 19.5t44.5 7.5q26 0 49.5 -5t41 -16.5t27.5 -31t10 -48.5q0 -12 -8 -20l-1 -3q-11 -11 -21 -13t-24 -2q-11 0 -21 3q4 7 6 18t2 19
q0 6 -5 12.5t-12 12.5t-15 10t-13 4q-20 0 -36.5 -16.5t-30.5 -42.5t-24.5 -58t-17.5 -63t-10.5 -58t-3.5 -42v-9v-15t1 -14t4 -6q1 -1 1 -2v-2l-2 -1q0 -8 4 -22t11 -28t16 -24.5t18 -10.5t20 7t21 16.5t18.5 20t12.5 17.5z" />
    <glyph glyph-name="J" unicode="J" horiz-adv-x="336" 
d="M275 410l4 -48t2 -48q0 -16 -2 -41.5t-5.5 -52.5t-8.5 -51.5t-12 -38.5l-2 -19l-1 3l-2 -2l3 -14v-2q-3 -4 -6.5 -19t-9 -34.5t-14 -42t-23 -41t-35 -30.5t-49.5 -12q-24 0 -47 7t-40.5 21t-28 34.5t-10.5 46.5q0 11 6 22l-1 22q0 10 2 27t6.5 33.5t12.5 29t21 12.5
q15 0 20 -14q-6 -14 -7 -25t-1 -26q0 -4 -4 -8.5t-8.5 -11.5t-8 -17t-3.5 -25q0 -29 19.5 -49.5t48.5 -20.5l24 19q9 0 18 18.5t16.5 42.5t12.5 46.5t6 30.5q7 51 11 102l8 103q2 16 1 33t-1 34q-13 0 -25 -1t-25 -1q-11 0 -22.5 2t-22.5 1l-12 12q1 3 2.5 7t3.5 6
q3 17 19.5 26t36.5 14t39 8t27 8l11 -2q0 2 2.5 2t3.5 -1q11 1 23 0t22 1q10 1 22 5.5l24 9t24 8t23 3.5q4 0 6.5 -4t3.5 -9.5t1.5 -11t0.5 -8.5q0 -20 -6 -29.5t-15.5 -15t-22.5 -8.5t-27 -9l-5 3q-4 -5 -11.5 -6.5t-12.5 -3.5z" />
    <glyph glyph-name="K" unicode="K" horiz-adv-x="406" 
d="M201 146q9 -5 20 -12.5t22 -17t19.5 -20t11.5 -20.5q5 -6 10.5 -15t13.5 -11q4 -9 16.5 -20.5t28.5 -23.5l31.5 -23t24.5 -18l8 1q10 -3 19 -8.5t9 -17.5q0 -11 -9 -22t-20 -11l-11 -11.5t-14 -6.5q-17 0 -33.5 8.5t-30.5 18.5q-3 0 -12.5 8t-20 18.5t-19.5 20.5t-11 12
q0 3 -3 7t-5 7q-12 4 -28 27.5t-32 53.5l-30.5 58.5t-24.5 41.5q-13 -24 -15.5 -57.5t-5.5 -66.5t-12.5 -61t-36.5 -42q-5 3 -12 9.5l-14.5 14t-12.5 15.5t-5 13q0 43 1.5 91t8.5 90q11 70 24 138.5t23 138.5l-1 4l2 8q-2 4 1 14t8.5 20.5t12.5 18.5t12 8q14 0 24.5 -10.5
t16.5 -21.5q6 -5 8.5 -11.5t2.5 -14.5q0 -53 -10.5 -105.5t-11.5 -104.5l3 -1q11 3 18.5 11.5t21.5 10.5q18 13 38 32.5t39 41t36.5 43.5l31.5 40q4 5 9 14t11 18t12.5 16t13.5 7q23 0 30.5 -16t7.5 -36q0 -16 -21 -41t-49 -51.5t-55.5 -49.5t-39.5 -35q-7 -7 -17 -13
l-20.5 -12t-19.5 -12.5t-13 -12.5q5 -17 12 -33t13 -33z" />
    <glyph glyph-name="L" unicode="L" horiz-adv-x="326" 
d="M122 78q0 -5 1.5 -9.5t-0.5 -9.5l6 -10l-1 -1h2l-8 -10l15 4l-3 -4q16 3 33.5 1.5t34.5 -1.5q22 0 43.5 3.5t43.5 3.5q8 0 15 -5t7 -14q0 -10 -16.5 -17t-41.5 -12t-55.5 -8t-58 -5t-49 -2.5t-29.5 -0.5q-9 0 -26 2.5t-22 10.5l-10 4t-8 6q0 8 4 12.5t8.5 8.5t8.5 10
t4 17q0 6 -1 12t-1 12q0 19 5.5 39.5t9.5 38.5q9 47 15 97t10 98q0 6 1.5 22.5t3 37t4.5 42.5t7.5 40.5t10.5 30.5t14 12q6 0 16.5 -4t20.5 -10.5t17.5 -14t7.5 -14.5l-1 -77q0 -11 -2.5 -21.5t-6.5 -21.5q-2 -7 -2 -6t2 -3h-1q3 -20 3 -42q0 -12 -3.5 -43.5t-8.5 -67.5
t-10 -67.5t-8 -43.5l1 -1q-1 -5 -1.5 -9.5t-0.5 -9.5z" />
    <glyph glyph-name="M" unicode="M" horiz-adv-x="481" 
d="M34 22q-10 12 -13 24q0 3 -0.5 6t-0.5 8q0 10 1 23t3 29q0 2 0.5 4t0.5 4l4 36q2 8 2 14.5t2 13.5q0 9 3 15v6q1 4 1 11l2 6q0 10 -1 14q2 21 5 44t4 46v2q0 5 0.5 10t0.5 11q0 3 0.5 6t0.5 6v14q1 8 1.5 15t0.5 15v10.5t1 10.5q0 8 0.5 15t1.5 14l5 35q0 4 1 6q3 5 9 5
q3 0 4 1q0 4 4 6q12 1 27 -6q11 -5 21 -19q9 -14 15 -27l14 -31q8 -17 14.5 -32.5t11.5 -29.5q2 -2 2 -5l7 -15q1 -4 2 -7t3 -7l9 -22q2 -6 5 -12t5 -13l8 -21.5t7 -21.5l1 -1l5 -20q3 2 4 5.5t3 7.5q2 7 3.5 13.5t3.5 12.5q1 2 1 3t1 2q5 15 17 38q2 3 4 7t4 7l14 31l14 28
l6 11q2 4 4 7.5t4 7.5l4 8l9.5 16.5l9.5 15.5l6 9q5 8 10.5 14.5t10.5 9.5q3 3 7 3q3 1 7 0q14 -1 24 -11q8 -7 13 -18q2 -5 3 -9t2 -9q0 -4 0.5 -7.5t0.5 -7.5q2 -11 2.5 -21.5t0.5 -20.5q0 -6 0.5 -15t1.5 -18v-2q-1 -1 -1 -3h1q1 -24 0.5 -48.5t-0.5 -49.5v-6.5t1 -6.5
v-51v-5q-1 -2 -2.5 -2t-2.5 -3q-1 -4 -1 -12q2 -9 5 -18h2q0 -4 2 -12q0 -8 -1 -18t-1 -18v-7q-1 -2 -0.5 -6t0.5 -7v-7l-2 -14q0 -2 -0.5 -4.5t-0.5 -4.5q1 -7 5 -16q-2 -5 -6 -10.5t-9 -6.5q-2 -2 -5 -6t-8 -7q-7 -5 -11 -4q-6 0 -11 5q-6 6 -8 10q-1 0 -1.5 -0.5
t-1.5 -0.5q-8 0 -15 7q-9 11 -15 25q-3 8 -4.5 17t-3.5 19q-1 7 -1.5 14t-0.5 14q-1 4 -1 11q-2 23 -1 45t3 42l3 35q1 4 1 7.5v6.5l8 55q0 3 0.5 6t0.5 6q0 2 -2 8l-12 -26q-2 -4 -4 -8.5t-4 -9.5q-5 -11 -11.5 -23.5t-11.5 -25.5l-12 -27l-15.5 -35t-15.5 -31l-8 -19
q-4 -7 -9 -10q-5 0 -7 1q-3 0 -6 3q-2 1 -2.5 2t-2.5 3q-4 0 -10 2q-9 3 -15 11t-3 17q-1 1 -1 5q-1 9 -8 26q-5 9 -8.5 18.5t-8.5 20.5l-6 15l-17 40l-8 19l-8 16q-1 -8 -1 -16.5t-2 -16.5l-3 -21l-4 -24q0 -3 -1 -6t-1 -5l-2 -17l-5 -29v-13v-14q0 -4 -0.5 -7.5t-0.5 -6.5
q0 -4 0.5 -7.5t0.5 -8.5v-28t-1 -28q0 -5 -0.5 -8.5t-1.5 -7.5q0 -5 -1 -9t-1 -8q-2 -4 -3.5 -9.5t-3.5 -10.5q-3 -7 -8 -14q0 -1 -2 -3q-5 -7 -9 -7t-6 2q-6 0 -14 2q-18 6 -23 21q-1 1 -1 3t-1 4q0 4 -0.5 7.5t-0.5 8.5z" />
    <glyph glyph-name="N" unicode="N" horiz-adv-x="427" 
d="M129 327q0 -29 -2.5 -58.5t-2.5 -58.5v-176q0 -3 -1.5 -7.5l-2.5 -7.5q-4 -4 -6.5 -9t-0.5 -11q-2 -7 -7.5 -20t-13.5 -13q-26 0 -40 10t-21 26t-8.5 36.5t-1.5 40.5q0 79 2.5 157t2.5 157q0 9 -0.5 34t1 51.5t5.5 47t14 20.5q23 0 44.5 -15.5t29.5 -36.5q10 -27 27 -67
l36.5 -82l38.5 -79.5t34 -59.5q8 -11 13 -22t11 -23q2 5 1 11.5t-1 11.5q0 7 3 34t7.5 63.5t10.5 78l11 76.5l8.5 59.5t4.5 27.5q2 7 6 13t12 6q17 0 28.5 -12t18.5 -31t10.5 -42t4.5 -45.5t1 -42v-30.5q0 -6 -1 -19.5t-2.5 -28.5t-2 -27t0.5 -14q-3 -16 -5 -33.5t-1 -33.5
q-5 -10 -8 -19q0 -1 1.5 -2.5t0.5 -0.5v-7q0 -26 -4.5 -59t-4.5 -65q0 -6 -1 -12.5t-1 -12.5l-10 -22q-6 -3 -8 -9t-4.5 -12t-7 -11t-13.5 -5l-10 5q-4 0 -5 -1q-34 19 -48 53.5t-18 70.5l-59 115t-55 117q-2 5 -5 10.5z" />
    <glyph glyph-name="P" unicode="P" horiz-adv-x="374" 
d="M117 535q14 -8 21 -14.5t10 -14t3 -18v-26.5l18.5 16t20.5 13q3 6 12 12.5t20 11.5t21.5 8t18.5 3q22 0 40.5 -11t32 -28t20.5 -38t7 -42q0 -44 -18 -81t-47.5 -65.5t-67.5 -47t-78 -25.5q-1 -4 -1.5 -15t-2.5 -23t-6 -21t-10 -9q0 -23 -2.5 -45t-0.5 -45l-19.5 -19.5
t-22.5 -12.5q-2 0 -5.5 1t-5.5 2l-9 -2l-13 3l-11 24q-7 5 -13.5 11t-6.5 16q0 18 8 42t10 44q7 81 8.5 163.5t3.5 163.5q0 2 2 8t3 8q4 15 7.5 25t9 16t15.5 9t28 3zM142 416q2 -10 -0.5 -18.5t-2.5 -17.5v-31q0 -21 1 -45.5t5 -44.5q14 5 26.5 12l25.5 14l1 -1q18 7 31 25
t21.5 40.5t12.5 45.5t4 41q0 9 -1.5 17.5t-5 14.5t-11 8.5t-19.5 -0.5q-2 -1 -9.5 -3.5t-9.5 -1.5q-17 -14 -35.5 -27t-33.5 -28z" />
    <glyph glyph-name="Q" unicode="Q" horiz-adv-x="420" 
d="M365 -127l-4 6q-2 1 -7 6l-4 4l-14 23q-2 0 -3 2t-3 4v5q-3 4 -7.5 12.5t-9 18l-9 18.5t-5.5 14q-10 10 -13 24q-14 -11 -29.5 -21.5t-29.5 -22.5l-12 -1q-49 0 -87 19t-63.5 51t-38.5 74t-13 88q0 34 3 63.5t10.5 57t20.5 54t33 54.5q6 0 12 1t11 3q8 16 20 36.5t27 38
t33.5 29.5t39.5 12q8 0 23 -3t20 -9q29 0 46.5 -13t33.5 -36q1 -2 1.5 -10t4.5 -5l-1 -1q0 -1 1 -3t1 -4q18 -15 25.5 -35.5t10 -43t2 -45.5t1.5 -44l-1 -3q0 -13 -3 -26.5t-3 -27.5q0 -35 -8.5 -62.5t-23.5 -57.5v-16l8 -21t9 -21l5 -5q5 -12 9 -23.5t3 -24.5l-1 -2
q10 -13 24.5 -35.5t20.5 -38.5q3 -2 14 -19.5l23.5 -39l24.5 -41t18 -26.5l-1 4q-2 0 0.5 -5.5t3.5 -6.5q0 -11 -13.5 -20.5t-23.5 -9.5q-29 0 -48.5 19t-33.5 42l-14 22q-2 3 -6.5 13t-4.5 9l1 1q0 1 -2.5 1.5t-3.5 -0.5zM315 121l3 1q9 21 15.5 46.5t11 52.5t6.5 53.5
t2 49.5q0 27 -2 45.5t-7 34.5t-13 32.5l-19 39.5h1q-6 10 -22.5 17.5t-27.5 11.5q-51 -15 -68 -44.5t-17 -77.5l-1 -3l-5 4q-2 -17 -8.5 -34.5t-9.5 -34.5l-7 3l-1 -1l1 -7q-2 -2 -5.5 -12t-7 -22t-6 -23t-2.5 -16v-42.5t5 -40.5q-3 -11 1 -35.5t13 -49t22 -42t28 -13.5
q9 -3 23 -5.5t23 -2.5q16 0 24.5 12.5l15.5 23.5q-5 4 -15.5 18.5t-21 31.5t-19 32.5t-8.5 21.5q-2 0 -1 2t1 3q0 9 -8 16.5t-8 16.5q0 4 2 7.5t1 7.5l10 8q8 -2 16.5 -1t16.5 1q4 0 13.5 -11t19 -25l18.5 -27.5l13 -19.5l1 2z" />
    <glyph glyph-name="R" unicode="R" horiz-adv-x="353" 
d="M163 194l-5 1q-10 0 -13.5 -10.5t-4.5 -24.5t-1 -27t-1 -19q-2 -8 -6 -21t-7.5 -26.5t-6.5 -26.5t-3 -21q0 -6 2.5 -12l4.5 -11q0 -8 -5.5 -12.5t-13.5 -5.5t-16.5 0t-13.5 3q-5 -2 -10.5 -6.5t-11.5 -4.5t-11.5 6.5t-10.5 15.5t-8 18t-3 14q0 57 8 112t10 112
q1 32 0.5 66t2.5 66q1 7 3.5 13t2.5 13q0 3 -1 7t-2 7l2 10q-1 5 -3 12.5t-1 11.5l-2 6t-1 6q0 10 10 12q0 7 5.5 13t13.5 10t16 6.5t14 2.5h1l-2 -4l8 2q14 -5 25.5 -12.5t18.5 -21.5q-1 -7 2 -16q11 11 17.5 22t23.5 16q8 11 18.5 18.5l21.5 15.5q5 -2 10 -2h10
q24 0 37.5 -6t21.5 -14.5t12.5 -16t10.5 -10.5q9 -9 13.5 -22t4.5 -25q0 -29 -6 -48.5t-16 -35.5t-23 -32t-27 -37q-11 -6 -20.5 -13.5t-20.5 -14.5q3 -21 5 -32.5t5 -20.5l6.5 -19.5t8.5 -30.5q2 -7 8 -10.5t6 -11.5q5 -8 11 -15l13 -15q2 -8 9 -16.5t12 -15.5l-1 -2l4 -7
q-1 -1 1 -7t5.5 -13l6.5 -13.5t4 -7.5q2 -11 9 -17l-1 -1q0 -7 4 -8.5t4 -11.5q0 -2 1.5 -4.5t2.5 -3.5l-1 -1l2 -3l9 -16h-1q0 -4 2.5 -3t1.5 3q0 -5 3 -10.5t5 -9.5q0 -16 -7 -30t-25 -14q-25 0 -45.5 22t-36.5 52t-27.5 60t-18.5 46q-3 7 -12 24l-18.5 35t-16.5 34.5
t-7 24.5l1 2zM159 258q24 8 42 28t30 45.5t18.5 53t6.5 50.5q0 12 -3.5 20t-17.5 8q-39 0 -59.5 -17.5t-29.5 -44.5t-10 -58.5t-1 -59.5q0 -14 16 -16q-1 1 0.5 2t2.5 1z" />
    <glyph glyph-name="S" unicode="S" horiz-adv-x="322" 
d="M229 -16q-3 -5 -12 -9t-21 -7.5t-25.5 -6t-24.5 -3.5q-4 -1 -7 -0.5t-6 0.5h-9.5t-8.5 1l-10 3q-8 0 -17 3q-20 5 -39 16q-5 1 -8 5q-9 7 -11 13q-5 3 -8.5 10.5t-5.5 12.5l-3 5l-3 8q-1 5 -1 9.5v9.5q0 3 1 5q3 8 8 17l5 7q4 6 11 8q3 0 4 -1q4 2 6 0q2 0 4 -3
q-2 -4 -1 -6l-2 -1q0 -3 -1.5 -6t-2.5 -8q0 -4 0.5 -4t-0.5 -2q3 -9 9 -12q6 -2 16 -4q5 -2 10 -3t10 -3q8 0 13 -1q2 0 8 -2h2q1 -1 4 -1q2 0 3 1q10 -1 16 1t11 5l32 11q4 0 7.5 1.5t3.5 5.5q5 3 6 8q0 2 0.5 3t0.5 3q3 10 3.5 18t-0.5 16q-2 11 -7 19l-4 5q-5 7 -11 12
t-9 10l-14 15.5t-16 15.5l-20 18l-9 8l-18 17l-7 9l-11.5 13.5t-11.5 15.5q-2 4 -4.5 7.5l-5.5 7.5q-2 4 -4 7t-4 7l-9 33l1 1q-6 10 -10 24t-2 25v10q0 3 2 5q-3 25 15 44q3 7 8 9l5 5v1q-1 1 0 1q10 10 21 13l14 8l15.5 4l15.5 4h2l25 3h6q2 1 4.5 0.5t4.5 0.5q11 0 22 -1
t22 -3q5 0 7 -1q3 0 5 -1q6 -2 8 -2l24 -8q11 -4 20.5 -9.5t16.5 -11.5q5 -5 9.5 -13t4.5 -16v-1q4 -2 4 -3t1 -2.5t1 -3.5q4 -7 2 -15q0 -8 -1 -13q-3 -13 -11 -26t-19 -14q-5 0 -9 3q-5 3 -9 9h-4l-4 2q3 3 9 7q2 6 7 7t5 16q-3 9 -15.5 12.5t-23.5 5.5q-1 1 -3 1
q-8 1 -15 0.5t-15 0.5q-5 0 -9 -0.5t-9 -1.5q-4 -1 -7 -2t-7 -3q-7 -2 -13 -3.5t-12 -3.5q-8 -2 -12 -4q-1 -1 -2 -1.5t-2 -2.5q-7 -6 -7 -16q0 -1 -0.5 -1.5t-0.5 -2.5q-3 -12 -3 -26q1 -6 2 -11t3 -10q0 -4 1 -5l3 -6q1 -2 2.5 -4t1.5 -4q21 -29 55 -60l24 -22l14 -14.5
l11 -11.5q5 -8 10 -15t8 -12q2 -4 5.5 -8t5.5 -9q2 -2 2.5 -4t1.5 -4q2 -2 2 -4t1 -5q2 -4 2.5 -9.5t0.5 -9.5q1 0 0.5 0.5t0.5 0.5l7 -12q7 -15 8 -28q1 -2 0.5 -3.5t0.5 -3.5v-3q0 -3 -2 -7q1 -2 1 -5q0 -11 -3 -23q-2 -5 -5 -8.5t-7 -7.5q-12 -12 -25 -16q-1 -2 -3 -3
t-2 -2q-4 0 -6 -1z" />
    <glyph glyph-name="T" unicode="T" horiz-adv-x="345" 
d="M115 390l-4 7q5 23 2 46.5t5 46.5q-26 6 -49 4t-48 -2q-5 0 -16.5 2t-11.5 10q0 10 17.5 16t39.5 9t43 3.5t27 0.5q0 4 -1 6q2 6 9.5 7t12.5 1q19 0 36 -12q12 2 24 3t24 1h71h18.5t24.5 -1.5t21.5 -5.5t9.5 -12q0 -14 -17.5 -20.5t-40 -9t-44 -2t-29.5 0.5l-17 -1
q0 -13 -4 -22q2 -7 1.5 -12.5t-0.5 -11.5q0 -16 -5 -29.5t-5 -27.5v-3l1 -1q4 -16 4 -36q0 -21 -1.5 -46.5t-4 -51.5t-5.5 -50.5t-6 -44.5q-2 -11 -5 -20.5t-3 -21.5q0 -11 -4.5 -22t-9.5 -21l4 -15.5t5 -15.5q-4 -10 -14 -18l-2 -2l-3.5 -3.5t-2 -2.5t1.5 0l-3 -12l-13 -7
l-3 1l-5 -12l1 -4l-4 -2l-7 -16l-6 3l-1 -1l-6 5q-10 1 -16.5 7t-10 14.5t-5 18t-1.5 17.5q0 51 9.5 102t9.5 102q0 42 6 82.5t6 81.5z" />
    <glyph glyph-name="U" unicode="U" horiz-adv-x="368" 
d="M179 38l3.5 3.5l3.5 3.5q2 0 6 2l9 8l6 9q4 8 7 12l14 26l8 16l3 8v-1l9 30l4 19q3 11 5.5 22t4.5 22h-1q3 9 3 21l6 37l4 31l6 39q2 10 4 15q0 2 -0.5 2.5t-0.5 2.5q2 5 2 9.5t2 9.5q0 8 1 15t1 15l2 16q0 4 1 8t2 7q0 4 1 6l3 18q1 10 5 21l5 11q3 6 7 10l3 3l5 4l4 6
q6 8 9 10h3q4 2 12 0q2 -1 4 -3.5t4 -4.5q2 -4 2 -6v-6q-1 -4 -1 -14v-7v-11l2 -25l-2 -3l-3 -5q0 -2 -2 -6q0 -5 -0.5 -10t-1.5 -11q-2 -8 -2.5 -16.5t-2.5 -17.5l-3 -18q0 -3 -0.5 -5.5t-1.5 -5.5l-4 -28l-8.5 -56t-10.5 -52q0 -3 -0.5 -5.5t-0.5 -3.5h-2q-2 -10 -4.5 -21
t-6.5 -24q-2 -8 -5 -16l-6 -16q-3 -13 -9 -25l-5 -13l-9 -21q-2 -2 -2 -3t-1 -3q-3 -7 -5.5 -13.5t-6.5 -13.5l-10 -15.5l-10 -14.5q-6 -8 -13 -14t-14 -11q-4 -3 -12 -7q-3 -3 -9 -5q-4 -2 -8.5 -2.5t-9.5 -1.5q-5 -2 -11 0q-4 0 -7.5 1t-7.5 2l-8 3q-8 2 -15.5 6t-14.5 9
q-5 3 -8.5 5.5t-6.5 6.5l-14 13q-11 13 -18 30l-4 9l-6 18q-2 6 -4.5 12t-4.5 12q-2 4 -4 12q-3 14 -5.5 27t-4.5 26q-2 5 -2 10t-1 10q-1 8 -2.5 16t-2.5 17v29q-1 8 -1 15v14v12.5t1 11.5q2 14 4 22q1 13 1 24.5v24.5v8v5q0 2 -0.5 4t-0.5 4t0.5 4.5t0.5 4.5q0 7 1 9l-2 3
q1 2 1 8q0 4 1 7.5t3 8.5q1 3 1 11q0 2 0.5 5t0.5 5q2 8 2 14q1 7 6 13l3 10l5 10l6 9q8 11 18 14q6 0 8 -2h3l5 -2q6 -2 8 -4q6 -4 9 -7l5 -9q5 -2 7 -10q2 -5 3 -12t1 -15v-14q0 -10 -1 -14q0 -5 -0.5 -9t0.5 -6v-8.5t1 -8.5v2q0 -6 0.5 -11.5t0.5 -11.5q1 -4 1 -8v-9
q1 -3 0.5 -6.5t-0.5 -6.5q-1 -8 -2 -14.5t0 -14.5q1 0 1 -1q0 -7 -1 -11q1 -5 1.5 -14t-0.5 -20v-19v-17t-1 -21q0 -7 0.5 -14t0.5 -12t0.5 -8.5t1.5 -6.5q0 -3 1 -4l3 -24l6.5 -31.5t8.5 -31.5q4 -12 11 -26q5 -13 13 -21q3 -3 6.5 -5t7.5 -4z" />
    <glyph glyph-name="V" unicode="V" horiz-adv-x="380" 
d="M187 105q5 17 13 31t13 30q16 48 27 96t31 94q18 42 39.5 81t38.5 81l20 20l4 -1l9 5q5 0 8 -4t5 -9q-1 -5 -1 -15q0 1 -1 0t1 -1q-15 -20 -28 -51t-25 -68t-23.5 -77t-24 -78.5t-25.5 -73t-29 -59.5q-7 -11 -10.5 -23.5t-6 -25.5t-5.5 -25.5t-9 -22.5q0 -8 -4.5 -14.5
t-12.5 -6.5l-60 42q-9 15 -14.5 30.5t-5.5 32.5q0 4 -2 12.5t-5 18t-6.5 18t-6.5 12.5q0 29 -5.5 56.5t-5.5 54.5q0 5 -1 15t-3 21t-4 20.5t-4 13.5l1 3q-1 18 -9.5 47t-18 58t-17.5 51t-8 27q0 17 14.5 24.5t29.5 7.5q11 0 18.5 -8.5t15.5 -15.5q17 -14 32 -52t25.5 -82
t15.5 -85.5t2 -62.5q2 -5 1.5 -10.5t0.5 -10.5q1 -12 1.5 -27.5l1 -31t2.5 -30t6 -26.5q0 -2 1.5 -4t3.5 -2z" />
    <glyph glyph-name="W" unicode="W" horiz-adv-x="559" 
d="M138 486q21 -57 34 -122.5t13 -125.5q0 -13 1 -31t3 -36.5t5 -35.5t7 -29l13 30q7 7 6 16q8 18 13 36.5t11 36.5q3 3 6 11t6 18l5.5 19t4.5 14q0 34 -9.5 67t-21 62.5t-20.5 55t-9 45.5q0 13 12 13l10 -5l15 2q12 -3 20 -11.5t14.5 -18l12.5 -18t13 -11.5q3 -3 6.5 -10
t7 -15t6 -15.5t4.5 -10.5q3 3 10 19t16 34t20.5 32.5t24.5 14.5q11 0 13 -8t2 -16q-2 0 -1 -1t1 0q0 -12 -8 -26.5l-17.5 -32.5t-17 -40.5t-7.5 -50.5q0 -20 -1 -40t-6 -39q5 -17 11.5 -45.5l14 -58.5t16 -56t16.5 -37q2 12 8 39t13.5 56l14 52.5t8.5 27.5q2 14 7 38t12 53
t16 59t19 56t21 45t22 24q8 -3 12 -5t5.5 -5.5t1 -9t-0.5 -14.5v-3q-7 -14 -11.5 -29.5t-10.5 -30.5q0 -6 -6.5 -31.5t-17 -61.5l-22.5 -77.5l-23.5 -80l-20 -69t-11.5 -43.5l-4.5 -18t-8 -29.5t-9.5 -28.5t-9 -15q-5 -11 -8 -14t-15 -3q-7 0 -14 4t-12 9l-3 -1
q-7 0 -15.5 15.5t-17 39t-16.5 52l-15 53.5t-11.5 44t-6.5 24q-8 -22 -18 -44.5l-20 -45t-19 -45.5t-14 -46q-2 -11 -12.5 -19t-21.5 -8q-14 0 -25 11h-4q-29 23 -38.5 48.5t-9.5 60.5q-6 8 -10.5 28.5t-8 44.5t-5 47.5t-1.5 38.5q0 7 -2.5 26t-7 43.5t-10 51t-11.5 49.5
t-12.5 39t-12.5 19q1 5 -0.5 11t-1.5 11q9 16 26 16q5 12 17 12q9 0 22 -4t24.5 -10.5t20 -16t8.5 -20.5z" />
    <glyph glyph-name="X" unicode="X" horiz-adv-x="374" 
d="M209 317l24 32q20 26 40 58l12.5 18l23.5 32l24.5 31t14.5 14l1 -1l1 1q9 -3 16.5 -10t7.5 -18q0 -14 -10 -34t-25.5 -43t-34 -46.5l-35 -44.5l-28.5 -36.5t-14 -23.5q16 -51 28.5 -105.5t32.5 -104.5q1 0 1 -1t-1 -1q0 -5 3 -10l6 -10v-3l3 -5v-3l-4 -4l1 -8l-10 -7
l-5 1q-11 -3 -21 -3q-23 0 -39.5 24t-28 56t-18.5 64t-11 48l-13 -13t-14 -12l-11.5 -19.5l-11.5 -19.5q-5 -8 -10.5 -15l-10.5 -14q-2 -3 -17 -23l-33 -42.5l-33 -40.5t-17 -18q-5 0 -10 4.5t-5 9.5q0 11 9.5 28t21.5 36l23.5 37t16.5 32l4 3q6 17 17.5 33t24 31.5l23 29.5
t15.5 26l8 7l-1 5l1 4q-2 6 -4.5 12.5t-2.5 13.5q-4 8 -7.5 19t-8.5 18q0 2 -2 9t-5 15.5t-6 16t-4 10.5q1 12 -5 25.5t-13.5 26.5l-14 24t-6.5 19v9.5t1 10t4 6.5t10 0q8 4 16 6.5t17 2.5q25 0 40 -21t25.5 -49.5t17.5 -56.5t16 -43z" />
    <glyph glyph-name="Y" unicode="Y" horiz-adv-x="308" 
d="M78 214l-23 47q0 5 -2 21l-4.5 34.5t-5 34.5l-3.5 22l2 -2v2q0 5 -4 19.5t-10 30.5t-12 29t-9 16q1 6 -0.5 12t-1.5 12q4 10 15.5 13t21.5 3q12 0 23 -12t21 -27.5t19.5 -32t17.5 -25.5q0 -17 2.5 -33.5t2.5 -33.5q0 -5 2 -25.5t5 -44.5l5.5 -44.5t4.5 -24.5q7 9 11.5 20
t7.5 22q6 7 13.5 23t14.5 34t11.5 35t4.5 26q1 2 6.5 11.5t12.5 20.5l12.5 20t7.5 9l1 1q2 6 7.5 17t12 22.5t14.5 20t15 10.5l7 -4.5t6 -6.5l-1 -9l1 -6q-9 -26 -21.5 -53.5l-25.5 -55t-23.5 -55.5t-15.5 -56l-19 -31q-4 -17 -10 -30t-14 -28q-2 -5 -8 -26t-12 -45.5
l-11 -46t-5 -26.5q0 -9 -1.5 -24t-5.5 -29.5t-11 -25.5t-19 -11l-10 -18q-8 4 -18.5 11.5t-10.5 17.5l-3 3l-1 9q0 18 4 35.5t4 35.5q0 13 3.5 28l7 30.5t5.5 30.5t-1 27q-7 3 -12 7.5t-5 12.5q0 14 3 28t4 28z" />
    <glyph glyph-name="Z" unicode="Z" horiz-adv-x="374" 
d="M144 29l7 -3q28 2 58.5 -1t59.5 -3q24 0 47 4.5t43 19.5q5 1 9 3.5t7 5.5q8 0 12 -5.5t4 -13.5q0 -11 -8 -22.5t-19.5 -21.5t-24 -18t-21.5 -11q-36 -13 -77 -14t-79 -1q-8 0 -16 -0.5t-16 -1.5v1q-9 1 -18 -2.5t-18 -8t-17 -8t-14 -3.5q-20 0 -33.5 8.5t-6.5 31.5
q-5 17 1 32.5t14 29.5l115.5 187l114.5 188l-1 1l12 15l-1 2l10 13l-1 1l6 9h-2l-38 -7l-6 2q-33 -6 -62 -15t-64 -9q-12 0 -23 3.5t-11 20.5q0 14 10.5 16.5t21.5 2.5l4 2q4 2 17 5.5t26 7.5l23.5 7.5t10.5 5.5l-1 2q7 -1 13 -1h13q23 11 50 18.5t53 7.5q5 0 15 2l20.5 -2
t19.5 -4.5t14.5 -11t5.5 -20.5q0 -6 -12 -28t-30.5 -52.5l-41 -66l-43.5 -68.5l-37.5 -59.5l-23.5 -38.5q-8 -14 -16.5 -32.5l-17.5 -37.5t-18 -36t-19 -28z" />
    <glyph glyph-name="b" unicode="b" horiz-adv-x="360" 
d="M66 417q41 11 68 19t47 2h41q5 0 9.5 0.5t9.5 -0.5l11.5 -2t10.5 -3q6 -1 11 -5q19 -9 29 -31q10 -20 10 -44q-1 -24 -12.5 -46.5t-27.5 -41.5q-5 -6 -10 -10t-9 -8l8 -3q17 -5 28 -12l13 -8q6 -3 11 -6.5t10 -8.5v-2q4 -2 6 -4q-1 -2 0 -4t2 -5q2 -3 3.5 -7t1.5 -9
q4 -5 6 -12q0 -3 2 -9l3 -15v-8q0 -2 -0.5 -3.5t-0.5 -3.5q-3 -24 -16 -49l-1 -1l-2 -6q-5 -10 -11 -19t-14 -17q-5 -5 -11.5 -10l-12.5 -10l-15.5 -10t-15.5 -8q-35 -17 -75 -23q-5 0 -8 -1q-4 0 -7 -0.5t-7 -1.5q-2 0 -3.5 -0.5t-3.5 -0.5t-3 0.5t-3 0.5q-5 0 -8 1l-7 3
l-22 11q-15 10 -23 18q-6 5 -7 10l-6 -4q-6 -2 -9 -2q-6 4 -12 11t-8 17v11q0 5 0.5 9.5t-0.5 9.5q1 10 0 21q0 8 -1 13q1 3 1 12q1 3 1.5 5.5t0.5 6.5q0 2 0.5 4.5t0.5 5.5v14q0 16 0.5 33t0.5 35q0 11 0.5 22.5t0.5 22.5q1 33 1 65v59zM147 362q-2 -10 0 -18.5t2 -19.5v-9
q-2 -3 -2 -6.5t-1 -6.5q0 -2 -0.5 -3.5t-0.5 -3.5l-3 -36q1 -3 1 -9q14 5 31 13t30 19q20 15 34 36t18 41q-1 8 -3.5 12.5t-6.5 8.5l-6.5 4.5t-7.5 3.5q-1 1 -4 1q-6 2 -8 1q-8 -1 -14.5 -1.5t-13.5 -2.5q-4 0 -8 -2q-10 -3 -16 -7q-5 -2 -10.5 -6.5zM145 190
q-6 -8 -8 -17.5t-3 -20.5q-1 -2 -1 -8l-2 -14q-1 -2 -1.5 -5t-2.5 -5q-1 -1 -1 -3l-1 -1v-10q-1 -3 -1 -10q-1 -2 -1 -7q0 -7 1 -11q0 -2 2 -8v-3q0 -1 0.5 -1.5t0.5 -1.5v-4q6 -7 17.5 -13.5t21.5 -4.5q14 2 30 13t29 25l6 8q3 5 6 9t6 9q2 2 3.5 6.5t3.5 7.5q7 15 8 27
q0 2 -0.5 3t-0.5 2q0 11 -3 20q-5 17 -20 22l-2 3q-4 1 -7 2t-8 2q-11 3 -20 3q-8 1 -17.5 0t-19.5 -1l-4 -3l-3 -3z" />
    <glyph glyph-name="c" unicode="c" horiz-adv-x="356" 
d="M358 141q2 -6 1 -12.5t0 -12.5v-4q-5 -21 -24.5 -46.5t-46.5 -47.5t-58 -36.5t-59 -14.5q-39 0 -67 14.5t-46.5 39t-27 56.5t-8.5 66t5 74t16.5 81t29 79t42.5 67.5t58 47t75 17.5q11 0 24.5 -3.5t25.5 -10.5t20 -17t8 -23q0 -2 -1 -8t-2 -13t-2.5 -13t-2.5 -7l1 -4
q-5 -12 -18 -12q-2 0 -8.5 2.5t-8.5 3.5l-3 -1l-2 1q1 3 2.5 9l3 12.5t2 13t0.5 9.5q0 4 -4 5t-9 1t-11 -0.5t-10 1.5q-18 0 -33.5 -16.5t-28.5 -42.5t-23 -57.5t-18 -62t-13 -56t-8 -39.5q5 -14 6.5 -29t3.5 -30t6.5 -29.5t16.5 -26.5q9 -3 15.5 -9t13.5 -11.5t14 -10
t17 -4.5l32.5 20t27.5 25q20 7 27 18.5t11 22.5t9 19.5t21 8.5z" />
    <glyph glyph-name="d" unicode="d" horiz-adv-x="419" 
d="M23 28q0 3 2 9q15 69 20.5 137t18.5 136l-1 6l1 13q-2 4 0 11l4.5 15t4 15.5t0.5 11.5l-3 2q2 10 5 32t7 44.5t10.5 40t16.5 18.5l-1 -3l7.5 2.5t7.5 1.5q15 0 25 -6.5t16 -17t9 -22.5l6 -24q6 3 10.5 6.5t6.5 5.5q6 7 20.5 11t32 6.5t33.5 3.5t25 1q15 0 35.5 -11.5
t38 -28t27 -35t2.5 -33.5q4 -8 3.5 -20.5t-0.5 -20.5v-11.5t-1 -11.5l1 -1q-1 -22 -11.5 -53t-27 -65t-37.5 -69t-43.5 -65t-44.5 -52.5t-41 -32.5q-15 -8 -27.5 -14t-24.5 -10.5t-25.5 -6.5t-31.5 -2l-6 1l-62 13q-7 1 -10 9.5t-3 19t1.5 21.5t3.5 19v4zM127 15l11 5.5
l19 9.5l18.5 9.5t8.5 5.5q9 12 21 24l24 25t22 27t15 28l18.5 54t15.5 52t11 53t4 57q0 16 -7.5 28t-19 20t-25.5 11.5t-27 3.5q-7 0 -14 -4t-12 -9q0 -11 -12 -25t-20 -21q-6 -17 -4 -32.5t2 -32.5q0 -4 -3 -26t-8 -52.5l-11 -65.5l-11.5 -66t-10 -53t-5.5 -26zM25 31
q-3 0 -1 -3q0 2 1 3z" />
    <glyph glyph-name="e" unicode="e" horiz-adv-x="309" 
d="M121 66q11 2 21.5 5.5t21.5 2.5l2 1l26 -1q12 0 24 3.5t24 8t24 8.5t24 4q11 0 13 -9.5t2 -17.5q0 -20 -8 -28t-20.5 -11t-28 -4t-29.5 -6l-5 1q-3 -2 -19.5 -4t-36.5 -3.5t-38 -2t-24 -0.5l-3 -3q-7 0 -12 -4.5t-9 -9.5q-5 0 -12 4t-13 10t-9 13t0 12l-5 13
q-1 24 2.5 48.5t8 49.5t8 50.5t3.5 49.5q-4 31 -2.5 40t3.5 14q0 34 6 67t8 66l-8 13l-4 -1q-5 14 -3.5 22.5t4 13t2 6t-8.5 0.5q57 8 96.5 11.5t67.5 5t47.5 1t37.5 -0.5q5 0 10 -4t8 -8l-1 -3l3 -8q-2 -6 -5 -12.5t-10 -7.5l-4 2q-4 0 -8 -2t-8 -3q-18 4 -35.5 -1.5
t-36.5 -0.5l-7 -2l-5 2l-6 -1l-7 -9h-1l-7 2l-1 -1q-5 2 -12.5 4t-12.5 2h-4q-2 -8 -3 -16t-6 -15l-1 -4q0 -5 1.5 -13l3 -16t2 -15t-0.5 -11q3 -8 5 -15.5t2 -15.5q0 -14 -5 -20t-8 -18q2 1 17.5 3t34 4t34.5 4t20 2q8 0 13 -5.5t7 -12.5q-2 -7 -7 -16t-13 -11q-4 1 -14 1
q-3 -2 -13 -4.5t-22 -4.5t-22.5 -3t-13.5 -1l-7 3l-2 -5l2 -7q-3 -10 -2 -19l-7 -17l-2 -3h1q-8 0 -12 -17.5t-5.5 -41t-2 -46t-2.5 -31.5z" />
    <glyph glyph-name="f" unicode="f" horiz-adv-x="292" 
d="M135 195l-1 -1l1 -1q0 -1 1 -1v-9q0 -2 -0.5 -2.5t-0.5 -2.5v-10q0 -2 -0.5 -4.5t-0.5 -4.5v-12q1 -10 -1.5 -21.5t-3.5 -22.5l-2 -22l-2 -13q-3 -20 -9.5 -27.5t-6.5 -6.5l-3 -4q-12 -6 -15.5 -9t-6.5 -3h-2q-3 0 -5.5 -3t-7.5 -3q-14 0 -21 7l-3 6q-1 8 -5 16.5
t-4 17.5q0 4 0.5 8.5t2.5 9.5q0 1 -0.5 2t-0.5 2q0 2 0.5 5t0.5 5l4 61v4q0 1 1.5 5.5t1.5 6.5q-2 9 -5 12v8l-1 2q0 3 1 11t3 12l2 6q2 4 2 7.5t1 7.5q0 5 -1 8h-2q-5 0 -8 4.5t-3 10.5l4 8q2 6 4 10l3 2q3 0 4 1l3 3v24v5q2 26 6 56.5t4 50.5q0 3 -0.5 5.5t-1.5 5.5h-10
q-14 0 -21 2t-9 5t-1.5 6t0.5 4q0 2 2.5 6.5t5.5 4.5l6 6q5 3 10 7.5t10 6.5q2 0 3.5 -0.5t3.5 -0.5h2q2 0 4 -1l1 1h3h1q2 -1 3.5 -1.5t3.5 -2.5q18 4 53 3.5t70 4.5q3 1 6.5 1h5.5h9h38h10t10 1l6 -2q1 0 1.5 0.5t1.5 0.5l3 -2q2 0 4 -2l6 -3q0 -2 0.5 -3t0.5 -3v-1v-2
q0 -6 -3 -8.5t-6 -3.5t-5 -0.5t1 0.5h-3q-4 0 -4 -1l-13 -2q-17 -2 -34.5 -8.5t-37.5 -6.5h-11q-5 0 -10.5 -1t-10.5 -1l-6 -2q-3 0 -6 -1t-7 -1q2 -10 2 -23t2 -24v-6q0 -11 -2.5 -22.5t-2.5 -22.5l1 -1v-16q-1 -8 -3 -15.5t-3 -16.5h2l5 2q15 0 38 6.5t42 6.5q14 0 22 -2
t12 -4.5t5.5 -5.5t4.5 -6l6 -5l-3 -3q-3 -6 -11 -9t-16 -5t-14 -2.5t-5 -0.5q-2 -1 -5 -1l-11 -3q-6 -1 -12 -1.5t-12 -2.5l-19 -5q-3 0 -9 -0.5t-7 -1.5l-2 -4q-2 -2 -4 -7.5t-3.5 -10.5t-2 -9t-0.5 -3q-2 0 -2 -2.5t0 -1.5z" />
    <glyph glyph-name="g" unicode="g" horiz-adv-x="370" 
d="M314 369q-4 -4 -12 -7q-3 -1 -6.5 -0.5t-7.5 0.5t-5 3q-2 1 -3.5 1.5t-3.5 2.5l2 1q2 2 2 5q-1 9 -5 18.5t-17 20.5l-8 4q-3 1 -6 0q-4 0 -7 -0.5t-7 -2.5q-6 -2 -14 -4q-2 -2 -4 -2q-5 -2 -9.5 -4t-9.5 -6q-2 0 -2 -2l-7 -6q-6 -3 -11.5 -7t-10.5 -9t-8.5 -11t-7.5 -11
q-2 -2 -4 -6q-2 -2 -2.5 -4t-2.5 -4l-8 -20q-7 -17 -12 -35.5t-7 -36.5q-1 -5 -1.5 -9.5t-0.5 -10.5q-1 -8 -1 -15.5t-2 -15.5q0 -7 1 -13.5t3 -12.5q2 -10 4 -16q4 -13 8 -20q0 -1 -0.5 -1.5t-0.5 -1.5l5 -7v-3l3 -6q1 -4 2 -7t3 -7q1 0 1 -1q6 -1 12.5 -10t15.5 -15.5
t21 -5.5t30 20l18 23l9 15t9 13l6 10q2 2 2.5 4t2.5 4l6 13h-6l-2 2q-10 0 -19 1.5t-17 1.5q-2 -1 -2.5 -0.5t-1.5 0.5q-2 0 -2.5 -0.5t-2.5 0.5q-1 -1 -4 0q-3 0 -3 2q-1 0 -4 3q-1 0 -1 2q-3 7 -2 13q0 1 0.5 2t0.5 3q5 9 16 17q8 5 16 9l16 8q5 2 10.5 3l10.5 2l16 4
l17 3q4 1 11 1h3q5 0 8.5 -2t7.5 -4q6 -5 10 -16q0 -2 0.5 -3t0.5 -3q3 -3 3 -5q3 -6 3 -14q0 -3 0.5 -5.5t0.5 -5.5q0 -8 -1 -11q-1 -8 -6 -19q-2 -11 -5.5 -21t-6.5 -21q-2 -5 -5.5 -15.5l-7 -21.5t-7.5 -21.5l-6 -15.5q0 -3 -1 -5q0 -2 -0.5 -4.5t-0.5 -4.5v-9
q-11 -48 -35 -28l-18 7q-8 -2 -10.5 -1t-6.5 9q-1 3 -0.5 9t1.5 12.5t1 12t-1 5.5l-15 -15l-9.5 -7.5t-9.5 -8.5l-10 -6l-5 -3l-8 -4q-2 0 -4 -2q-1 0 -2 -0.5t-2 -0.5q-1 -1 -1.5 -0.5t-1.5 -0.5q-6 -2 -11.5 -3.5t-10.5 -2.5q-4 -1 -8 -1h-8q-9 0 -17 2t-16 6q-8 3 -13 8
q-6 5 -10.5 10.5l-9.5 11.5l-9 13q-6 13 -11 27t-7 28q-5 20 -6 40q0 4 -0.5 7.5t-0.5 6.5v5q0 5 -0.5 9.5t-0.5 9.5q-1 3 -1 6.5v6.5q0 2 0.5 5t0.5 5q0 11 0.5 20.5t1.5 18.5q1 5 2 9.5t1 9.5q1 7 3 13t4 13q3 13 9 30l4 10t4 9l3 5l5 10q5 8 10 18t10 18l10 17l2 4
l3.5 3.5l3.5 3.5q8 9 16.5 17.5t17.5 14.5q4 2 7.5 4t7.5 4q14 8 25 11q6 2 10 2l1 1h1q4 2 7 2q5 1 9 1.5t9 0.5q17 0 37 -6q12 -4 26 -11q17 -8 26 -19h1q8 -8 11 -23q2 -6 2 -10q3 -8 2 -15v-4q0 -3 -2 -7z" />
    <glyph glyph-name="h" unicode="h" 
d="M149 269q0 -1 6.5 -1h14.5h14t6 -1h7h6h14q5 0 8.5 0.5t7.5 0.5q6 1 11.5 0.5t11.5 0.5h10t10 -1l24 2q2 -1 5 0q1 0 3 2q4 3 1.5 5t-0.5 7q6 13 9 30q2 5 2.5 10t1.5 10l9 49l4 22l4 22l4 17v2l6 15q3 8 9 14q5 5 14 7q4 1 9 0q11 -2 16 -11q1 -1 1 -4q3 -6 2 -12
q0 -12 1 -16t1 -12v-2v-3q-1 1 -2 1q-1 -1 -1 -3q-1 -2 -1 -3.5t-1 -3.5l-1 -2v-1v-3l-3 -9v-4v-6.5t-1 -7.5q0 -4 -0.5 -7t-1.5 -7q-1 -5 -1.5 -10.5t-0.5 -10.5l-2 -17q0 -2 -0.5 -4.5t-0.5 -4.5v-6q1 -6 1 -8.5v-5.5v-7.5v-14.5q0 -3 9 -2.5t9 -1.5q5 -5 4.5 -14
t-0.5 -14q0 -2 -1 -2.5t-2 -2.5q-2 -2 -3.5 -2.5t-3.5 -1.5q-2 -3 -3 -3q-3 -1 -6.5 0t-6.5 0q-1 -1 -1.5 -7t-1 -13.5l-1 -14.5t-1.5 -11q-2 -10 -3 -22l-2 -24q-1 -10 -1 -19v-18q0 -14 1 -19q1 -6 1 -10.5v-9.5v-2q0 -4 -0.5 -7.5t-0.5 -6.5q-3 -9 -2 -14q0 -8 -3 -14
l-2 -3l-3 -10l-3 -10q-1 -2 -2.5 -7t-2.5 -3l-1 -1l-1 -1q0 -1 -1 -1q0 -3 -2 -7q-2 -2 -2.5 -3.5t-1.5 -3.5l-10 -11l-3.5 -3.5l-3.5 -3.5q-6 -9 -16 -10v-1l-2 -1q-6 0 -9 2q-8 2 -11 10q-2 2 -2 4t-1 4q-2 4 -2 8q-1 24 0 53q-1 13 0 26q0 31 3 63l7 53q0 2 0.5 3t0.5 3
q2 9 3 18.5t1 18.5v6v14q-1 0 -5 -2l-22 -6l-30 -7q-7 -2 -13 -3t-13 -2q-1 0 -2.5 -0.5t-2.5 -0.5q-2 0 -4.5 -0.5t-4.5 -0.5q-22 -3 -37 0q-4 -1 -8 -0.5t-9 1.5h-4l-2 -11v-4q-1 -17 -3 -39t-7 -47q-2 -13 -5 -23.5t-5 -21.5l-3 -13l-7 -26q-1 -13 -8 -23q-1 -1 -1 -2
t-1 -1q1 0 -3 -2l-8 -8q-2 -2 -3 -4l-2 -4q-2 -2 -4 -6q-8 -12 -17 -16q-1 0 -1.5 -0.5t-1.5 -0.5q-2 -4 -4 -5q-3 -3 -10 -5q-4 0 -5 3q-4 0 -8 2l-8 4q-2 1 -7 1q-7 2 -7 9v2v1q0 7 3 15q2 2 2 3v2v2l1 1q1 1 1 2t1 3q2 8 5 15q2 8 4 17.5l4 19.5q4 19 6.5 38.5t6.5 40.5
q0 5 1 9.5t2 9.5t2 13.5l2 17.5t2 16.5t2 11.5h-2h-2q-2 1 -3.5 2t-3.5 2q-3 0 -4 0.5l-3 1.5q-5 0 -7 -1l-11 7h-1l3 9q1 0 1 -1t1 -1l2 4q3 12 8 20q2 1 2 -1t1 -1l3 2l15 8q4 4 5 6q2 3 4 19q0 1 0.5 2.5t0.5 3.5l3 19l4 34l2 20l7 63l7 43l3 14l3 7l4 6q2 4 4 5l6 3
q5 0 8 -3q2 0 8 -2q11 -4 18 -13q3 -3 6 -9q6 -10 7 -26q1 -8 1 -14v-11v-45.5v-24.5v-11v-5z" />
    <glyph glyph-name="i" unicode="i" horiz-adv-x="176" 
d="M81 466l2 2q2 7 7 12t10 9q20 0 31.5 -10.5t17.5 -25.5t7.5 -32.5t1.5 -32.5l1 -11q2 -20 -4 -38.5t-6 -38.5v-1l1 1l-1 -1v-1v1l2 -5q0 -2 0.5 -5t0.5 -5q0 -17 -7 -38t-7 -47q0 -1 -2 -3t0 -2q-6 -24 -11.5 -57t-12.5 -67t-15.5 -64.5t-20.5 -48.5l-8 -13v-5l-12 -11
q-2 1 -3.5 2t-3.5 0q-5 8 -15.5 20t-12.5 20q-3 1 -3 5q1 6 1.5 13t3.5 13q0 11 2 22t2 23q0 23 5.5 43.5t8.5 43.5q2 15 3 33t1 34q0 32 4 66t10 68l12 67.5t10 64.5z" />
    <glyph glyph-name="j" unicode="j" horiz-adv-x="295" 
d="M230 384l5 -26l3 -30l2 -29v-1v-18t-1 -18q0 -7 -1 -11q-2 -21 -5 -42t-5 -40q-1 -3 -1.5 -5.5t-0.5 -5.5q-2 -7 -3 -14t-3 -13q0 -3 -1 -5q0 -2 -2 -4v2v-1q-2 0 -1.5 -2t2.5 0q-2 -6 -2 -9v-3l-3 -11q0 -5 -2 -13v-1l-4 -22l-4 -22q0 -3 -1 -5q-1 -8 -5 -17
q-1 -3 -2 -5.5t-3 -5.5t-3.5 -5.5t-3.5 -4.5q-11 -15 -26 -26q-10 -8 -20 -11q-20 -9 -36 -9q-3 -1 -6.5 -1h-6.5q-2 1 -7 1l-1 -1q-13 2 -24.5 6t-22.5 9q-11 4 -19 11q-16 13 -25.5 32t-11.5 43q0 2 0.5 3t0.5 3q0 4 3 9q-2 10 -2 21q-1 13 0.5 26.5t3.5 27.5q-1 0 -1 1
q1 5 1 10v10l2 6q2 5 5.5 9t7.5 6q5 3 10 2q2 0 3 -1q1 0 1.5 -0.5t1.5 -0.5q2 -2 4.5 -3t4.5 -4t4 -13l-3 -17q0 -2 -0.5 -4.5t-0.5 -4.5q1 -2 0 -5t-1 -5q0 -8 1 -11q0 -6 -2 -15.5t-3 -19.5q-1 -5 -1.5 -10t-0.5 -10q1 -5 2 -8.5t3 -8.5q1 -2 2.5 -5.5t3.5 -5.5
q4 -6 9.5 -11t10.5 -9q11 -8 23 -9q2 -1 6 -1h4q2 0 4 1t4 1l22 33q0 1 1 3l2 4q11 20 17 39q5 13 7.5 25.5t4.5 26.5q2 18 3.5 35.5t1.5 34.5q1 9 1 17.5v16.5v78q-1 3 -1 6.5v6.5v12t1 13v10t1 10h-21q-5 0 -8.5 -0.5t-8.5 -0.5q-28 -2 -47 1q-2 -1 -6 -1q-8 2 -12 9
q-2 4 0 9q0 1 0.5 1.5t0.5 1.5l3 4q1 6 9 12q9 7 21 15l2 2q5 3 11.5 5.5t13.5 4.5l13 3q6 2 11.5 2.5t10.5 1.5q5 2 10 2t9 1q2 0 3 1t3 2h4q2 0 3.5 -0.5t3.5 -0.5t3 1h6q2 2 4 2q5 1 11.5 0.5t12.5 0.5q7 0 17 2q2 0 3 0.5t2 0.5q6 0 8 1q11 2 19 5t19 5q1 0 2 1
q2 0 5.5 0.5t7.5 -0.5q8 0 10 -10v-13q0 -8 -0.5 -14.5t-2.5 -11.5q-3 -9 -8 -13q-3 -4 -13 -8q-2 -1 -5.5 -1.5t-6.5 -2.5l-17 -5q-1 -1 -4 -1q1 0 3 2l-7 -2l-6 -3q-3 -2 -6 -2t-7 -1z" />
    <glyph glyph-name="k" unicode="k" horiz-adv-x="375" 
d="M140 236q9 5 18 14l5 2h2l9 9q2 1 6 5l9 8l9 10q14 12 27.5 28l24.5 29l24.5 29l21.5 27l9 12l10 10q9 11 19 19l11 14q1 1 1.5 2t2.5 2q2 2 5 3.5t5 1.5q3 1 5.5 0.5t5.5 -0.5q1 0 5 -2q11 -3 17 -13t4 -22q-1 -8 -5 -16.5t-9 -16.5l-12 -17l-9 -12q-2 -2 -3.5 -3
t-2.5 -3l-13 -14q-2 -2 -4 -4.5t-3 -4.5q-9 -11 -20 -22.5l-21 -21.5q-7 -8 -14 -14.5l-14 -13.5l-21 -20l-7 -8l-23 -21l-18 -16q-4 -3 -7 -7l-10 -8q-2 -1 -2 -1.5t-1 -1.5q7 -8 15 -19t16 -24q6 -8 12 -14q7 -7 12 -13t10 -13l11 -10l8 -6l1 -1q0 -1 2 -3l10 -11
q0 -2 2 -4q4 -8 10.5 -16.5t14.5 -16.5l14 -14l18 -16l8 -6t7 -4q2 -2 3 -2q1 -1 5 -1l10 -5q2 -1 6 -1q1 -1 4 -1q6 -4 10.5 -9t4.5 -13q0 -11 -10 -24t-21 -16h-1q-2 -2 -4 -4.5t-6 -2.5q-7 -2 -13 1l-7 2l-2 2q-12 2 -24.5 9.5t-24.5 17.5t-22.5 21l-19.5 20v1q-1 3 -6 8
q-2 2 -3.5 4t-3.5 3l-4 4q-10 10 -22 27q-8 11 -17 25.5l-17 28.5q-2 3 -3 5.5t-2 5.5q-5 11 -9 22l-7 19q-2 -1 -6 -7l-1 -1l-3 -18v-8l-3 -15v-12l-3 -42l-2 -15q0 -7 -4 -17q-4 -7 -5 -13q-7 -12 -18 -17q-12 -3 -19 -2q-2 -1 -4 1q-9 4 -13 10q-2 1 -6 5q-3 3 -7 9
q-13 10 -14 32q-1 14 -1.5 26.5t-0.5 25.5q0 2 -0.5 3t-0.5 3v7v13q0 14 0.5 27.5t0.5 27.5v21v6q-1 38 5 81q0 2 1 3.5t1 3.5l5 42l2 26q2 8 2 14l2 10.5t1 10.5q3 13 7 23l4 11l4 12l5 20q-3 3 -2 3q0 4 2 8l2 7l2 6q7 19 21 27q6 4 12 1q5 -1 11 -9l7 -6q5 -5 9 -12.5
l8 -14.5t6.5 -13t2.5 -12q0 -27 -3 -57q-2 -11 -2.5 -22.5t-1.5 -22.5q-1 -8 -1.5 -14.5t-0.5 -13.5q-1 -5 -1.5 -10.5t-0.5 -10.5q-1 -7 -1.5 -14t-0.5 -13q0 -8 1 -12z" />
    <glyph glyph-name="l" unicode="l" horiz-adv-x="297" 
d="M114 58q2 0 2 -2v-2h1l-7 -11q10 5 22 5l-3 -3q9 0 21 5q16 -3 29 -5t26 -3t26.5 -0.5t30.5 3.5l7 -8l12 3q5 -1 8.5 -5.5t5.5 -9.5q-2 -9 -8 -15q-60 -19 -121 -26t-124 -7q-6 0 -15 0.5t-17.5 3t-14.5 7.5t-6 14q0 12 4.5 18t9.5 11t9.5 11t4.5 18q0 8 4 43t10 83
l13 102.5l13 100.5t10.5 76.5t4.5 31.5q0 12 3.5 24t19.5 12q20 0 38 -15t23 -35l-3 -15q3 -13 3.5 -27t0.5 -27t-4 -25.5l-8 -24.5l1 -3q2 -8 2.5 -14.5t0.5 -14.5q0 -32 -6.5 -64t-7.5 -64q-1 -26 -10.5 -52.5t-9.5 -51.5l1 -1q-2 -10 -2 -20.5v-20.5z" />
    <glyph glyph-name="m" unicode="m" horiz-adv-x="472" 
d="M334 299l-16 -32l-12 -19q-6 -8 -8 -13q-14 -24 -27 -53l-6 -12q-2 -6 -5 -9l-7 -14q-2 -3 -2.5 -6t-1.5 -5l-5 -9q-8 -9 -23 -11q-10 5 -13 20q-1 1 -1 4v1q-3 2 -5 7l-3 5l-31 74l-6 11l-17 42l-5 13l-7 16q-1 -8 -1 -16.5t-2 -16.5v-12v-3q0 -9 -1 -17.5l-2 -16.5
q0 -2 -0.5 -4t-0.5 -4q-1 -4 -0.5 -7.5t-0.5 -8.5q-2 -9 -3.5 -19.5t-2.5 -20.5q-1 -5 -1 -15l-3 -32v-20q-1 -12 -1 -24.5t-2 -25.5l-2 -8l-3 -8l-6 -13q-2 -4 -4.5 -6.5l-4.5 -4.5q-5 -2 -13 -4h-2q-4 0 -10 2l-1 1q-2 2 -4 2t-3 1q-1 0 -1 -0.5t-1 -0.5q-28 3 -33 30v7
q-1 6 -1.5 12t-0.5 12v7l2 29t3 31q0 2 0.5 4.5t0.5 4.5l2 25l4 31q2 14 2.5 27t1.5 27v2q0 3 0.5 6t-0.5 6l2 17q2 15 3.5 30t2.5 30v9v13q1 3 1 11q0 2 0.5 3.5t0.5 3.5q1 13 1.5 26t2.5 26q2 12 0 23v6v15v10q-1 2 0 4.5t3 4.5q2 7 9 8q8 0 12 -1l9 -3.5t8 -3.5
q12 -9 23 -20l9 -11q4 -5 8 -12t9 -14q2 -2 3 -4l2 -4q6 -14 7 -27l4 -14l3 -7l12 -32l6 -15l10 -23l10 -24q3 -10 8 -22q1 -4 2 -6.5t3 -6.5l4 -10l4 -10l2 4t1 4l8 20t9 19l31 53l7 14l7 14l17 31l4 10l11 20q4 9 10 20.5t11 19.5q3 6 7.5 19t9.5 19q7 8 15 5
q13 -3 21 -14q0 -1 1 -1q9 -9 13 -18q4 -7 6 -14q0 -3 2 -7q0 -5 1 -8q2 -10 3 -19l2 -18v-12q-1 -19 -1.5 -39.5t-0.5 -39.5v-8l1 1q1 -11 1 -28t1 -35q0 -9 1 -14v-52q0 -5 0.5 -8t0.5 -5q-2 -1 -3.5 -2t-2.5 -5v-3v-4h2q2 -10 2 -15q1 -11 -0.5 -23t-0.5 -23l-1 2v-7v-12
l3 -38q0 -7 2 -15l4 -16l-2.5 -5t-3.5 -5q-2 -5 -5 -10t-8 -9q-6 -6 -11 -7q-4 -1 -7 0q-2 0 -4 2q-1 1 -2 1l-2 4l-2 2q-9 3 -11 10q-4 0 -11 5q-15 7 -22 26.5t-9 42.5q0 2 -0.5 3t-0.5 3l-3 49q-1 20 -0.5 40.5t1.5 38.5v15l2 32l4 24.5l4 25.5v1z" />
    <glyph glyph-name="n" unicode="n" horiz-adv-x="394" 
d="M248 162l-1 9q0 15 6 29.5t6 28.5q0 17 4 35.5t6 34.5q1 10 2.5 35.5t5.5 52.5t11 47.5t21 20.5q24 0 35 -18.5t14.5 -44t3 -53t-0.5 -44.5t-1.5 -41.5t-6.5 -39.5l2 -11q-1 -1 -2 -6t-1.5 -11.5t-1 -11.5t-0.5 -6q-7 -13 -7.5 -23.5t1.5 -24.5v1v-5q0 -15 -3 -29.5
t-3 -30.5q0 -10 -1.5 -28t-5 -36t-10.5 -32.5t-19 -17.5q-4 1 -7.5 2.5t-7.5 1.5q-13 0 -22.5 10t-16 24.5t-10.5 29.5t-6 25q-10 43 -32 82.5t-41 78.5q-8 16 -14 31t-12 32l-5 12q-3 -14 -2.5 -25.5t0.5 -25.5q0 -37 -11 -75q-6 -26 -3.5 -56.5t2.5 -56.5q0 -10 -4.5 -21
t-4.5 -22q-6 -2 -8 -9.5t-10 -7.5q-6 0 -14 6q-17 0 -26.5 7t-14.5 18.5t-6 25.5t-1 28q0 29 2 58.5t2 60.5q0 63 4.5 126.5t4.5 126.5q0 5 0.5 12t3 13.5t7 11t12.5 4.5q25 0 42 -17t26 -38q27 -65 57.5 -127.5l59.5 -127.5z" />
    <glyph glyph-name="p" unicode="p" horiz-adv-x="357" 
d="M26 69q7 20 11.5 42t9.5 43l3 14q2 24 3 48l2 48v49v6l-3 21q-2 8 -3.5 16.5t-2.5 16.5q-1 5 -1 13q-5 2 -6 5q0 1 -0.5 1.5t-0.5 1.5q-4 12 0 25q3 14 7 26.5t11 23.5t19.5 19.5t34.5 8.5q2 -1 3 -1t2 -1l8 -9q5 -8 6 -21.5t1 -22.5l39 21l17 6l14 6q10 4 19 6.5t18 4.5
q3 0 6 0.5t5 0.5q3 1 5.5 0.5t5.5 -0.5h8.5t8.5 -1l14 -4q1 -1 2 -1q5 -2 9.5 -4.5t8.5 -5.5l11 -9t9 -9l12 -19q1 -2 1 -4t2 -4q12 -26 10 -55l-3 -14q0 -4 -1 -7q-2 -6 -2 -9v-2q-2 -5 -3.5 -11t-4.5 -12q-2 -6 -5 -12l-6 -12l-15.5 -27t-16.5 -24q-7 -10 -14 -16
l-4.5 -4.5t-4.5 -2.5l-6 -8l-19 -17q-20 -16 -37 -24q-2 -1 -4.5 -2.5t-5.5 -2.5q-2 -1 -4.5 -2t-4.5 -1q-4 -2 -9.5 -3t-11.5 -3l-18 -5q-4 -3 -7 -11l-2 -26q0 -3 -0.5 -5.5t-0.5 -5.5q-1 -11 -1 -21.5t-2 -21.5v-9t-1 -9q1 -3 0.5 -5.5t-0.5 -4.5q-1 -1 -1 -3h-1
q0 -2 -0.5 -4t-0.5 -4q-1 -5 -1.5 -10t-0.5 -10q-1 -9 -1 -16v-12v-5q-1 -5 -4.5 -8t-7.5 -5l-2 -1q-2 -1 -3.5 -1.5t-3.5 -0.5q-3 1 -9 5q-1 2 -2 3t-2 3q-4 1 -7 -0.5t-5 -1.5q-2 -1 -3 -0.5t-3 0.5q-5 2 -8.5 4t-7.5 4q-2 3 -6 6.5t-7 8.5l-9 10l-8 11q-4 5 -7 10.5
t-4 12.5q0 2 0.5 3t0.5 3q1 2 1 5q0 2 0.5 3t0.5 2q0 7 -1 9q-2 5 -2 17zM149 221l27 14l12 7h2q5 3 10 7.5t10 9.5q6 5 12.5 14.5t11.5 17.5q4 5 7 11.5l6 12.5q4 8 6.5 15.5t4.5 15.5q2 6 3.5 12t3.5 12q3 15 3 27q0 23 -10 30q-1 1 -2.5 1.5t-3.5 2.5q-3 0 -5 1
q-1 0 -1.5 0.5t-1.5 0.5q-2 2 -5 2h-6q-5 0 -10 0.5t-10 -0.5q-9 2 -21 -9l-10 -13q-6 -4 -11 -7t-9 -7l-8 -6t-6 -7q-2 -5 -2 -9.5t-1 -9.5q-1 -7 -1.5 -14.5t0.5 -15.5q0 -3 0.5 -7.5t0.5 -8.5q0 -2 -2 -4q1 -6 1.5 -12.5t0.5 -11.5l2 -20q0 -10 1 -19.5t1 -19.5v-13z" />
    <glyph glyph-name="q" unicode="q" horiz-adv-x="386" 
d="M270 -2q-2 2 -4 6q-3 3 -3 6q-5 5 -5 10l-10 -8q-1 -1 -4 -4.5t-6.5 -7l-7 -7t-4.5 -3.5h-2q0 -2 -2 -4q-10 -7 -23 -8q-12 -3 -20 -2q-6 0 -11.5 1t-10.5 3q-7 0 -9 -1q-9 5 -16 10l-12 12q-10 10 -15 19q-5 2 -10.5 4.5t-10.5 5.5q-9 6 -17 14q-12 12 -20.5 28
t-14.5 34l-3 9l-4 15q-2 6 -3 12.5l-2 12.5q-2 13 -3 25.5t-1 23.5v4q0 2 1 4q0 6 0.5 12.5t0.5 13.5q1 5 1 10.5t2 11.5q0 5 0.5 8.5t1.5 8.5q2 13 5.5 25.5t7.5 24.5q4 15 10 26l8 15.5t9 15.5l4.5 6.5t5.5 6.5q6 8 12 13l10 6l3 4q2 1 4 5l1 1q1 5 3 8.5t4 7.5q4 6 7 9
l8 10q4 4 6.5 8.5l5.5 9.5h1q0 4 1 7q1 4 3.5 7.5l4.5 6.5q3 5 7 7.5t8 4.5l5 3q6 4 13 7t15 5q4 2 6 2h7h5q10 2 15 2q19 1 32.5 -1.5t27.5 -16.5v-1q3 0 4 -1h2l2 -3l1 -1l2 -2q0 -1 0.5 -1t0.5 -1q1 0 1 -1l3 -3q13 -5 21 -11q8 -7 13 -16q2 -4 2 -3q0 -2 1 -2v-1h1
q0 -2 2 -6q0 -2 0.5 -3t0.5 -3q0 -1 0.5 -1.5t0.5 -1.5q0 -2 0.5 -2.5t0.5 -2.5l4 -13.5t3 -13.5q1 -4 2 -7t1 -7v-7q0 -3 0.5 -5.5t0.5 -5.5l3 -28l2 -18t3 -17l-2 -13v-7q0 -2 -0.5 -3.5t-0.5 -3.5q0 -5 0.5 -9t0.5 -9l-2 -15q0 -7 -0.5 -13.5t-1.5 -14.5l-3 -14l-3 -14
q-2 -4 -2 -7l-4.5 -13.5l-4.5 -13.5l-3 -9l-5 -14q-2 -8 -4 -12l-3 -8l-8 -25q0 -2 0.5 -4t0.5 -4q1 -5 2.5 -8.5l3.5 -8.5l2 -7l4 -8l4 -7l3 -7q2 -6 4 -10l3 -4l-1 -1h1l7 -9l3 -5q1 -2 2 -3.5t2 -3.5l7 -13l5 -10l14 -23l12 -21l6 -12q2 -3 3.5 -6.5t3.5 -6.5
q0 -2 1 -3.5t2 -3.5q0 -2 0.5 -3t0.5 -2q1 -2 2 -4.5t1 -4.5v-1q0 -5 -6 -11l-3 -4q-3 -3 -7 -5.5t-8 -2.5q-3 0 -9 2q-18 3 -32 13q-3 2 -6 3.5t-6 4.5q-2 2 -2.5 3t-2.5 2q-4 4 -7 7.5t-6 7.5l-9 11zM239 78l-3 6q-1 1 -2 1.5t-2 2.5q-2 6 -4 9q-2 5 -5.5 9t-5.5 9
q-2 4 -4 7.5t-4 7.5q-6 11 -9 19q-2 4 -2 6v2q0 2 -0.5 3t-0.5 2l-2.5 5t-2.5 6q0 1 0.5 1t0.5 1q-1 2 -2.5 4.5t-2.5 4.5q2 5 -0.5 9.5t-2.5 9.5q0 3 1 5.5t3 5.5t10 7h4q4 2 9.5 2.5t9.5 0.5h3q10 0 22 -18q1 -2 2 -3.5t2 -3.5q1 -1 1 -2t1 -3l5 -8q3 -6 5.5 -11.5
t6.5 -9.5l4 -6q1 -2 4 -2h5v-1l3 10l7 20l3 9q1 5 2 8.5t3 8.5q1 2 0.5 3t0.5 3q0 1 0.5 2t0.5 2l2 4l2 10q3 11 5.5 22t4.5 22q2 10 3 19.5t3 19.5v11q0 4 0.5 7.5t0.5 7.5v27v5q0 4 -0.5 6.5t-1.5 6.5q0 4 -1 6l-3 15q-2 5 -3.5 11t-3.5 11l-5 10l-4 8l-4 5l-5 6
q-8 10 -19.5 15.5t-23.5 7.5q-1 1 -2 1l-3 -2h-3l-1 -1q1 0 -2 -3q-11 -1 -22 -6t-19 -13l-5 -6l-5 -7q-9 -12 -16 -29q0 -2 -0.5 -4t-0.5 -4v-2q0 -2 0.5 -2.5t0.5 -2.5v-5q1 -2 1 -7v-2q-2 0 -4 2q0 -2 -0.5 -2t-0.5 -2v1l-5 -11q-4 -6 -5 -10l-2 -6l-4 -16q-1 0 -2 1
t-3 1l-1 -1q0 -2 1 -4l-4 -14v-6q0 -1 -0.5 -1.5t-0.5 -1.5l-4 -11l-6 -24q0 -4 -1 -8.5t-2 -8.5v-4q-2 -10 -2 -18q-1 -5 -1 -15v-6.5t-1 -6.5q-1 -5 -1 -15q-2 -8 -2 -16v-16l1 -1v-7v-6.5t1 -8.5v-5q0 -2 0.5 -4.5t0.5 -4.5q2 -8 3.5 -16t4.5 -16l2 -8l6 -13l5 -12l3 -6
q2 -3 3 -5t3 -4l6 -7q7 -5 13 -5v-1l2 -2q1 0 1.5 -0.5t1.5 -0.5l4 2q3 -2 11 -2l6 2t7 3l11 9q6 7 11 13.5z" />
    <glyph glyph-name="r" unicode="r" horiz-adv-x="372" 
d="M164 192l1 3l-8 7l-15 -4q0 -23 -4 -48.5t-9.5 -48.5t-9.5 -42t-4 -29q0 -14 7 -31q0 -8 -7 -13t-15 -5q-22 0 -39 17l-13 -8q-5 1 -10 7t-9 14t-6.5 16t-2.5 13q0 10 2.5 39.5l6 68t8 80.5l8.5 79t7.5 63t5.5 31l-3 8q2 11 0.5 25t-9.5 23l-8 -3l-3 6q0 9 7 16t16 8
l12 1l1 -1q10 0 19 4.5t20 4.5q3 0 5.5 -0.5t5.5 -1.5q12 -12 22 -30q-1 -7 2 -16q12 14 26 28t30 25.5t33.5 18.5t37.5 7q19 0 37.5 -8.5t33.5 -22.5t24 -32.5t9 -37.5q0 -31 -14.5 -58.5t-36 -52t-46.5 -45.5l-47 -39q3 -2 11 -15.5t15.5 -30.5l14 -32t6.5 -19l4 -6l-1 -3
l3 -8l2 -1q0 -8 6.5 -10t0.5 -8q3 -7 9 -13q8 -9 8.5 -8.5t-1 2.5t-1.5 2.5t7 -8.5l-1 -2l9 -15l-1 -2q0 -2 1.5 -5l2.5 -5l-1 -1q9 -11 13 -20l-1 -1q0 -3 2 -2.5t1 3.5q2 -8 6.5 -14.5t4.5 -14.5q0 -5 -5.5 -13.5t-7.5 -13.5l-9 -4l-3 1q-5 -4 -10.5 -4.5t-11.5 -0.5
q-19 0 -33 14.5t-25.5 37.5t-21 50.5l-19 54t-19.5 48t-23 31.5zM159 259l5 4h2q14 12 28 20t25 25q7 10 15 27.5t15 37t12 37.5t5 30q0 22 -21 22l-16 -1l-4 -2q-17 4 -29 -6l-24 -21q0 -17 -4.5 -34.5t-9.5 -35t-9.5 -35.5t-4.5 -37l1 -9q11 -9 14 -22z" />
    <glyph glyph-name="s" unicode="s" horiz-adv-x="356" 
d="M220 126q0 25 -20 50.5t-46 51l-51.5 51.5t-36.5 54q2 0 1.5 2t-0.5 3q0 12 -9 31.5t-9 41.5q0 6 4.5 11t9.5 8q-2 3 -0.5 6.5t-1.5 5.5q7 20 23 33t36 21t42 11.5t40 3.5q15 0 26 -4l3 1q19 -5 37 -15.5t32 -25t23 -33.5t9 -40q0 -6 -3.5 -18.5t-11.5 -12.5l-5 2l-8 -5
q-9 5 -13 17.5t-6 20.5l-5 1l-6 -1q-10 10 -32.5 14t-36.5 4q-19 0 -35 -9.5t-34 -14.5q0 -27 16 -53t33 -46l-1 -2q7 -7 23.5 -19.5t33.5 -27t30 -28t13 -22.5q11 -24 21 -40.5t17 -44.5l-2 -2q0 -42 -7.5 -73.5t-26 -52.5t-50 -31.5t-78.5 -10.5q-30 0 -59 8.5t-51.5 25.5
t-36 42t-13.5 58q0 10 8.5 14t18.5 3.5t18.5 -4.5t8.5 -11v-3q2 -15 2.5 -22.5t12.5 -10.5l18 -4l7 -1q16 -5 30 -10.5t31 -5.5q16 0 29 11.5t21 28.5t12.5 35.5t4.5 32.5z" />
    <glyph glyph-name="t" unicode="t" horiz-adv-x="332" 
d="M181 376q0 -5 0.5 -9t0.5 -9h-1l2 -15v-7q0 -2 0.5 -2.5t0.5 -2.5v-14q0 -8 -4 -18q-1 -5 -1 -10v-10l-5 -55v-2l-2 -19q-2 -19 -3.5 -37t-2.5 -35l-1 -1q0 -2 -1 -5.5t-1 -5.5v-3v-22l2 -18l-4 -8t-4 -9q-1 -2 -2 -3.5t-1 -3.5v-1q1 -1 1 -2t1 -3q1 -5 1.5 -9.5
t0.5 -6.5t0.5 -2.5t0.5 -2.5t-0.5 -4t-0.5 -4q-1 -3 -2 -5.5t-2 -4.5v-1v-1h-1v-4t-2 -4l-3 -9l-6 -9l-3 -4l-3 -5q-5 -14 -17 -14h-5q-4 -2 -4 -7q-1 0 -1 0.5t-1 0.5q-6 3 -13 12q-5 5 -11 13.5t-8 15.5q-2 6 -2 8q-1 10 -1 18.5v18.5q0 4 0.5 7.5t0.5 8.5q0 8 0.5 17
t-0.5 19v5v21q0 5 0.5 9t1.5 9q1 8 3 17.5t3 18.5v7v8v10q0 8 -1 12q0 5 0.5 11t0.5 13q0 2 0.5 2.5t0.5 2.5v10q0 21 3 45l3 32l3 29q0 3 0.5 5.5t0.5 5.5l2 20l3 23l3.5 25t3.5 18q-2 0 -4.5 0.5t-5.5 0.5h-16h-16h-22q-5 0 -10.5 -0.5t-11.5 -0.5h-7h-7h-6.5t-6.5 2
q-10 1 -15 8q-4 3 -4 8t2.5 8.5t5.5 6.5l5 3l16 3q5 3 12 4l14 2l23 2q10 2 15 2l19 3q2 0 4 0.5t4 0.5l7 3v1q2 4 3.5 8t7.5 5q4 0 6 -1q1 -1 2.5 -2t2.5 -3q8 1 16.5 0t16.5 -3l11 -3l33 3q8 0 15 1t14 1q13 0 25.5 0.5t25.5 1.5h13q5 0 11 -0.5t12 -1.5h5q2 0 4 -2
q11 -2 14 -10q2 -5 4 -9.5t2 -9.5q0 -2 -0.5 -2t-0.5 -2v-1l-5 -4q-4 -6 -12.5 -9.5t-19.5 -5.5l-14 -2t-15 -1h-12q-11 -1 -21.5 -1h-19.5q-2 0 -4 0.5t-4 0.5l-1 -1q0 -1 -0.5 -2.5t-0.5 -3.5l-7 -12q0 -1 -1 -1q1 -5 1 -9v-8q-1 -8 -2.5 -16t-5.5 -17z" />
    <glyph glyph-name="u" unicode="u" horiz-adv-x="405" 
d="M48 338q0 8 4 34.5t11.5 55t18.5 51t25 22.5q12 0 16 -6t9 -17q9 0 11 -12t1.5 -27.5t-2.5 -30t-2 -19.5q0 -3 0.5 -6.5t0.5 -7.5l1 4q0 -11 2 -22t2 -22q0 -12 -5 -24t-3 -24l3 -2l-3 -8q1 -2 -0.5 -19l-3.5 -38.5t-4.5 -41t-2.5 -25.5l1 -1q0 -13 3.5 -38t11 -50.5
t20.5 -46t31 -23.5l5 1q10 -3 19.5 6.5t18.5 23t16.5 27t12.5 18.5l2 6l1 -2q5 24 13 48t13 49h-1q3 14 6 43.5t7 65.5t9.5 74t13.5 69.5t18.5 51.5t24.5 20q4 0 8.5 -5t4.5 -8q0 -7 -2.5 -19.5t0.5 -17.5l2 -30q0 -1 -1 -2l-2 -2q-1 -1 -3.5 -18l-6 -42t-7 -54.5
l-6.5 -56.5t-5.5 -47.5t-2.5 -27.5l-4 1q0 -13 -5 -31t-12.5 -37.5t-16 -37t-15.5 -29.5l-1 -1q-5 -15 -18.5 -29.5t-30.5 -26t-36 -19t-36 -7.5q-41 0 -70 20.5t-48 51.5t-27.5 68t-8.5 69v32t2 36.5t6 35t12 28.5q2 13 3.5 24t1.5 25z" />
    <glyph glyph-name="v" unicode="v" horiz-adv-x="358" 
d="M10 522q-4 9 -4 21q0 5 6.5 12t11.5 3q5 2 11 2.5t11 0.5q16 0 26.5 -13.5t21.5 -21.5q27 -50 41.5 -109t14.5 -116q0 -10 2 -21t2 -22q0 -9 1.5 -32t4 -48t6.5 -46t9 -26l31.5 81t25.5 84q5 22 14.5 44.5t20 44.5l19.5 42.5t13 39.5h1q1 5 5.5 18.5t10 28.5t12 27
t11.5 15l4 5q2 1 9 3.5t9 2.5q11 0 11.5 -9t0.5 -14l1 -1q-2 -17 -14 -35t-16 -37q-3 -2 -14 -36.5l-26.5 -85l-34 -109t-36 -108.5t-33 -83t-24.5 -33l-13 5q-18 19 -31 28.5t-21.5 20t-12.5 26.5t-4 46q-4 6 -8.5 25.5t-8 43t-6 46t-2.5 34.5q0 20 -5.5 55t-14.5 72.5
t-19.5 71.5t-19.5 53v4z" />
    <glyph glyph-name="w" unicode="w" horiz-adv-x="535" 
d="M279 215q-4 -13 -5.5 -26t-3.5 -27q-3 -18 -10.5 -35.5t-16.5 -34.5t-17 -34.5t-12 -35.5q-2 -12 -8 -23.5t-21 -11.5q-5 0 -12 4.5t-14.5 11t-13.5 13t-8 10.5q-4 3 -10 9l-3 7q-3 1 -9.5 21.5t-13 46.5t-11 51.5t-4.5 36.5q0 3 -0.5 5.5t-0.5 5.5q-5 12 -8.5 37.5
l-7 53t-8 52.5t-11.5 36q-4 23 -15 45t-13 42l-6 11l4 7q1 4 -0.5 9t-1.5 10q6 4 15 7.5t17 2.5q4 2 12 4.5t12 2.5q8 0 15.5 -4t12.5 -9l12 -10l12 -10q26 -75 38.5 -149.5t23.5 -152.5q1 -8 1.5 -19t1.5 -22.5t2.5 -21.5t4.5 -16q23 43 37 95.5t14 100.5q0 12 1.5 33.5
t6.5 42.5t15.5 36t28.5 15q15 0 25 -11t16.5 -28.5t10 -39.5t6.5 -43t5 -39.5t6 -29.5l-1 -3q4 -3 9 -23t10.5 -45l11.5 -50.5t14 -38.5q4 16 11 54.5l16.5 87l20 100t22 94t23.5 70t24 27.5q16 0 12 -14q2 -5 0.5 -16t-2.5 -16q1 -1 -2.5 -13l-7.5 -27t-8 -27.5l-5 -15.5
l-4 -24q-1 -7 -7 -38.5l-15 -76l-19 -94.5t-19.5 -93t-17 -71.5t-10.5 -30.5q0 -8 -6 -12.5t-12 -8.5q-21 0 -37 17t-28 42.5t-20 56t-14 56.5t-9.5 43.5t-6.5 18.5q-2 6 -7 19t-5 18z" />
    <glyph glyph-name="x" unicode="x" horiz-adv-x="356" 
d="M52 506l8 8l11 -5q6 0 12 2.5t12 2.5q23 0 39 -24.5t27 -57.5t17.5 -66l9.5 -49q10 6 24 23.5t29.5 40l31.5 46.5l30.5 44t26.5 33t18 13q5 0 9 -4.5t4 -9.5q0 -7 -7 -21t-16 -29t-18 -28.5l-13 -19.5q-2 -7 -6 -17t-9 -20.5t-10.5 -19.5t-9.5 -13q-2 -7 -9.5 -18.5
t-17 -24l-18.5 -23.5t-15 -17v-4q0 -12 9.5 -43t23 -66t28 -67t24.5 -45l1 -9q0 -17 -6 -30h-3q-8 -5 -16.5 -9t-17.5 -4q-15 0 -33.5 22t-34 51.5t-25.5 58.5t-10 43l-7 14q-6 -6 -20 -26l-29.5 -44l-29 -45.5t-17.5 -30.5q-2 -4 -5.5 -13.5t-7.5 -11.5l-3 -7v-4
q-3 -6 -9 -7t-12 -1q-10 0 -15 8t-5 16q0 12 7 31.5t19 42.5t26.5 47t29 45.5t28 39t22.5 26.5q-4 32 -16 67l-24.5 71t-22 71t-9.5 67z" />
    <glyph glyph-name="y" unicode="y" horiz-adv-x="313" 
d="M92 214l-23 47q0 5 -2 21l-4.5 34.5t-5 34.5l-3.5 22l2 -2v2q0 5 -4 19.5t-10 30.5t-12 29t-9 16q1 6 -0.5 12t-1.5 12q4 10 15.5 13t21.5 3q12 0 24 -12t23.5 -27.5t20 -32l13.5 -25.5q0 -17 2.5 -33.5t2.5 -33.5q0 -5 2 -25.5t5 -44.5l5.5 -44.5t4.5 -24.5q7 9 11.5 20
t7.5 22q6 7 13.5 23t14.5 34t11.5 35t4.5 26q1 2 6.5 11.5t12.5 20.5l12.5 20t7.5 9l1 1q2 6 7.5 17t12 22.5t14.5 20t15 10.5l7 -4.5t6 -6.5l-1 -9l1 -6q-9 -26 -21.5 -53.5l-25.5 -55t-23.5 -55.5t-15.5 -56l-19 -31q-4 -17 -10 -30t-14 -28q-2 -5 -8 -26t-12 -45.5
l-11 -46t-5 -26.5q0 -9 -1.5 -24t-5.5 -29.5t-11 -25.5t-19 -11l-10 -18q-8 4 -18.5 11.5t-10.5 17.5l-3 3l-1 9q0 18 4 35.5t4 35.5q0 13 3.5 28l7 30.5t5.5 30.5t-1 27q-7 3 -12 7.5t-5 12.5q0 14 3 28t4 28z" />
    <glyph glyph-name="z" unicode="z" horiz-adv-x="396" 
d="M281 402q-1 0 -1 -0.5t-1 -0.5l-23 -4q-2 -1 -5 -1q-5 0 -7 -1q-5 -1 -10.5 -2.5t-11.5 -3.5l-23 -7q-7 -2 -17 -4l-23 -7l-14 -3q-2 0 -2 -1h-3q-7 -1 -14 -1.5t-13 -2.5q-5 0 -9 -0.5t-9 -1.5q-2 0 -4.5 -0.5t-4.5 -0.5h-2q-2 0 -4.5 -0.5t-4.5 0.5q-16 0 -20 11
q-4 7 -1 15q0 1 2 5q1 1 1 2t2 2q2 2 3 2l2 4q9 7 19.5 11t22.5 8q3 2 5 3t5 2q4 2 8.5 3.5t9.5 3.5l36 8q12 3 21.5 6.5t12.5 8.5q3 -1 6.5 -1h6.5v1q9 2 17.5 5.5t17.5 6.5l9 3.5l9 3.5q3 1 6.5 1.5t6.5 2.5l11 5q10 5 19 5q6 2 11 0h4l4 -2t4 -1q5 -3 11 -4q2 -2 4 -2.5
t4 -1.5q4 -2 6 -2q6 -2 10 -4q3 -1 5 -6q1 -1 1 -5q5 -9 8 -20l1 -1q2 -15 -4 -28l-3 -8l-21 -31l-19 -27q-14 -21 -33 -47q-2 -5 -5 -8l-1 -2q-1 -2 -1.5 -2t-0.5 -2l-4 -4l-11.5 -18t-12.5 -18l-12 -17l-22 -35q-2 -4 -4 -7t-4 -7l-10 -16l-10 -15l-14 -24q-1 -1 -1 -2
q-6 -11 -12.5 -21.5t-12.5 -21.5q-2 -5 -5 -8l-6 -12l-1 -2l-1 -2l-3 -3q0 -1 -1 -2l-4 -8q-3 -5 -4 -9t-3 -7h13h7.5t8.5 1h4l29 3q8 1 16.5 1t16.5 2l40 2l46 5q19 3 39 9q7 0 13 1t11 2h3q13 -2 14 -12v-2l1 -2q0 -2 1 -4q0 -2 0.5 -3t0.5 -3t-0.5 -5t-0.5 -5
q2 -11 -4 -19t-17 -12q-16 -5 -38 -7q-8 0 -14.5 -1.5t-13.5 -2.5q-5 -1 -10 -1.5t-10 -0.5q-8 -1 -15 -1.5t-14 -0.5q-3 0 -6 -0.5t-6 -0.5h-22q-4 -1 -7.5 -1.5t-8.5 -0.5q-2 0 -3.5 -0.5t-3.5 -0.5q-4 0 -7.5 -0.5t-7.5 -0.5q-5 0 -9.5 -0.5t-9.5 -0.5h-17q-1 0 -2 -0.5
t-2 -0.5q-8 -1 -16.5 -1.5t-16.5 -2.5h-4.5t-4.5 -1h-2h-4h-6q-2 0 -3.5 -0.5t-3.5 -0.5h-8q-4 -1 -12 -5q-2 -2 -8 -4h-3h-2q-3 0 -9 2l-14 3l-15 3q-5 3 -6 6q-2 1 -2 2.5t-1 3.5q-7 2 -10 7q-1 3 -1.5 6.5t1.5 8.5q-1 7 4 18l16 29l10 16l10 16l16 24l16 24l9 15l39 54
l14 19l8 13l8 10l4 6t4 5l6 7q2 3 3.5 5t3.5 5l9 13l3 5l27 37l12 15q2 3 4 5.5t4 5.5q11 13 20 26l9 10l2 4q-2 1 1.5 2.5t1.5 3.5q1 2 3.5 4.5l4.5 4.5v2l3 5q2 2 2 4z" />
    <glyph glyph-name="underscore" unicode="_" horiz-adv-x="362" 
d="M258 1q12 3 23 5l22 4q3 3 9 3q5 -1 8.5 -6t6.5 -10q8 -14 8 -27.5t-10 -23.5q-5 -2 -9 -3t-9 -2l-12 -2t-12 -3q-6 -1 -11.5 -1h-11.5q-5 -1 -10.5 -1h-11.5q-5 0 -10 -0.5t-10 -0.5q-2 0 -3 1t-2 1q-2 0 -3 -1t-6 -2h-5.5t-9.5 1q-4 1 -14 1q-12 0 -31 -1t-39 -1
q-38 0 -69 3q-28 3 -37 11q-1 3 5.5 14t20.5 17q6 5 13.5 7.5t15.5 4.5l31 7q10 4 24 6q7 2 14.5 3t15.5 1q6 0 11.5 -0.5t11.5 -1.5q8 -1 15 -2.5l12 -2.5q2 0 2 1q2 -1 4 -1q1 1 5 1q2 0 10 -1t16 -1q8 1 12.5 3.5t10.5 2.5q2 0 3.5 -0.5t5.5 -2.5z" />
    <glyph glyph-name="greater" unicode="&#x3e;" horiz-adv-x="442" 
d="M232 281q-5 4 -11 6.5l-11 4.5q-4 2 -7.5 3.5t-7.5 3.5q-31 14 -52 33.5t-40 42.5l-5 5q-8 6 -13 13t-9 14q-9 14 -10 27t-1 21q0 3 5 7t7 3q11 -5 21 -12.5t22 -20.5l23 -23l18 -17q5 -5 9.5 -8.5l9.5 -7.5l27 -16l31 -18q25 -14 46 -29q3 -2 6 -4.5t5 -4.5
q8 -6 12.5 -12.5t3.5 -15.5q-1 -3 -2 -6.5t-3 -7.5q-15 -26 -42 -49l-50 -43l-12 -11q-4 -3 -6.5 -6t-6.5 -5q-8 -8 -17.5 -15.5t-17.5 -15.5l-44 -42l-6 -7l-19 -19t-16 -17q-6 -9 -12 -15l-9 -5q-4 -2 -7.5 0t-5.5 5q-4 8 -4 13q-3 4 -4 8.5t-1 9.5q1 4 1 7.5t2 7.5
q5 14 13.5 29.5t22.5 31.5l29 31l13 12l24 23l25 22.5t26 21.5l25 22l13 14l6.5 4.5t5.5 6.5z" />
    <glyph glyph-name="less" unicode="&#x3c;" horiz-adv-x="360" 
d="M128 212q6 -5 12.5 -7.5t13.5 -5.5q32 -13 52 -29.5t40 -36.5q9 -8 16 -16t13 -17q7 -13 9 -27q2 -6 2 -9q0 -5 -5 -8q-4 -4 -5 -4q-8 1 -17 1t-24 14l-21 21l-35 30q-5 4 -10 6.5t-10 5.5l-33 18q-24 13 -43 25l-8 7q-9 5 -13 11q-2 2 -4.5 5t-4.5 5q-3 3 -3 8
q-2 11 7 24t21.5 26t27 25.5t23.5 21.5l24 23l15 13t13 13l18 18.5t17 20.5q2 2 2 4.5t1 4.5t3.5 7.5t5.5 5.5l21 12t13 5q2 1 3.5 0.5t3.5 -0.5q1 1 4 1t4 -1q7 -2 9 -7.5t3 -10.5q5 -34 -30 -75q-8 -10 -17 -19.5t-19 -18.5l-21 -23l-26 -22q-8 -6 -16 -13t-16 -15
q-5 -5 -9.5 -9t-6.5 -8z" />
    <glyph glyph-name="space" unicode=" " horiz-adv-x="186" 
 />
    <glyph glyph-name="acute" unicode="&#xb4;" horiz-adv-x="240" 
d="M51 497q-5 0 -6 2.5t-2 6.5q0 10 11.5 29.5t25.5 41l26 41.5t15 31q3 3 7 3q8 0 17.5 -6.5t18.5 -15t15 -16.5t6 -12q0 -6 -6 -17t-16 -23.5t-22 -24t-23 -19.5q-8 -6 -19 -10t-20.5 -6.5t-17 -3.5t-8.5 -1h-2v0z" />
    <glyph glyph-name="breve" unicode="&#x2d8;" horiz-adv-x="268" 
d="M244 766q-1 2 -2 6t-2 9q-1 6 1.5 11.5t10.5 7.5q8 -20 16 -32.5t10 -28.5v-8t-1 -9q-2 -9 -9 -20t-17.5 -22.5t-22.5 -22t-23 -16.5q-18 -11 -36.5 -16t-35.5 -5t-33 7.5t-29 20.5t-22 29t-10 34q-1 5 -0.5 9t1.5 9q1 7 6.5 19t14.5 23.5t20.5 20t23.5 8.5q3 0 7.5 -1
t6.5 -3q-2 -6 -9.5 -14t-16 -18.5t-15 -23.5t-4.5 -29q2 -19 20 -27.5t38 -8.5t40.5 7.5t37 20t26 28t8.5 31.5v4z" />
    <glyph glyph-name="undercommaaccent" horiz-adv-x="220" 
d="M31 586q-3 4 -7 7.5l-8 7t-7.5 8t-3.5 9.5q0 14 3.5 22.5t4.5 14.5q0 1 1 8t4.5 13.5t8.5 12.5t16 6q13 0 23 -3.5t11 -4.5q7 -9 12 -16.5t5 -17.5q0 -7 -2 -15q-7 -17 -14 -27.5t-14.5 -16t-15 -7t-12.5 -1.5h-5zM121 634q6 13 9.5 20t6.5 11t6 6.5t6 7.5q4 6 8.5 8
t8.5 2q6 0 11 -2t9 -4.5t6.5 -4.5t3.5 -2q5 -4 7 -9.5t3.5 -11t2.5 -11t1 -9.5q0 -11 -8 -20t-17.5 -15t-20 -9.5t-15.5 -3.5q-26 0 -28 47z" />
    <glyph glyph-name="dblgrave" unicode="&#xf6d6;" horiz-adv-x="0" 
 />
    <glyph glyph-name="macron" unicode="&#xaf;" horiz-adv-x="309" 
d="M269 706q12 3 23 5l22 4q3 3 9 3q5 -1 8.5 -6t6.5 -10q8 -14 8 -27.5t-10 -23.5q-5 -2 -9 -3t-9 -2l-12 -2t-12 -3q-6 -1 -11.5 -1h-11.5q-5 -1 -10.5 -1h-11.5q-5 0 -10 -0.5t-10 -0.5q-2 0 -3 1t-2 1q-2 0 -3 -1t-6 -2h-5.5t-9.5 1q-4 1 -14 1q-12 0 -31 -1t-39 -1
q-38 0 -69 3q-28 3 -37 11q-1 3 5.5 14t20.5 17q6 5 13.5 7.5t15.5 4.5l31 7q10 4 24 6q7 2 14.5 3t15.5 1q6 0 11.5 -0.5t11.5 -1.5q8 -1 15 -2.5l12 -2.5q2 0 2 1q2 -1 4 -1q1 1 5 1q2 0 10 -1t16 -1q8 1 12.5 3.5t10.5 2.5q2 0 3.5 -0.5t5.5 -2.5z" />
    <glyph glyph-name="ogonek" unicode="&#x2db;" horiz-adv-x="296" 
d="M216 111q13 4 14 -1t-5 -16.5t-17 -28.5t-21 -35t-17 -36.5t-5 -34.5q1 -11 5.5 -23.5t12.5 -23t20 -18t28 -7.5t28.5 8.5t22.5 19t17.5 20t12.5 11.5q6 -4 6 -16q1 -13 -2 -28t-11.5 -27.5t-22.5 -22t-35 -11.5l-8 -2t-8 -1q-20 0 -38.5 8.5t-34 22t-25.5 30.5t-11 34
q-2 18 3 43.5t14 45.5q5 13 14.5 28t20.5 27.5t22 21.5t20 12z" />
    <glyph glyph-name="ring" unicode="&#x2da;" horiz-adv-x="253" 
d="M173 807q-10 -6 -18.5 -9.5t-17.5 -3.5q-15 0 -26.5 7t-20 17.5t-13.5 22.5t-6 22q-1 16 5 31t16 26.5t22 18t22 6.5q7 -2 10.5 -8t5.5 -11q1 -9 -1 -8t-1 -4q-7 0 -15 -7t-14.5 -18t-10.5 -24t-3 -25q1 -13 8 -18.5t12 -5.5q12 0 21.5 9t16 22t10 27.5t2.5 25.5
q-2 12 -10.5 16t-9.5 7q0 5 5 7t7 2q6 0 10 -3.5t7 -8.5l7 -3q6 -3 9.5 -9.5t4.5 -12.5v-2q1 -2 1 -4.5t1 -5.5v-24q0 -2 1 -2.5t1 -2.5q-3 -6 -6.5 -14.5t-8 -15.5t-10.5 -12t-13 -5z" />
    <glyph glyph-name="tilde" unicode="&#x2dc;" horiz-adv-x="296" 
d="M319 585q-5 -2 -7.5 -2.5t-6.5 -1.5q-17 -4 -36.5 -11.5t-39.5 -9.5q-10 -1 -16 1.5t-14 4.5q-10 -1 -18 2q-10 5 -13 17q-17 -7 -28 -10t-24 -4q-26 -2 -38 14q0 8 3.5 11t9.5 10q4 3 7.5 6t6.5 5q4 2 6.5 2t7.5 1q16 4 35 12t38 10q20 3 39.5 -1.5t29.5 -22.5
q21 5 40.5 9t36.5 2q5 -10 4 -17q0 -13 -11 -18q-3 -3 -6.5 -5.5t-5.5 -3.5z" />
    <glyph glyph-name="dotaccent" unicode="&#x2d9;" horiz-adv-x="220" 
d="M146 659q-29 5 -45.5 20t-18.5 32q-2 27 12 38.5t37 11.5t43 -9.5t25 -35.5q1 -14 -3.5 -25t-11.5 -18.5t-15 -11.5t-13 -4q-4 0 -10 2z" />
    <glyph glyph-name="hungarumlaut" unicode="&#x2dd;" horiz-adv-x="481" 
d="M249 716q-6 4 -8 8q-8 13 -7.5 28.5t-2.5 37.5l8 28l3 8t6 17t6 16t4 6l5.5 9t4.5 6q5 3 15.5 4.5t21 2t18.5 -0.5t8 -4q12 -4 23 -11t16 -15q7 -11 0 -22t-15 -28v-4v-2q-2 -1 -6 0q-10 -5 -21.5 -10t-19.5 -10q-6 -3 -12 -12.5l-12.5 -19.5l-12.5 -19.5t-12 -12.5
q-7 -3 -10 0zM105 734q-5 2 -8 7q-8 14 -7.5 29t-2.5 37l8 28l3 8t6 17t6 16.5t4 6.5q4 10 10 14q5 3 15.5 4.5t21 2t18.5 -0.5t8 -4q12 -4 23 -11t16 -15q7 -11 0 -22t-15 -28q1 -4 -1 -6h-6l-20.5 -9t-19.5 -10q-6 -3 -12.5 -12.5t-12.5 -20t-12 -20t-12 -12.5t-10 1z" />
    <glyph glyph-name="grave" unicode="`" horiz-adv-x="178" 
d="M14 577q1 4 3.5 7.5t7.5 3.5q18 0 40 -11t42.5 -27.5t36 -36.5t19.5 -37q-4 -11 -10 -18t-18 -7q-16 0 -36.5 14t-38.5 33.5t-31 41.5t-15 37z" />
    <glyph glyph-name="dieresis" unicode="&#xa8;" horiz-adv-x="0" 
d="M79 681q-30 3 -48 25l-2 4q-1 12 0 26q4 31 20.5 46.5t33.5 15.5q25 0 37 -15.5t7 -48.5v-8q-4 -22 -21 -33.5t-27 -11.5zM215 687q-11 7 -19.5 21.5t-5.5 36.5q2 21 9.5 36.5t33.5 15.5q10 0 20.5 -3t18.5 -9.5t12.5 -15.5t3.5 -21l-9 -21q-3 -14 -9 -22.5t-13 -13
t-14.5 -6t-13.5 -1.5q-7 0 -14 3z" />
    <glyph glyph-name="caron" unicode="&#x2c7;" horiz-adv-x="268" 
d="M58 647q-12 23 -29 48t-36 42q-6 8 -14.5 13.5t-11.5 11.5q0 6 18 8h2l11 1q22 -3 44 -19t49 -53q25 22 46 43t35 21h5q2 1 8 1q8 0 21 -6t15 -16l-8 -8t-20.5 -19l-27.5 -24.5l-28 -25.5q-11 -8 -20.5 -19.5t-24.5 -11.5h-3q-3 -1 -10 -1q-5 0 -12 4t-9 10z" />
    <glyph glyph-name="cedilla" unicode="&#xb8;" horiz-adv-x="296" 
d="M132 -61q-5 -8 -3.5 -14.5t-2.5 -14.5q-2 -8 -4.5 -16t-1.5 -16v-3l3 -1q-5 -5 -9 -11t-4 -11q0 5 5 7l36 39q5 7 17.5 14.5t18.5 12.5l9 7t10 7q7 -2 9 -9t3 -11q1 -16 1.5 -31t-0.5 -32v-3q-5 -16 -9 -31t-11 -30q-11 -33 -20.5 -42.5t-15.5 -5t-7 17.5t7 26q0 20 1 40
t-1 38q-1 5 -2 11t-6 4q-6 -9 -14.5 -19l-17 -19.5l-15 -16.5t-9.5 -9q-12 -17 -21 -18t-13.5 6t-4.5 18.5t7 20.5q6 28 10 56t9 54q-1 9 2 15.5t2 13.5q0 5 -1 8q2 5 2.5 11t2.5 11q24 14 37 14q10 0 12 -12q1 -9 -2.5 -21t-2.5 -18q0 -4 -3.5 -14.5t-3.5 -12.5q0 1 1 1
v-11z" />
    <glyph glyph-name="circumflex" unicode="&#x2c6;" horiz-adv-x="268" 
d="M139 757q12 -23 29 -48t37 -42q6 -8 14.5 -13.5t10.5 -11.5q1 -6 -17 -8h-3l-10 -1q-23 3 -45 19t-49 53q-25 -22 -46 -43t-35 -21h-5q-2 -1 -7 -1q-8 0 -21.5 6t-14.5 16l8 8t20.5 19l27 24.5l27.5 25.5q11 8 20.5 19.5t25.5 11.5h3q3 1 9 1q5 0 12 -4t9 -10z" />
    <glyph glyph-name="commaaccent" unicode="&#xf6c3;" horiz-adv-x="282" 
d="M87 521q15 37 27.5 72.5t22.5 72.5q3 14 5 28t0 29q-1 5 3 9.5t7 2.5q16 -4 30 -11.5t26 -21.5q10 -14 13 -25.5t-2 -27.5q-8 -23 -19 -44t-25 -38q-14 -16 -28.5 -30l-28.5 -28q-8 -7 -15 -2.5t-16 14.5z" />
    <glyph glyph-name="comma" unicode="," horiz-adv-x="241" 
d="M-5 -102q4 18 15 42t14 42q2 12 2.5 25t1.5 25q-1 1 -1 3v1q1 0 2 1q9 23 12 45q2 11 11 9q18 -2 36 -15q5 -2 11 -7.5t11 -13.5q6 -10 10 -18.5t5 -16.5q0 -6 -3 -13q-1 -4 -2.5 -7t-2.5 -7q-1 -3 -4.5 -9.5t-8 -13.5l-8.5 -13.5t-6 -9.5q-5 -8 -10 -13l-11 -13
q-13 -8 -23 -16.5t-21 -11.5q-3 -2 -6 -3t-6 -3q-5 -3 -9 0.5t-9 10.5z" />
    <glyph glyph-name="period" unicode="." horiz-adv-x="220" 
d="M75 -14l-19.5 9.5t-16.5 12.5l-9 11q-5 10 -4 18q2 5 4 13v6.5t1 5.5q2 9 4.5 16.5t6.5 13.5q5 11 14 14t20 3q13 0 21 -2q13 -3 22 -11t15.5 -17.5t7.5 -23.5q0 -4 -0.5 -7.5t-1.5 -8.5q-8 -29 -24 -41t-27 -13q-12 -1 -14 1z" />
    <glyph glyph-name="AE" unicode="&#xc6;" horiz-adv-x="542" 
d="M249 161l-3 -1q-29 -3 -63.5 -12.5t-63.5 -16.5l-24 -57q-8 -8 -19 -23t-11 -26q0 -5 -7 -22t-16 -35t-19 -32.5t-16 -14.5q-12 4 -12 20q0 11 1.5 21t1.5 21q0 15 -8 24l1 7q7 14 16.5 23t16.5 20q10 17 16 35.5t15 35.5l-11 -1q-5 5 -6.5 12t-1.5 12q0 4 1 7.5t5 5.5
h13q17 2 28 26.5t18.5 58t13.5 68.5t14 58q13 40 34 75.5t44 70.5q1 5 5.5 9.5t9.5 6.5l6 -1l4 2l39 -7q22 -8 31 -26t12 -40q10 0 14 -4v-8q1 -1 5 -1q11 0 36.5 4t52.5 9t47.5 9.5t22.5 5.5l7 -2q2 0 3 0.5t3 0.5q13 0 13 -16q0 -9 -6 -14.5t-15 -5.5q-4 0 -6 1l-7 -8
q-8 -5 -16 -6t-18 -3q-11 -2 -29 -5t-36 -6.5t-32 -8t-15 -8.5l1 -4q-3 -8 -3 -19q0 -12 2.5 -27.5t5.5 -30l5.5 -27t2.5 -19.5q0 -8 -2.5 -15.5t-4.5 -15.5q4 0 18.5 3.5t31 8l30 8.5t15.5 5l23 4h2q8 0 12 -6t7 -11q-2 -14 -12 -22t-24 -13t-30.5 -7.5t-31.5 -4.5l-1 -2
l-7 2l-4 -6l-23 -2l-2 -10l1 -9l-3 -6l7 -18l-5 -7l2 -8q2 -14 3.5 -31.5t4 -36.5l5 -38t5.5 -34h11v1q17 4 37 13t40.5 17t39 14.5t33.5 6.5q11 0 15 -9t4 -21q0 -11 -7 -21.5t-17.5 -18.5t-23 -12.5t-22.5 -4.5h-4q-21 -8 -45 -12.5t-48 -8.5q0 -1 0.5 -2.5t0.5 -3.5
q0 -5 -3 -9t-5 -8l-6 -6q-8 -1 -12.5 -5t-11.5 -4q-9 0 -18 4.5t-17 11.5q-2 0 -2.5 -0.5t-2.5 -0.5q-9 0 -16 6t-12 12l1 3l-5 9q-1 1 -1 4q0 2 1 4q-14 35 -21 69.5t-7 71.5q0 15 1 30.5t3 30.5zM241 213q-7 31 -7 66q0 16 0.5 31.5t0.5 31.5q0 26 -4.5 47t-12.5 43
q-9 -27 -22.5 -59.5l-26.5 -66.5t-23.5 -67t-11.5 -60q24 2 55 10.5t52 19.5v4z" />
    <glyph glyph-name="AEacute" unicode="&#x1fc;" horiz-adv-x="570" 
d="M249 161l-3 -1q-29 -3 -63.5 -12.5t-63.5 -16.5l-24 -57q-8 -8 -19 -23t-11 -26q0 -5 -7 -22t-16 -35t-19 -32.5t-16 -14.5q-12 4 -12 20q0 11 1.5 21t1.5 21q0 15 -8 24l1 7q7 14 16.5 23t16.5 20q10 17 16 35.5t15 35.5l-11 -1q-5 5 -6.5 12t-1.5 12q0 4 1 7.5t5 5.5
h13q17 2 28 26.5t18.5 58t13.5 68.5t14 58q13 40 34 75.5t44 70.5q1 5 5.5 9.5t9.5 6.5l6 -1l4 2l39 -7q22 -8 31 -26t12 -40q10 0 14 -4v-8q1 -1 5 -1q11 0 36.5 4t52.5 9t47.5 9.5t22.5 5.5l7 -2q2 0 3 0.5t3 0.5q13 0 13 -16q0 -9 -6 -14.5t-15 -5.5q-4 0 -6 1l-7 -8
q-8 -5 -16 -6t-18 -3q-11 -2 -29 -5t-36 -6.5t-32 -8t-15 -8.5l1 -4q-3 -8 -3 -19q0 -12 2.5 -27.5t5.5 -30l5.5 -27t2.5 -19.5q0 -8 -2.5 -15.5t-4.5 -15.5q4 0 18.5 3.5t31 8l30 8.5t15.5 5l23 4h2q8 0 12 -6t7 -11q-2 -14 -12 -22t-24 -13t-30.5 -7.5t-31.5 -4.5l-1 -2
l-7 2l-4 -6l-23 -2l-2 -10l1 -9l-3 -6l7 -18l-5 -7l2 -8q2 -14 3.5 -31.5t4 -36.5l5 -38t5.5 -34h11v1q17 4 37 13t40.5 17t39 14.5t33.5 6.5q11 0 15 -9t4 -21q0 -11 -7 -21.5t-17.5 -18.5t-23 -12.5t-22.5 -4.5h-4q-21 -8 -45 -12.5t-48 -8.5q0 -1 0.5 -2.5t0.5 -3.5
q0 -5 -3 -9t-5 -8l-6 -6q-8 -1 -12.5 -5t-11.5 -4q-9 0 -18 4.5t-17 11.5q-2 0 -2.5 -0.5t-2.5 -0.5q-9 0 -16 6t-12 12l1 3l-5 9q-1 1 -1 4q0 2 1 4q-14 35 -21 69.5t-7 71.5q0 15 1 30.5t3 30.5zM241 213q-7 31 -7 66q0 16 0.5 31.5t0.5 31.5q0 26 -4.5 47t-12.5 43
q-9 -27 -22.5 -59.5l-26.5 -66.5t-23.5 -67t-11.5 -60q24 2 55 10.5t52 19.5v4zM245 556q-5 0 -6 2.5t-2 6.5q0 10 11.5 29.5t25.5 41l26 41.5t15 31q3 3 7 3q8 0 17.5 -6.5t18.5 -15t15 -16.5t6 -12q0 -6 -6 -17t-16 -23.5t-22 -24t-23 -19.5q-8 -6 -19 -10t-20.5 -6.5
t-17 -3.5t-8.5 -1h-2v0z" />
    <glyph glyph-name="Eacute" unicode="&#xc9;" horiz-adv-x="340" 
d="M50 263q0 2 -3.5 4t-7 5t-7 7t-3.5 11q0 10 9 12.5t15 7.5q-1 3 -1 6.5v6.5l24 197l4 11l8 6q5 0 10.5 -1t9.5 -5l-5 2l10 2q4 -1 12 -1q6 0 15 -1t13 -6l-1 -8q3 -2 16 -2.5t31 0t38.5 1t38 1t29.5 1.5t13 1l7 -3q17 0 17 -14q0 -13 -9.5 -18t-20.5 0l-8 -7
q-9 -5 -17 -4.5t-18 0.5q-17 0 -35 -2t-36 -2h-9.5t-14 -1t-13.5 -2t-7 -4v-4q-5 -8 -6.5 -23.5t-1 -33.5t1.5 -34.5t1 -26.5q0 -9 -5 -17.5t-7 -17.5q4 0 19 1.5t32 3t30.5 3t15.5 2.5q6 0 12 0.5t12 0.5q8 0 12 -7t6 -13q-2 -7 -6 -15.5t-12 -10.5q-3 1 -6.5 1h-6.5
q-17 -8 -36 -7.5t-37 0.5l-1 -1l-7 3l-5 -6l-23 2l-4 -10v-9l-4 -5l4 -19l-6 -6v-8h1q0 -14 -1 -33t-2.5 -39.5t-4 -39.5t-5.5 -33h3l9 4l8 -2l1 1q18 2 37.5 6.5l39.5 9.5t39 8.5t35 3.5q14 0 17 -8t3 -19q0 -13 -9 -24t-21.5 -18t-27 -9.5t-25.5 0.5q-30 -7 -64.5 -6.5
t-65.5 -1.5l-12 -9q-8 0 -11 7l-1 -2q-2 -1 -9 -3.5t-9 -2.5q-10 0 -16.5 7t-11.5 15l2 3l-4 10q0 11 6.5 19t7.5 18q4 48 9.5 97t5.5 97zM178 572q-5 0 -6 2.5t-2 6.5q0 10 11.5 29.5t25.5 41l26 41.5t15 31q3 3 7 3q8 0 17.5 -6.5t18.5 -15t15 -16.5t6 -12q0 -6 -6 -17
t-16 -23.5t-22 -24t-23 -19.5q-8 -6 -19 -10t-20.5 -6.5t-17 -3.5t-8.5 -1h-2v0z" />
    <glyph glyph-name="Ebreve" unicode="&#x114;" horiz-adv-x="340" 
d="M50 263q0 2 -3.5 4t-7 5t-7 7t-3.5 11q0 10 9 12.5t15 7.5q-1 3 -1 6.5v6.5l24 197l4 11l8 6q5 0 10.5 -1t9.5 -5l-5 2l10 2q4 -1 12 -1q6 0 15 -1t13 -6l-1 -8q3 -2 16 -2.5t31 0t38.5 1t38 1t29.5 1.5t13 1l7 -3q17 0 17 -14q0 -13 -9.5 -18t-20.5 0l-8 -7
q-9 -5 -17 -4.5t-18 0.5q-17 0 -35 -2t-36 -2h-9.5t-14 -1t-13.5 -2t-7 -4v-4q-5 -8 -6.5 -23.5t-1 -33.5t1.5 -34.5t1 -26.5q0 -9 -5 -17.5t-7 -17.5q4 0 19 1.5t32 3t30.5 3t15.5 2.5q6 0 12 0.5t12 0.5q8 0 12 -7t6 -13q-2 -7 -6 -15.5t-12 -10.5q-3 1 -6.5 1h-6.5
q-17 -8 -36 -7.5t-37 0.5l-1 -1l-7 3l-5 -6l-23 2l-4 -10v-9l-4 -5l4 -19l-6 -6v-8h1q0 -14 -1 -33t-2.5 -39.5t-4 -39.5t-5.5 -33h3l9 4l8 -2l1 1q18 2 37.5 6.5l39.5 9.5t39 8.5t35 3.5q14 0 17 -8t3 -19q0 -13 -9 -24t-21.5 -18t-27 -9.5t-25.5 0.5q-30 -7 -64.5 -6.5
t-65.5 -1.5l-12 -9q-8 0 -11 7l-1 -2q-2 -1 -9 -3.5t-9 -2.5q-10 0 -16.5 7t-11.5 15l2 3l-4 10q0 11 6.5 19t7.5 18q4 48 9.5 97t5.5 97zM302 725q-1 2 -2 6t-2 9q-1 6 1.5 11.5t10.5 7.5q8 -20 16 -32.5t10 -28.5v-8t-1 -9q-2 -9 -9 -20t-17.5 -22.5t-22.5 -22t-23 -16.5
q-18 -11 -36.5 -16t-35.5 -5t-33 7.5t-29 20.5t-22 29t-10 34q-1 5 -0.5 9t1.5 9q1 7 6.5 19t14.5 23.5t20.5 20t23.5 8.5q3 0 7.5 -1t6.5 -3q-2 -6 -9.5 -14t-16 -18.5t-15 -23.5t-4.5 -29q2 -19 20 -27.5t38 -8.5t40.5 7.5t37 20t26 28t8.5 31.5v4z" />
    <glyph glyph-name="Ecaron" unicode="&#x11a;" horiz-adv-x="340" 
d="M50 263q0 2 -3.5 4t-7 5t-7 7t-3.5 11q0 10 9 12.5t15 7.5q-1 3 -1 6.5v6.5l24 197l4 11l8 6q5 0 10.5 -1t9.5 -5l-5 2l10 2q4 -1 12 -1q6 0 15 -1t13 -6l-1 -8q3 -2 16 -2.5t31 0t38.5 1t38 1t29.5 1.5t13 1l7 -3q17 0 17 -14q0 -13 -9.5 -18t-20.5 0l-8 -7
q-9 -5 -17 -4.5t-18 0.5q-17 0 -35 -2t-36 -2h-9.5t-14 -1t-13.5 -2t-7 -4v-4q-5 -8 -6.5 -23.5t-1 -33.5t1.5 -34.5t1 -26.5q0 -9 -5 -17.5t-7 -17.5q4 0 19 1.5t32 3t30.5 3t15.5 2.5q6 0 12 0.5t12 0.5q8 0 12 -7t6 -13q-2 -7 -6 -15.5t-12 -10.5q-3 1 -6.5 1h-6.5
q-17 -8 -36 -7.5t-37 0.5l-1 -1l-7 3l-5 -6l-23 2l-4 -10v-9l-4 -5l4 -19l-6 -6v-8h1q0 -14 -1 -33t-2.5 -39.5t-4 -39.5t-5.5 -33h3l9 4l8 -2l1 1q18 2 37.5 6.5l39.5 9.5t39 8.5t35 3.5q14 0 17 -8t3 -19q0 -13 -9 -24t-21.5 -18t-27 -9.5t-25.5 0.5q-30 -7 -64.5 -6.5
t-65.5 -1.5l-12 -9q-8 0 -11 7l-1 -2q-2 -1 -9 -3.5t-9 -2.5q-10 0 -16.5 7t-11.5 15l2 3l-4 10q0 11 6.5 19t7.5 18q4 48 9.5 97t5.5 97zM199 582q-12 23 -29 48t-36 42q-6 8 -14.5 13.5t-11.5 11.5q0 6 18 8h2l11 1q22 -3 44 -19t49 -53q25 22 46 43t35 21h5q2 1 8 1
q8 0 21 -6t15 -16l-8 -8t-20.5 -19l-27.5 -24.5l-28 -25.5q-11 -8 -20.5 -19.5t-24.5 -11.5h-3q-3 -1 -10 -1q-5 0 -12 4t-9 10z" />
    <glyph glyph-name="Ecircumflex" unicode="&#xca;" horiz-adv-x="340" 
d="M50 263q0 2 -3.5 4t-7 5t-7 7t-3.5 11q0 10 9 12.5t15 7.5q-1 3 -1 6.5v6.5l24 197l4 11l8 6q5 0 10.5 -1t9.5 -5l-5 2l10 2q4 -1 12 -1q6 0 15 -1t13 -6l-1 -8q3 -2 16 -2.5t31 0t38.5 1t38 1t29.5 1.5t13 1l7 -3q17 0 17 -14q0 -13 -9.5 -18t-20.5 0l-8 -7
q-9 -5 -17 -4.5t-18 0.5q-17 0 -35 -2t-36 -2h-9.5t-14 -1t-13.5 -2t-7 -4v-4q-5 -8 -6.5 -23.5t-1 -33.5t1.5 -34.5t1 -26.5q0 -9 -5 -17.5t-7 -17.5q4 0 19 1.5t32 3t30.5 3t15.5 2.5q6 0 12 0.5t12 0.5q8 0 12 -7t6 -13q-2 -7 -6 -15.5t-12 -10.5q-3 1 -6.5 1h-6.5
q-17 -8 -36 -7.5t-37 0.5l-1 -1l-7 3l-5 -6l-23 2l-4 -10v-9l-4 -5l4 -19l-6 -6v-8h1q0 -14 -1 -33t-2.5 -39.5t-4 -39.5t-5.5 -33h3l9 4l8 -2l1 1q18 2 37.5 6.5l39.5 9.5t39 8.5t35 3.5q14 0 17 -8t3 -19q0 -13 -9 -24t-21.5 -18t-27 -9.5t-25.5 0.5q-30 -7 -64.5 -6.5
t-65.5 -1.5l-12 -9q-8 0 -11 7l-1 -2q-2 -1 -9 -3.5t-9 -2.5q-10 0 -16.5 7t-11.5 15l2 3l-4 10q0 11 6.5 19t7.5 18q4 48 9.5 97t5.5 97zM279 685q12 -23 29 -48t37 -42q6 -8 14.5 -13.5t10.5 -11.5q1 -6 -17 -8h-3l-10 -1q-23 3 -45 19t-49 53q-25 -22 -46 -43t-35 -21h-5
q-2 -1 -7 -1q-8 0 -21.5 6t-14.5 16l8 8t20.5 19l27 24.5l27.5 25.5q11 8 20.5 19.5t25.5 11.5h3q3 1 9 1q5 0 12 -4t9 -10z" />
    <glyph glyph-name="Edieresis" unicode="&#xcb;" horiz-adv-x="340" 
d="M50 263q0 2 -3.5 4t-7 5t-7 7t-3.5 11q0 10 9 12.5t15 7.5q-1 3 -1 6.5v6.5l24 197l4 11l8 6q5 0 10.5 -1t9.5 -5l-5 2l10 2q4 -1 12 -1q6 0 15 -1t13 -6l-1 -8q3 -2 16 -2.5t31 0t38.5 1t38 1t29.5 1.5t13 1l7 -3q17 0 17 -14q0 -13 -9.5 -18t-20.5 0l-8 -7
q-9 -5 -17 -4.5t-18 0.5q-17 0 -35 -2t-36 -2h-9.5t-14 -1t-13.5 -2t-7 -4v-4q-5 -8 -6.5 -23.5t-1 -33.5t1.5 -34.5t1 -26.5q0 -9 -5 -17.5t-7 -17.5q4 0 19 1.5t32 3t30.5 3t15.5 2.5q6 0 12 0.5t12 0.5q8 0 12 -7t6 -13q-2 -7 -6 -15.5t-12 -10.5q-3 1 -6.5 1h-6.5
q-17 -8 -36 -7.5t-37 0.5l-1 -1l-7 3l-5 -6l-23 2l-4 -10v-9l-4 -5l4 -19l-6 -6v-8h1q0 -14 -1 -33t-2.5 -39.5t-4 -39.5t-5.5 -33h3l9 4l8 -2l1 1q18 2 37.5 6.5l39.5 9.5t39 8.5t35 3.5q14 0 17 -8t3 -19q0 -13 -9 -24t-21.5 -18t-27 -9.5t-25.5 0.5q-30 -7 -64.5 -6.5
t-65.5 -1.5l-12 -9q-8 0 -11 7l-1 -2q-2 -1 -9 -3.5t-9 -2.5q-10 0 -16.5 7t-11.5 15l2 3l-4 10q0 11 6.5 19t7.5 18q4 48 9.5 97t5.5 97zM127 600q-30 3 -48 25l-2 4q-1 12 0 26q4 31 20.5 46.5t33.5 15.5q25 0 37 -15.5t7 -48.5v-8q-4 -22 -21 -33.5t-27 -11.5zM263 606
q-11 7 -19.5 21.5t-5.5 36.5q2 21 9.5 36.5t33.5 15.5q10 0 20.5 -3t18.5 -9.5t12.5 -15.5t3.5 -21l-9 -21q-3 -14 -9 -22.5t-13 -13t-14.5 -6t-13.5 -1.5q-7 0 -14 3z" />
    <glyph glyph-name="Edotaccent" unicode="&#x116;" horiz-adv-x="340" 
d="M50 263q0 2 -3.5 4t-7 5t-7 7t-3.5 11q0 10 9 12.5t15 7.5q-1 3 -1 6.5v6.5l24 197l4 11l8 6q5 0 10.5 -1t9.5 -5l-5 2l10 2q4 -1 12 -1q6 0 15 -1t13 -6l-1 -8q3 -2 16 -2.5t31 0t38.5 1t38 1t29.5 1.5t13 1l7 -3q17 0 17 -14q0 -13 -9.5 -18t-20.5 0l-8 -7
q-9 -5 -17 -4.5t-18 0.5q-17 0 -35 -2t-36 -2h-9.5t-14 -1t-13.5 -2t-7 -4v-4q-5 -8 -6.5 -23.5t-1 -33.5t1.5 -34.5t1 -26.5q0 -9 -5 -17.5t-7 -17.5q4 0 19 1.5t32 3t30.5 3t15.5 2.5q6 0 12 0.5t12 0.5q8 0 12 -7t6 -13q-2 -7 -6 -15.5t-12 -10.5q-3 1 -6.5 1h-6.5
q-17 -8 -36 -7.5t-37 0.5l-1 -1l-7 3l-5 -6l-23 2l-4 -10v-9l-4 -5l4 -19l-6 -6v-8h1q0 -14 -1 -33t-2.5 -39.5t-4 -39.5t-5.5 -33h3l9 4l8 -2l1 1q18 2 37.5 6.5l39.5 9.5t39 8.5t35 3.5q14 0 17 -8t3 -19q0 -13 -9 -24t-21.5 -18t-27 -9.5t-25.5 0.5q-30 -7 -64.5 -6.5
t-65.5 -1.5l-12 -9q-8 0 -11 7l-1 -2q-2 -1 -9 -3.5t-9 -2.5q-10 0 -16.5 7t-11.5 15l2 3l-4 10q0 11 6.5 19t7.5 18q4 48 9.5 97t5.5 97zM234 558q-29 5 -45.5 20t-18.5 32q-2 27 12 38.5t37 11.5t43 -9.5t25 -35.5q1 -14 -3.5 -25t-11.5 -18.5t-15 -11.5t-13 -4
q-4 0 -10 2z" />
    <glyph glyph-name="Egrave" unicode="&#xc8;" horiz-adv-x="340" 
d="M50 263q0 2 -3.5 4t-7 5t-7 7t-3.5 11q0 10 9 12.5t15 7.5q-1 3 -1 6.5v6.5l24 197l4 11l8 6q5 0 10.5 -1t9.5 -5l-5 2l10 2q4 -1 12 -1q6 0 15 -1t13 -6l-1 -8q3 -2 16 -2.5t31 0t38.5 1t38 1t29.5 1.5t13 1l7 -3q17 0 17 -14q0 -13 -9.5 -18t-20.5 0l-8 -7
q-9 -5 -17 -4.5t-18 0.5q-17 0 -35 -2t-36 -2h-9.5t-14 -1t-13.5 -2t-7 -4v-4q-5 -8 -6.5 -23.5t-1 -33.5t1.5 -34.5t1 -26.5q0 -9 -5 -17.5t-7 -17.5q4 0 19 1.5t32 3t30.5 3t15.5 2.5q6 0 12 0.5t12 0.5q8 0 12 -7t6 -13q-2 -7 -6 -15.5t-12 -10.5q-3 1 -6.5 1h-6.5
q-17 -8 -36 -7.5t-37 0.5l-1 -1l-7 3l-5 -6l-23 2l-4 -10v-9l-4 -5l4 -19l-6 -6v-8h1q0 -14 -1 -33t-2.5 -39.5t-4 -39.5t-5.5 -33h3l9 4l8 -2l1 1q18 2 37.5 6.5l39.5 9.5t39 8.5t35 3.5q14 0 17 -8t3 -19q0 -13 -9 -24t-21.5 -18t-27 -9.5t-25.5 0.5q-30 -7 -64.5 -6.5
t-65.5 -1.5l-12 -9q-8 0 -11 7l-1 -2q-2 -1 -9 -3.5t-9 -2.5q-10 0 -16.5 7t-11.5 15l2 3l-4 10q0 11 6.5 19t7.5 18q4 48 9.5 97t5.5 97zM96 685q1 4 3.5 7.5t7.5 3.5q18 0 40 -11t42.5 -27.5t36 -36.5t19.5 -37q-4 -11 -10 -18t-18 -7q-16 0 -36.5 14t-38.5 33.5t-31 41.5
t-15 37z" />
    <glyph glyph-name="Emacron" unicode="&#x112;" horiz-adv-x="340" 
d="M50 263q0 2 -3.5 4t-7 5t-7 7t-3.5 11q0 10 9 12.5t15 7.5q-1 3 -1 6.5v6.5l24 197l4 11l8 6q5 0 10.5 -1t9.5 -5l-5 2l10 2q4 -1 12 -1q6 0 15 -1t13 -6l-1 -8q3 -2 16 -2.5t31 0t38.5 1t38 1t29.5 1.5t13 1l7 -3q17 0 17 -14q0 -13 -9.5 -18t-20.5 0l-8 -7
q-9 -5 -17 -4.5t-18 0.5q-17 0 -35 -2t-36 -2h-9.5t-14 -1t-13.5 -2t-7 -4v-4q-5 -8 -6.5 -23.5t-1 -33.5t1.5 -34.5t1 -26.5q0 -9 -5 -17.5t-7 -17.5q4 0 19 1.5t32 3t30.5 3t15.5 2.5q6 0 12 0.5t12 0.5q8 0 12 -7t6 -13q-2 -7 -6 -15.5t-12 -10.5q-3 1 -6.5 1h-6.5
q-17 -8 -36 -7.5t-37 0.5l-1 -1l-7 3l-5 -6l-23 2l-4 -10v-9l-4 -5l4 -19l-6 -6v-8h1q0 -14 -1 -33t-2.5 -39.5t-4 -39.5t-5.5 -33h3l9 4l8 -2l1 1q18 2 37.5 6.5l39.5 9.5t39 8.5t35 3.5q14 0 17 -8t3 -19q0 -13 -9 -24t-21.5 -18t-27 -9.5t-25.5 0.5q-30 -7 -64.5 -6.5
t-65.5 -1.5l-12 -9q-8 0 -11 7l-1 -2q-2 -1 -9 -3.5t-9 -2.5q-10 0 -16.5 7t-11.5 15l2 3l-4 10q0 11 6.5 19t7.5 18q4 48 9.5 97t5.5 97zM274 659q12 3 23 5l22 4q3 3 9 3q5 -1 8.5 -6t6.5 -10q8 -14 8 -27.5t-10 -23.5q-5 -2 -9 -3t-9 -2l-12 -2t-12 -3q-6 -1 -11.5 -1
h-11.5q-5 -1 -10.5 -1h-11.5q-5 0 -10 -0.5t-10 -0.5q-2 0 -3 1t-2 1q-2 0 -3 -1t-6 -2h-5.5t-9.5 1q-4 1 -14 1q-12 0 -31 -1t-39 -1q-38 0 -69 3q-28 3 -37 11q-1 3 5.5 14t20.5 17q6 5 13.5 7.5t15.5 4.5l31 7q10 4 24 6q7 2 14.5 3t15.5 1q6 0 11.5 -0.5t11.5 -1.5
q8 -1 15 -2.5l12 -2.5q2 0 2 1q2 -1 4 -1q1 1 5 1q2 0 10 -1t16 -1q8 1 12.5 3.5t10.5 2.5q2 0 3.5 -0.5t5.5 -2.5z" />
    <glyph glyph-name="Eogonek" unicode="&#x118;" horiz-adv-x="340" 
d="M50 263q0 2 -3.5 4t-7 5t-7 7t-3.5 11q0 10 9 12.5t15 7.5q-1 3 -1 6.5v6.5l24 197l4 11l8 6q5 0 10.5 -1t9.5 -5l-5 2l10 2q4 -1 12 -1q6 0 15 -1t13 -6l-1 -8q3 -2 16 -2.5t31 0t38.5 1t38 1t29.5 1.5t13 1l7 -3q17 0 17 -14q0 -13 -9.5 -18t-20.5 0l-8 -7
q-9 -5 -17 -4.5t-18 0.5q-17 0 -35 -2t-36 -2h-9.5t-14 -1t-13.5 -2t-7 -4v-4q-5 -8 -6.5 -23.5t-1 -33.5t1.5 -34.5t1 -26.5q0 -9 -5 -17.5t-7 -17.5q4 0 19 1.5t32 3t30.5 3t15.5 2.5q6 0 12 0.5t12 0.5q8 0 12 -7t6 -13q-2 -7 -6 -15.5t-12 -10.5q-3 1 -6.5 1h-6.5
q-17 -8 -36 -7.5t-37 0.5l-1 -1l-7 3l-5 -6l-23 2l-4 -10v-9l-4 -5l4 -19l-6 -6v-8h1q0 -14 -1 -33t-2.5 -39.5t-4 -39.5t-5.5 -33h3l9 4l8 -2l1 1q18 2 37.5 6.5l39.5 9.5t39 8.5t35 3.5q14 0 17 -8t3 -19q0 -13 -9 -24t-21.5 -18t-27 -9.5t-25.5 0.5q-30 -7 -64.5 -6.5
t-65.5 -1.5l-12 -9q-8 0 -11 7l-1 -2q-2 -1 -9 -3.5t-9 -2.5q-10 0 -16.5 7t-11.5 15l2 3l-4 10q0 11 6.5 19t7.5 18q4 48 9.5 97t5.5 97zM290 72q13 4 14 -1t-5 -16.5t-17 -28.5t-21 -35t-17 -36.5t-5 -34.5q1 -11 5.5 -23.5t12.5 -23t20 -18t28 -7.5t28.5 8.5t22.5 19
t17.5 20t12.5 11.5q6 -4 6 -16q1 -13 -2 -28t-11.5 -27.5t-22.5 -22t-35 -11.5l-8 -2t-8 -1q-20 0 -38.5 8.5t-34 22t-25.5 30.5t-11 34q-2 18 3 43.5t14 45.5q5 13 14.5 28t20.5 27.5t22 21.5t20 12z" />
    <glyph glyph-name="Gbreve" unicode="&#x11e;" horiz-adv-x="397" 
d="M246 101q0 9 3.5 18.5t2.5 17.5q-1 11 -2.5 21.5t-1.5 21.5q0 15 10.5 25.5t25.5 17.5t31.5 10.5t27.5 3.5q10 0 17.5 -9.5t7.5 -18.5l9 -16.5t4 -18.5q0 -17 -5 -36t-11 -38.5t-10.5 -38.5t-2.5 -35l-31.5 -19.5t-34.5 -11.5t-24.5 16.5t-11.5 29.5q-13 -11 -22 -22
t-19 -20t-22 -14.5t-31 -5.5q-45 0 -72.5 16t-42.5 43t-20 62t-5 73q0 36 6 68t16 62t23 59l28 60v2q14 18 28.5 34.5t30.5 28.5t35.5 19.5t44.5 7.5q26 0 49.5 -5t41 -16.5t27.5 -31t10 -48.5q0 -12 -8 -20l-1 -3q-11 -11 -21 -13t-24 -2q-11 0 -21 3q4 7 6 18t2 19
q0 6 -5 12.5t-12 12.5t-15 10t-13 4q-20 0 -36.5 -16.5t-30.5 -42.5t-24.5 -58t-17.5 -63t-10.5 -58t-3.5 -42v-9v-15t1 -14t4 -6q1 -1 1 -2v-2l-2 -1q0 -8 4 -22t11 -28t16 -24.5t18 -10.5t20 7t21 16.5t18.5 20t12.5 17.5zM304 711q-1 2 -2 6t-2 9q-1 6 1.5 11.5t10.5 7.5
q8 -20 16 -32.5t10 -28.5v-8t-1 -9q-2 -9 -9 -20t-17.5 -22.5t-22.5 -22t-23 -16.5q-18 -11 -36.5 -16t-35.5 -5t-33 7.5t-29 20.5t-22 29t-10 34q-1 5 -0.5 9t1.5 9q1 7 6.5 19t14.5 23.5t20.5 20t23.5 8.5q3 0 7.5 -1t6.5 -3q-2 -6 -9.5 -14t-16 -18.5t-15 -23.5t-4.5 -29
q2 -19 20 -27.5t38 -8.5t40.5 7.5t37 20t26 28t8.5 31.5v4z" />
    <glyph glyph-name="Gdotaccent" unicode="&#x120;" horiz-adv-x="397" 
d="M246 101q0 9 3.5 18.5t2.5 17.5q-1 11 -2.5 21.5t-1.5 21.5q0 15 10.5 25.5t25.5 17.5t31.5 10.5t27.5 3.5q10 0 17.5 -9.5t7.5 -18.5l9 -16.5t4 -18.5q0 -17 -5 -36t-11 -38.5t-10.5 -38.5t-2.5 -35l-31.5 -19.5t-34.5 -11.5t-24.5 16.5t-11.5 29.5q-13 -11 -22 -22
t-19 -20t-22 -14.5t-31 -5.5q-45 0 -72.5 16t-42.5 43t-20 62t-5 73q0 36 6 68t16 62t23 59l28 60v2q14 18 28.5 34.5t30.5 28.5t35.5 19.5t44.5 7.5q26 0 49.5 -5t41 -16.5t27.5 -31t10 -48.5q0 -12 -8 -20l-1 -3q-11 -11 -21 -13t-24 -2q-11 0 -21 3q4 7 6 18t2 19
q0 6 -5 12.5t-12 12.5t-15 10t-13 4q-20 0 -36.5 -16.5t-30.5 -42.5t-24.5 -58t-17.5 -63t-10.5 -58t-3.5 -42v-9v-15t1 -14t4 -6q1 -1 1 -2v-2l-2 -1q0 -8 4 -22t11 -28t16 -24.5t18 -10.5t20 7t21 16.5t18.5 20t12.5 17.5zM260 563q-29 5 -45.5 20t-18.5 32q-2 27 12 38.5
t37 11.5t43 -9.5t25 -35.5q1 -14 -3.5 -25t-11.5 -18.5t-15 -11.5t-13 -4q-4 0 -10 2z" />
    <glyph glyph-name="Gcircumflex" unicode="&#x11c;" horiz-adv-x="397" 
d="M246 101q0 9 3.5 18.5t2.5 17.5q-1 11 -2.5 21.5t-1.5 21.5q0 15 10.5 25.5t25.5 17.5t31.5 10.5t27.5 3.5q10 0 17.5 -9.5t7.5 -18.5l9 -16.5t4 -18.5q0 -17 -5 -36t-11 -38.5t-10.5 -38.5t-2.5 -35l-31.5 -19.5t-34.5 -11.5t-24.5 16.5t-11.5 29.5q-13 -11 -22 -22
t-19 -20t-22 -14.5t-31 -5.5q-45 0 -72.5 16t-42.5 43t-20 62t-5 73q0 36 6 68t16 62t23 59l28 60v2q14 18 28.5 34.5t30.5 28.5t35.5 19.5t44.5 7.5q26 0 49.5 -5t41 -16.5t27.5 -31t10 -48.5q0 -12 -8 -20l-1 -3q-11 -11 -21 -13t-24 -2q-11 0 -21 3q4 7 6 18t2 19
q0 6 -5 12.5t-12 12.5t-15 10t-13 4q-20 0 -36.5 -16.5t-30.5 -42.5t-24.5 -58t-17.5 -63t-10.5 -58t-3.5 -42v-9v-15t1 -14t4 -6q1 -1 1 -2v-2l-2 -1q0 -8 4 -22t11 -28t16 -24.5t18 -10.5t20 7t21 16.5t18.5 20t12.5 17.5zM293 693q12 -23 29 -48t37 -42q6 -8 14.5 -13.5
t10.5 -11.5q1 -6 -17 -8h-3l-10 -1q-23 3 -45 19t-49 53q-25 -22 -46 -43t-35 -21h-5q-2 -1 -7 -1q-8 0 -21.5 6t-14.5 16l8 8t20.5 19l27 24.5l27.5 25.5q11 8 20.5 19.5t25.5 11.5h3q3 1 9 1q5 0 12 -4t9 -10z" />
    <glyph glyph-name="Gcommaaccent" unicode="&#x122;" horiz-adv-x="397" 
d="M246 101q0 9 3.5 18.5t2.5 17.5q-1 11 -2.5 21.5t-1.5 21.5q0 15 10.5 25.5t25.5 17.5t31.5 10.5t27.5 3.5q10 0 17.5 -9.5t7.5 -18.5l9 -16.5t4 -18.5q0 -17 -5 -36t-11 -38.5t-10.5 -38.5t-2.5 -35l-31.5 -19.5t-34.5 -11.5t-24.5 16.5t-11.5 29.5q-13 -11 -22 -22
t-19 -20t-22 -14.5t-31 -5.5q-45 0 -72.5 16t-42.5 43t-20 62t-5 73q0 36 6 68t16 62t23 59l28 60v2q14 18 28.5 34.5t30.5 28.5t35.5 19.5t44.5 7.5q26 0 49.5 -5t41 -16.5t27.5 -31t10 -48.5q0 -12 -8 -20l-1 -3q-11 -11 -21 -13t-24 -2q-11 0 -21 3q4 7 6 18t2 19
q0 6 -5 12.5t-12 12.5t-15 10t-13 4q-20 0 -36.5 -16.5t-30.5 -42.5t-24.5 -58t-17.5 -63t-10.5 -58t-3.5 -42v-9v-15t1 -14t4 -6q1 -1 1 -2v-2l-2 -1q0 -8 4 -22t11 -28t16 -24.5t18 -10.5t20 7t21 16.5t18.5 20t12.5 17.5zM235 570q15 37 27.5 72.5t22.5 72.5q3 14 5 28
t0 29q-1 5 3 9.5t7 2.5q16 -4 30 -11.5t26 -21.5q10 -14 13 -25.5t-2 -27.5q-8 -23 -19 -44t-25 -38q-14 -16 -28.5 -30l-28.5 -28q-8 -7 -15 -2.5t-16 14.5z" />
    <glyph glyph-name="Rcommaaccent" unicode="&#x156;" horiz-adv-x="334" 
d="M163 194l-5 1q-10 0 -13.5 -10.5t-4.5 -24.5t-1 -27t-1 -19q-2 -8 -6 -21t-7.5 -26.5t-6.5 -26.5t-3 -21q0 -6 2.5 -12l4.5 -11q0 -8 -5.5 -12.5t-13.5 -5.5t-16.5 0t-13.5 3q-5 -2 -10.5 -6.5t-11.5 -4.5t-11.5 6.5t-10.5 15.5t-8 18t-3 14q0 57 8 112t10 112
q1 32 0.5 66t2.5 66q1 7 3.5 13t2.5 13q0 3 -1 7t-2 7l2 10q-1 5 -3 12.5t-1 11.5l-2 6t-1 6q0 10 10 12q0 7 5.5 13t13.5 10t16 6.5t14 2.5h1l-2 -4l8 2q14 -5 25.5 -12.5t18.5 -21.5q-1 -7 2 -16q11 11 17.5 22t23.5 16q8 11 18.5 18.5l21.5 15.5q5 -2 10 -2h10
q24 0 37.5 -6t21.5 -14.5t12.5 -16t10.5 -10.5q9 -9 13.5 -22t4.5 -25q0 -29 -6 -48.5t-16 -35.5t-23 -32t-27 -37q-11 -6 -20.5 -13.5t-20.5 -14.5q3 -21 5 -32.5t5 -20.5l6.5 -19.5t8.5 -30.5q2 -7 8 -10.5t6 -11.5q5 -8 11 -15l13 -15q2 -8 9 -16.5t12 -15.5l-1 -2l4 -7
q-1 -1 1 -7t5.5 -13l6.5 -13.5t4 -7.5q2 -11 9 -17l-1 -1q0 -7 4 -8.5t4 -11.5q0 -2 1.5 -4.5t2.5 -3.5l-1 -1l2 -3l9 -16h-1q0 -4 2.5 -3t1.5 3q0 -5 3 -10.5t5 -9.5q0 -16 -7 -30t-25 -14q-25 0 -45.5 22t-36.5 52t-27.5 60t-18.5 46q-3 7 -12 24l-18.5 35t-16.5 34.5
t-7 24.5l1 2zM159 258q24 8 42 28t30 45.5t18.5 53t6.5 50.5q0 12 -3.5 20t-17.5 8q-39 0 -59.5 -17.5t-29.5 -44.5t-10 -58.5t-1 -59.5q0 -14 16 -16q-1 1 0.5 2t2.5 1zM107 579q15 37 27.5 72.5t22.5 72.5q3 14 5 28t0 29q-1 5 3 9.5t7 2.5q16 -4 30 -11.5t26 -21.5
q10 -14 13 -25.5t-2 -27.5q-8 -23 -19 -44t-25 -38q-14 -16 -28.5 -30l-28.5 -28q-8 -7 -15 -2.5t-16 14.5z" />
    <glyph glyph-name="Racute" unicode="&#x154;" horiz-adv-x="353" 
d="M163 194l-5 1q-10 0 -13.5 -10.5t-4.5 -24.5t-1 -27t-1 -19q-2 -8 -6 -21t-7.5 -26.5t-6.5 -26.5t-3 -21q0 -6 2.5 -12l4.5 -11q0 -8 -5.5 -12.5t-13.5 -5.5t-16.5 0t-13.5 3q-5 -2 -10.5 -6.5t-11.5 -4.5t-11.5 6.5t-10.5 15.5t-8 18t-3 14q0 57 8 112t10 112
q1 32 0.5 66t2.5 66q1 7 3.5 13t2.5 13q0 3 -1 7t-2 7l2 10q-1 5 -3 12.5t-1 11.5l-2 6t-1 6q0 10 10 12q0 7 5.5 13t13.5 10t16 6.5t14 2.5h1l-2 -4l8 2q14 -5 25.5 -12.5t18.5 -21.5q-1 -7 2 -16q11 11 17.5 22t23.5 16q8 11 18.5 18.5l21.5 15.5q5 -2 10 -2h10
q24 0 37.5 -6t21.5 -14.5t12.5 -16t10.5 -10.5q9 -9 13.5 -22t4.5 -25q0 -29 -6 -48.5t-16 -35.5t-23 -32t-27 -37q-11 -6 -20.5 -13.5t-20.5 -14.5q3 -21 5 -32.5t5 -20.5l6.5 -19.5t8.5 -30.5q2 -7 8 -10.5t6 -11.5q5 -8 11 -15l13 -15q2 -8 9 -16.5t12 -15.5l-1 -2l4 -7
q-1 -1 1 -7t5.5 -13l6.5 -13.5t4 -7.5q2 -11 9 -17l-1 -1q0 -7 4 -8.5t4 -11.5q0 -2 1.5 -4.5t2.5 -3.5l-1 -1l2 -3l9 -16h-1q0 -4 2.5 -3t1.5 3q0 -5 3 -10.5t5 -9.5q0 -16 -7 -30t-25 -14q-25 0 -45.5 22t-36.5 52t-27.5 60t-18.5 46q-3 7 -12 24l-18.5 35t-16.5 34.5
t-7 24.5l1 2zM159 258q24 8 42 28t30 45.5t18.5 53t6.5 50.5q0 12 -3.5 20t-17.5 8q-39 0 -59.5 -17.5t-29.5 -44.5t-10 -58.5t-1 -59.5q0 -14 16 -16q-1 1 0.5 2t2.5 1zM150 562q-5 0 -6 2.5t-2 6.5q0 10 11.5 29.5t25.5 41l26 41.5t15 31q3 3 7 3q8 0 17.5 -6.5t18.5 -15
t15 -16.5t6 -12q0 -6 -6 -17t-16 -23.5t-22 -24t-23 -19.5q-8 -6 -19 -10t-20.5 -6.5t-17 -3.5t-8.5 -1h-2v0z" />
    <glyph glyph-name="Rcaron" unicode="&#x158;" horiz-adv-x="353" 
d="M163 194l-5 1q-10 0 -13.5 -10.5t-4.5 -24.5t-1 -27t-1 -19q-2 -8 -6 -21t-7.5 -26.5t-6.5 -26.5t-3 -21q0 -6 2.5 -12l4.5 -11q0 -8 -5.5 -12.5t-13.5 -5.5t-16.5 0t-13.5 3q-5 -2 -10.5 -6.5t-11.5 -4.5t-11.5 6.5t-10.5 15.5t-8 18t-3 14q0 57 8 112t10 112
q1 32 0.5 66t2.5 66q1 7 3.5 13t2.5 13q0 3 -1 7t-2 7l2 10q-1 5 -3 12.5t-1 11.5l-2 6t-1 6q0 10 10 12q0 7 5.5 13t13.5 10t16 6.5t14 2.5h1l-2 -4l8 2q14 -5 25.5 -12.5t18.5 -21.5q-1 -7 2 -16q11 11 17.5 22t23.5 16q8 11 18.5 18.5l21.5 15.5q5 -2 10 -2h10
q24 0 37.5 -6t21.5 -14.5t12.5 -16t10.5 -10.5q9 -9 13.5 -22t4.5 -25q0 -29 -6 -48.5t-16 -35.5t-23 -32t-27 -37q-11 -6 -20.5 -13.5t-20.5 -14.5q3 -21 5 -32.5t5 -20.5l6.5 -19.5t8.5 -30.5q2 -7 8 -10.5t6 -11.5q5 -8 11 -15l13 -15q2 -8 9 -16.5t12 -15.5l-1 -2l4 -7
q-1 -1 1 -7t5.5 -13l6.5 -13.5t4 -7.5q2 -11 9 -17l-1 -1q0 -7 4 -8.5t4 -11.5q0 -2 1.5 -4.5t2.5 -3.5l-1 -1l2 -3l9 -16h-1q0 -4 2.5 -3t1.5 3q0 -5 3 -10.5t5 -9.5q0 -16 -7 -30t-25 -14q-25 0 -45.5 22t-36.5 52t-27.5 60t-18.5 46q-3 7 -12 24l-18.5 35t-16.5 34.5
t-7 24.5l1 2zM159 258q24 8 42 28t30 45.5t18.5 53t6.5 50.5q0 12 -3.5 20t-17.5 8q-39 0 -59.5 -17.5t-29.5 -44.5t-10 -58.5t-1 -59.5q0 -14 16 -16q-1 1 0.5 2t2.5 1zM122 585q-12 23 -29 48t-36 42q-6 8 -14.5 13.5t-11.5 11.5q0 6 18 8h2l11 1q22 -3 44 -19t49 -53
q25 22 46 43t35 21h5q2 1 8 1q8 0 21 -6t15 -16l-8 -8t-20.5 -19l-27.5 -24.5l-28 -25.5q-11 -8 -20.5 -19.5t-24.5 -11.5h-3q-3 -1 -10 -1q-5 0 -12 4t-9 10z" />
    <glyph glyph-name="Sacute" unicode="&#x15a;" horiz-adv-x="322" 
d="M229 -16q-3 -5 -12 -9t-21 -7.5t-25.5 -6t-24.5 -3.5q-4 -1 -7 -0.5t-6 0.5h-9.5t-8.5 1l-10 3q-8 0 -17 3q-20 5 -39 16q-5 1 -8 5q-9 7 -11 13q-5 3 -8.5 10.5t-5.5 12.5l-3 5l-3 8q-1 5 -1 9.5v9.5q0 3 1 5q3 8 8 17l5 7q4 6 11 8q3 0 4 -1q4 2 6 0q2 0 4 -3
q-2 -4 -1 -6l-2 -1q0 -3 -1.5 -6t-2.5 -8q0 -4 0.5 -4t-0.5 -2q3 -9 9 -12q6 -2 16 -4q5 -2 10 -3t10 -3q8 0 13 -1q2 0 8 -2h2q1 -1 4 -1q2 0 3 1q10 -1 16 1t11 5l32 11q4 0 7.5 1.5t3.5 5.5q5 3 6 8q0 2 0.5 3t0.5 3q3 10 3.5 18t-0.5 16q-2 11 -7 19l-4 5q-5 7 -11 12
t-9 10l-14 15.5t-16 15.5l-20 18l-9 8l-18 17l-7 9l-11.5 13.5t-11.5 15.5q-2 4 -4.5 7.5l-5.5 7.5q-2 4 -4 7t-4 7l-9 33l1 1q-6 10 -10 24t-2 25v10q0 3 2 5q-3 25 15 44q3 7 8 9l5 5v1q-1 1 0 1q10 10 21 13l14 8l15.5 4l15.5 4h2l25 3h6q2 1 4.5 0.5t4.5 0.5q11 0 22 -1
t22 -3q5 0 7 -1q3 0 5 -1q6 -2 8 -2l24 -8q11 -4 20.5 -9.5t16.5 -11.5q5 -5 9.5 -13t4.5 -16v-1q4 -2 4 -3t1 -2.5t1 -3.5q4 -7 2 -15q0 -8 -1 -13q-3 -13 -11 -26t-19 -14q-5 0 -9 3q-5 3 -9 9h-4l-4 2q3 3 9 7q2 6 7 7t5 16q-3 9 -15.5 12.5t-23.5 5.5q-1 1 -3 1
q-8 1 -15 0.5t-15 0.5q-5 0 -9 -0.5t-9 -1.5q-4 -1 -7 -2t-7 -3q-7 -2 -13 -3.5t-12 -3.5q-8 -2 -12 -4q-1 -1 -2 -1.5t-2 -2.5q-7 -6 -7 -16q0 -1 -0.5 -1.5t-0.5 -2.5q-3 -12 -3 -26q1 -6 2 -11t3 -10q0 -4 1 -5l3 -6q1 -2 2.5 -4t1.5 -4q21 -29 55 -60l24 -22l14 -14.5
l11 -11.5q5 -8 10 -15t8 -12q2 -4 5.5 -8t5.5 -9q2 -2 2.5 -4t1.5 -4q2 -2 2 -4t1 -5q2 -4 2.5 -9.5t0.5 -9.5q1 0 0.5 0.5t0.5 0.5l7 -12q7 -15 8 -28q1 -2 0.5 -3.5t0.5 -3.5v-3q0 -3 -2 -7q1 -2 1 -5q0 -11 -3 -23q-2 -5 -5 -8.5t-7 -7.5q-12 -12 -25 -16q-1 -2 -3 -3
t-2 -2q-4 0 -6 -1zM125 508q-5 0 -6 2.5t-2 6.5q0 10 11.5 29.5t25.5 41l26 41.5t15 31q3 3 7 3q8 0 17.5 -6.5t18.5 -15t15 -16.5t6 -12q0 -6 -6 -17t-16 -23.5t-22 -24t-23 -19.5q-8 -6 -19 -10t-20.5 -6.5t-17 -3.5t-8.5 -1h-2v0z" />
    <glyph glyph-name="Scaron" unicode="&#x160;" horiz-adv-x="322" 
d="M229 -16q-3 -5 -12 -9t-21 -7.5t-25.5 -6t-24.5 -3.5q-4 -1 -7 -0.5t-6 0.5h-9.5t-8.5 1l-10 3q-8 0 -17 3q-20 5 -39 16q-5 1 -8 5q-9 7 -11 13q-5 3 -8.5 10.5t-5.5 12.5l-3 5l-3 8q-1 5 -1 9.5v9.5q0 3 1 5q3 8 8 17l5 7q4 6 11 8q3 0 4 -1q4 2 6 0q2 0 4 -3
q-2 -4 -1 -6l-2 -1q0 -3 -1.5 -6t-2.5 -8q0 -4 0.5 -4t-0.5 -2q3 -9 9 -12q6 -2 16 -4q5 -2 10 -3t10 -3q8 0 13 -1q2 0 8 -2h2q1 -1 4 -1q2 0 3 1q10 -1 16 1t11 5l32 11q4 0 7.5 1.5t3.5 5.5q5 3 6 8q0 2 0.5 3t0.5 3q3 10 3.5 18t-0.5 16q-2 11 -7 19l-4 5q-5 7 -11 12
t-9 10l-14 15.5t-16 15.5l-20 18l-9 8l-18 17l-7 9l-11.5 13.5t-11.5 15.5q-2 4 -4.5 7.5l-5.5 7.5q-2 4 -4 7t-4 7l-9 33l1 1q-6 10 -10 24t-2 25v10q0 3 2 5q-3 25 15 44q3 7 8 9l5 5v1q-1 1 0 1q10 10 21 13l14 8l15.5 4l15.5 4h2l25 3h6q2 1 4.5 0.5t4.5 0.5q11 0 22 -1
t22 -3q5 0 7 -1q3 0 5 -1q6 -2 8 -2l24 -8q11 -4 20.5 -9.5t16.5 -11.5q5 -5 9.5 -13t4.5 -16v-1q4 -2 4 -3t1 -2.5t1 -3.5q4 -7 2 -15q0 -8 -1 -13q-3 -13 -11 -26t-19 -14q-5 0 -9 3q-5 3 -9 9h-4l-4 2q3 3 9 7q2 6 7 7t5 16q-3 9 -15.5 12.5t-23.5 5.5q-1 1 -3 1
q-8 1 -15 0.5t-15 0.5q-5 0 -9 -0.5t-9 -1.5q-4 -1 -7 -2t-7 -3q-7 -2 -13 -3.5t-12 -3.5q-8 -2 -12 -4q-1 -1 -2 -1.5t-2 -2.5q-7 -6 -7 -16q0 -1 -0.5 -1.5t-0.5 -2.5q-3 -12 -3 -26q1 -6 2 -11t3 -10q0 -4 1 -5l3 -6q1 -2 2.5 -4t1.5 -4q21 -29 55 -60l24 -22l14 -14.5
l11 -11.5q5 -8 10 -15t8 -12q2 -4 5.5 -8t5.5 -9q2 -2 2.5 -4t1.5 -4q2 -2 2 -4t1 -5q2 -4 2.5 -9.5t0.5 -9.5q1 0 0.5 0.5t0.5 0.5l7 -12q7 -15 8 -28q1 -2 0.5 -3.5t0.5 -3.5v-3q0 -3 -2 -7q1 -2 1 -5q0 -11 -3 -23q-2 -5 -5 -8.5t-7 -7.5q-12 -12 -25 -16q-1 -2 -3 -3
t-2 -2q-4 0 -6 -1zM143 554q-12 23 -29 48t-36 42q-6 8 -14.5 13.5t-11.5 11.5q0 6 18 8h2l11 1q22 -3 44 -19t49 -53q25 22 46 43t35 21h5q2 1 8 1q8 0 21 -6t15 -16l-8 -8t-20.5 -19l-27.5 -24.5l-28 -25.5q-11 -8 -20.5 -19.5t-24.5 -11.5h-3q-3 -1 -10 -1q-5 0 -12 4
t-9 10z" />
    <glyph glyph-name="Scedilla" unicode="&#x15e;" horiz-adv-x="322" 
d="M229 -16q-3 -5 -12 -9t-21 -7.5t-25.5 -6t-24.5 -3.5q-4 -1 -7 -0.5t-6 0.5h-9.5t-8.5 1l-10 3q-8 0 -17 3q-20 5 -39 16q-5 1 -8 5q-9 7 -11 13q-5 3 -8.5 10.5t-5.5 12.5l-3 5l-3 8q-1 5 -1 9.5v9.5q0 3 1 5q3 8 8 17l5 7q4 6 11 8q3 0 4 -1q4 2 6 0q2 0 4 -3
q-2 -4 -1 -6l-2 -1q0 -3 -1.5 -6t-2.5 -8q0 -4 0.5 -4t-0.5 -2q3 -9 9 -12q6 -2 16 -4q5 -2 10 -3t10 -3q8 0 13 -1q2 0 8 -2h2q1 -1 4 -1q2 0 3 1q10 -1 16 1t11 5l32 11q4 0 7.5 1.5t3.5 5.5q5 3 6 8q0 2 0.5 3t0.5 3q3 10 3.5 18t-0.5 16q-2 11 -7 19l-4 5q-5 7 -11 12
t-9 10l-14 15.5t-16 15.5l-20 18l-9 8l-18 17l-7 9l-11.5 13.5t-11.5 15.5q-2 4 -4.5 7.5l-5.5 7.5q-2 4 -4 7t-4 7l-9 33l1 1q-6 10 -10 24t-2 25v10q0 3 2 5q-3 25 15 44q3 7 8 9l5 5v1q-1 1 0 1q10 10 21 13l14 8l15.5 4l15.5 4h2l25 3h6q2 1 4.5 0.5t4.5 0.5q11 0 22 -1
t22 -3q5 0 7 -1q3 0 5 -1q6 -2 8 -2l24 -8q11 -4 20.5 -9.5t16.5 -11.5q5 -5 9.5 -13t4.5 -16v-1q4 -2 4 -3t1 -2.5t1 -3.5q4 -7 2 -15q0 -8 -1 -13q-3 -13 -11 -26t-19 -14q-5 0 -9 3q-5 3 -9 9h-4l-4 2q3 3 9 7q2 6 7 7t5 16q-3 9 -15.5 12.5t-23.5 5.5q-1 1 -3 1
q-8 1 -15 0.5t-15 0.5q-5 0 -9 -0.5t-9 -1.5q-4 -1 -7 -2t-7 -3q-7 -2 -13 -3.5t-12 -3.5q-8 -2 -12 -4q-1 -1 -2 -1.5t-2 -2.5q-7 -6 -7 -16q0 -1 -0.5 -1.5t-0.5 -2.5q-3 -12 -3 -26q1 -6 2 -11t3 -10q0 -4 1 -5l3 -6q1 -2 2.5 -4t1.5 -4q21 -29 55 -60l24 -22l14 -14.5
l11 -11.5q5 -8 10 -15t8 -12q2 -4 5.5 -8t5.5 -9q2 -2 2.5 -4t1.5 -4q2 -2 2 -4t1 -5q2 -4 2.5 -9.5t0.5 -9.5q1 0 0.5 0.5t0.5 0.5l7 -12q7 -15 8 -28q1 -2 0.5 -3.5t0.5 -3.5v-3q0 -3 -2 -7q1 -2 1 -5q0 -11 -3 -23q-2 -5 -5 -8.5t-7 -7.5q-12 -12 -25 -16q-1 -2 -3 -3
t-2 -2q-4 0 -6 -1zM164 -68q-5 -8 -3.5 -14.5t-2.5 -14.5q-2 -8 -4.5 -16t-1.5 -16v-3l3 -1q-5 -5 -9 -11t-4 -11q0 5 5 7l36 39q5 7 17.5 14.5t18.5 12.5l9 7t10 7q7 -2 9 -9t3 -11q1 -16 1.5 -31t-0.5 -32v-3q-5 -16 -9 -31t-11 -30q-11 -33 -20.5 -42.5t-15.5 -5t-7 17.5
t7 26q0 20 1 40t-1 38q-1 5 -2 11t-6 4q-6 -9 -14.5 -19l-17 -19.5l-15 -16.5t-9.5 -9q-12 -17 -21 -18t-13.5 6t-4.5 18.5t7 20.5q6 28 10 56t9 54q-1 9 2 15.5t2 13.5q0 5 -1 8q2 5 2.5 11t2.5 11q24 14 37 14q10 0 12 -12q1 -9 -2.5 -21t-2.5 -18q0 -4 -3.5 -14.5
t-3.5 -12.5q0 1 1 1v-11z" />
    <glyph glyph-name="Scircumflex" unicode="&#x15c;" horiz-adv-x="322" 
d="M229 -16q-3 -5 -12 -9t-21 -7.5t-25.5 -6t-24.5 -3.5q-4 -1 -7 -0.5t-6 0.5h-9.5t-8.5 1l-10 3q-8 0 -17 3q-20 5 -39 16q-5 1 -8 5q-9 7 -11 13q-5 3 -8.5 10.5t-5.5 12.5l-3 5l-3 8q-1 5 -1 9.5v9.5q0 3 1 5q3 8 8 17l5 7q4 6 11 8q3 0 4 -1q4 2 6 0q2 0 4 -3
q-2 -4 -1 -6l-2 -1q0 -3 -1.5 -6t-2.5 -8q0 -4 0.5 -4t-0.5 -2q3 -9 9 -12q6 -2 16 -4q5 -2 10 -3t10 -3q8 0 13 -1q2 0 8 -2h2q1 -1 4 -1q2 0 3 1q10 -1 16 1t11 5l32 11q4 0 7.5 1.5t3.5 5.5q5 3 6 8q0 2 0.5 3t0.5 3q3 10 3.5 18t-0.5 16q-2 11 -7 19l-4 5q-5 7 -11 12
t-9 10l-14 15.5t-16 15.5l-20 18l-9 8l-18 17l-7 9l-11.5 13.5t-11.5 15.5q-2 4 -4.5 7.5l-5.5 7.5q-2 4 -4 7t-4 7l-9 33l1 1q-6 10 -10 24t-2 25v10q0 3 2 5q-3 25 15 44q3 7 8 9l5 5v1q-1 1 0 1q10 10 21 13l14 8l15.5 4l15.5 4h2l25 3h6q2 1 4.5 0.5t4.5 0.5q11 0 22 -1
t22 -3q5 0 7 -1q3 0 5 -1q6 -2 8 -2l24 -8q11 -4 20.5 -9.5t16.5 -11.5q5 -5 9.5 -13t4.5 -16v-1q4 -2 4 -3t1 -2.5t1 -3.5q4 -7 2 -15q0 -8 -1 -13q-3 -13 -11 -26t-19 -14q-5 0 -9 3q-5 3 -9 9h-4l-4 2q3 3 9 7q2 6 7 7t5 16q-3 9 -15.5 12.5t-23.5 5.5q-1 1 -3 1
q-8 1 -15 0.5t-15 0.5q-5 0 -9 -0.5t-9 -1.5q-4 -1 -7 -2t-7 -3q-7 -2 -13 -3.5t-12 -3.5q-8 -2 -12 -4q-1 -1 -2 -1.5t-2 -2.5q-7 -6 -7 -16q0 -1 -0.5 -1.5t-0.5 -2.5q-3 -12 -3 -26q1 -6 2 -11t3 -10q0 -4 1 -5l3 -6q1 -2 2.5 -4t1.5 -4q21 -29 55 -60l24 -22l14 -14.5
l11 -11.5q5 -8 10 -15t8 -12q2 -4 5.5 -8t5.5 -9q2 -2 2.5 -4t1.5 -4q2 -2 2 -4t1 -5q2 -4 2.5 -9.5t0.5 -9.5q1 0 0.5 0.5t0.5 0.5l7 -12q7 -15 8 -28q1 -2 0.5 -3.5t0.5 -3.5v-3q0 -3 -2 -7q1 -2 1 -5q0 -11 -3 -23q-2 -5 -5 -8.5t-7 -7.5q-12 -12 -25 -16q-1 -2 -3 -3
t-2 -2q-4 0 -6 -1zM205 626q12 -23 29 -48t37 -42q6 -8 14.5 -13.5t10.5 -11.5q1 -6 -17 -8h-3l-10 -1q-23 3 -45 19t-49 53q-25 -22 -46 -43t-35 -21h-5q-2 -1 -7 -1q-8 0 -21.5 6t-14.5 16l8 8t20.5 19l27 24.5l27.5 25.5q11 8 20.5 19.5t25.5 11.5h3q3 1 9 1q5 0 12 -4
t9 -10z" />
    <glyph glyph-name="Scommaaccent" unicode="&#x218;" horiz-adv-x="322" 
d="M229 -16q-3 -5 -12 -9t-21 -7.5t-25.5 -6t-24.5 -3.5q-4 -1 -7 -0.5t-6 0.5h-9.5t-8.5 1l-10 3q-8 0 -17 3q-20 5 -39 16q-5 1 -8 5q-9 7 -11 13q-5 3 -8.5 10.5t-5.5 12.5l-3 5l-3 8q-1 5 -1 9.5v9.5q0 3 1 5q3 8 8 17l5 7q4 6 11 8q3 0 4 -1q4 2 6 0q2 0 4 -3
q-2 -4 -1 -6l-2 -1q0 -3 -1.5 -6t-2.5 -8q0 -4 0.5 -4t-0.5 -2q3 -9 9 -12q6 -2 16 -4q5 -2 10 -3t10 -3q8 0 13 -1q2 0 8 -2h2q1 -1 4 -1q2 0 3 1q10 -1 16 1t11 5l32 11q4 0 7.5 1.5t3.5 5.5q5 3 6 8q0 2 0.5 3t0.5 3q3 10 3.5 18t-0.5 16q-2 11 -7 19l-4 5q-5 7 -11 12
t-9 10l-14 15.5t-16 15.5l-20 18l-9 8l-18 17l-7 9l-11.5 13.5t-11.5 15.5q-2 4 -4.5 7.5l-5.5 7.5q-2 4 -4 7t-4 7l-9 33l1 1q-6 10 -10 24t-2 25v10q0 3 2 5q-3 25 15 44q3 7 8 9l5 5v1q-1 1 0 1q10 10 21 13l14 8l15.5 4l15.5 4h2l25 3h6q2 1 4.5 0.5t4.5 0.5q11 0 22 -1
t22 -3q5 0 7 -1q3 0 5 -1q6 -2 8 -2l24 -8q11 -4 20.5 -9.5t16.5 -11.5q5 -5 9.5 -13t4.5 -16v-1q4 -2 4 -3t1 -2.5t1 -3.5q4 -7 2 -15q0 -8 -1 -13q-3 -13 -11 -26t-19 -14q-5 0 -9 3q-5 3 -9 9h-4l-4 2q3 3 9 7q2 6 7 7t5 16q-3 9 -15.5 12.5t-23.5 5.5q-1 1 -3 1
q-8 1 -15 0.5t-15 0.5q-5 0 -9 -0.5t-9 -1.5q-4 -1 -7 -2t-7 -3q-7 -2 -13 -3.5t-12 -3.5q-8 -2 -12 -4q-1 -1 -2 -1.5t-2 -2.5q-7 -6 -7 -16q0 -1 -0.5 -1.5t-0.5 -2.5q-3 -12 -3 -26q1 -6 2 -11t3 -10q0 -4 1 -5l3 -6q1 -2 2.5 -4t1.5 -4q21 -29 55 -60l24 -22l14 -14.5
l11 -11.5q5 -8 10 -15t8 -12q2 -4 5.5 -8t5.5 -9q2 -2 2.5 -4t1.5 -4q2 -2 2 -4t1 -5q2 -4 2.5 -9.5t0.5 -9.5q1 0 0.5 0.5t0.5 0.5l7 -12q7 -15 8 -28q1 -2 0.5 -3.5t0.5 -3.5v-3q0 -3 -2 -7q1 -2 1 -5q0 -11 -3 -23q-2 -5 -5 -8.5t-7 -7.5q-12 -12 -25 -16q-1 -2 -3 -3
t-2 -2q-4 0 -6 -1z" />
    <glyph glyph-name="Uogonek" unicode="&#x172;" horiz-adv-x="384" 
d="M179 38l3.5 3.5l3.5 3.5q2 0 6 2l9 8l6 9q4 8 7 12l14 26l8 16l3 8v-1l9 30l4 19q3 11 5.5 22t4.5 22h-1q3 9 3 21l6 37l4 31l6 39q2 10 4 15q0 2 -0.5 2.5t-0.5 2.5q2 5 2 9.5t2 9.5q0 8 1 15t1 15l2 16q0 4 1 8t2 7q0 4 1 6l3 18q1 10 5 21l5 11q3 6 7 10l3 3l5 4l4 6
q6 8 9 10h3q4 2 12 0q2 -1 4 -3.5t4 -4.5q2 -4 2 -6v-6q-1 -4 -1 -14v-7v-11l2 -25l-2 -3l-3 -5q0 -2 -2 -6q0 -5 -0.5 -10t-1.5 -11q-2 -8 -2.5 -16.5t-2.5 -17.5l-3 -18q0 -3 -0.5 -5.5t-1.5 -5.5l-4 -28l-8.5 -56t-10.5 -52q0 -3 -0.5 -5.5t-0.5 -3.5h-2q-2 -10 -4.5 -21
t-6.5 -24q-2 -8 -5 -16l-6 -16q-3 -13 -9 -25l-5 -13l-9 -21q-2 -2 -2 -3t-1 -3q-3 -7 -5.5 -13.5t-6.5 -13.5l-10 -15.5l-10 -14.5q-6 -8 -13 -14t-14 -11q-4 -3 -12 -7q-3 -3 -9 -5q-4 -2 -8.5 -2.5t-9.5 -1.5q-5 -2 -11 0q-4 0 -7.5 1t-7.5 2l-8 3q-8 2 -15.5 6t-14.5 9
q-5 3 -8.5 5.5t-6.5 6.5l-14 13q-11 13 -18 30l-4 9l-6 18q-2 6 -4.5 12t-4.5 12q-2 4 -4 12q-3 14 -5.5 27t-4.5 26q-2 5 -2 10t-1 10q-1 8 -2.5 16t-2.5 17v29q-1 8 -1 15v14v12.5t1 11.5q2 14 4 22q1 13 1 24.5v24.5v8v5q0 2 -0.5 4t-0.5 4t0.5 4.5t0.5 4.5q0 7 1 9l-2 3
q1 2 1 8q0 4 1 7.5t3 8.5q1 3 1 11q0 2 0.5 5t0.5 5q2 8 2 14q1 7 6 13l3 10l5 10l6 9q8 11 18 14q6 0 8 -2h3l5 -2q6 -2 8 -4q6 -4 9 -7l5 -9q5 -2 7 -10q2 -5 3 -12t1 -15v-14q0 -10 -1 -14q0 -5 -0.5 -9t0.5 -6v-8.5t1 -8.5v2q0 -6 0.5 -11.5t0.5 -11.5q1 -4 1 -8v-9
q1 -3 0.5 -6.5t-0.5 -6.5q-1 -8 -2 -14.5t0 -14.5q1 0 1 -1q0 -7 -1 -11q1 -5 1.5 -14t-0.5 -20v-19v-17t-1 -21q0 -7 0.5 -14t0.5 -12t0.5 -8.5t1.5 -6.5q0 -3 1 -4l3 -24l6.5 -31.5t8.5 -31.5q4 -12 11 -26q5 -13 13 -21q3 -3 6.5 -5t7.5 -4zM254 71q13 4 14 -1t-5 -16.5
t-17 -28.5t-21 -35t-17 -36.5t-5 -34.5q1 -11 5.5 -23.5t12.5 -23t20 -18t28 -7.5t28.5 8.5t22.5 19t17.5 20t12.5 11.5q6 -4 6 -16q1 -13 -2 -28t-11.5 -27.5t-22.5 -22t-35 -11.5l-8 -2t-8 -1q-20 0 -38.5 8.5t-34 22t-25.5 30.5t-11 34q-2 18 3 43.5t14 45.5
q5 13 14.5 28t20.5 27.5t22 21.5t20 12z" />
    <glyph glyph-name="Uring" unicode="&#x16e;" horiz-adv-x="368" 
d="M179 38l3.5 3.5l3.5 3.5q2 0 6 2l9 8l6 9q4 8 7 12l14 26l8 16l3 8v-1l9 30l4 19q3 11 5.5 22t4.5 22h-1q3 9 3 21l6 37l4 31l6 39q2 10 4 15q0 2 -0.5 2.5t-0.5 2.5q2 5 2 9.5t2 9.5q0 8 1 15t1 15l2 16q0 4 1 8t2 7q0 4 1 6l3 18q1 10 5 21l5 11q3 6 7 10l3 3l5 4l4 6
q6 8 9 10h3q4 2 12 0q2 -1 4 -3.5t4 -4.5q2 -4 2 -6v-6q-1 -4 -1 -14v-7v-11l2 -25l-2 -3l-3 -5q0 -2 -2 -6q0 -5 -0.5 -10t-1.5 -11q-2 -8 -2.5 -16.5t-2.5 -17.5l-3 -18q0 -3 -0.5 -5.5t-1.5 -5.5l-4 -28l-8.5 -56t-10.5 -52q0 -3 -0.5 -5.5t-0.5 -3.5h-2q-2 -10 -4.5 -21
t-6.5 -24q-2 -8 -5 -16l-6 -16q-3 -13 -9 -25l-5 -13l-9 -21q-2 -2 -2 -3t-1 -3q-3 -7 -5.5 -13.5t-6.5 -13.5l-10 -15.5l-10 -14.5q-6 -8 -13 -14t-14 -11q-4 -3 -12 -7q-3 -3 -9 -5q-4 -2 -8.5 -2.5t-9.5 -1.5q-5 -2 -11 0q-4 0 -7.5 1t-7.5 2l-8 3q-8 2 -15.5 6t-14.5 9
q-5 3 -8.5 5.5t-6.5 6.5l-14 13q-11 13 -18 30l-4 9l-6 18q-2 6 -4.5 12t-4.5 12q-2 4 -4 12q-3 14 -5.5 27t-4.5 26q-2 5 -2 10t-1 10q-1 8 -2.5 16t-2.5 17v29q-1 8 -1 15v14v12.5t1 11.5q2 14 4 22q1 13 1 24.5v24.5v8v5q0 2 -0.5 4t-0.5 4t0.5 4.5t0.5 4.5q0 7 1 9l-2 3
q1 2 1 8q0 4 1 7.5t3 8.5q1 3 1 11q0 2 0.5 5t0.5 5q2 8 2 14q1 7 6 13l3 10l5 10l6 9q8 11 18 14q6 0 8 -2h3l5 -2q6 -2 8 -4q6 -4 9 -7l5 -9q5 -2 7 -10q2 -5 3 -12t1 -15v-14q0 -10 -1 -14q0 -5 -0.5 -9t0.5 -6v-8.5t1 -8.5v2q0 -6 0.5 -11.5t0.5 -11.5q1 -4 1 -8v-9
q1 -3 0.5 -6.5t-0.5 -6.5q-1 -8 -2 -14.5t0 -14.5q1 0 1 -1q0 -7 -1 -11q1 -5 1.5 -14t-0.5 -20v-19v-17t-1 -21q0 -7 0.5 -14t0.5 -12t0.5 -8.5t1.5 -6.5q0 -3 1 -4l3 -24l6.5 -31.5t8.5 -31.5q4 -12 11 -26q5 -13 13 -21q3 -3 6.5 -5t7.5 -4zM242 604q-10 -6 -18.5 -9.5
t-17.5 -3.5q-15 0 -26.5 7t-20 17.5t-13.5 22.5t-6 22q-1 16 5 31t16 26.5t22 18t22 6.5q7 -2 10.5 -8t5.5 -11q1 -9 -1 -8t-1 -4q-7 0 -15 -7t-14.5 -18t-10.5 -24t-3 -25q1 -13 8 -18.5t12 -5.5q12 0 21.5 9t16 22t10 27.5t2.5 25.5q-2 12 -10.5 16t-9.5 7q0 5 5 7t7 2
q6 0 10 -3.5t7 -8.5l7 -3q6 -3 9.5 -9.5t4.5 -12.5v-2q1 -2 1 -4.5t1 -5.5v-24q0 -2 1 -2.5t1 -2.5q-3 -6 -6.5 -14.5t-8 -15.5t-10.5 -12t-13 -5z" />
    <glyph glyph-name="Uacute" unicode="&#xda;" horiz-adv-x="368" 
d="M179 38l3.5 3.5l3.5 3.5q2 0 6 2l9 8l6 9q4 8 7 12l14 26l8 16l3 8v-1l9 30l4 19q3 11 5.5 22t4.5 22h-1q3 9 3 21l6 37l4 31l6 39q2 10 4 15q0 2 -0.5 2.5t-0.5 2.5q2 5 2 9.5t2 9.5q0 8 1 15t1 15l2 16q0 4 1 8t2 7q0 4 1 6l3 18q1 10 5 21l5 11q3 6 7 10l3 3l5 4l4 6
q6 8 9 10h3q4 2 12 0q2 -1 4 -3.5t4 -4.5q2 -4 2 -6v-6q-1 -4 -1 -14v-7v-11l2 -25l-2 -3l-3 -5q0 -2 -2 -6q0 -5 -0.5 -10t-1.5 -11q-2 -8 -2.5 -16.5t-2.5 -17.5l-3 -18q0 -3 -0.5 -5.5t-1.5 -5.5l-4 -28l-8.5 -56t-10.5 -52q0 -3 -0.5 -5.5t-0.5 -3.5h-2q-2 -10 -4.5 -21
t-6.5 -24q-2 -8 -5 -16l-6 -16q-3 -13 -9 -25l-5 -13l-9 -21q-2 -2 -2 -3t-1 -3q-3 -7 -5.5 -13.5t-6.5 -13.5l-10 -15.5l-10 -14.5q-6 -8 -13 -14t-14 -11q-4 -3 -12 -7q-3 -3 -9 -5q-4 -2 -8.5 -2.5t-9.5 -1.5q-5 -2 -11 0q-4 0 -7.5 1t-7.5 2l-8 3q-8 2 -15.5 6t-14.5 9
q-5 3 -8.5 5.5t-6.5 6.5l-14 13q-11 13 -18 30l-4 9l-6 18q-2 6 -4.5 12t-4.5 12q-2 4 -4 12q-3 14 -5.5 27t-4.5 26q-2 5 -2 10t-1 10q-1 8 -2.5 16t-2.5 17v29q-1 8 -1 15v14v12.5t1 11.5q2 14 4 22q1 13 1 24.5v24.5v8v5q0 2 -0.5 4t-0.5 4t0.5 4.5t0.5 4.5q0 7 1 9l-2 3
q1 2 1 8q0 4 1 7.5t3 8.5q1 3 1 11q0 2 0.5 5t0.5 5q2 8 2 14q1 7 6 13l3 10l5 10l6 9q8 11 18 14q6 0 8 -2h3l5 -2q6 -2 8 -4q6 -4 9 -7l5 -9q5 -2 7 -10q2 -5 3 -12t1 -15v-14q0 -10 -1 -14q0 -5 -0.5 -9t0.5 -6v-8.5t1 -8.5v2q0 -6 0.5 -11.5t0.5 -11.5q1 -4 1 -8v-9
q1 -3 0.5 -6.5t-0.5 -6.5q-1 -8 -2 -14.5t0 -14.5q1 0 1 -1q0 -7 -1 -11q1 -5 1.5 -14t-0.5 -20v-19v-17t-1 -21q0 -7 0.5 -14t0.5 -12t0.5 -8.5t1.5 -6.5q0 -3 1 -4l3 -24l6.5 -31.5t8.5 -31.5q4 -12 11 -26q5 -13 13 -21q3 -3 6.5 -5t7.5 -4zM179 542q-5 0 -6 2.5t-2 6.5
q0 10 11.5 29.5t25.5 41l26 41.5t15 31q3 3 7 3q8 0 17.5 -6.5t18.5 -15t15 -16.5t6 -12q0 -6 -6 -17t-16 -23.5t-22 -24t-23 -19.5q-8 -6 -19 -10t-20.5 -6.5t-17 -3.5t-8.5 -1h-2v0z" />
    <glyph glyph-name="Ubreve" unicode="&#x16c;" horiz-adv-x="368" 
d="M179 38l3.5 3.5l3.5 3.5q2 0 6 2l9 8l6 9q4 8 7 12l14 26l8 16l3 8v-1l9 30l4 19q3 11 5.5 22t4.5 22h-1q3 9 3 21l6 37l4 31l6 39q2 10 4 15q0 2 -0.5 2.5t-0.5 2.5q2 5 2 9.5t2 9.5q0 8 1 15t1 15l2 16q0 4 1 8t2 7q0 4 1 6l3 18q1 10 5 21l5 11q3 6 7 10l3 3l5 4l4 6
q6 8 9 10h3q4 2 12 0q2 -1 4 -3.5t4 -4.5q2 -4 2 -6v-6q-1 -4 -1 -14v-7v-11l2 -25l-2 -3l-3 -5q0 -2 -2 -6q0 -5 -0.5 -10t-1.5 -11q-2 -8 -2.5 -16.5t-2.5 -17.5l-3 -18q0 -3 -0.5 -5.5t-1.5 -5.5l-4 -28l-8.5 -56t-10.5 -52q0 -3 -0.5 -5.5t-0.5 -3.5h-2q-2 -10 -4.5 -21
t-6.5 -24q-2 -8 -5 -16l-6 -16q-3 -13 -9 -25l-5 -13l-9 -21q-2 -2 -2 -3t-1 -3q-3 -7 -5.5 -13.5t-6.5 -13.5l-10 -15.5l-10 -14.5q-6 -8 -13 -14t-14 -11q-4 -3 -12 -7q-3 -3 -9 -5q-4 -2 -8.5 -2.5t-9.5 -1.5q-5 -2 -11 0q-4 0 -7.5 1t-7.5 2l-8 3q-8 2 -15.5 6t-14.5 9
q-5 3 -8.5 5.5t-6.5 6.5l-14 13q-11 13 -18 30l-4 9l-6 18q-2 6 -4.5 12t-4.5 12q-2 4 -4 12q-3 14 -5.5 27t-4.5 26q-2 5 -2 10t-1 10q-1 8 -2.5 16t-2.5 17v29q-1 8 -1 15v14v12.5t1 11.5q2 14 4 22q1 13 1 24.5v24.5v8v5q0 2 -0.5 4t-0.5 4t0.5 4.5t0.5 4.5q0 7 1 9l-2 3
q1 2 1 8q0 4 1 7.5t3 8.5q1 3 1 11q0 2 0.5 5t0.5 5q2 8 2 14q1 7 6 13l3 10l5 10l6 9q8 11 18 14q6 0 8 -2h3l5 -2q6 -2 8 -4q6 -4 9 -7l5 -9q5 -2 7 -10q2 -5 3 -12t1 -15v-14q0 -10 -1 -14q0 -5 -0.5 -9t0.5 -6v-8.5t1 -8.5v2q0 -6 0.5 -11.5t0.5 -11.5q1 -4 1 -8v-9
q1 -3 0.5 -6.5t-0.5 -6.5q-1 -8 -2 -14.5t0 -14.5q1 0 1 -1q0 -7 -1 -11q1 -5 1.5 -14t-0.5 -20v-19v-17t-1 -21q0 -7 0.5 -14t0.5 -12t0.5 -8.5t1.5 -6.5q0 -3 1 -4l3 -24l6.5 -31.5t8.5 -31.5q4 -12 11 -26q5 -13 13 -21q3 -3 6.5 -5t7.5 -4zM296 732q-1 2 -2 6t-2 9
q-1 6 1.5 11.5t10.5 7.5q8 -20 16 -32.5t10 -28.5v-8t-1 -9q-2 -9 -9 -20t-17.5 -22.5t-22.5 -22t-23 -16.5q-18 -11 -36.5 -16t-35.5 -5t-33 7.5t-29 20.5t-22 29t-10 34q-1 5 -0.5 9t1.5 9q1 7 6.5 19t14.5 23.5t20.5 20t23.5 8.5q3 0 7.5 -1t6.5 -3q-2 -6 -9.5 -14
t-16 -18.5t-15 -23.5t-4.5 -29q2 -19 20 -27.5t38 -8.5t40.5 7.5t37 20t26 28t8.5 31.5v4z" />
    <glyph glyph-name="Ugrave" unicode="&#xd9;" horiz-adv-x="368" 
d="M179 38l3.5 3.5l3.5 3.5q2 0 6 2l9 8l6 9q4 8 7 12l14 26l8 16l3 8v-1l9 30l4 19q3 11 5.5 22t4.5 22h-1q3 9 3 21l6 37l4 31l6 39q2 10 4 15q0 2 -0.5 2.5t-0.5 2.5q2 5 2 9.5t2 9.5q0 8 1 15t1 15l2 16q0 4 1 8t2 7q0 4 1 6l3 18q1 10 5 21l5 11q3 6 7 10l3 3l5 4l4 6
q6 8 9 10h3q4 2 12 0q2 -1 4 -3.5t4 -4.5q2 -4 2 -6v-6q-1 -4 -1 -14v-7v-11l2 -25l-2 -3l-3 -5q0 -2 -2 -6q0 -5 -0.5 -10t-1.5 -11q-2 -8 -2.5 -16.5t-2.5 -17.5l-3 -18q0 -3 -0.5 -5.5t-1.5 -5.5l-4 -28l-8.5 -56t-10.5 -52q0 -3 -0.5 -5.5t-0.5 -3.5h-2q-2 -10 -4.5 -21
t-6.5 -24q-2 -8 -5 -16l-6 -16q-3 -13 -9 -25l-5 -13l-9 -21q-2 -2 -2 -3t-1 -3q-3 -7 -5.5 -13.5t-6.5 -13.5l-10 -15.5l-10 -14.5q-6 -8 -13 -14t-14 -11q-4 -3 -12 -7q-3 -3 -9 -5q-4 -2 -8.5 -2.5t-9.5 -1.5q-5 -2 -11 0q-4 0 -7.5 1t-7.5 2l-8 3q-8 2 -15.5 6t-14.5 9
q-5 3 -8.5 5.5t-6.5 6.5l-14 13q-11 13 -18 30l-4 9l-6 18q-2 6 -4.5 12t-4.5 12q-2 4 -4 12q-3 14 -5.5 27t-4.5 26q-2 5 -2 10t-1 10q-1 8 -2.5 16t-2.5 17v29q-1 8 -1 15v14v12.5t1 11.5q2 14 4 22q1 13 1 24.5v24.5v8v5q0 2 -0.5 4t-0.5 4t0.5 4.5t0.5 4.5q0 7 1 9l-2 3
q1 2 1 8q0 4 1 7.5t3 8.5q1 3 1 11q0 2 0.5 5t0.5 5q2 8 2 14q1 7 6 13l3 10l5 10l6 9q8 11 18 14q6 0 8 -2h3l5 -2q6 -2 8 -4q6 -4 9 -7l5 -9q5 -2 7 -10q2 -5 3 -12t1 -15v-14q0 -10 -1 -14q0 -5 -0.5 -9t0.5 -6v-8.5t1 -8.5v2q0 -6 0.5 -11.5t0.5 -11.5q1 -4 1 -8v-9
q1 -3 0.5 -6.5t-0.5 -6.5q-1 -8 -2 -14.5t0 -14.5q1 0 1 -1q0 -7 -1 -11q1 -5 1.5 -14t-0.5 -20v-19v-17t-1 -21q0 -7 0.5 -14t0.5 -12t0.5 -8.5t1.5 -6.5q0 -3 1 -4l3 -24l6.5 -31.5t8.5 -31.5q4 -12 11 -26q5 -13 13 -21q3 -3 6.5 -5t7.5 -4zM107 680q1 4 3.5 7.5t7.5 3.5
q18 0 40 -11t42.5 -27.5t36 -36.5t19.5 -37q-4 -11 -10 -18t-18 -7q-16 0 -36.5 14t-38.5 33.5t-31 41.5t-15 37z" />
    <glyph glyph-name="Utilde" unicode="&#x168;" horiz-adv-x="368" 
d="M179 38l3.5 3.5l3.5 3.5q2 0 6 2l9 8l6 9q4 8 7 12l14 26l8 16l3 8v-1l9 30l4 19q3 11 5.5 22t4.5 22h-1q3 9 3 21l6 37l4 31l6 39q2 10 4 15q0 2 -0.5 2.5t-0.5 2.5q2 5 2 9.5t2 9.5q0 8 1 15t1 15l2 16q0 4 1 8t2 7q0 4 1 6l3 18q1 10 5 21l5 11q3 6 7 10l3 3l5 4l4 6
q6 8 9 10h3q4 2 12 0q2 -1 4 -3.5t4 -4.5q2 -4 2 -6v-6q-1 -4 -1 -14v-7v-11l2 -25l-2 -3l-3 -5q0 -2 -2 -6q0 -5 -0.5 -10t-1.5 -11q-2 -8 -2.5 -16.5t-2.5 -17.5l-3 -18q0 -3 -0.5 -5.5t-1.5 -5.5l-4 -28l-8.5 -56t-10.5 -52q0 -3 -0.5 -5.5t-0.5 -3.5h-2q-2 -10 -4.5 -21
t-6.5 -24q-2 -8 -5 -16l-6 -16q-3 -13 -9 -25l-5 -13l-9 -21q-2 -2 -2 -3t-1 -3q-3 -7 -5.5 -13.5t-6.5 -13.5l-10 -15.5l-10 -14.5q-6 -8 -13 -14t-14 -11q-4 -3 -12 -7q-3 -3 -9 -5q-4 -2 -8.5 -2.5t-9.5 -1.5q-5 -2 -11 0q-4 0 -7.5 1t-7.5 2l-8 3q-8 2 -15.5 6t-14.5 9
q-5 3 -8.5 5.5t-6.5 6.5l-14 13q-11 13 -18 30l-4 9l-6 18q-2 6 -4.5 12t-4.5 12q-2 4 -4 12q-3 14 -5.5 27t-4.5 26q-2 5 -2 10t-1 10q-1 8 -2.5 16t-2.5 17v29q-1 8 -1 15v14v12.5t1 11.5q2 14 4 22q1 13 1 24.5v24.5v8v5q0 2 -0.5 4t-0.5 4t0.5 4.5t0.5 4.5q0 7 1 9l-2 3
q1 2 1 8q0 4 1 7.5t3 8.5q1 3 1 11q0 2 0.5 5t0.5 5q2 8 2 14q1 7 6 13l3 10l5 10l6 9q8 11 18 14q6 0 8 -2h3l5 -2q6 -2 8 -4q6 -4 9 -7l5 -9q5 -2 7 -10q2 -5 3 -12t1 -15v-14q0 -10 -1 -14q0 -5 -0.5 -9t0.5 -6v-8.5t1 -8.5v2q0 -6 0.5 -11.5t0.5 -11.5q1 -4 1 -8v-9
q1 -3 0.5 -6.5t-0.5 -6.5q-1 -8 -2 -14.5t0 -14.5q1 0 1 -1q0 -7 -1 -11q1 -5 1.5 -14t-0.5 -20v-19v-17t-1 -21q0 -7 0.5 -14t0.5 -12t0.5 -8.5t1.5 -6.5q0 -3 1 -4l3 -24l6.5 -31.5t8.5 -31.5q4 -12 11 -26q5 -13 13 -21q3 -3 6.5 -5t7.5 -4zM313 582q-5 -2 -7.5 -2.5
t-6.5 -1.5q-17 -4 -36.5 -11.5t-39.5 -9.5q-10 -1 -16 1.5t-14 4.5q-10 -1 -18 2q-10 5 -13 17q-17 -7 -28 -10t-24 -4q-26 -2 -38 14q0 8 3.5 11t9.5 10q4 3 7.5 6t6.5 5q4 2 6.5 2t7.5 1q16 4 35 12t38 10q20 3 39.5 -1.5t29.5 -22.5q21 5 40.5 9t36.5 2q5 -10 4 -17
q0 -13 -11 -18q-3 -3 -6.5 -5.5t-5.5 -3.5z" />
    <glyph glyph-name="Udieresis" unicode="&#xdc;" horiz-adv-x="368" 
d="M179 38l3.5 3.5l3.5 3.5q2 0 6 2l9 8l6 9q4 8 7 12l14 26l8 16l3 8v-1l9 30l4 19q3 11 5.5 22t4.5 22h-1q3 9 3 21l6 37l4 31l6 39q2 10 4 15q0 2 -0.5 2.5t-0.5 2.5q2 5 2 9.5t2 9.5q0 8 1 15t1 15l2 16q0 4 1 8t2 7q0 4 1 6l3 18q1 10 5 21l5 11q3 6 7 10l3 3l5 4l4 6
q6 8 9 10h3q4 2 12 0q2 -1 4 -3.5t4 -4.5q2 -4 2 -6v-6q-1 -4 -1 -14v-7v-11l2 -25l-2 -3l-3 -5q0 -2 -2 -6q0 -5 -0.5 -10t-1.5 -11q-2 -8 -2.5 -16.5t-2.5 -17.5l-3 -18q0 -3 -0.5 -5.5t-1.5 -5.5l-4 -28l-8.5 -56t-10.5 -52q0 -3 -0.5 -5.5t-0.5 -3.5h-2q-2 -10 -4.5 -21
t-6.5 -24q-2 -8 -5 -16l-6 -16q-3 -13 -9 -25l-5 -13l-9 -21q-2 -2 -2 -3t-1 -3q-3 -7 -5.5 -13.5t-6.5 -13.5l-10 -15.5l-10 -14.5q-6 -8 -13 -14t-14 -11q-4 -3 -12 -7q-3 -3 -9 -5q-4 -2 -8.5 -2.5t-9.5 -1.5q-5 -2 -11 0q-4 0 -7.5 1t-7.5 2l-8 3q-8 2 -15.5 6t-14.5 9
q-5 3 -8.5 5.5t-6.5 6.5l-14 13q-11 13 -18 30l-4 9l-6 18q-2 6 -4.5 12t-4.5 12q-2 4 -4 12q-3 14 -5.5 27t-4.5 26q-2 5 -2 10t-1 10q-1 8 -2.5 16t-2.5 17v29q-1 8 -1 15v14v12.5t1 11.5q2 14 4 22q1 13 1 24.5v24.5v8v5q0 2 -0.5 4t-0.5 4t0.5 4.5t0.5 4.5q0 7 1 9l-2 3
q1 2 1 8q0 4 1 7.5t3 8.5q1 3 1 11q0 2 0.5 5t0.5 5q2 8 2 14q1 7 6 13l3 10l5 10l6 9q8 11 18 14q6 0 8 -2h3l5 -2q6 -2 8 -4q6 -4 9 -7l5 -9q5 -2 7 -10q2 -5 3 -12t1 -15v-14q0 -10 -1 -14q0 -5 -0.5 -9t0.5 -6v-8.5t1 -8.5v2q0 -6 0.5 -11.5t0.5 -11.5q1 -4 1 -8v-9
q1 -3 0.5 -6.5t-0.5 -6.5q-1 -8 -2 -14.5t0 -14.5q1 0 1 -1q0 -7 -1 -11q1 -5 1.5 -14t-0.5 -20v-19v-17t-1 -21q0 -7 0.5 -14t0.5 -12t0.5 -8.5t1.5 -6.5q0 -3 1 -4l3 -24l6.5 -31.5t8.5 -31.5q4 -12 11 -26q5 -13 13 -21q3 -3 6.5 -5t7.5 -4zM127 581q-30 3 -48 25l-2 4
q-1 12 0 26q4 31 20.5 46.5t33.5 15.5q25 0 37 -15.5t7 -48.5v-8q-4 -22 -21 -33.5t-27 -11.5zM263 587q-11 7 -19.5 21.5t-5.5 36.5q2 21 9.5 36.5t33.5 15.5q10 0 20.5 -3t18.5 -9.5t12.5 -15.5t3.5 -21l-9 -21q-3 -14 -9 -22.5t-13 -13t-14.5 -6t-13.5 -1.5q-7 0 -14 3z
" />
    <glyph glyph-name="Ucircumflex" unicode="&#xdb;" horiz-adv-x="368" 
d="M179 36l3.5 3.5l3.5 3.5q2 0 6 2l9 8l6 9q4 8 7 12l14 26l8 16l3 8v-1l9 30l4 19q3 11 5.5 22t4.5 22h-1q3 9 3 21l6 37l4 31l6 39q2 10 4 15q0 2 -0.5 2.5t-0.5 2.5q2 5 2 9.5t2 9.5q0 8 1 15t1 15l2 16q0 4 1 8t2 7q0 4 1 6l3 18q1 10 5 21l5 11q3 6 7 10l3 3l5 4l4 6
q6 8 9 10h3q4 2 12 0q2 -1 4 -3.5t4 -4.5q2 -4 2 -6v-6q-1 -4 -1 -14v-7v-11l2 -25l-2 -3l-3 -5q0 -2 -2 -6q0 -5 -0.5 -10t-1.5 -11q-2 -8 -2.5 -16.5t-2.5 -17.5l-3 -18q0 -3 -0.5 -5.5t-1.5 -5.5l-4 -28l-8.5 -56t-10.5 -52q0 -3 -0.5 -5.5t-0.5 -3.5h-2q-2 -10 -4.5 -21
t-6.5 -24q-2 -8 -5 -16l-6 -16q-3 -13 -9 -25l-5 -13l-9 -21q-2 -2 -2 -3t-1 -3q-3 -7 -5.5 -13.5t-6.5 -13.5l-10 -15.5l-10 -14.5q-6 -8 -13 -14t-14 -11q-4 -3 -12 -7q-3 -3 -9 -5q-4 -2 -8.5 -2.5t-9.5 -1.5q-5 -2 -11 0q-4 0 -7.5 1t-7.5 2l-8 3q-8 2 -15.5 6t-14.5 9
q-5 3 -8.5 5.5t-6.5 6.5l-14 13q-11 13 -18 30l-4 9l-6 18q-2 6 -4.5 12t-4.5 12q-2 4 -4 12q-3 14 -5.5 27t-4.5 26q-2 5 -2 10t-1 10q-1 8 -2.5 16t-2.5 17v29q-1 8 -1 15v14v12.5t1 11.5q2 14 4 22q1 13 1 24.5v24.5v8v5q0 2 -0.5 4t-0.5 4t0.5 4.5t0.5 4.5q0 7 1 9l-2 3
q1 2 1 8q0 4 1 7.5t3 8.5q1 3 1 11q0 2 0.5 5t0.5 5q2 8 2 14q1 7 6 13l3 10l5 10l6 9q8 11 18 14q6 0 8 -2h3l5 -2q6 -2 8 -4q6 -4 9 -7l5 -9q5 -2 7 -10q2 -5 3 -12t1 -15v-14q0 -10 -1 -14q0 -5 -0.5 -9t0.5 -6v-8.5t1 -8.5v2q0 -6 0.5 -11.5t0.5 -11.5q1 -4 1 -8v-9
q1 -3 0.5 -6.5t-0.5 -6.5q-1 -8 -2 -14.5t0 -14.5q1 0 1 -1q0 -7 -1 -11q1 -5 1.5 -14t-0.5 -20v-19v-17t-1 -21q0 -7 0.5 -14t0.5 -12t0.5 -8.5t1.5 -6.5q0 -3 1 -4l3 -24l6.5 -31.5t8.5 -31.5q4 -12 11 -26q5 -13 13 -21q3 -3 6.5 -5t7.5 -4zM233 699q12 -23 29 -48
t37 -42q6 -8 14.5 -13.5t10.5 -11.5q1 -6 -17 -8h-3l-10 -1q-23 3 -45 19t-49 53q-25 -22 -46 -43t-35 -21h-5q-2 -1 -7 -1q-8 0 -21.5 6t-14.5 16l8 8t20.5 19l27 24.5l27.5 25.5q11 8 20.5 19.5t25.5 11.5h3q3 1 9 1q5 0 12 -4t9 -10z" />
    <glyph glyph-name="cacute" unicode="&#x107;" horiz-adv-x="356" 
d="M358 141q2 -6 1 -12.5t0 -12.5v-4q-5 -21 -24.5 -46.5t-46.5 -47.5t-58 -36.5t-59 -14.5q-39 0 -67 14.5t-46.5 39t-27 56.5t-8.5 66t5 74t16.5 81t29 79t42.5 67.5t58 47t75 17.5q11 0 24.5 -3.5t25.5 -10.5t20 -17t8 -23q0 -2 -1 -8t-2 -13t-2.5 -13t-2.5 -7l1 -4
q-5 -12 -18 -12q-2 0 -8.5 2.5t-8.5 3.5l-3 -1l-2 1q1 3 2.5 9l3 12.5t2 13t0.5 9.5q0 4 -4 5t-9 1t-11 -0.5t-10 1.5q-18 0 -33.5 -16.5t-28.5 -42.5t-23 -57.5t-18 -62t-13 -56t-8 -39.5q5 -14 6.5 -29t3.5 -30t6.5 -29.5t16.5 -26.5q9 -3 15.5 -9t13.5 -11.5t14 -10
t17 -4.5l32.5 20t27.5 25q20 7 27 18.5t11 22.5t9 19.5t21 8.5zM188 552q-5 0 -6 2.5t-2 6.5q0 10 11.5 29.5t25.5 41l26 41.5t15 31q3 3 7 3q8 0 17.5 -6.5t18.5 -15t15 -16.5t6 -12q0 -6 -6 -17t-16 -23.5t-22 -24t-23 -19.5q-8 -6 -19 -10t-20.5 -6.5t-17 -3.5t-8.5 -1
h-2v0z" />
    <glyph glyph-name="ccaron" unicode="&#x10d;" horiz-adv-x="356" 
d="M358 141q2 -6 1 -12.5t0 -12.5v-4q-5 -21 -24.5 -46.5t-46.5 -47.5t-58 -36.5t-59 -14.5q-39 0 -67 14.5t-46.5 39t-27 56.5t-8.5 66t5 74t16.5 81t29 79t42.5 67.5t58 47t75 17.5q11 0 24.5 -3.5t25.5 -10.5t20 -17t8 -23q0 -2 -1 -8t-2 -13t-2.5 -13t-2.5 -7l1 -4
q-5 -12 -18 -12q-2 0 -8.5 2.5t-8.5 3.5l-3 -1l-2 1q1 3 2.5 9l3 12.5t2 13t0.5 9.5q0 4 -4 5t-9 1t-11 -0.5t-10 1.5q-18 0 -33.5 -16.5t-28.5 -42.5t-23 -57.5t-18 -62t-13 -56t-8 -39.5q5 -14 6.5 -29t3.5 -30t6.5 -29.5t16.5 -26.5q9 -3 15.5 -9t13.5 -11.5t14 -10
t17 -4.5l32.5 20t27.5 25q20 7 27 18.5t11 22.5t9 19.5t21 8.5zM175 567q-12 23 -29 48t-36 42q-6 8 -14.5 13.5t-11.5 11.5q0 6 18 8h2l11 1q22 -3 44 -19t49 -53q25 22 46 43t35 21h5q2 1 8 1q8 0 21 -6t15 -16l-8 -8t-20.5 -19l-27.5 -24.5l-28 -25.5q-11 -8 -20.5 -19.5
t-24.5 -11.5h-3q-3 -1 -10 -1q-5 0 -12 4t-9 10z" />
    <glyph glyph-name="ccedilla" unicode="&#xe7;" horiz-adv-x="356" 
d="M358 141q2 -6 1 -12.5t0 -12.5v-4q-5 -21 -24.5 -46.5t-46.5 -47.5t-58 -36.5t-59 -14.5q-39 0 -67 14.5t-46.5 39t-27 56.5t-8.5 66t5 74t16.5 81t29 79t42.5 67.5t58 47t75 17.5q11 0 24.5 -3.5t25.5 -10.5t20 -17t8 -23q0 -2 -1 -8t-2 -13t-2.5 -13t-2.5 -7l1 -4
q-5 -12 -18 -12q-2 0 -8.5 2.5t-8.5 3.5l-3 -1l-2 1q1 3 2.5 9l3 12.5t2 13t0.5 9.5q0 4 -4 5t-9 1t-11 -0.5t-10 1.5q-18 0 -33.5 -16.5t-28.5 -42.5t-23 -57.5t-18 -62t-13 -56t-8 -39.5q5 -14 6.5 -29t3.5 -30t6.5 -29.5t16.5 -26.5q9 -3 15.5 -9t13.5 -11.5t14 -10
t17 -4.5l32.5 20t27.5 25q20 7 27 18.5t11 22.5t9 19.5t21 8.5zM229 -71q-5 -8 -3.5 -14.5t-2.5 -14.5q-2 -8 -4.5 -16t-1.5 -16v-3l3 -1q-5 -5 -9 -11t-4 -11q0 5 5 7l36 39q5 7 17.5 14.5t18.5 12.5l9 7t10 7q7 -2 9 -9t3 -11q1 -16 1.5 -31t-0.5 -32v-3q-5 -16 -9 -31
t-11 -30q-11 -33 -20.5 -42.5t-15.5 -5t-7 17.5t7 26q0 20 1 40t-1 38q-1 5 -2 11t-6 4q-6 -9 -14.5 -19l-17 -19.5l-15 -16.5t-9.5 -9q-12 -17 -21 -18t-13.5 6t-4.5 18.5t7 20.5q6 28 10 56t9 54q-1 9 2 15.5t2 13.5q0 5 -1 8q2 5 2.5 11t2.5 11q24 14 37 14q10 0 12 -12
q1 -9 -2.5 -21t-2.5 -18q0 -4 -3.5 -14.5t-3.5 -12.5q0 1 1 1v-11z" />
    <glyph glyph-name="cdotaccent" unicode="&#x10b;" horiz-adv-x="356" 
d="M358 141q2 -6 1 -12.5t0 -12.5v-4q-5 -21 -24.5 -46.5t-46.5 -47.5t-58 -36.5t-59 -14.5q-39 0 -67 14.5t-46.5 39t-27 56.5t-8.5 66t5 74t16.5 81t29 79t42.5 67.5t58 47t75 17.5q11 0 24.5 -3.5t25.5 -10.5t20 -17t8 -23q0 -2 -1 -8t-2 -13t-2.5 -13t-2.5 -7l1 -4
q-5 -12 -18 -12q-2 0 -8.5 2.5t-8.5 3.5l-3 -1l-2 1q1 3 2.5 9l3 12.5t2 13t0.5 9.5q0 4 -4 5t-9 1t-11 -0.5t-10 1.5q-18 0 -33.5 -16.5t-28.5 -42.5t-23 -57.5t-18 -62t-13 -56t-8 -39.5q5 -14 6.5 -29t3.5 -30t6.5 -29.5t16.5 -26.5q9 -3 15.5 -9t13.5 -11.5t14 -10
t17 -4.5l32.5 20t27.5 25q20 7 27 18.5t11 22.5t9 19.5t21 8.5zM232 565q-29 5 -45.5 20t-18.5 32q-2 27 12 38.5t37 11.5t43 -9.5t25 -35.5q1 -14 -3.5 -25t-11.5 -18.5t-15 -11.5t-13 -4q-4 0 -10 2z" />
    <glyph glyph-name="ccircumflex" unicode="&#x109;" horiz-adv-x="356" 
d="M358 141q2 -6 1 -12.5t0 -12.5v-4q-5 -21 -24.5 -46.5t-46.5 -47.5t-58 -36.5t-59 -14.5q-39 0 -67 14.5t-46.5 39t-27 56.5t-8.5 66t5 74t16.5 81t29 79t42.5 67.5t58 47t75 17.5q11 0 24.5 -3.5t25.5 -10.5t20 -17t8 -23q0 -2 -1 -8t-2 -13t-2.5 -13t-2.5 -7l1 -4
q-5 -12 -18 -12q-2 0 -8.5 2.5t-8.5 3.5l-3 -1l-2 1q1 3 2.5 9l3 12.5t2 13t0.5 9.5q0 4 -4 5t-9 1t-11 -0.5t-10 1.5q-18 0 -33.5 -16.5t-28.5 -42.5t-23 -57.5t-18 -62t-13 -56t-8 -39.5q5 -14 6.5 -29t3.5 -30t6.5 -29.5t16.5 -26.5q9 -3 15.5 -9t13.5 -11.5t14 -10
t17 -4.5l32.5 20t27.5 25q20 7 27 18.5t11 22.5t9 19.5t21 8.5zM253 654q12 -23 29 -48t37 -42q6 -8 14.5 -13.5t10.5 -11.5q1 -6 -17 -8h-3l-10 -1q-23 3 -45 19t-49 53q-25 -22 -46 -43t-35 -21h-5q-2 -1 -7 -1q-8 0 -21.5 6t-14.5 16l8 8t20.5 19l27 24.5l27.5 25.5
q11 8 20.5 19.5t25.5 11.5h3q3 1 9 1q5 0 12 -4t9 -10z" />
    <glyph glyph-name="racute" unicode="&#x155;" horiz-adv-x="372" 
d="M164 192l1 3l-8 7l-15 -4q0 -23 -4 -48.5t-9.5 -48.5t-9.5 -42t-4 -29q0 -14 7 -31q0 -8 -7 -13t-15 -5q-22 0 -39 17l-13 -8q-5 1 -10 7t-9 14t-6.5 16t-2.5 13q0 10 2.5 39.5l6 68t8 80.5l8.5 79t7.5 63t5.5 31l-3 8q2 11 0.5 25t-9.5 23l-8 -3l-3 6q0 9 7 16t16 8
l12 1l1 -1q10 0 19 4.5t20 4.5q3 0 5.5 -0.5t5.5 -1.5q12 -12 22 -30q-1 -7 2 -16q12 14 26 28t30 25.5t33.5 18.5t37.5 7q19 0 37.5 -8.5t33.5 -22.5t24 -32.5t9 -37.5q0 -31 -14.5 -58.5t-36 -52t-46.5 -45.5l-47 -39q3 -2 11 -15.5t15.5 -30.5l14 -32t6.5 -19l4 -6l-1 -3
l3 -8l2 -1q0 -8 6.5 -10t0.5 -8q3 -7 9 -13q8 -9 8.5 -8.5t-1 2.5t-1.5 2.5t7 -8.5l-1 -2l9 -15l-1 -2q0 -2 1.5 -5l2.5 -5l-1 -1q9 -11 13 -20l-1 -1q0 -3 2 -2.5t1 3.5q2 -8 6.5 -14.5t4.5 -14.5q0 -5 -5.5 -13.5t-7.5 -13.5l-9 -4l-3 1q-5 -4 -10.5 -4.5t-11.5 -0.5
q-19 0 -33 14.5t-25.5 37.5t-21 50.5l-19 54t-19.5 48t-23 31.5zM159 259l5 4h2q14 12 28 20t25 25q7 10 15 27.5t15 37t12 37.5t5 30q0 22 -21 22l-16 -1l-4 -2q-17 4 -29 -6l-24 -21q0 -17 -4.5 -34.5t-9.5 -35t-9.5 -35.5t-4.5 -37l1 -9q11 -9 14 -22zM148 558
q-5 0 -6 2.5t-2 6.5q0 10 11.5 29.5t25.5 41l26 41.5t15 31q3 3 7 3q8 0 17.5 -6.5t18.5 -15t15 -16.5t6 -12q0 -6 -6 -17t-16 -23.5t-22 -24t-23 -19.5q-8 -6 -19 -10t-20.5 -6.5t-17 -3.5t-8.5 -1h-2v0z" />
    <glyph glyph-name="rcaron" unicode="&#x159;" horiz-adv-x="372" 
d="M164 192l1 3l-8 7l-15 -4q0 -23 -4 -48.5t-9.5 -48.5t-9.5 -42t-4 -29q0 -14 7 -31q0 -8 -7 -13t-15 -5q-22 0 -39 17l-13 -8q-5 1 -10 7t-9 14t-6.5 16t-2.5 13q0 10 2.5 39.5l6 68t8 80.5l8.5 79t7.5 63t5.5 31l-3 8q2 11 0.5 25t-9.5 23l-8 -3l-3 6q0 9 7 16t16 8
l12 1l1 -1q10 0 19 4.5t20 4.5q3 0 5.5 -0.5t5.5 -1.5q12 -12 22 -30q-1 -7 2 -16q12 14 26 28t30 25.5t33.5 18.5t37.5 7q19 0 37.5 -8.5t33.5 -22.5t24 -32.5t9 -37.5q0 -31 -14.5 -58.5t-36 -52t-46.5 -45.5l-47 -39q3 -2 11 -15.5t15.5 -30.5l14 -32t6.5 -19l4 -6l-1 -3
l3 -8l2 -1q0 -8 6.5 -10t0.5 -8q3 -7 9 -13q8 -9 8.5 -8.5t-1 2.5t-1.5 2.5t7 -8.5l-1 -2l9 -15l-1 -2q0 -2 1.5 -5l2.5 -5l-1 -1q9 -11 13 -20l-1 -1q0 -3 2 -2.5t1 3.5q2 -8 6.5 -14.5t4.5 -14.5q0 -5 -5.5 -13.5t-7.5 -13.5l-9 -4l-3 1q-5 -4 -10.5 -4.5t-11.5 -0.5
q-19 0 -33 14.5t-25.5 37.5t-21 50.5l-19 54t-19.5 48t-23 31.5zM159 259l5 4h2q14 12 28 20t25 25q7 10 15 27.5t15 37t12 37.5t5 30q0 22 -21 22l-16 -1l-4 -2q-17 4 -29 -6l-24 -21q0 -17 -4.5 -34.5t-9.5 -35t-9.5 -35.5t-4.5 -37l1 -9q11 -9 14 -22zM172 584
q-12 23 -29 48t-36 42q-6 8 -14.5 13.5t-11.5 11.5q0 6 18 8h2l11 1q22 -3 44 -19t49 -53q25 22 46 43t35 21h5q2 1 8 1q8 0 21 -6t15 -16l-8 -8t-20.5 -19l-27.5 -24.5l-28 -25.5q-11 -8 -20.5 -19.5t-24.5 -11.5h-3q-3 -1 -10 -1q-5 0 -12 4t-9 10z" />
    <glyph glyph-name="rcommaaccent" unicode="&#x157;" horiz-adv-x="372" 
d="M164 192l1 3l-8 7l-15 -4q0 -23 -4 -48.5t-9.5 -48.5t-9.5 -42t-4 -29q0 -14 7 -31q0 -8 -7 -13t-15 -5q-22 0 -39 17l-13 -8q-5 1 -10 7t-9 14t-6.5 16t-2.5 13q0 10 2.5 39.5l6 68t8 80.5l8.5 79t7.5 63t5.5 31l-3 8q2 11 0.5 25t-9.5 23l-8 -3l-3 6q0 9 7 16t16 8
l12 1l1 -1q10 0 19 4.5t20 4.5q3 0 5.5 -0.5t5.5 -1.5q12 -12 22 -30q-1 -7 2 -16q12 14 26 28t30 25.5t33.5 18.5t37.5 7q19 0 37.5 -8.5t33.5 -22.5t24 -32.5t9 -37.5q0 -31 -14.5 -58.5t-36 -52t-46.5 -45.5l-47 -39q3 -2 11 -15.5t15.5 -30.5l14 -32t6.5 -19l4 -6l-1 -3
l3 -8l2 -1q0 -8 6.5 -10t0.5 -8q3 -7 9 -13q8 -9 8.5 -8.5t-1 2.5t-1.5 2.5t7 -8.5l-1 -2l9 -15l-1 -2q0 -2 1.5 -5l2.5 -5l-1 -1q9 -11 13 -20l-1 -1q0 -3 2 -2.5t1 3.5q2 -8 6.5 -14.5t4.5 -14.5q0 -5 -5.5 -13.5t-7.5 -13.5l-9 -4l-3 1q-5 -4 -10.5 -4.5t-11.5 -0.5
q-19 0 -33 14.5t-25.5 37.5t-21 50.5l-19 54t-19.5 48t-23 31.5zM159 259l5 4h2q14 12 28 20t25 25q7 10 15 27.5t15 37t12 37.5t5 30q0 22 -21 22l-16 -1l-4 -2q-17 4 -29 -6l-24 -21q0 -17 -4.5 -34.5t-9.5 -35t-9.5 -35.5t-4.5 -37l1 -9q11 -9 14 -22zM167 535
q15 37 27.5 72.5t22.5 72.5q3 14 5 28t0 29q-1 5 3 9.5t7 2.5q16 -4 30 -11.5t26 -21.5q10 -14 13 -25.5t-2 -27.5q-8 -23 -19 -44t-25 -38q-14 -16 -28.5 -30l-28.5 -28q-8 -7 -15 -2.5t-16 14.5z" />
    <glyph glyph-name="zacute" unicode="&#x17a;" horiz-adv-x="396" 
d="M281 402q-1 0 -1 -0.5t-1 -0.5l-23 -4q-2 -1 -5 -1q-5 0 -7 -1q-5 -1 -10.5 -2.5t-11.5 -3.5l-23 -7q-7 -2 -17 -4l-23 -7l-14 -3q-2 0 -2 -1h-3q-7 -1 -14 -1.5t-13 -2.5q-5 0 -9 -0.5t-9 -1.5q-2 0 -4.5 -0.5t-4.5 -0.5h-2q-2 0 -4.5 -0.5t-4.5 0.5q-16 0 -20 11
q-4 7 -1 15q0 1 2 5q1 1 1 2t2 2q2 2 3 2l2 4q9 7 19.5 11t22.5 8q3 2 5 3t5 2q4 2 8.5 3.5t9.5 3.5l36 8q12 3 21.5 6.5t12.5 8.5q3 -1 6.5 -1h6.5v1q9 2 17.5 5.5t17.5 6.5l9 3.5l9 3.5q3 1 6.5 1.5t6.5 2.5l11 5q10 5 19 5q6 2 11 0h4l4 -2t4 -1q5 -3 11 -4q2 -2 4 -2.5
t4 -1.5q4 -2 6 -2q6 -2 10 -4q3 -1 5 -6q1 -1 1 -5q5 -9 8 -20l1 -1q2 -15 -4 -28l-3 -8l-21 -31l-19 -27q-14 -21 -33 -47q-2 -5 -5 -8l-1 -2q-1 -2 -1.5 -2t-0.5 -2l-4 -4l-11.5 -18t-12.5 -18l-12 -17l-22 -35q-2 -4 -4 -7t-4 -7l-10 -16l-10 -15l-14 -24q-1 -1 -1 -2
q-6 -11 -12.5 -21.5t-12.5 -21.5q-2 -5 -5 -8l-6 -12l-1 -2l-1 -2l-3 -3q0 -1 -1 -2l-4 -8q-3 -5 -4 -9t-3 -7h13h7.5t8.5 1h4l29 3q8 1 16.5 1t16.5 2l40 2l46 5q19 3 39 9q7 0 13 1t11 2h3q13 -2 14 -12v-2l1 -2q0 -2 1 -4q0 -2 0.5 -3t0.5 -3t-0.5 -5t-0.5 -5
q2 -11 -4 -19t-17 -12q-16 -5 -38 -7q-8 0 -14.5 -1.5t-13.5 -2.5q-5 -1 -10 -1.5t-10 -0.5q-8 -1 -15 -1.5t-14 -0.5q-3 0 -6 -0.5t-6 -0.5h-22q-4 -1 -7.5 -1.5t-8.5 -0.5q-2 0 -3.5 -0.5t-3.5 -0.5q-4 0 -7.5 -0.5t-7.5 -0.5q-5 0 -9.5 -0.5t-9.5 -0.5h-17q-1 0 -2 -0.5
t-2 -0.5q-8 -1 -16.5 -1.5t-16.5 -2.5h-4.5t-4.5 -1h-2h-4h-6q-2 0 -3.5 -0.5t-3.5 -0.5h-8q-4 -1 -12 -5q-2 -2 -8 -4h-3h-2q-3 0 -9 2l-14 3l-15 3q-5 3 -6 6q-2 1 -2 2.5t-1 3.5q-7 2 -10 7q-1 3 -1.5 6.5t1.5 8.5q-1 7 4 18l16 29l10 16l10 16l16 24l16 24l9 15l39 54
l14 19l8 13l8 10l4 6t4 5l6 7q2 3 3.5 5t3.5 5l9 13l3 5l27 37l12 15q2 3 4 5.5t4 5.5q11 13 20 26l9 10l2 4q-2 1 1.5 2.5t1.5 3.5q1 2 3.5 4.5l4.5 4.5v2l3 5q2 2 2 4zM158 487q-5 0 -6 2.5t-2 6.5q0 10 11.5 29.5t25.5 41l26 41.5t15 31q3 3 7 3q8 0 17.5 -6.5t18.5 -15
t15 -16.5t6 -12q0 -6 -6 -17t-16 -23.5t-22 -24t-23 -19.5q-8 -6 -19 -10t-20.5 -6.5t-17 -3.5t-8.5 -1h-2v0z" />
    <glyph glyph-name="zcaron" unicode="&#x17e;" horiz-adv-x="396" 
d="M281 402q-1 0 -1 -0.5t-1 -0.5l-23 -4q-2 -1 -5 -1q-5 0 -7 -1q-5 -1 -10.5 -2.5t-11.5 -3.5l-23 -7q-7 -2 -17 -4l-23 -7l-14 -3q-2 0 -2 -1h-3q-7 -1 -14 -1.5t-13 -2.5q-5 0 -9 -0.5t-9 -1.5q-2 0 -4.5 -0.5t-4.5 -0.5h-2q-2 0 -4.5 -0.5t-4.5 0.5q-16 0 -20 11
q-4 7 -1 15q0 1 2 5q1 1 1 2t2 2q2 2 3 2l2 4q9 7 19.5 11t22.5 8q3 2 5 3t5 2q4 2 8.5 3.5t9.5 3.5l36 8q12 3 21.5 6.5t12.5 8.5q3 -1 6.5 -1h6.5v1q9 2 17.5 5.5t17.5 6.5l9 3.5l9 3.5q3 1 6.5 1.5t6.5 2.5l11 5q10 5 19 5q6 2 11 0h4l4 -2t4 -1q5 -3 11 -4q2 -2 4 -2.5
t4 -1.5q4 -2 6 -2q6 -2 10 -4q3 -1 5 -6q1 -1 1 -5q5 -9 8 -20l1 -1q2 -15 -4 -28l-3 -8l-21 -31l-19 -27q-14 -21 -33 -47q-2 -5 -5 -8l-1 -2q-1 -2 -1.5 -2t-0.5 -2l-4 -4l-11.5 -18t-12.5 -18l-12 -17l-22 -35q-2 -4 -4 -7t-4 -7l-10 -16l-10 -15l-14 -24q-1 -1 -1 -2
q-6 -11 -12.5 -21.5t-12.5 -21.5q-2 -5 -5 -8l-6 -12l-1 -2l-1 -2l-3 -3q0 -1 -1 -2l-4 -8q-3 -5 -4 -9t-3 -7h13h7.5t8.5 1h4l29 3q8 1 16.5 1t16.5 2l40 2l46 5q19 3 39 9q7 0 13 1t11 2h3q13 -2 14 -12v-2l1 -2q0 -2 1 -4q0 -2 0.5 -3t0.5 -3t-0.5 -5t-0.5 -5
q2 -11 -4 -19t-17 -12q-16 -5 -38 -7q-8 0 -14.5 -1.5t-13.5 -2.5q-5 -1 -10 -1.5t-10 -0.5q-8 -1 -15 -1.5t-14 -0.5q-3 0 -6 -0.5t-6 -0.5h-22q-4 -1 -7.5 -1.5t-8.5 -0.5q-2 0 -3.5 -0.5t-3.5 -0.5q-4 0 -7.5 -0.5t-7.5 -0.5q-5 0 -9.5 -0.5t-9.5 -0.5h-17q-1 0 -2 -0.5
t-2 -0.5q-8 -1 -16.5 -1.5t-16.5 -2.5h-4.5t-4.5 -1h-2h-4h-6q-2 0 -3.5 -0.5t-3.5 -0.5h-8q-4 -1 -12 -5q-2 -2 -8 -4h-3h-2q-3 0 -9 2l-14 3l-15 3q-5 3 -6 6q-2 1 -2 2.5t-1 3.5q-7 2 -10 7q-1 3 -1.5 6.5t1.5 8.5q-1 7 4 18l16 29l10 16l10 16l16 24l16 24l9 15l39 54
l14 19l8 13l8 10l4 6t4 5l6 7q2 3 3.5 5t3.5 5l9 13l3 5l27 37l12 15q2 3 4 5.5t4 5.5q11 13 20 26l9 10l2 4q-2 1 1.5 2.5t1.5 3.5q1 2 3.5 4.5l4.5 4.5v2l3 5q2 2 2 4zM176 505q-12 23 -29 48t-36 42q-6 8 -14.5 13.5t-11.5 11.5q0 6 18 8h2l11 1q22 -3 44 -19t49 -53
q25 22 46 43t35 21h5q2 1 8 1q8 0 21 -6t15 -16l-8 -8t-20.5 -19l-27.5 -24.5l-28 -25.5q-11 -8 -20.5 -19.5t-24.5 -11.5h-3q-3 -1 -10 -1q-5 0 -12 4t-9 10z" />
    <glyph glyph-name="zdotaccent" unicode="&#x17c;" horiz-adv-x="396" 
d="M281 402q-1 0 -1 -0.5t-1 -0.5l-23 -4q-2 -1 -5 -1q-5 0 -7 -1q-5 -1 -10.5 -2.5t-11.5 -3.5l-23 -7q-7 -2 -17 -4l-23 -7l-14 -3q-2 0 -2 -1h-3q-7 -1 -14 -1.5t-13 -2.5q-5 0 -9 -0.5t-9 -1.5q-2 0 -4.5 -0.5t-4.5 -0.5h-2q-2 0 -4.5 -0.5t-4.5 0.5q-16 0 -20 11
q-4 7 -1 15q0 1 2 5q1 1 1 2t2 2q2 2 3 2l2 4q9 7 19.5 11t22.5 8q3 2 5 3t5 2q4 2 8.5 3.5t9.5 3.5l36 8q12 3 21.5 6.5t12.5 8.5q3 -1 6.5 -1h6.5v1q9 2 17.5 5.5t17.5 6.5l9 3.5l9 3.5q3 1 6.5 1.5t6.5 2.5l11 5q10 5 19 5q6 2 11 0h4l4 -2t4 -1q5 -3 11 -4q2 -2 4 -2.5
t4 -1.5q4 -2 6 -2q6 -2 10 -4q3 -1 5 -6q1 -1 1 -5q5 -9 8 -20l1 -1q2 -15 -4 -28l-3 -8l-21 -31l-19 -27q-14 -21 -33 -47q-2 -5 -5 -8l-1 -2q-1 -2 -1.5 -2t-0.5 -2l-4 -4l-11.5 -18t-12.5 -18l-12 -17l-22 -35q-2 -4 -4 -7t-4 -7l-10 -16l-10 -15l-14 -24q-1 -1 -1 -2
q-6 -11 -12.5 -21.5t-12.5 -21.5q-2 -5 -5 -8l-6 -12l-1 -2l-1 -2l-3 -3q0 -1 -1 -2l-4 -8q-3 -5 -4 -9t-3 -7h13h7.5t8.5 1h4l29 3q8 1 16.5 1t16.5 2l40 2l46 5q19 3 39 9q7 0 13 1t11 2h3q13 -2 14 -12v-2l1 -2q0 -2 1 -4q0 -2 0.5 -3t0.5 -3t-0.5 -5t-0.5 -5
q2 -11 -4 -19t-17 -12q-16 -5 -38 -7q-8 0 -14.5 -1.5t-13.5 -2.5q-5 -1 -10 -1.5t-10 -0.5q-8 -1 -15 -1.5t-14 -0.5q-3 0 -6 -0.5t-6 -0.5h-22q-4 -1 -7.5 -1.5t-8.5 -0.5q-2 0 -3.5 -0.5t-3.5 -0.5q-4 0 -7.5 -0.5t-7.5 -0.5q-5 0 -9.5 -0.5t-9.5 -0.5h-17q-1 0 -2 -0.5
t-2 -0.5q-8 -1 -16.5 -1.5t-16.5 -2.5h-4.5t-4.5 -1h-2h-4h-6q-2 0 -3.5 -0.5t-3.5 -0.5h-8q-4 -1 -12 -5q-2 -2 -8 -4h-3h-2q-3 0 -9 2l-14 3l-15 3q-5 3 -6 6q-2 1 -2 2.5t-1 3.5q-7 2 -10 7q-1 3 -1.5 6.5t1.5 8.5q-1 7 4 18l16 29l10 16l10 16l16 24l16 24l9 15l39 54
l14 19l8 13l8 10l4 6t4 5l6 7q2 3 3.5 5t3.5 5l9 13l3 5l27 37l12 15q2 3 4 5.5t4 5.5q11 13 20 26l9 10l2 4q-2 1 1.5 2.5t1.5 3.5q1 2 3.5 4.5l4.5 4.5v2l3 5q2 2 2 4zM245 543q-29 5 -45.5 20t-18.5 32q-2 27 12 38.5t37 11.5t43 -9.5t25 -35.5q1 -14 -3.5 -25
t-11.5 -18.5t-15 -11.5t-13 -4q-4 0 -10 2z" />
    <glyph glyph-name="tcommaaccent" unicode="&#x163;" horiz-adv-x="332" 
d="M181 376q0 -5 0.5 -9t0.5 -9h-1l2 -15v-7q0 -2 0.5 -2.5t0.5 -2.5v-14q0 -8 -4 -18q-1 -5 -1 -10v-10l-5 -55v-2l-2 -19q-2 -19 -3.5 -37t-2.5 -35l-1 -1q0 -2 -1 -5.5t-1 -5.5v-3v-22l2 -18l-4 -8t-4 -9q-1 -2 -2 -3.5t-1 -3.5v-1q1 -1 1 -2t1 -3q1 -5 1.5 -9.5
t0.5 -6.5t0.5 -2.5t0.5 -2.5t-0.5 -4t-0.5 -4q-1 -3 -2 -5.5t-2 -4.5v-1v-1h-1v-4t-2 -4l-3 -9l-6 -9l-3 -4l-3 -5q-5 -14 -17 -14h-5q-4 -2 -4 -7q-1 0 -1 0.5t-1 0.5q-6 3 -13 12q-5 5 -11 13.5t-8 15.5q-2 6 -2 8q-1 10 -1 18.5v18.5q0 4 0.5 7.5t0.5 8.5q0 8 0.5 17
t-0.5 19v5v21q0 5 0.5 9t1.5 9q1 8 3 17.5t3 18.5v7v8v10q0 8 -1 12q0 5 0.5 11t0.5 13q0 2 0.5 2.5t0.5 2.5v10q0 21 3 45l3 32l3 29q0 3 0.5 5.5t0.5 5.5l2 20l3 23l3.5 25t3.5 18q-2 0 -4.5 0.5t-5.5 0.5h-16h-16h-22q-5 0 -10.5 -0.5t-11.5 -0.5h-7h-7h-6.5t-6.5 2
q-10 1 -15 8q-4 3 -4 8t2.5 8.5t5.5 6.5l5 3l16 3q5 3 12 4l14 2l23 2q10 2 15 2l19 3q2 0 4 0.5t4 0.5l7 3v1q2 4 3.5 8t7.5 5q4 0 6 -1q1 -1 2.5 -2t2.5 -3q8 1 16.5 0t16.5 -3l11 -3l33 3q8 0 15 1t14 1q13 0 25.5 0.5t25.5 1.5h13q5 0 11 -0.5t12 -1.5h5q2 0 4 -2
q11 -2 14 -10q2 -5 4 -9.5t2 -9.5q0 -2 -0.5 -2t-0.5 -2v-1l-5 -4q-4 -6 -12.5 -9.5t-19.5 -5.5l-14 -2t-15 -1h-12q-11 -1 -21.5 -1h-19.5q-2 0 -4 0.5t-4 0.5l-1 -1q0 -1 -0.5 -2.5t-0.5 -3.5l-7 -12q0 -1 -1 -1q1 -5 1 -9v-8q-1 -8 -2.5 -16t-5.5 -17zM152 554
q15 37 27.5 72.5t22.5 72.5q3 14 5 28t0 29q-1 5 3 9.5t7 2.5q16 -4 30 -11.5t26 -21.5q10 -14 13 -25.5t-2 -27.5q-8 -23 -19 -44t-25 -38q-14 -16 -28.5 -30l-28.5 -28q-8 -7 -15 -2.5t-16 14.5z" />
    <glyph glyph-name="sacute" unicode="&#x15b;" horiz-adv-x="356" 
d="M220 126q0 25 -20 50.5t-46 51l-51.5 51.5t-36.5 54q2 0 1.5 2t-0.5 3q0 12 -9 31.5t-9 41.5q0 6 4.5 11t9.5 8q-2 3 -0.5 6.5t-1.5 5.5q7 20 23 33t36 21t42 11.5t40 3.5q15 0 26 -4l3 1q19 -5 37 -15.5t32 -25t23 -33.5t9 -40q0 -6 -3.5 -18.5t-11.5 -12.5l-5 2l-8 -5
q-9 5 -13 17.5t-6 20.5l-5 1l-6 -1q-10 10 -32.5 14t-36.5 4q-19 0 -35 -9.5t-34 -14.5q0 -27 16 -53t33 -46l-1 -2q7 -7 23.5 -19.5t33.5 -27t30 -28t13 -22.5q11 -24 21 -40.5t17 -44.5l-2 -2q0 -42 -7.5 -73.5t-26 -52.5t-50 -31.5t-78.5 -10.5q-30 0 -59 8.5t-51.5 25.5
t-36 42t-13.5 58q0 10 8.5 14t18.5 3.5t18.5 -4.5t8.5 -11v-3q2 -15 2.5 -22.5t12.5 -10.5l18 -4l7 -1q16 -5 30 -10.5t31 -5.5q16 0 29 11.5t21 28.5t12.5 35.5t4.5 32.5zM141 530q-5 0 -6 2.5t-2 6.5q0 10 11.5 29.5t25.5 41l26 41.5t15 31q3 3 7 3q8 0 17.5 -6.5
t18.5 -15t15 -16.5t6 -12q0 -6 -6 -17t-16 -23.5t-22 -24t-23 -19.5q-8 -6 -19 -10t-20.5 -6.5t-17 -3.5t-8.5 -1h-2v0z" />
    <glyph glyph-name="scaron" unicode="&#x161;" horiz-adv-x="356" 
d="M220 126q0 25 -20 50.5t-46 51l-51.5 51.5t-36.5 54q2 0 1.5 2t-0.5 3q0 12 -9 31.5t-9 41.5q0 6 4.5 11t9.5 8q-2 3 -0.5 6.5t-1.5 5.5q7 20 23 33t36 21t42 11.5t40 3.5q15 0 26 -4l3 1q19 -5 37 -15.5t32 -25t23 -33.5t9 -40q0 -6 -3.5 -18.5t-11.5 -12.5l-5 2l-8 -5
q-9 5 -13 17.5t-6 20.5l-5 1l-6 -1q-10 10 -32.5 14t-36.5 4q-19 0 -35 -9.5t-34 -14.5q0 -27 16 -53t33 -46l-1 -2q7 -7 23.5 -19.5t33.5 -27t30 -28t13 -22.5q11 -24 21 -40.5t17 -44.5l-2 -2q0 -42 -7.5 -73.5t-26 -52.5t-50 -31.5t-78.5 -10.5q-30 0 -59 8.5t-51.5 25.5
t-36 42t-13.5 58q0 10 8.5 14t18.5 3.5t18.5 -4.5t8.5 -11v-3q2 -15 2.5 -22.5t12.5 -10.5l18 -4l7 -1q16 -5 30 -10.5t31 -5.5q16 0 29 11.5t21 28.5t12.5 35.5t4.5 32.5zM151 564q-12 23 -29 48t-36 42q-6 8 -14.5 13.5t-11.5 11.5q0 6 18 8h2l11 1q22 -3 44 -19t49 -53
q25 22 46 43t35 21h5q2 1 8 1q8 0 21 -6t15 -16l-8 -8t-20.5 -19l-27.5 -24.5l-28 -25.5q-11 -8 -20.5 -19.5t-24.5 -11.5h-3q-3 -1 -10 -1q-5 0 -12 4t-9 10z" />
    <glyph glyph-name="k.alt" horiz-adv-x="375" 
 />
    <glyph glyph-name="kcommaaccent" unicode="&#x137;" horiz-adv-x="375" 
d="M140 236q9 5 18 14l5 2h2l9 9q2 1 6 5l9 8l9 10q14 12 27.5 28l24.5 29l24.5 29l21.5 27l9 12l10 10q9 11 19 19l11 14q1 1 1.5 2t2.5 2q2 2 5 3.5t5 1.5q3 1 5.5 0.5t5.5 -0.5q1 0 5 -2q11 -3 17 -13t4 -22q-1 -8 -5 -16.5t-9 -16.5l-12 -17l-9 -12q-2 -2 -3.5 -3
t-2.5 -3l-13 -14q-2 -2 -4 -4.5t-3 -4.5q-9 -11 -20 -22.5l-21 -21.5q-7 -8 -14 -14.5l-14 -13.5l-21 -20l-7 -8l-23 -21l-18 -16q-4 -3 -7 -7l-10 -8q-2 -1 -2 -1.5t-1 -1.5q7 -8 15 -19t16 -24q6 -8 12 -14q7 -7 12 -13t10 -13l11 -10l8 -6l1 -1q0 -1 2 -3l10 -11
q0 -2 2 -4q4 -8 10.5 -16.5t14.5 -16.5l14 -14l18 -16l8 -6t7 -4q2 -2 3 -2q1 -1 5 -1l10 -5q2 -1 6 -1q1 -1 4 -1q6 -4 10.5 -9t4.5 -13q0 -11 -10 -24t-21 -16h-1q-2 -2 -4 -4.5t-6 -2.5q-7 -2 -13 1l-7 2l-2 2q-12 2 -24.5 9.5t-24.5 17.5t-22.5 21l-19.5 20v1q-1 3 -6 8
q-2 2 -3.5 4t-3.5 3l-4 4q-10 10 -22 27q-8 11 -17 25.5l-17 28.5q-2 3 -3 5.5t-2 5.5q-5 11 -9 22l-7 19q-2 -1 -6 -7l-1 -1l-3 -18v-8l-3 -15v-12l-3 -42l-2 -15q0 -7 -4 -17q-4 -7 -5 -13q-7 -12 -18 -17q-12 -3 -19 -2q-2 -1 -4 1q-9 4 -13 10q-2 1 -6 5q-3 3 -7 9
q-13 10 -14 32q-1 14 -1.5 26.5t-0.5 25.5q0 2 -0.5 3t-0.5 3v7v13q0 14 0.5 27.5t0.5 27.5v21v6q-1 38 5 81q0 2 1 3.5t1 3.5l5 42l2 26q2 8 2 14l2 10.5t1 10.5q3 13 7 23l4 11l4 12l5 20q-3 3 -2 3q0 4 2 8l2 7l2 6q7 19 21 27q6 4 12 1q5 -1 11 -9l7 -6q5 -5 9 -12.5
l8 -14.5t6.5 -13t2.5 -12q0 -27 -3 -57q-2 -11 -2.5 -22.5t-1.5 -22.5q-1 -8 -1.5 -14.5t-0.5 -13.5q-1 -5 -1.5 -10.5t-0.5 -10.5q-1 -7 -1.5 -14t-0.5 -13q0 -8 1 -12zM209 465q15 37 27.5 72.5t22.5 72.5q3 14 5 28t0 29q-1 5 3 9.5t7 2.5q16 -4 30 -11.5t26 -21.5
q10 -14 13 -25.5t-2 -27.5q-8 -23 -19 -44t-25 -38q-14 -16 -28.5 -30l-28.5 -28q-8 -7 -15 -2.5t-16 14.5z" />
    <glyph glyph-name="kgreenlandic" unicode="&#x138;" horiz-adv-x="375" 
d="M140 236q9 5 18 14l5 2h2l9 9q2 1 6 5l9 8l9 10q14 12 27.5 28l24.5 29l24.5 29l21.5 27l9 12l10 10q9 11 19 19l11 14q1 1 1.5 2t2.5 2q2 2 5 3.5t5 1.5q3 1 5.5 0.5t5.5 -0.5q1 0 5 -2q11 -3 17 -13t4 -22q-1 -8 -5 -16.5t-9 -16.5l-12 -17l-9 -12q-2 -2 -3.5 -3
t-2.5 -3l-13 -14q-2 -2 -4 -4.5t-3 -4.5q-9 -11 -20 -22.5l-21 -21.5q-7 -8 -14 -14.5l-14 -13.5l-21 -20l-7 -8l-23 -21l-18 -16q-4 -3 -7 -7l-10 -8q-2 -1 -2 -1.5t-1 -1.5q7 -8 15 -19t16 -24q6 -8 12 -14q7 -7 12 -13t10 -13l11 -10l8 -6l1 -1q0 -1 2 -3l10 -11
q0 -2 2 -4q4 -8 10.5 -16.5t14.5 -16.5l14 -14l18 -16l8 -6t7 -4q2 -2 3 -2q1 -1 5 -1l10 -5q2 -1 6 -1q1 -1 4 -1q6 -4 10.5 -9t4.5 -13q0 -11 -10 -24t-21 -16h-1q-2 -2 -4 -4.5t-6 -2.5q-7 -2 -13 1l-7 2l-2 2q-12 2 -24.5 9.5t-24.5 17.5t-22.5 21l-19.5 20v1q-1 3 -6 8
q-2 2 -3.5 4t-3.5 3l-4 4q-10 10 -22 27q-8 11 -17 25.5l-17 28.5q-2 3 -3 5.5t-2 5.5q-5 11 -9 22l-7 19q-2 -1 -6 -7l-1 -1l-3 -18v-8l-3 -15v-12l-3 -42l-2 -15q0 -7 -4 -17q-4 -7 -5 -13q-7 -12 -18 -17q-12 -3 -19 -2q-2 -1 -4 1q-9 4 -13 10q-2 1 -6 5q-3 3 -7 9
q-13 10 -14 32q-1 14 -1.5 26.5t-0.5 25.5q0 2 -0.5 3t-0.5 3v7v13q0 14 0.5 27.5t0.5 27.5v21v6q-1 38 5 81q0 2 1 3.5t1 3.5l5 42l2 26q2 8 2 14l2 10.5t1 10.5q3 13 7 23l4 11l4 12l5 20q-3 3 -2 3q0 4 2 8l2 7l2 6q7 19 21 27q6 4 12 1q5 -1 11 -9l7 -6q5 -5 9 -12.5
l8 -14.5t6.5 -13t2.5 -12q0 -27 -3 -57q-2 -11 -2.5 -22.5t-1.5 -22.5q-1 -8 -1.5 -14.5t-0.5 -13.5q-1 -5 -1.5 -10.5t-0.5 -10.5q-1 -7 -1.5 -14t-0.5 -13q0 -8 1 -12z" />
    <glyph glyph-name="parenleft" unicode="(" horiz-adv-x="312" 
d="M292 -87q0 -3 -8 -7t-17.5 -7.5t-16.5 -5t-5 -0.5l-13 -2h-8.5t-8.5 1q-5 2 -9.5 3.5t-9.5 5.5q-8 5 -17 16q-14 18 -26 53l-4 -2q-10 1 -21 12q-6 5 -16.5 17.5t-20.5 37.5q-5 11 -8 22.5t-6 21.5l-2 13q-2 6 -2 12.5t-1 12.5q-1 7 -1.5 13.5t-0.5 13.5q0 6 0.5 11.5
t0.5 11.5q-2 12 -3 24l-2 23q0 4 0.5 7t1.5 7q5 45 14 91q2 8 2 12v5q3 10 5.5 19.5t5.5 18.5q7 27 18 55q6 28 21 59l14.5 28l15.5 28q19 30 41 56t48 43q5 5 9.5 8t9.5 6q25 17 46 10q4 0 6 1q11 0 21 -5q7 -1 12 -6t8 -13q2 -4 2 -6q2 -17 -22 -31q-2 -5 -4 -9l-4 -8
l-9 -13q-7 -8 -14 -15t-14 -16q-2 -5 -5.5 -11.5l-7.5 -13.5q-13 -18 -24 -38t-16 -38l-17.5 -33.5l-16.5 -33.5q-5 -10 -9 -19.5l-8 -19.5q-15 -37 -23.5 -85t-14.5 -87q-2 -14 -2.5 -28t1.5 -28q1 -2 1 -4.5t1 -4.5q2 -11 5.5 -20.5t7.5 -17.5l11 -21q2 -7 2 -13t2 -13
q2 -5 5.5 -8t6.5 -6q5 -13 14 -27l9 -12.5t9 -10.5l13 -15q11 -8 18 -8q1 0 1.5 1t1.5 1q7 2 9 0t6 -2.5t7 -1.5t5 -4.5t0 -10.5z" />
    <glyph glyph-name="parenright" unicode=")" horiz-adv-x="312" 
d="M94 663q0 3 8 7t18 7t17 4.5t6 0.5q2 2 5.5 2t6.5 1q16 -3 27 -8l10.5 -8t10.5 -9q8 -8 18 -23q9 -11 17 -22t16 -25q7 -8 13 -22q5 -3 13 -12q12 -17 23 -45q1 -3 2.5 -6.5t2.5 -6.5q8 -20 11 -38q2 -10 3.5 -19.5t3.5 -20.5v-7q1 -14 2 -34t0 -38q-1 -9 -1.5 -17
t-2.5 -13q-2 -19 -4.5 -37.5t-5.5 -36.5l-8 -40q-5 -26 -12.5 -51l-15.5 -50q-2 -7 -5 -13.5l-6 -13.5l-14 -28l-14 -27q-14 -23 -29 -42t-32 -33q-12 -11 -23 -16q-5 -4 -9.5 -6.5t-9.5 -4.5q-18 -9 -32 -5q-3 0 -5 -1q-2 -2 -3.5 -2t-3.5 -1q-5 -3 -7.5 -5t-7.5 -2
q-6 -2 -13.5 2.5t-9.5 11.5q0 7 7 19q5 10 17 22l13 14q1 0 2 1l15.5 16t14.5 17q4 5 7 10.5l6 10.5q13 21 20 42l21 37q7 13 12.5 26.5t10.5 27.5l3 13q2 9 5 18.5t5 20.5q9 39 14 93t6 105q3 13 1 25l-3 15q-2 9 -4.5 17t-4.5 16l-21 46l-8 14.5t-9 13.5q-6 15 -15 27
q-10 15 -19 24l-7.5 9t-8.5 9q-12 10 -23 13q-1 0 -1 -1l-1 -2q-3 1 -6.5 1.5t-5.5 3.5q-4 5 -9 6t-9 4q-5 8 15 19z" />
    <glyph glyph-name="ellipsis" unicode="&#x2026;" horiz-adv-x="660" 
d="M61 -6q-5 8 -12.5 12.5t-12.5 12.5q-3 3 -6 7t-5 8q-5 12 0 19q7 6 9 13.5l4 15.5t3 16l2 16q2 13 10 18.5t18 7t18 0t10 -1.5q13 -4 22 -15q11 -14 18.5 -26.5t-0.5 -36.5q-10 -29 -23.5 -43t-25.5 -19q-14 -6 -29 -4zM281 -6q-5 8 -12.5 12.5t-12.5 12.5q-3 3 -6 7
t-5 8q-5 12 0 19q7 6 9 13.5l4 15.5t3 16l2 16q2 13 10 18.5t18 7t18 0t10 -1.5q13 -4 22 -15q11 -14 18.5 -26.5t-0.5 -36.5q-10 -29 -23.5 -43t-25.5 -19q-14 -6 -29 -4zM501 -6q-5 8 -12.5 12.5t-12.5 12.5q-3 3 -6 7t-5 8q-5 12 0 19q7 6 9 13.5l4 15.5t3 16l2 16
q2 13 10 18.5t18 7t18 0t10 -1.5q13 -4 22 -15q11 -14 18.5 -26.5t-0.5 -36.5q-10 -29 -23.5 -43t-25.5 -19q-14 -6 -29 -4z" />
    <glyph glyph-name="quotedblbase" unicode="&#x201e;" horiz-adv-x="268" 
d="M18 -130q-5 1 -6 9q0 7 4 17l8.5 21.5l8.5 22t3 17.5q-1 10 -3 23t-4 24q-3 3 -3 5q0 3 4 4q10 16 14.5 28t17.5 12q9 0 20.5 -5.5t21.5 -13.5q2 1 7 -5.5t10.5 -15.5t10 -19.5t5.5 -16.5q0 -3 -2 -7.5t-4 -9.5q1 0 -3 -6.5t-9.5 -14.5l-10 -14.5t-4.5 -7.5l-18 -22
q-19 -10 -31 -19t-27 -9q-6 0 -10 3zM163 -124q-5 2 -5 8q-1 6 2.5 15l7.5 19l7.5 19.5t3.5 15.5l-2.5 20t-3.5 21q-3 3 -3 5t4 3q8 14 12.5 24.5t15.5 10.5q8 0 18 -4.5t19 -11.5q1 1 5.5 -5t9.5 -14t9 -17t5 -14q0 -6 -6 -15q1 0 -2.5 -5.5l-8 -12.5l-8.5 -13t-4 -7
l-16 -20q-17 -8 -27 -16t-24 -8q-3 0 -5 0.5t-4 1.5z" />
    <glyph glyph-name="onedotenleader" unicode="&#x2024;" horiz-adv-x="220" 
d="M61 -6q-5 8 -12.5 12.5t-12.5 12.5q-3 3 -6 7t-5 8q-5 12 0 19q7 6 9 13.5l4 15.5t3 16l2 16q2 13 10 18.5t18 7t18 0t10 -1.5q13 -4 22 -15q11 -14 18.5 -26.5t-0.5 -36.5q-10 -29 -23.5 -43t-25.5 -19q-14 -6 -29 -4z" />
    <glyph glyph-name="quotesinglbase" unicode="&#x201a;" horiz-adv-x="157" 
d="M18 -130q-5 1 -6 9q0 7 4 17l8.5 21.5l8.5 22t3 17.5q-1 10 -3 23t-4 24q-3 3 -3 5q0 3 4 4q10 16 14.5 28t17.5 12q9 0 20.5 -5.5t21.5 -13.5q2 1 7 -5.5t10.5 -15.5t10 -19.5t5.5 -16.5q0 -3 -2 -7.5t-4 -9.5q1 0 -3 -6.5t-9.5 -14.5l-10 -14.5t-4.5 -7.5l-18 -22
q-19 -10 -31 -19t-27 -9q-6 0 -10 3z" />
    <glyph glyph-name="twodotenleader" unicode="&#x2025;" horiz-adv-x="440" 
d="M61 -6q-5 8 -12.5 12.5t-12.5 12.5q-3 3 -6 7t-5 8q-5 12 0 19q7 6 9 13.5l4 15.5t3 16l2 16q2 13 10 18.5t18 7t18 0t10 -1.5q13 -4 22 -15q11 -14 18.5 -26.5t-0.5 -36.5q-10 -29 -23.5 -43t-25.5 -19q-14 -6 -29 -4zM281 -6q-5 8 -12.5 12.5t-12.5 12.5q-3 3 -6 7
t-5 8q-5 12 0 19q7 6 9 13.5l4 15.5t3 16l2 16q2 13 10 18.5t18 7t18 0t10 -1.5q13 -4 22 -15q11 -14 18.5 -26.5t-0.5 -36.5q-10 -29 -23.5 -43t-25.5 -19q-14 -6 -29 -4z" />
    <glyph glyph-name="copyright" unicode="&#xa9;" horiz-adv-x="469" 
d="M348 431q-8 3 -15 3q-18 0 -37 -12t-34.5 -30.5t-25 -42t-7.5 -45.5q2 -19 11 -32.5t32 -13.5q15 0 27.5 5t23 11.5l19 12t14.5 6.5q2 -2 2 -4t1 -4q1 -15 -9.5 -27t-25.5 -20.5t-30.5 -13t-23.5 -4.5q-18 0 -35 8.5t-31 22.5t-23 31t-10 35q-2 21 7.5 46.5t28.5 48.5
q9 11 22.5 22t28 20t28 14.5t22.5 5.5q13 0 22.5 -3.5t18 -9t17 -13t20.5 -15.5q-4 -10 -14 -10q-7 0 -13.5 3zM432 466q14 -13 26.5 -28t18.5 -40l15.5 -11.5t15.5 -14.5t12 -17.5t6 -19.5q-5 -47 -26.5 -88.5t-54.5 -72.5t-73 -49t-82 -18q-44 0 -86 17.5t-75.5 48
t-56.5 72.5t-27 91q-2 23 3 49.5t16.5 51.5t28 46t37.5 33q40 30 84.5 55t92.5 25q18 0 26 -9t9 -18q0 -6 -1.5 -11t-5.5 -6q-30 0 -64 -9.5t-64.5 -27.5t-56 -44.5t-38.5 -60.5q-4 -22 -5.5 -44.5t0.5 -45.5q3 -36 15 -58t34 -45q14 -34 45.5 -50t63.5 -16q39 0 75.5 18
t63.5 47t42 65.5t12 73.5q-1 9 -3 15t-10 20q-2 24 -11 41t-20 34q-8 4 -12.5 5t-12.5 4q-1 8 3.5 13.5t11.5 5.5t14.5 -6.5t13.5 -20.5z" />
    <glyph glyph-name="registered" unicode="&#xae;" horiz-adv-x="576" 
d="M463 463q16 -17 24.5 -38t15.5 -41l15 -26q5 -14 6 -26t3 -25q-5 -44 -27.5 -81t-56 -64t-74 -42t-81.5 -15q-43 0 -83 15t-71 42.5t-51.5 67t-24.5 89.5q-4 43 7 83.5t34.5 75.5t57 62.5t74.5 43.5q9 3 22 5.5t27 3.5t27 1.5t22 0.5q17 -2 23.5 -10.5t7.5 -16.5
q1 -6 -1 -10.5t-6 -4.5q-52 0 -99 -21.5t-81.5 -57t-53.5 -81t-15 -92.5q3 -38 16.5 -68t34.5 -51t48 -32t57 -11q33 0 70 14t69 42t53 69.5t21 97.5q-8 29 -27.5 44t-45.5 15q0 7 0.5 13.5t-0.5 13.5q0 11 -5 24q5 25 22 25q23 0 46 -34zM350 220q-8 -2 -10 -2
q-10 0 -15 5.5t-9 16.5l-38 56q-4 8 -11 12q-10 -14 -11.5 -26t-1.5 -15q1 -9 5 -15t5 -12q1 -10 -5 -11t-15 -1h-5q-40 10 -43 43q-2 17 5.5 45.5t18.5 50.5q3 18 20 22.5t33 4.5h7l16.5 14.5t11.5 7.5q4 0 7 -4q4 4 7 4q5 0 8 -6t4 -10q0 -2 -0.5 -3.5t-0.5 -3.5
q-7 -8 -14 -17l-13 -17t-9.5 -15.5t-2.5 -12.5l-4 -6q3 -3 11.5 -12.5t19 -19.5t21.5 -19t19 -12q3 0 8 4q5 -1 10 -4t5 -7v-2q2 -3 2 -8q1 -12 -10.5 -18.5t-25.5 -6.5zM368 390q1 -2 1 -4q1 -10 -6 -17t-18 -12t-24.5 -7.5t-26.5 -2.5q-3 0 -3 1t1 1l2 1l25.5 14t26.5 18
t20 21.5t7 23.5q-4 8 -14.5 12t-23.5 4q-12 0 -25 -5t-25 -11.5l-22 -11.5t-17 -5q-3 0 -4 3q0 2 4.5 8t13 13t21 12t28.5 5q29 0 43 -16t16 -37v-8z" />
    <glyph glyph-name="uni00AD" unicode="&#xad;" horiz-adv-x="0" 
 />
    <glyph glyph-name="figuredash" unicode="&#x2012;" horiz-adv-x="0" 
 />
    <glyph glyph-name="periodcentered" unicode="&#xb7;" horiz-adv-x="0" 
 />
    <glyph glyph-name="quotesingle" unicode="'" horiz-adv-x="241" 
d="M86 478q1 4 2 7.5t3 8.5l3 28q6 18 11.5 37t10.5 39q2 9 3 17.5t0 16.5q1 6 5 9.5t9 2.5q28 -3 50 -28q5 -8 8.5 -14.5t3.5 -14.5v-7t-2 -8q-9 -39 -38 -66q-12 -11 -24.5 -20t-25.5 -17q-11 -5 -19 9z" />
    <glyph glyph-name="quoteright" unicode="&#x2019;" horiz-adv-x="262" 
d="M120 516q0 -8 -14 -8q-9 0 -19.5 2t-20 5t-16 8t-6.5 11q-2 22 8 48t18 52q18 13 27 15.5t13 2.5q14 0 25 -12t13 -28q0 -5 1 -7q-8 -23 -17.5 -46t-11.5 -43z" />
    <glyph glyph-name="quotedblright" unicode="&#x201d;" horiz-adv-x="262" 
d="M248 526q0 -8 -14 -8q-9 0 -19.5 2t-20 5t-16 8t-6.5 11q-2 22 8 48t18 52q17 12 26.5 15t14.5 3q14 0 24.5 -11.5t12.5 -27.5q0 -2 -0.5 -4t0.5 -4q-8 -23 -17 -46t-11 -43zM125 529q2 -18 -20 -18q-8 0 -19.5 4t-22 10t-18 11.5t-7.5 8.5q-1 4 3 14q4 48 22 74.5
t49 26.5q11 0 21 -5.5t12 -14.5q0 -9 -3 -21l-7 -39q-5 -14 -8 -27t-2 -24z" />
    <glyph glyph-name="quoteleft" unicode="&#x2018;" horiz-adv-x="231" 
d="M58 645q6 12 25 12q9 0 20.5 -3.5t21 -10t16.5 -14.5t8 -17q2 -27 -4.5 -46t-18.5 -31t-28.5 -17.5t-33.5 -5.5q-9 0 -15.5 2.5t-7.5 10.5t2.5 30t5.5 39q4 14 7 27t2 24z" />
    <glyph glyph-name="Cacute" unicode="&#x106;" horiz-adv-x="344" 
d="M345 146l4 -8q2 -6 2 -11q1 -2 1 -5v-5q-1 -2 -1 -3t-2 -3l-3 -8q-1 -3 -4 -7.5t-5 -6.5l-5.5 -8.5t-5.5 -7.5h-1l-3 -4q-2 -1 -2 -1.5t-1 -1.5l-6 -6t-7 -5l-14 -11q-5 -6 -15 -13q-1 -2 -2 -2.5t-3 -2.5l-8 -7q-8 -7 -15 -11t-15 -8l-10 -6l-27 -10q-4 -2 -5 -2
q-18 -5 -28 -5h-13q-2 0 -3.5 0.5t-3.5 0.5q-3 0 -7 2q-19 5 -39 17q-6 2 -11.5 5l-10.5 6l-8 6l-14 13l-4 5l-9 13l-6 13q-4 8 -6.5 15.5t-4.5 15.5q-2 5 -3 10l-2 10l-2 11q-1 5 -1 10.5v11.5q0 3 -0.5 6t-0.5 6v14v17.5t2 16.5v6l2 21l2 12l4 21l3 13l6 28l2 5
q6 25 16 46l5 11q5 11 10 20.5l10 18.5l3 5l16 21.5t17 18.5l4 4l9 7q14 13 31 21q11 6 23 10.5t24 7.5l13 3q2 0 3 0.5t3 0.5q3 0 6 0.5t6 0.5h11h3q4 0 8.5 -1t9.5 -3l13 -3q4 -2 5 -2l11 -4q14 -6 19 -20q2 -8 1 -12l-4 -6q0 -5 -2.5 -8t-2.5 -6t-2 -3q-2 -1 -3.5 -2
t-3.5 -2h-1q-3 0 -4 1l-4 -2q-1 0 -1 1v2q-3 1 -6.5 1.5t-7.5 2.5l-9 3q0 5 -2.5 13t-7.5 10h-5q-2 -1 -5 -1.5t-5 -2.5q-5 -2 -10 -6t-10 -9q-11 -11 -19 -23q-10 -13 -18 -28q-1 -2 -1 -3t-1 -2l-10 -17l-8 -18l-9 -19l-2 -6q-2 -7 -5.5 -13.5t-5.5 -13.5q-5 -14 -9 -28
l-8 -28l-8 -35q-2 -6 -2 -9l-3 -12q0 -2 -0.5 -4t-0.5 -4q0 -8 1 -13q0 -2 0.5 -2.5t0.5 -2.5v-5q2 -8 4 -12l4 -14t5 -14q1 -3 2.5 -6t3.5 -5q10 -19 19 -30q1 -2 2 -3.5t2 -3.5l5 -6q3 -5 10 -9q8 -5 16 -9.5t16 -4.5q5 0 11 2t11 4q2 0 3 0.5l3 1.5q8 3 19 10l9 8l15 12
l16 18l19 29q5 5 9 8.5t9 6.5l6 3q7 3 14 1zM133 511q-5 0 -6 2.5t-2 6.5q0 10 11.5 29.5t25.5 41l26 41.5t15 31q3 3 7 3q8 0 17.5 -6.5t18.5 -15t15 -16.5t6 -12q0 -6 -6 -17t-16 -23.5t-22 -24t-23 -19.5q-8 -6 -19 -10t-20.5 -6.5t-17 -3.5t-8.5 -1h-2v0z" />
    <glyph glyph-name="Ccaron" unicode="&#x10c;" horiz-adv-x="344" 
d="M345 146l4 -8q2 -6 2 -11q1 -2 1 -5v-5q-1 -2 -1 -3t-2 -3l-3 -8q-1 -3 -4 -7.5t-5 -6.5l-5.5 -8.5t-5.5 -7.5h-1l-3 -4q-2 -1 -2 -1.5t-1 -1.5l-6 -6t-7 -5l-14 -11q-5 -6 -15 -13q-1 -2 -2 -2.5t-3 -2.5l-8 -7q-8 -7 -15 -11t-15 -8l-10 -6l-27 -10q-4 -2 -5 -2
q-18 -5 -28 -5h-13q-2 0 -3.5 0.5t-3.5 0.5q-3 0 -7 2q-19 5 -39 17q-6 2 -11.5 5l-10.5 6l-8 6l-14 13l-4 5l-9 13l-6 13q-4 8 -6.5 15.5t-4.5 15.5q-2 5 -3 10l-2 10l-2 11q-1 5 -1 10.5v11.5q0 3 -0.5 6t-0.5 6v14v17.5t2 16.5v6l2 21l2 12l4 21l3 13l6 28l2 5
q6 25 16 46l5 11q5 11 10 20.5l10 18.5l3 5l16 21.5t17 18.5l4 4l9 7q14 13 31 21q11 6 23 10.5t24 7.5l13 3q2 0 3 0.5t3 0.5q3 0 6 0.5t6 0.5h11h3q4 0 8.5 -1t9.5 -3l13 -3q4 -2 5 -2l11 -4q14 -6 19 -20q2 -8 1 -12l-4 -6q0 -5 -2.5 -8t-2.5 -6t-2 -3q-2 -1 -3.5 -2
t-3.5 -2h-1q-3 0 -4 1l-4 -2q-1 0 -1 1v2q-3 1 -6.5 1.5t-7.5 2.5l-9 3q0 5 -2.5 13t-7.5 10h-5q-2 -1 -5 -1.5t-5 -2.5q-5 -2 -10 -6t-10 -9q-11 -11 -19 -23q-10 -13 -18 -28q-1 -2 -1 -3t-1 -2l-10 -17l-8 -18l-9 -19l-2 -6q-2 -7 -5.5 -13.5t-5.5 -13.5q-5 -14 -9 -28
l-8 -28l-8 -35q-2 -6 -2 -9l-3 -12q0 -2 -0.5 -4t-0.5 -4q0 -8 1 -13q0 -2 0.5 -2.5t0.5 -2.5v-5q2 -8 4 -12l4 -14t5 -14q1 -3 2.5 -6t3.5 -5q10 -19 19 -30q1 -2 2 -3.5t2 -3.5l5 -6q3 -5 10 -9q8 -5 16 -9.5t16 -4.5q5 0 11 2t11 4q2 0 3 0.5l3 1.5q8 3 19 10l9 8l15 12
l16 18l19 29q5 5 9 8.5t9 6.5l6 3q7 3 14 1zM161 548q-12 23 -29 48t-36 42q-6 8 -14.5 13.5t-11.5 11.5q0 6 18 8h2l11 1q22 -3 44 -19t49 -53q25 22 46 43t35 21h5q2 1 8 1q8 0 21 -6t15 -16l-8 -8t-20.5 -19l-27.5 -24.5l-28 -25.5q-11 -8 -20.5 -19.5t-24.5 -11.5h-3
q-3 -1 -10 -1q-5 0 -12 4t-9 10z" />
    <glyph glyph-name="Cdotaccent" unicode="&#x10a;" horiz-adv-x="344" 
d="M345 146l4 -8q2 -6 2 -11q1 -2 1 -5v-5q-1 -2 -1 -3t-2 -3l-3 -8q-1 -3 -4 -7.5t-5 -6.5l-5.5 -8.5t-5.5 -7.5h-1l-3 -4q-2 -1 -2 -1.5t-1 -1.5l-6 -6t-7 -5l-14 -11q-5 -6 -15 -13q-1 -2 -2 -2.5t-3 -2.5l-8 -7q-8 -7 -15 -11t-15 -8l-10 -6l-27 -10q-4 -2 -5 -2
q-18 -5 -28 -5h-13q-2 0 -3.5 0.5t-3.5 0.5q-3 0 -7 2q-19 5 -39 17q-6 2 -11.5 5l-10.5 6l-8 6l-14 13l-4 5l-9 13l-6 13q-4 8 -6.5 15.5t-4.5 15.5q-2 5 -3 10l-2 10l-2 11q-1 5 -1 10.5v11.5q0 3 -0.5 6t-0.5 6v14v17.5t2 16.5v6l2 21l2 12l4 21l3 13l6 28l2 5
q6 25 16 46l5 11q5 11 10 20.5l10 18.5l3 5l16 21.5t17 18.5l4 4l9 7q14 13 31 21q11 6 23 10.5t24 7.5l13 3q2 0 3 0.5t3 0.5q3 0 6 0.5t6 0.5h11h3q4 0 8.5 -1t9.5 -3l13 -3q4 -2 5 -2l11 -4q14 -6 19 -20q2 -8 1 -12l-4 -6q0 -5 -2.5 -8t-2.5 -6t-2 -3q-2 -1 -3.5 -2
t-3.5 -2h-1q-3 0 -4 1l-4 -2q-1 0 -1 1v2q-3 1 -6.5 1.5t-7.5 2.5l-9 3q0 5 -2.5 13t-7.5 10h-5q-2 -1 -5 -1.5t-5 -2.5q-5 -2 -10 -6t-10 -9q-11 -11 -19 -23q-10 -13 -18 -28q-1 -2 -1 -3t-1 -2l-10 -17l-8 -18l-9 -19l-2 -6q-2 -7 -5.5 -13.5t-5.5 -13.5q-5 -14 -9 -28
l-8 -28l-8 -35q-2 -6 -2 -9l-3 -12q0 -2 -0.5 -4t-0.5 -4q0 -8 1 -13q0 -2 0.5 -2.5t0.5 -2.5v-5q2 -8 4 -12l4 -14t5 -14q1 -3 2.5 -6t3.5 -5q10 -19 19 -30q1 -2 2 -3.5t2 -3.5l5 -6q3 -5 10 -9q8 -5 16 -9.5t16 -4.5q5 0 11 2t11 4q2 0 3 0.5l3 1.5q8 3 19 10l9 8l15 12
l16 18l19 29q5 5 9 8.5t9 6.5l6 3q7 3 14 1zM233 574q-29 5 -45.5 20t-18.5 32q-2 27 12 38.5t37 11.5t43 -9.5t25 -35.5q1 -14 -3.5 -25t-11.5 -18.5t-15 -11.5t-13 -4q-4 0 -10 2z" />
    <glyph glyph-name="Ccircumflex" unicode="&#x108;" horiz-adv-x="344" 
d="M345 146l4 -8q2 -6 2 -11q1 -2 1 -5v-5q-1 -2 -1 -3t-2 -3l-3 -8q-1 -3 -4 -7.5t-5 -6.5l-5.5 -8.5t-5.5 -7.5h-1l-3 -4q-2 -1 -2 -1.5t-1 -1.5l-6 -6t-7 -5l-14 -11q-5 -6 -15 -13q-1 -2 -2 -2.5t-3 -2.5l-8 -7q-8 -7 -15 -11t-15 -8l-10 -6l-27 -10q-4 -2 -5 -2
q-18 -5 -28 -5h-13q-2 0 -3.5 0.5t-3.5 0.5q-3 0 -7 2q-19 5 -39 17q-6 2 -11.5 5l-10.5 6l-8 6l-14 13l-4 5l-9 13l-6 13q-4 8 -6.5 15.5t-4.5 15.5q-2 5 -3 10l-2 10l-2 11q-1 5 -1 10.5v11.5q0 3 -0.5 6t-0.5 6v14v17.5t2 16.5v6l2 21l2 12l4 21l3 13l6 28l2 5
q6 25 16 46l5 11q5 11 10 20.5l10 18.5l3 5l16 21.5t17 18.5l4 4l9 7q14 13 31 21q11 6 23 10.5t24 7.5l13 3q2 0 3 0.5t3 0.5q3 0 6 0.5t6 0.5h11h3q4 0 8.5 -1t9.5 -3l13 -3q4 -2 5 -2l11 -4q14 -6 19 -20q2 -8 1 -12l-4 -6q0 -5 -2.5 -8t-2.5 -6t-2 -3q-2 -1 -3.5 -2
t-3.5 -2h-1q-3 0 -4 1l-4 -2q-1 0 -1 1v2q-3 1 -6.5 1.5t-7.5 2.5l-9 3q0 5 -2.5 13t-7.5 10h-5q-2 -1 -5 -1.5t-5 -2.5q-5 -2 -10 -6t-10 -9q-11 -11 -19 -23q-10 -13 -18 -28q-1 -2 -1 -3t-1 -2l-10 -17l-8 -18l-9 -19l-2 -6q-2 -7 -5.5 -13.5t-5.5 -13.5q-5 -14 -9 -28
l-8 -28l-8 -35q-2 -6 -2 -9l-3 -12q0 -2 -0.5 -4t-0.5 -4q0 -8 1 -13q0 -2 0.5 -2.5t0.5 -2.5v-5q2 -8 4 -12l4 -14t5 -14q1 -3 2.5 -6t3.5 -5q10 -19 19 -30q1 -2 2 -3.5t2 -3.5l5 -6q3 -5 10 -9q8 -5 16 -9.5t16 -4.5q5 0 11 2t11 4q2 0 3 0.5l3 1.5q8 3 19 10l9 8l15 12
l16 18l19 29q5 5 9 8.5t9 6.5l6 3q7 3 14 1zM271 636q12 -23 29 -48t37 -42q6 -8 14.5 -13.5t10.5 -11.5q1 -6 -17 -8h-3l-10 -1q-23 3 -45 19t-49 53q-25 -22 -46 -43t-35 -21h-5q-2 -1 -7 -1q-8 0 -21.5 6t-14.5 16l8 8t20.5 19l27 24.5l27.5 25.5q11 8 20.5 19.5
t25.5 11.5h3q3 1 9 1q5 0 12 -4t9 -10z" />
    <glyph glyph-name="Ccedilla" unicode="&#xc7;" horiz-adv-x="344" 
d="M345 146l4 -8q2 -6 2 -11q1 -2 1 -5v-5q-1 -2 -1 -3t-2 -3l-3 -8q-1 -3 -4 -7.5t-5 -6.5l-5.5 -8.5t-5.5 -7.5h-1l-3 -4q-2 -1 -2 -1.5t-1 -1.5l-6 -6t-7 -5l-14 -11q-5 -6 -15 -13q-1 -2 -2 -2.5t-3 -2.5l-8 -7q-8 -7 -15 -11t-15 -8l-10 -6l-27 -10q-4 -2 -5 -2
q-18 -5 -28 -5h-13q-2 0 -3.5 0.5t-3.5 0.5q-3 0 -7 2q-19 5 -39 17q-6 2 -11.5 5l-10.5 6l-8 6l-14 13l-4 5l-9 13l-6 13q-4 8 -6.5 15.5t-4.5 15.5q-2 5 -3 10l-2 10l-2 11q-1 5 -1 10.5v11.5q0 3 -0.5 6t-0.5 6v14v17.5t2 16.5v6l2 21l2 12l4 21l3 13l6 28l2 5
q6 25 16 46l5 11q5 11 10 20.5l10 18.5l3 5l16 21.5t17 18.5l4 4l9 7q14 13 31 21q11 6 23 10.5t24 7.5l13 3q2 0 3 0.5t3 0.5q3 0 6 0.5t6 0.5h11h3q4 0 8.5 -1t9.5 -3l13 -3q4 -2 5 -2l11 -4q14 -6 19 -20q2 -8 1 -12l-4 -6q0 -5 -2.5 -8t-2.5 -6t-2 -3q-2 -1 -3.5 -2
t-3.5 -2h-1q-3 0 -4 1l-4 -2q-1 0 -1 1v2q-3 1 -6.5 1.5t-7.5 2.5l-9 3q0 5 -2.5 13t-7.5 10h-5q-2 -1 -5 -1.5t-5 -2.5q-5 -2 -10 -6t-10 -9q-11 -11 -19 -23q-10 -13 -18 -28q-1 -2 -1 -3t-1 -2l-10 -17l-8 -18l-9 -19l-2 -6q-2 -7 -5.5 -13.5t-5.5 -13.5q-5 -14 -9 -28
l-8 -28l-8 -35q-2 -6 -2 -9l-3 -12q0 -2 -0.5 -4t-0.5 -4q0 -8 1 -13q0 -2 0.5 -2.5t0.5 -2.5v-5q2 -8 4 -12l4 -14t5 -14q1 -3 2.5 -6t3.5 -5q10 -19 19 -30q1 -2 2 -3.5t2 -3.5l5 -6q3 -5 10 -9q8 -5 16 -9.5t16 -4.5q5 0 11 2t11 4q2 0 3 0.5l3 1.5q8 3 19 10l9 8l15 12
l16 18l19 29q5 5 9 8.5t9 6.5l6 3q7 3 14 1zM205 -64q-5 -8 -3.5 -14.5t-2.5 -14.5q-2 -8 -4.5 -16t-1.5 -16v-3l3 -1q-5 -5 -9 -11t-4 -11q0 5 5 7l36 39q5 7 17.5 14.5t18.5 12.5l9 7t10 7q7 -2 9 -9t3 -11q1 -16 1.5 -31t-0.5 -32v-3q-5 -16 -9 -31t-11 -30
q-11 -33 -20.5 -42.5t-15.5 -5t-7 17.5t7 26q0 20 1 40t-1 38q-1 5 -2 11t-6 4q-6 -9 -14.5 -19l-17 -19.5l-15 -16.5t-9.5 -9q-12 -17 -21 -18t-13.5 6t-4.5 18.5t7 20.5q6 28 10 56t9 54q-1 9 2 15.5t2 13.5q0 5 -1 8q2 5 2.5 11t2.5 11q24 14 37 14q10 0 12 -12
q1 -9 -2.5 -21t-2.5 -18q0 -4 -3.5 -14.5t-3.5 -12.5q0 1 1 1v-11z" />
    <glyph glyph-name="Dcaron" unicode="&#x10e;" horiz-adv-x="396" 
d="M184 -16q-5 -2 -12.5 -7.5t-18.5 -10.5q-4 -3 -14 -6q-8 -2 -15.5 -3.5t-15.5 -0.5q-4 0 -5 1q-2 -1 -7 -1q-6 2 -7 3q-4 2 -5.5 5.5t-3.5 7.5q-4 6 -4 11q-5 -2 -9.5 -5t-11.5 -3h-2q-8 2 -11 4l-6 3q-4 4 -5 7q-2 2 -2 9l6 9l5 12q-1 2 -2 4.5t-1 4.5q0 4 1 6
q2 7 2 14.5t1 15.5q2 17 3 34t2 37v13.5t1 13.5q1 11 1 22v22q1 8 1 16v16q0 4 0.5 8t0.5 8v54q0 5 0.5 11.5t-0.5 12.5q0 5 0.5 9t0.5 9l2 44q1 7 1.5 14t0.5 13q2 14 3.5 25.5t3.5 22.5q0 2 0.5 3.5t0.5 3.5q-7 11 0 18.5t22 12t36.5 5t44 -2t43.5 -8.5t36 -16q2 -1 7 -1
h5q17 -4 34 -9q8 -2 15 -5t12 -7l5 -3q3 -1 5.5 -2t5.5 -3q10 -7 17.5 -17t12.5 -21l3 -6q2 -2 2.5 -5t2.5 -6q4 -8 5 -12l2 -4q0 -1 1 -2v-4v-2v-1l2 -12.5t1 -12.5v-27q0 -2 -0.5 -3t-0.5 -3l-3 -20q-1 -11 -5 -24l-4 -12q-1 -1 -1 -2t-1 -3t-1 -5l-22 -65
q-2 -2 -3.5 -6.5l-2.5 -7.5h-1v-1l-2 -4t-2 -5q-2 -4 -2 -6q-4 -8 -7 -16t-8 -16q-2 -3 -5 -6t-6 -8l-23 -37l-12 -19q-2 -4 -2 -3l-9 -13q-8 -11 -18 -19t-23 -16l-20 -11h-1l-3 -2zM112 53h1l31 14q3 2 6.5 4t5.5 4l5 5v1q3 0 5 2q3 3 6.5 7.5l7.5 9.5q5 4 8 8l6 8
q1 2 2 2.5t2 1.5l4 5q5 5 8.5 11t7.5 11l4 7q6 10 11 21.5l10 22.5q3 5 4.5 10.5t3.5 11.5q9 25 14 50l5 28q1 8 1.5 13.5t0.5 10.5v16v13q0 7 0.5 11t-0.5 9q0 5 -2 13q-6 16 -19 27q-3 2 -7.5 3.5t-9.5 3.5t-11 3t-11 2q-2 1 -7 1q-16 3 -30 -1t-26 -12q-3 -2 -5 -12
q-5 -14 -3 -30.5t3 -33.5q1 -7 1.5 -13.5t0.5 -12.5q0 -2 -0.5 -5t-0.5 -5q1 -5 0 -11t-1 -14l-3 -21l-2 -22q-2 -10 -3 -20.5t-3 -21.5q-1 -3 -0.5 -5.5t-0.5 -5.5l-2 -10l-2 -18t-3 -18q-1 -7 -1.5 -13.5t-2.5 -13.5l-2 -14zM200 575q-12 23 -29 48t-36 42
q-6 8 -14.5 13.5t-11.5 11.5q0 6 18 8h2l11 1q22 -3 44 -19t49 -53q25 22 46 43t35 21h5q2 1 8 1q8 0 21 -6t15 -16l-8 -8t-20.5 -19l-27.5 -24.5l-28 -25.5q-11 -8 -20.5 -19.5t-24.5 -11.5h-3q-3 -1 -10 -1q-5 0 -12 4t-9 10z" />
    <glyph glyph-name="Dcroat" unicode="&#x110;" horiz-adv-x="324" 
d="M184 -16q-5 -2 -12.5 -7.5t-18.5 -10.5q-4 -3 -14 -6q-8 -2 -15.5 -3.5t-15.5 -0.5q-4 0 -5 1q-2 -1 -7 -1q-6 2 -7 3q-4 2 -5.5 5.5t-3.5 7.5q-4 6 -4 11q-5 -2 -9.5 -5t-11.5 -3h-2q-8 2 -11 4l-6 3q-4 4 -5 7q-2 2 -2 9l6 9l5 12q-1 2 -2 4.5t-1 4.5q0 4 1 6
q2 7 2 14.5t1 15.5q2 17 3 34t2 37v13.5t1 13.5q1 11 1 22v22v7h-12q-24 0 -45 3q-8 2 -15 4.5t-9 6.5q-1 3 3.5 14t13.5 17q4 5 8.5 7t10.5 4l20 7q8 5 16 6l11 3v23q0 5 0.5 11.5t-0.5 12.5q0 5 0.5 9t0.5 9l2 44q1 7 1.5 14t0.5 13q2 14 3.5 25.5t3.5 22.5q0 2 0.5 3.5
t0.5 3.5q-7 11 0 18.5t22 12t36.5 5t44 -2t43.5 -8.5t36 -16q2 -1 7 -1h5q17 -4 34 -9q8 -2 15 -5t12 -7l5 -3q3 -1 5.5 -2t5.5 -3q10 -7 17.5 -17t12.5 -21l3 -6q2 -2 2.5 -5t2.5 -6q4 -8 5 -12l2 -4q0 -1 1 -2v-4v-2v-1l2 -12.5t1 -12.5v-27q0 -2 -0.5 -3t-0.5 -3l-3 -20
q-1 -11 -5 -24l-4 -12q-1 -1 -1 -2t-1 -3t-1 -5l-22 -65q-2 -2 -3.5 -6.5l-2.5 -7.5h-1v-1l-2 -4t-2 -5q-2 -4 -2 -6q-4 -8 -7 -16t-8 -16q-2 -3 -5 -6t-6 -8l-23 -37l-12 -19q-2 -4 -2 -3l-9 -13q-8 -11 -18 -19t-23 -16l-20 -11h-1l-3 -2zM112 53h1l31 14q3 2 6.5 4t5.5 4
l5 5v1q3 0 5 2q3 3 6.5 7.5l7.5 9.5q5 4 8 8l6 8q1 2 2 2.5t2 1.5l4 5q5 5 8.5 11t7.5 11l4 7q6 10 11 21.5l10 22.5q3 5 4.5 10.5t3.5 11.5q9 25 14 50l5 28q1 8 1.5 13.5t0.5 10.5v29q0 7 0.5 11t-0.5 9q0 5 -2 13q-6 16 -19 27q-3 2 -7.5 3.5t-9.5 3.5t-11 3t-11 2
q-2 1 -7 1q-16 3 -30 -1t-26 -12q-3 -2 -5 -12q-5 -14 -3 -30.5t3 -33.5q1 -7 1.5 -13.5t0.5 -12.5q0 -2 -0.5 -5t-0.5 -5q0 -10 -1 -15l22 6q3 3 6 3q3 -1 5.5 -6t4.5 -10q5 -14 5 -27t-7 -23q-3 -2 -5.5 -3t-5.5 -2q-5 -1 -8.5 -2t-7.5 -3q-5 -1 -15 -1l-1 -1
q-1 -7 -1.5 -13.5t-2.5 -12.5q-1 -3 -0.5 -5.5t-0.5 -5.5l-2 -10l-2 -18t-3 -18q-1 -7 -1.5 -13.5t-2.5 -13.5l-2 -14z" />
    <glyph glyph-name="Nacute" unicode="&#x143;" horiz-adv-x="372" 
d="M129 327q0 -29 -2.5 -58.5t-2.5 -58.5v-176q0 -3 -1.5 -7.5l-2.5 -7.5q-4 -4 -6.5 -9t-0.5 -11q-2 -7 -7.5 -20t-13.5 -13q-26 0 -40 10t-21 26t-8.5 36.5t-1.5 40.5q0 79 2.5 157t2.5 157q0 9 -0.5 34t1 51.5t5.5 47t14 20.5q23 0 44.5 -15.5t29.5 -36.5q10 -27 27 -67
l36.5 -82l38.5 -79.5t34 -59.5q8 -11 13 -22t11 -23q2 5 1 11.5t-1 11.5q0 7 3 34t7.5 63.5t10.5 78l11 76.5l8.5 59.5t4.5 27.5q2 7 6 13t12 6q17 0 28.5 -12t18.5 -31t10.5 -42t4.5 -45.5t1 -42v-30.5q0 -6 -1 -19.5t-2.5 -28.5t-2 -27t0.5 -14q-3 -16 -5 -33.5t-1 -33.5
q-5 -10 -8 -19q0 -1 1.5 -2.5t0.5 -0.5v-7q0 -26 -4.5 -59t-4.5 -65q0 -6 -1 -12.5t-1 -12.5l-10 -22q-6 -3 -8 -9t-4.5 -12t-7 -11t-13.5 -5l-10 5q-4 0 -5 -1q-34 19 -48 53.5t-18 70.5l-59 115t-55 117q-2 5 -5 10.5zM173 513q-5 0 -6 2.5t-2 6.5q0 10 11.5 29.5t25.5 41
l26 41.5t15 31q3 3 7 3q8 0 17.5 -6.5t18.5 -15t15 -16.5t6 -12q0 -6 -6 -17t-16 -23.5t-22 -24t-23 -19.5q-8 -6 -19 -10t-20.5 -6.5t-17 -3.5t-8.5 -1h-2v0z" />
    <glyph glyph-name="Ncaron" unicode="&#x147;" horiz-adv-x="372" 
d="M129 327q0 -29 -2.5 -58.5t-2.5 -58.5v-176q0 -3 -1.5 -7.5l-2.5 -7.5q-4 -4 -6.5 -9t-0.5 -11q-2 -7 -7.5 -20t-13.5 -13q-26 0 -40 10t-21 26t-8.5 36.5t-1.5 40.5q0 79 2.5 157t2.5 157q0 9 -0.5 34t1 51.5t5.5 47t14 20.5q23 0 44.5 -15.5t29.5 -36.5q10 -27 27 -67
l36.5 -82l38.5 -79.5t34 -59.5q8 -11 13 -22t11 -23q2 5 1 11.5t-1 11.5q0 7 3 34t7.5 63.5t10.5 78l11 76.5l8.5 59.5t4.5 27.5q2 7 6 13t12 6q17 0 28.5 -12t18.5 -31t10.5 -42t4.5 -45.5t1 -42v-30.5q0 -6 -1 -19.5t-2.5 -28.5t-2 -27t0.5 -14q-3 -16 -5 -33.5t-1 -33.5
q-5 -10 -8 -19q0 -1 1.5 -2.5t0.5 -0.5v-7q0 -26 -4.5 -59t-4.5 -65q0 -6 -1 -12.5t-1 -12.5l-10 -22q-6 -3 -8 -9t-4.5 -12t-7 -11t-13.5 -5l-10 5q-4 0 -5 -1q-34 19 -48 53.5t-18 70.5l-59 115t-55 117q-2 5 -5 10.5zM176 577q-12 23 -29 48t-36 42q-6 8 -14.5 13.5
t-11.5 11.5q0 6 18 8h2l11 1q22 -3 44 -19t49 -53q25 22 46 43t35 21h5q2 1 8 1q8 0 21 -6t15 -16l-8 -8t-20.5 -19l-27.5 -24.5l-28 -25.5q-11 -8 -20.5 -19.5t-24.5 -11.5h-3q-3 -1 -10 -1q-5 0 -12 4t-9 10z" />
    <glyph glyph-name="Ntilde" unicode="&#xd1;" horiz-adv-x="372" 
d="M129 327q0 -29 -2.5 -58.5t-2.5 -58.5v-176q0 -3 -1.5 -7.5l-2.5 -7.5q-4 -4 -6.5 -9t-0.5 -11q-2 -7 -7.5 -20t-13.5 -13q-26 0 -40 10t-21 26t-8.5 36.5t-1.5 40.5q0 79 2.5 157t2.5 157q0 9 -0.5 34t1 51.5t5.5 47t14 20.5q23 0 44.5 -15.5t29.5 -36.5q10 -27 27 -67
l36.5 -82l38.5 -79.5t34 -59.5q8 -11 13 -22t11 -23q2 5 1 11.5t-1 11.5q0 7 3 34t7.5 63.5t10.5 78l11 76.5l8.5 59.5t4.5 27.5q2 7 6 13t12 6q17 0 28.5 -12t18.5 -31t10.5 -42t4.5 -45.5t1 -42v-30.5q0 -6 -1 -19.5t-2.5 -28.5t-2 -27t0.5 -14q-3 -16 -5 -33.5t-1 -33.5
q-5 -10 -8 -19q0 -1 1.5 -2.5t0.5 -0.5v-7q0 -26 -4.5 -59t-4.5 -65q0 -6 -1 -12.5t-1 -12.5l-10 -22q-6 -3 -8 -9t-4.5 -12t-7 -11t-13.5 -5l-10 5q-4 0 -5 -1q-34 19 -48 53.5t-18 70.5l-59 115t-55 117q-2 5 -5 10.5zM358 604q-5 -2 -7.5 -2.5t-6.5 -1.5
q-17 -4 -36.5 -11.5t-39.5 -9.5q-10 -1 -16 1.5t-14 4.5q-10 -1 -18 2q-10 5 -13 17q-17 -7 -28 -10t-24 -4q-26 -2 -38 14q0 8 3.5 11t9.5 10q4 3 7.5 6t6.5 5q4 2 6.5 2t7.5 1q16 4 35 12t38 10q20 3 39.5 -1.5t29.5 -22.5q21 5 40.5 9t36.5 2q5 -10 4 -17q0 -13 -11 -18
q-3 -3 -6.5 -5.5t-5.5 -3.5z" />
    <glyph glyph-name="Hcircumflex" unicode="&#x124;" horiz-adv-x="376" 
d="M64 203l-26 -6l-11 5l-2 -1l-9 6l4 11l3 -2v3q1 1 4.5 5t7 7.5t6.5 4.5t3 -3q5 3 10.5 4t9.5 2.5t7 4.5t4 10q2 29 5 59t5 59q3 42 10 88.5t7 87.5q0 8 2.5 17t13.5 9q25 0 37.5 -20.5t17.5 -48t4.5 -55.5t-3.5 -44l1 -4q2 0 1.5 3t0.5 5l4 -22t2 -22t-2.5 -22.5
t-5.5 -22.5l3 -4q-2 -14 -4.5 -29t-2.5 -30l1 -5q39 2 77 5t77 10q1 10 4 35t7.5 56.5t10 65.5t13.5 62t18 46.5t23 18.5q9 0 12 -3t3.5 -7.5t-1 -10.5t-1.5 -11t1.5 -8.5t4 -6.5t4 -6t1.5 -9q0 -11 -5.5 -31t-5.5 -37q0 -21 -3.5 -47l-6.5 -47l1 -2q0 -11 -1.5 -22
t-1.5 -22l18 2t15 -1.5t8 -9.5t-4 -20l4 -5q-5 -7 -8.5 -10t-7.5 -4.5t-9 -1.5h-12q-4 0 -6.5 -13t-4 -29t-2.5 -31t-1 -18q-3 -22 -3 -37.5v-35.5q0 -5 -0.5 -13.5t-1.5 -17t-1 -16.5t1 -12l-2 -10l-3 -3q0 -12 -3.5 -26.5t-7.5 -25.5l1 -5q0 -8 -2.5 -12t-6.5 -6.5
t-7.5 -5.5t-6.5 -9q-2 -5 -9.5 -12t-5.5 -6l-7 -1q-8 0 -14 5.5t-9.5 13.5t-5 17t-1.5 15q0 66 4.5 134.5t18.5 133.5q1 3 3 7.5t-1 5.5l-11 4q-33 -9 -64 -9t-64 -7q-9 -2 -14 -4.5t-7 -13.5q-3 -24 -5.5 -52.5t-7 -57t-12 -55t-20.5 -46.5q-1 -10 -6 -21t-13.5 -20
t-18.5 -14.5t-21 -5.5t-18 9h-5l-2 -1q-10 0 -12.5 8.5t-2.5 16.5l4.5 6.5t5.5 5.5l-1 2l1 1q2 2 2.5 3.5t2.5 5.5q4 14 10.5 45t12 66l10 66t4.5 45zM286 695q12 -23 29 -48t37 -42q6 -8 14.5 -13.5t10.5 -11.5q1 -6 -17 -8h-3l-10 -1q-23 3 -45 19t-49 53q-25 -22 -46 -43
t-35 -21h-5q-2 -1 -7 -1q-8 0 -21.5 6t-14.5 16l8 8t20.5 19l27 24.5l27.5 25.5q11 8 20.5 19.5t25.5 11.5h3q3 1 9 1q5 0 12 -4t9 -10z" />
    <glyph glyph-name="Ncommaaccent" unicode="&#x145;" horiz-adv-x="372" 
d="M129 327q0 -29 -2.5 -58.5t-2.5 -58.5v-176q0 -3 -1.5 -7.5l-2.5 -7.5q-4 -4 -6.5 -9t-0.5 -11q-2 -7 -7.5 -20t-13.5 -13q-26 0 -40 10t-21 26t-8.5 36.5t-1.5 40.5q0 79 2.5 157t2.5 157q0 9 -0.5 34t1 51.5t5.5 47t14 20.5q23 0 44.5 -15.5t29.5 -36.5q10 -27 27 -67
l36.5 -82l38.5 -79.5t34 -59.5q8 -11 13 -22t11 -23q2 5 1 11.5t-1 11.5q0 7 3 34t7.5 63.5t10.5 78l11 76.5l8.5 59.5t4.5 27.5q2 7 6 13t12 6q17 0 28.5 -12t18.5 -31t10.5 -42t4.5 -45.5t1 -42v-30.5q0 -6 -1 -19.5t-2.5 -28.5t-2 -27t0.5 -14q-3 -16 -5 -33.5t-1 -33.5
q-5 -10 -8 -19q0 -1 1.5 -2.5t0.5 -0.5v-7q0 -26 -4.5 -59t-4.5 -65q0 -6 -1 -12.5t-1 -12.5l-10 -22q-6 -3 -8 -9t-4.5 -12t-7 -11t-13.5 -5l-10 5q-4 0 -5 -1q-34 19 -48 53.5t-18 70.5l-59 115t-55 117q-2 5 -5 10.5zM197 501q15 37 27.5 72.5t22.5 72.5q3 14 5 28t0 29
q-1 5 3 9.5t7 2.5q16 -4 30 -11.5t26 -21.5q10 -14 13 -25.5t-2 -27.5q-8 -23 -19 -44t-25 -38q-14 -16 -28.5 -30l-28.5 -28q-8 -7 -15 -2.5t-16 14.5z" />
    <glyph glyph-name="Iacute" unicode="&#xcd;" horiz-adv-x="170" 
d="M136 263q-1 -1 -2 -2.5t1 -2.5q-3 -23 -9 -47l-12 -48t-10 -47.5t-4 -46.5q0 -27 -4 -47t-9.5 -32.5t-11.5 -16.5t-10 1q-2 0 -10 4t-10 4q-6 5 -15 14.5t-11 17.5l-3 4q-1 3 -1 11q0 15 4.5 29t4.5 28q0 33 3.5 66.5t8 67.5t8.5 68t4 69q0 2 0.5 4.5t0.5 4.5q3 7 2.5 14
t0.5 14q0 1 0.5 12.5t1.5 28t3 35t5.5 33.5t9 23.5t13.5 4.5q0 4 3.5 5.5t6.5 1.5q19 0 31.5 -13.5t19.5 -33t9.5 -40t2.5 -34.5q0 -11 -3 -24.5t-8 -24.5l1 -2h-1q1 -5 1.5 -10t0.5 -10q0 -8 -6 -33t-7 -50zM82 587q-5 0 -6 2.5t-2 6.5q0 10 11.5 29.5t25.5 41l26 41.5
t15 31q3 3 7 3q8 0 17.5 -6.5t18.5 -15t15 -16.5t6 -12q0 -6 -6 -17t-16 -23.5t-22 -24t-23 -19.5q-8 -6 -19 -10t-20.5 -6.5t-17 -3.5t-8.5 -1h-2v0z" />
    <glyph glyph-name="Ibreve" unicode="&#x12c;" horiz-adv-x="170" 
d="M136 263q-1 -1 -2 -2.5t1 -2.5q-3 -23 -9 -47l-12 -48t-10 -47.5t-4 -46.5q0 -27 -4 -47t-9.5 -32.5t-11.5 -16.5t-10 1q-2 0 -10 4t-10 4q-6 5 -15 14.5t-11 17.5l-3 4q-1 3 -1 11q0 15 4.5 29t4.5 28q0 33 3.5 66.5t8 67.5t8.5 68t4 69q0 2 0.5 4.5t0.5 4.5q3 7 2.5 14
t0.5 14q0 1 0.5 12.5t1.5 28t3 35t5.5 33.5t9 23.5t13.5 4.5q0 4 3.5 5.5t6.5 1.5q19 0 31.5 -13.5t19.5 -33t9.5 -40t2.5 -34.5q0 -11 -3 -24.5t-8 -24.5l1 -2h-1q1 -5 1.5 -10t0.5 -10q0 -8 -6 -33t-7 -50zM203 724q-1 2 -2 6t-2 9q-1 6 1.5 11.5t10.5 7.5q8 -20 16 -32.5
t10 -28.5v-8t-1 -9q-2 -9 -9 -20t-17.5 -22.5t-22.5 -22t-23 -16.5q-18 -11 -36.5 -16t-35.5 -5t-33 7.5t-29 20.5t-22 29t-10 34q-1 5 -0.5 9t1.5 9q1 7 6.5 19t14.5 23.5t20.5 20t23.5 8.5q3 0 7.5 -1t6.5 -3q-2 -6 -9.5 -14t-16 -18.5t-15 -23.5t-4.5 -29q2 -19 20 -27.5
t38 -8.5t40.5 7.5t37 20t26 28t8.5 31.5v4z" />
    <glyph glyph-name="Icircumflex" unicode="&#xce;" horiz-adv-x="170" 
d="M136 263q-1 -1 -2 -2.5t1 -2.5q-3 -23 -9 -47l-12 -48t-10 -47.5t-4 -46.5q0 -27 -4 -47t-9.5 -32.5t-11.5 -16.5t-10 1q-2 0 -10 4t-10 4q-6 5 -15 14.5t-11 17.5l-3 4q-1 3 -1 11q0 15 4.5 29t4.5 28q0 33 3.5 66.5t8 67.5t8.5 68t4 69q0 2 0.5 4.5t0.5 4.5q3 7 2.5 14
t0.5 14q0 1 0.5 12.5t1.5 28t3 35t5.5 33.5t9 23.5t13.5 4.5q0 4 3.5 5.5t6.5 1.5q19 0 31.5 -13.5t19.5 -33t9.5 -40t2.5 -34.5q0 -11 -3 -24.5t-8 -24.5l1 -2h-1q1 -5 1.5 -10t0.5 -10q0 -8 -6 -33t-7 -50zM152 709q12 -23 29 -48t37 -42q6 -8 14.5 -13.5t10.5 -11.5
q1 -6 -17 -8h-3l-10 -1q-23 3 -45 19t-49 53q-25 -22 -46 -43t-35 -21h-5q-2 -1 -7 -1q-8 0 -21.5 6t-14.5 16l8 8t20.5 19l27 24.5l27.5 25.5q11 8 20.5 19.5t25.5 11.5h3q3 1 9 1q5 0 12 -4t9 -10z" />
    <glyph glyph-name="Idotaccent" unicode="&#x130;" horiz-adv-x="170" 
d="M136 263q-1 -1 -2 -2.5t1 -2.5q-3 -23 -9 -47l-12 -48t-10 -47.5t-4 -46.5q0 -27 -4 -47t-9.5 -32.5t-11.5 -16.5t-10 1q-2 0 -10 4t-10 4q-6 5 -15 14.5t-11 17.5l-3 4q-1 3 -1 11q0 15 4.5 29t4.5 28q0 33 3.5 66.5t8 67.5t8.5 68t4 69q0 2 0.5 4.5t0.5 4.5q3 7 2.5 14
t0.5 14q0 1 0.5 12.5t1.5 28t3 35t5.5 33.5t9 23.5t13.5 4.5q0 4 3.5 5.5t6.5 1.5q19 0 31.5 -13.5t19.5 -33t9.5 -40t2.5 -34.5q0 -11 -3 -24.5t-8 -24.5l1 -2h-1q1 -5 1.5 -10t0.5 -10q0 -8 -6 -33t-7 -50zM157 582q-29 5 -45.5 20t-18.5 32q-2 27 12 38.5t37 11.5
t43 -9.5t25 -35.5q1 -14 -3.5 -25t-11.5 -18.5t-15 -11.5t-13 -4q-4 0 -10 2z" />
    <glyph glyph-name="Igrave" unicode="&#xcc;" horiz-adv-x="170" 
d="M136 263q-1 -1 -2 -2.5t1 -2.5q-3 -23 -9 -47l-12 -48t-10 -47.5t-4 -46.5q0 -27 -4 -47t-9.5 -32.5t-11.5 -16.5t-10 1q-2 0 -10 4t-10 4q-6 5 -15 14.5t-11 17.5l-3 4q-1 3 -1 11q0 15 4.5 29t4.5 28q0 33 3.5 66.5t8 67.5t8.5 68t4 69q0 2 0.5 4.5t0.5 4.5q3 7 2.5 14
t0.5 14q0 1 0.5 12.5t1.5 28t3 35t5.5 33.5t9 23.5t13.5 4.5q0 4 3.5 5.5t6.5 1.5q19 0 31.5 -13.5t19.5 -33t9.5 -40t2.5 -34.5q0 -11 -3 -24.5t-8 -24.5l1 -2h-1q1 -5 1.5 -10t0.5 -10q0 -8 -6 -33t-7 -50zM23 722q1 4 3.5 7.5t7.5 3.5q18 0 40 -11t42.5 -27.5t36 -36.5
t19.5 -37q-4 -11 -10 -18t-18 -7q-16 0 -36.5 14t-38.5 33.5t-31 41.5t-15 37z" />
    <glyph glyph-name="Imacron" unicode="&#x12a;" horiz-adv-x="170" 
d="M136 263q-1 -1 -2 -2.5t1 -2.5q-3 -23 -9 -47l-12 -48t-10 -47.5t-4 -46.5q0 -27 -4 -47t-9.5 -32.5t-11.5 -16.5t-10 1q-2 0 -10 4t-10 4q-6 5 -15 14.5t-11 17.5l-3 4q-1 3 -1 11q0 15 4.5 29t4.5 28q0 33 3.5 66.5t8 67.5t8.5 68t4 69q0 2 0.5 4.5t0.5 4.5q3 7 2.5 14
t0.5 14q0 1 0.5 12.5t1.5 28t3 35t5.5 33.5t9 23.5t13.5 4.5q0 4 3.5 5.5t6.5 1.5q19 0 31.5 -13.5t19.5 -33t9.5 -40t2.5 -34.5q0 -11 -3 -24.5t-8 -24.5l1 -2h-1q1 -5 1.5 -10t0.5 -10q0 -8 -6 -33t-7 -50zM210 656q12 3 23 5l22 4q3 3 9 3q5 -1 8.5 -6t6.5 -10
q8 -14 8 -27.5t-10 -23.5q-5 -2 -9 -3t-9 -2l-12 -2t-12 -3q-6 -1 -11.5 -1h-11.5q-5 -1 -10.5 -1h-11.5q-5 0 -10 -0.5t-10 -0.5q-2 0 -3 1t-2 1q-2 0 -3 -1t-6 -2h-5.5t-9.5 1q-4 1 -14 1q-12 0 -31 -1t-39 -1q-38 0 -69 3q-28 3 -37 11q-1 3 5.5 14t20.5 17q6 5 13.5 7.5
t15.5 4.5l31 7q10 4 24 6q7 2 14.5 3t15.5 1q6 0 11.5 -0.5t11.5 -1.5q8 -1 15 -2.5l12 -2.5q2 0 2 1q2 -1 4 -1q1 1 5 1q2 0 10 -1t16 -1q8 1 12.5 3.5t10.5 2.5q2 0 3.5 -0.5t5.5 -2.5z" />
    <glyph glyph-name="Itilde" unicode="&#x128;" horiz-adv-x="170" 
d="M136 263q-1 -1 -2 -2.5t1 -2.5q-3 -23 -9 -47l-12 -48t-10 -47.5t-4 -46.5q0 -27 -4 -47t-9.5 -32.5t-11.5 -16.5t-10 1q-2 0 -10 4t-10 4q-6 5 -15 14.5t-11 17.5l-3 4q-1 3 -1 11q0 15 4.5 29t4.5 28q0 33 3.5 66.5t8 67.5t8.5 68t4 69q0 2 0.5 4.5t0.5 4.5q3 7 2.5 14
t0.5 14q0 1 0.5 12.5t1.5 28t3 35t5.5 33.5t9 23.5t13.5 4.5q0 4 3.5 5.5t6.5 1.5q19 0 31.5 -13.5t19.5 -33t9.5 -40t2.5 -34.5q0 -11 -3 -24.5t-8 -24.5l1 -2h-1q1 -5 1.5 -10t0.5 -10q0 -8 -6 -33t-7 -50zM254 593q-5 -2 -7.5 -2.5t-6.5 -1.5q-17 -4 -36.5 -11.5
t-39.5 -9.5q-10 -1 -16 1.5t-14 4.5q-10 -1 -18 2q-10 5 -13 17q-17 -7 -28 -10t-24 -4q-26 -2 -38 14q0 8 3.5 11t9.5 10q4 3 7.5 6t6.5 5q4 2 6.5 2t7.5 1q16 4 35 12t38 10q20 3 39.5 -1.5t29.5 -22.5q21 5 40.5 9t36.5 2q5 -10 4 -17q0 -13 -11 -18q-3 -3 -6.5 -5.5
t-5.5 -3.5z" />
    <glyph glyph-name="Jcircumflex" unicode="&#x134;" horiz-adv-x="336" 
d="M275 410l4 -48t2 -48q0 -16 -2 -41.5t-5.5 -52.5t-8.5 -51.5t-12 -38.5l-2 -19l-1 3l-2 -2l3 -14v-2q-3 -4 -6.5 -19t-9 -34.5t-14 -42t-23 -41t-35 -30.5t-49.5 -12q-24 0 -47 7t-40.5 21t-28 34.5t-10.5 46.5q0 11 6 22l-1 22q0 10 2 27t6.5 33.5t12.5 29t21 12.5
q15 0 20 -14q-6 -14 -7 -25t-1 -26q0 -4 -4 -8.5t-8.5 -11.5t-8 -17t-3.5 -25q0 -29 19.5 -49.5t48.5 -20.5l24 19q9 0 18 18.5t16.5 42.5t12.5 46.5t6 30.5q7 51 11 102l8 103q2 16 1 33t-1 34q-13 0 -25 -1t-25 -1q-11 0 -22.5 2t-22.5 1l-12 12q1 3 2.5 7t3.5 6
q3 17 19.5 26t36.5 14t39 8t27 8l11 -2q0 2 2.5 2t3.5 -1q11 1 23 0t22 1q10 1 22 5.5l24 9t24 8t23 3.5q4 0 6.5 -4t3.5 -9.5t1.5 -11t0.5 -8.5q0 -20 -6 -29.5t-15.5 -15t-22.5 -8.5t-27 -9l-5 3q-4 -5 -11.5 -6.5t-12.5 -3.5zM254 666q12 -23 29 -48t37 -42
q6 -8 14.5 -13.5t10.5 -11.5q1 -6 -17 -8h-3l-10 -1q-23 3 -45 19t-49 53q-25 -22 -46 -43t-35 -21h-5q-2 -1 -7 -1q-8 0 -21.5 6t-14.5 16l8 8t20.5 19l27 24.5l27.5 25.5q11 8 20.5 19.5t25.5 11.5h3q3 1 9 1q5 0 12 -4t9 -10z" />
    <glyph glyph-name="Lacute" unicode="&#x139;" horiz-adv-x="326" 
d="M122 78q0 -5 1.5 -9.5t-0.5 -9.5l6 -10l-1 -1h2l-8 -10l15 4l-3 -4q16 3 33.5 1.5t34.5 -1.5q22 0 43.5 3.5t43.5 3.5q8 0 15 -5t7 -14q0 -10 -16.5 -17t-41.5 -12t-55.5 -8t-58 -5t-49 -2.5t-29.5 -0.5q-9 0 -26 2.5t-22 10.5l-10 4t-8 6q0 8 4 12.5t8.5 8.5t8.5 10
t4 17q0 6 -1 12t-1 12q0 19 5.5 39.5t9.5 38.5q9 47 15 97t10 98q0 6 1.5 22.5t3 37t4.5 42.5t7.5 40.5t10.5 30.5t14 12q6 0 16.5 -4t20.5 -10.5t17.5 -14t7.5 -14.5l-1 -77q0 -11 -2.5 -21.5t-6.5 -21.5q-2 -7 -2 -6t2 -3h-1q3 -20 3 -42q0 -12 -3.5 -43.5t-8.5 -67.5
t-10 -67.5t-8 -43.5l1 -1q-1 -5 -1.5 -9.5t-0.5 -9.5zM185 588q-5 0 -6 2.5t-2 6.5q0 10 11.5 29.5t25.5 41l26 41.5t15 31q3 3 7 3q8 0 17.5 -6.5t18.5 -15t15 -16.5t6 -12q0 -6 -6 -17t-16 -23.5t-22 -24t-23 -19.5q-8 -6 -19 -10t-20.5 -6.5t-17 -3.5t-8.5 -1h-2v0z" />
    <glyph glyph-name="Lcaron" unicode="&#x13d;" horiz-adv-x="454" 
d="M122 78q0 -5 1.5 -9.5t-0.5 -9.5l6 -10l-1 -1h2l-8 -10l15 4l-3 -4q16 3 33.5 1.5t34.5 -1.5q22 0 43.5 3.5t43.5 3.5q8 0 15 -5t7 -14q0 -10 -16.5 -17t-41.5 -12t-55.5 -8t-58 -5t-49 -2.5t-29.5 -0.5q-9 0 -26 2.5t-22 10.5l-10 4t-8 6q0 8 4 12.5t8.5 8.5t8.5 10
t4 17q0 6 -1 12t-1 12q0 19 5.5 39.5t9.5 38.5q9 47 15 97t10 98q0 6 1.5 22.5t3 37t4.5 42.5t7.5 40.5t10.5 30.5t14 12q6 0 16.5 -4t20.5 -10.5t17.5 -14t7.5 -14.5l-1 -77q0 -11 -2.5 -21.5t-6.5 -21.5q-2 -7 -2 -6t2 -3h-1q3 -20 3 -42q0 -12 -3.5 -43.5t-8.5 -67.5
t-10 -67.5t-8 -43.5l1 -1q-1 -5 -1.5 -9.5t-0.5 -9.5zM272 188q0 -8 -14 -8q-9 0 -19.5 2t-20 5t-16 8t-6.5 11q-2 22 8 48t18 52q18 13 27 15.5t13 2.5q14 0 25 -12t13 -28q0 -5 1 -7q-8 -23 -17.5 -46t-11.5 -43z" />
    <glyph glyph-name="Ldot" unicode="&#x13f;" horiz-adv-x="326" 
d="M122 78q0 -5 1.5 -9.5t-0.5 -9.5l6 -10l-1 -1h2l-8 -10l15 4l-3 -4q16 3 33.5 1.5t34.5 -1.5q22 0 43.5 3.5t43.5 3.5q8 0 15 -5t7 -14q0 -10 -16.5 -17t-41.5 -12t-55.5 -8t-58 -5t-49 -2.5t-29.5 -0.5q-9 0 -26 2.5t-22 10.5l-10 4t-8 6q0 8 4 12.5t8.5 8.5t8.5 10
t4 17q0 6 -1 12t-1 12q0 19 5.5 39.5t9.5 38.5q9 47 15 97t10 98q0 6 1.5 22.5t3 37t4.5 42.5t7.5 40.5t10.5 30.5t14 12q6 0 16.5 -4t20.5 -10.5t17.5 -14t7.5 -14.5l-1 -77q0 -11 -2.5 -21.5t-6.5 -21.5q-2 -7 -2 -6t2 -3h-1q3 -20 3 -42q0 -12 -3.5 -43.5t-8.5 -67.5
t-10 -67.5t-8 -43.5l1 -1q-1 -5 -1.5 -9.5t-0.5 -9.5z" />
    <glyph glyph-name="Lcommaaccent" unicode="&#x13b;" horiz-adv-x="326" 
d="M122 78q0 -5 1.5 -9.5t-0.5 -9.5l6 -10l-1 -1h2l-8 -10l15 4l-3 -4q16 3 33.5 1.5t34.5 -1.5q22 0 43.5 3.5t43.5 3.5q8 0 15 -5t7 -14q0 -10 -16.5 -17t-41.5 -12t-55.5 -8t-58 -5t-49 -2.5t-29.5 -0.5q-9 0 -26 2.5t-22 10.5l-10 4t-8 6q0 8 4 12.5t8.5 8.5t8.5 10
t4 17q0 6 -1 12t-1 12q0 19 5.5 39.5t9.5 38.5q9 47 15 97t10 98q0 6 1.5 22.5t3 37t4.5 42.5t7.5 40.5t10.5 30.5t14 12q6 0 16.5 -4t20.5 -10.5t17.5 -14t7.5 -14.5l-1 -77q0 -11 -2.5 -21.5t-6.5 -21.5q-2 -7 -2 -6t2 -3h-1q3 -20 3 -42q0 -12 -3.5 -43.5t-8.5 -67.5
t-10 -67.5t-8 -43.5l1 -1q-1 -5 -1.5 -9.5t-0.5 -9.5zM202 432q15 37 27.5 72.5t22.5 72.5q3 14 5 28t0 29q-1 5 3 9.5t7 2.5q16 -4 30 -11.5t26 -21.5q10 -14 13 -25.5t-2 -27.5q-8 -23 -19 -44t-25 -38q-14 -16 -28.5 -30l-28.5 -28q-8 -7 -15 -2.5t-16 14.5z" />
    <glyph glyph-name="Oacute" unicode="&#xd3;" 
d="M73 410q9 0 19 9t20 21l20 24t19 19q2 17 14.5 27.5t25.5 19.5q14 2 26.5 6.5t26.5 4.5q22 0 40.5 -8t38.5 -15q17 -17 28 -29.5t24 -32.5q1 -1 2 -5t2.5 -7.5l2.5 -6t1 -0.5q6 -7 10 -27.5t6.5 -43.5t3.5 -44.5t1 -31.5q0 -48 -13 -95.5t-30 -92.5q-2 -24 -20.5 -51
t-45 -50.5t-56 -38.5t-52.5 -15q-49 0 -81.5 22.5t-52 58t-27.5 78.5t-8 84q0 26 3 55.5t9.5 59t17 57t25.5 48.5zM158 301l-2 -4l1 -15q-3 -3 -7 -13t-7 -21.5t-4 -22t1 -14.5q0 -10 -3 -19t-3 -19l2 -3q-1 -13 1 -35.5t7 -46t13 -44t20 -27.5q0 -8 11.5 -13.5t18.5 -5.5
q16 0 32 12t30.5 28.5t26 35t17.5 31.5v-2q8 13 13 27.5l10 28.5l7 26q1 3 2.5 9t-0.5 3l2 5q0 27 8 53t8 53q0 17 -1 36t-5 38t-11.5 36t-20.5 30h1q-7 10 -24.5 20l-28.5 16l-6 -2l-2 -4q-4 0 -12 -2t-16 -6t-14 -8.5t-6 -9.5q-11 -19 -20 -37t-11 -41q1 -1 1 -4
t-3.5 -9.5t-5.5 -9.5l-4 4l-2 -5h1l-7 -25l-7 3l-3 -11zM228 583q-5 0 -6 2.5t-2 6.5q0 10 11.5 29.5t25.5 41l26 41.5t15 31q3 3 7 3q8 0 17.5 -6.5t18.5 -15t15 -16.5t6 -12q0 -6 -6 -17t-16 -23.5t-22 -24t-23 -19.5q-8 -6 -19 -10t-20.5 -6.5t-17 -3.5t-8.5 -1h-2v0z
" />
    <glyph glyph-name="Obreve" unicode="&#x14e;" 
d="M73 410q9 0 19 9t20 21l20 24t19 19q2 17 14.5 27.5t25.5 19.5q14 2 26.5 6.5t26.5 4.5q22 0 40.5 -8t38.5 -15q17 -17 28 -29.5t24 -32.5q1 -1 2 -5t2.5 -7.5l2.5 -6t1 -0.5q6 -7 10 -27.5t6.5 -43.5t3.5 -44.5t1 -31.5q0 -48 -13 -95.5t-30 -92.5q-2 -24 -20.5 -51
t-45 -50.5t-56 -38.5t-52.5 -15q-49 0 -81.5 22.5t-52 58t-27.5 78.5t-8 84q0 26 3 55.5t9.5 59t17 57t25.5 48.5zM158 301l-2 -4l1 -15q-3 -3 -7 -13t-7 -21.5t-4 -22t1 -14.5q0 -10 -3 -19t-3 -19l2 -3q-1 -13 1 -35.5t7 -46t13 -44t20 -27.5q0 -8 11.5 -13.5t18.5 -5.5
q16 0 32 12t30.5 28.5t26 35t17.5 31.5v-2q8 13 13 27.5l10 28.5l7 26q1 3 2.5 9t-0.5 3l2 5q0 27 8 53t8 53q0 17 -1 36t-5 38t-11.5 36t-20.5 30h1q-7 10 -24.5 20l-28.5 16l-6 -2l-2 -4q-4 0 -12 -2t-16 -6t-14 -8.5t-6 -9.5q-11 -19 -20 -37t-11 -41q1 -1 1 -4
t-3.5 -9.5t-5.5 -9.5l-4 4l-2 -5h1l-7 -25l-7 3l-3 -11zM347 709q-1 2 -2 6t-2 9q-1 6 1.5 11.5t10.5 7.5q8 -20 16 -32.5t10 -28.5v-8t-1 -9q-2 -9 -9 -20t-17.5 -22.5t-22.5 -22t-23 -16.5q-18 -11 -36.5 -16t-35.5 -5t-33 7.5t-29 20.5t-22 29t-10 34q-1 5 -0.5 9t1.5 9
q1 7 6.5 19t14.5 23.5t20.5 20t23.5 8.5q3 0 7.5 -1t6.5 -3q-2 -6 -9.5 -14t-16 -18.5t-15 -23.5t-4.5 -29q2 -19 20 -27.5t38 -8.5t40.5 7.5t37 20t26 28t8.5 31.5v4z" />
    <glyph glyph-name="Ograve" unicode="&#xd2;" 
d="M73 410q9 0 19 9t20 21l20 24t19 19q2 17 14.5 27.5t25.5 19.5q14 2 26.5 6.5t26.5 4.5q22 0 40.5 -8t38.5 -15q17 -17 28 -29.5t24 -32.5q1 -1 2 -5t2.5 -7.5l2.5 -6t1 -0.5q6 -7 10 -27.5t6.5 -43.5t3.5 -44.5t1 -31.5q0 -48 -13 -95.5t-30 -92.5q-2 -24 -20.5 -51
t-45 -50.5t-56 -38.5t-52.5 -15q-49 0 -81.5 22.5t-52 58t-27.5 78.5t-8 84q0 26 3 55.5t9.5 59t17 57t25.5 48.5zM158 301l-2 -4l1 -15q-3 -3 -7 -13t-7 -21.5t-4 -22t1 -14.5q0 -10 -3 -19t-3 -19l2 -3q-1 -13 1 -35.5t7 -46t13 -44t20 -27.5q0 -8 11.5 -13.5t18.5 -5.5
q16 0 32 12t30.5 28.5t26 35t17.5 31.5v-2q8 13 13 27.5l10 28.5l7 26q1 3 2.5 9t-0.5 3l2 5q0 27 8 53t8 53q0 17 -1 36t-5 38t-11.5 36t-20.5 30h1q-7 10 -24.5 20l-28.5 16l-6 -2l-2 -4q-4 0 -12 -2t-16 -6t-14 -8.5t-6 -9.5q-11 -19 -20 -37t-11 -41q1 -1 1 -4
t-3.5 -9.5t-5.5 -9.5l-4 4l-2 -5h1l-7 -25l-7 3l-3 -11zM146 709q1 4 3.5 7.5t7.5 3.5q18 0 40 -11t42.5 -27.5t36 -36.5t19.5 -37q-4 -11 -10 -18t-18 -7q-16 0 -36.5 14t-38.5 33.5t-31 41.5t-15 37z" />
    <glyph glyph-name="Otilde" unicode="&#xd5;" 
d="M73 410q9 0 19 9t20 21l20 24t19 19q2 17 14.5 27.5t25.5 19.5q14 2 26.5 6.5t26.5 4.5q22 0 40.5 -8t38.5 -15q17 -17 28 -29.5t24 -32.5q1 -1 2 -5t2.5 -7.5l2.5 -6t1 -0.5q6 -7 10 -27.5t6.5 -43.5t3.5 -44.5t1 -31.5q0 -48 -13 -95.5t-30 -92.5q-2 -24 -20.5 -51
t-45 -50.5t-56 -38.5t-52.5 -15q-49 0 -81.5 22.5t-52 58t-27.5 78.5t-8 84q0 26 3 55.5t9.5 59t17 57t25.5 48.5zM158 301l-2 -4l1 -15q-3 -3 -7 -13t-7 -21.5t-4 -22t1 -14.5q0 -10 -3 -19t-3 -19l2 -3q-1 -13 1 -35.5t7 -46t13 -44t20 -27.5q0 -8 11.5 -13.5t18.5 -5.5
q16 0 32 12t30.5 28.5t26 35t17.5 31.5v-2q8 13 13 27.5l10 28.5l7 26q1 3 2.5 9t-0.5 3l2 5q0 27 8 53t8 53q0 17 -1 36t-5 38t-11.5 36t-20.5 30h1q-7 10 -24.5 20l-28.5 16l-6 -2l-2 -4q-4 0 -12 -2t-16 -6t-14 -8.5t-6 -9.5q-11 -19 -20 -37t-11 -41q1 -1 1 -4
t-3.5 -9.5t-5.5 -9.5l-4 4l-2 -5h1l-7 -25l-7 3l-3 -11zM388 598q-5 -2 -7.5 -2.5t-6.5 -1.5q-17 -4 -36.5 -11.5t-39.5 -9.5q-10 -1 -16 1.5t-14 4.5q-10 -1 -18 2q-10 5 -13 17q-17 -7 -28 -10t-24 -4q-26 -2 -38 14q0 8 3.5 11t9.5 10q4 3 7.5 6t6.5 5q4 2 6.5 2t7.5 1
q16 4 35 12t38 10q20 3 39.5 -1.5t29.5 -22.5q21 5 40.5 9t36.5 2q5 -10 4 -17q0 -13 -11 -18q-3 -3 -6.5 -5.5t-5.5 -3.5z" />
    <glyph glyph-name="Odieresis" unicode="&#xd6;" 
d="M73 410q9 0 19 9t20 21l20 24t19 19q2 17 14.5 27.5t25.5 19.5q14 2 26.5 6.5t26.5 4.5q22 0 40.5 -8t38.5 -15q17 -17 28 -29.5t24 -32.5q1 -1 2 -5t2.5 -7.5l2.5 -6t1 -0.5q6 -7 10 -27.5t6.5 -43.5t3.5 -44.5t1 -31.5q0 -48 -13 -95.5t-30 -92.5q-2 -24 -20.5 -51
t-45 -50.5t-56 -38.5t-52.5 -15q-49 0 -81.5 22.5t-52 58t-27.5 78.5t-8 84q0 26 3 55.5t9.5 59t17 57t25.5 48.5zM158 301l-2 -4l1 -15q-3 -3 -7 -13t-7 -21.5t-4 -22t1 -14.5q0 -10 -3 -19t-3 -19l2 -3q-1 -13 1 -35.5t7 -46t13 -44t20 -27.5q0 -8 11.5 -13.5t18.5 -5.5
q16 0 32 12t30.5 28.5t26 35t17.5 31.5v-2q8 13 13 27.5l10 28.5l7 26q1 3 2.5 9t-0.5 3l2 5q0 27 8 53t8 53q0 17 -1 36t-5 38t-11.5 36t-20.5 30h1q-7 10 -24.5 20l-28.5 16l-6 -2l-2 -4q-4 0 -12 -2t-16 -6t-14 -8.5t-6 -9.5q-11 -19 -20 -37t-11 -41q1 -1 1 -4
t-3.5 -9.5t-5.5 -9.5l-4 4l-2 -5h1l-7 -25l-7 3l-3 -11zM153 584q-30 3 -48 25l-2 4q-1 12 0 26q4 31 20.5 46.5t33.5 15.5q25 0 37 -15.5t7 -48.5v-8q-4 -22 -21 -33.5t-27 -11.5zM289 590q-11 7 -19.5 21.5t-5.5 36.5q2 21 9.5 36.5t33.5 15.5q10 0 20.5 -3t18.5 -9.5
t12.5 -15.5t3.5 -21l-9 -21q-3 -14 -9 -22.5t-13 -13t-14.5 -6t-13.5 -1.5q-7 0 -14 3z" />
    <glyph glyph-name="Ocircumflex" unicode="&#xd4;" 
d="M73 410q9 0 19 9t20 21l20 24t19 19q2 17 14.5 27.5t25.5 19.5q14 2 26.5 6.5t26.5 4.5q22 0 40.5 -8t38.5 -15q17 -17 28 -29.5t24 -32.5q1 -1 2 -5t2.5 -7.5l2.5 -6t1 -0.5q6 -7 10 -27.5t6.5 -43.5t3.5 -44.5t1 -31.5q0 -48 -13 -95.5t-30 -92.5q-2 -24 -20.5 -51
t-45 -50.5t-56 -38.5t-52.5 -15q-49 0 -81.5 22.5t-52 58t-27.5 78.5t-8 84q0 26 3 55.5t9.5 59t17 57t25.5 48.5zM158 301l-2 -4l1 -15q-3 -3 -7 -13t-7 -21.5t-4 -22t1 -14.5q0 -10 -3 -19t-3 -19l2 -3q-1 -13 1 -35.5t7 -46t13 -44t20 -27.5q0 -8 11.5 -13.5t18.5 -5.5
q16 0 32 12t30.5 28.5t26 35t17.5 31.5v-2q8 13 13 27.5l10 28.5l7 26q1 3 2.5 9t-0.5 3l2 5q0 27 8 53t8 53q0 17 -1 36t-5 38t-11.5 36t-20.5 30h1q-7 10 -24.5 20l-28.5 16l-6 -2l-2 -4q-4 0 -12 -2t-16 -6t-14 -8.5t-6 -9.5q-11 -19 -20 -37t-11 -41q1 -1 1 -4
t-3.5 -9.5t-5.5 -9.5l-4 4l-2 -5h1l-7 -25l-7 3l-3 -11zM299 688q12 -23 29 -48t37 -42q6 -8 14.5 -13.5t10.5 -11.5q1 -6 -17 -8h-3l-10 -1q-23 3 -45 19t-49 53q-25 -22 -46 -43t-35 -21h-5q-2 -1 -7 -1q-8 0 -21.5 6t-14.5 16l8 8t20.5 19l27 24.5l27.5 25.5
q11 8 20.5 19.5t25.5 11.5h3q3 1 9 1q5 0 12 -4t9 -10z" />
    <glyph glyph-name="Ohungarumlaut" unicode="&#x150;" 
d="M73 410q9 0 19 9t20 21l20 24t19 19q2 17 14.5 27.5t25.5 19.5q14 2 26.5 6.5t26.5 4.5q22 0 40.5 -8t38.5 -15q17 -17 28 -29.5t24 -32.5q1 -1 2 -5t2.5 -7.5l2.5 -6t1 -0.5q6 -7 10 -27.5t6.5 -43.5t3.5 -44.5t1 -31.5q0 -48 -13 -95.5t-30 -92.5q-2 -24 -20.5 -51
t-45 -50.5t-56 -38.5t-52.5 -15q-49 0 -81.5 22.5t-52 58t-27.5 78.5t-8 84q0 26 3 55.5t9.5 59t17 57t25.5 48.5zM158 301l-2 -4l1 -15q-3 -3 -7 -13t-7 -21.5t-4 -22t1 -14.5q0 -10 -3 -19t-3 -19l2 -3q-1 -13 1 -35.5t7 -46t13 -44t20 -27.5q0 -8 11.5 -13.5t18.5 -5.5
q16 0 32 12t30.5 28.5t26 35t17.5 31.5v-2q8 13 13 27.5l10 28.5l7 26q1 3 2.5 9t-0.5 3l2 5q0 27 8 53t8 53q0 17 -1 36t-5 38t-11.5 36t-20.5 30h1q-7 10 -24.5 20l-28.5 16l-6 -2l-2 -4q-4 0 -12 -2t-16 -6t-14 -8.5t-6 -9.5q-11 -19 -20 -37t-11 -41q1 -1 1 -4
t-3.5 -9.5t-5.5 -9.5l-4 4l-2 -5h1l-7 -25l-7 3l-3 -11zM308 566q-6 4 -8 8q-8 13 -7.5 28.5t-2.5 37.5l8 28l3 8t6 17t6 16t4 6l5.5 9t4.5 6q5 3 15.5 4.5t21 2t18.5 -0.5t8 -4q12 -4 23 -11t16 -15q7 -11 0 -22t-15 -28v-4v-2q-2 -1 -6 0q-10 -5 -21.5 -10t-19.5 -10
q-6 -3 -12 -12.5l-12.5 -19.5l-12.5 -19.5t-12 -12.5q-7 -3 -10 0zM164 584q-5 2 -8 7q-8 14 -7.5 29t-2.5 37l8 28l3 8t6 17t6 16.5t4 6.5q4 10 10 14q5 3 15.5 4.5t21 2t18.5 -0.5t8 -4q12 -4 23 -11t16 -15q7 -11 0 -22t-15 -28q1 -4 -1 -6h-6l-20.5 -9t-19.5 -10
q-6 -3 -12.5 -12.5t-12.5 -20t-12 -20t-12 -12.5t-10 1z" />
    <glyph glyph-name="Tcaron" unicode="&#x164;" horiz-adv-x="345" 
d="M115 390l-4 7q5 23 2 46.5t5 46.5q-26 6 -49 4t-48 -2q-5 0 -16.5 2t-11.5 10q0 10 17.5 16t39.5 9t43 3.5t27 0.5q0 4 -1 6q2 6 9.5 7t12.5 1q19 0 36 -12q12 2 24 3t24 1h71h18.5t24.5 -1.5t21.5 -5.5t9.5 -12q0 -14 -17.5 -20.5t-40 -9t-44 -2t-29.5 0.5l-17 -1
q0 -13 -4 -22q2 -7 1.5 -12.5t-0.5 -11.5q0 -16 -5 -29.5t-5 -27.5v-3l1 -1q4 -16 4 -36q0 -21 -1.5 -46.5t-4 -51.5t-5.5 -50.5t-6 -44.5q-2 -11 -5 -20.5t-3 -21.5q0 -11 -4.5 -22t-9.5 -21l4 -15.5t5 -15.5q-4 -10 -14 -18l-2 -2l-3.5 -3.5t-2 -2.5t1.5 0l-3 -12l-13 -7
l-3 1l-5 -12l1 -4l-4 -2l-7 -16l-6 3l-1 -1l-6 5q-10 1 -16.5 7t-10 14.5t-5 18t-1.5 17.5q0 51 9.5 102t9.5 102q0 42 6 82.5t6 81.5zM151 602q-12 23 -29 48t-36 42q-6 8 -14.5 13.5t-11.5 11.5q0 6 18 8h2l11 1q22 -3 44 -19t49 -53q25 22 46 43t35 21h5q2 1 8 1
q8 0 21 -6t15 -16l-8 -8t-20.5 -19l-27.5 -24.5l-28 -25.5q-11 -8 -20.5 -19.5t-24.5 -11.5h-3q-3 -1 -10 -1q-5 0 -12 4t-9 10z" />
    <glyph glyph-name="Tbar" unicode="&#x166;" horiz-adv-x="345" 
d="M115 390l-4 7q5 23 2 46.5t5 46.5q-26 6 -49 4t-48 -2q-5 0 -16.5 2t-11.5 10q0 10 17.5 16t39.5 9t43 3.5t27 0.5q0 4 -1 6q2 6 9.5 7t12.5 1q19 0 36 -12q12 2 24 3t24 1h71h18.5t24.5 -1.5t21.5 -5.5t9.5 -12q0 -14 -17.5 -20.5t-40 -9t-44 -2t-29.5 0.5l-17 -1
q0 -13 -4 -22q2 -7 1.5 -12.5t-0.5 -11.5q0 -16 -5 -29.5t-5 -27.5v-3l1 -1q4 -16 4 -36q0 -21 -1.5 -46.5t-4 -51.5t-5.5 -50.5t-6 -44.5q-2 -11 -5 -20.5t-3 -21.5q0 -11 -4.5 -22t-9.5 -21l4 -15.5t5 -15.5q-4 -10 -14 -18l-2 -2l-3.5 -3.5t-2 -2.5t1.5 0l-3 -12l-13 -7
l-3 1l-5 -12l1 -4l-4 -2l-7 -16l-6 3l-1 -1l-6 5q-10 1 -16.5 7t-10 14.5t-5 18t-1.5 17.5q0 51 9.5 102t9.5 102q0 42 6 82.5t6 81.5zM261 659q12 3 23 5l22 4q3 3 9 3q5 -1 8.5 -6t6.5 -10q8 -14 8 -27.5t-10 -23.5q-5 -2 -9 -3t-9 -2l-12 -2t-12 -3q-6 -1 -11.5 -1h-11.5
q-5 -1 -10.5 -1h-11.5q-5 0 -10 -0.5t-10 -0.5q-2 0 -3 1t-2 1q-2 0 -3 -1t-6 -2h-5.5t-9.5 1q-4 1 -14 1q-12 0 -31 -1t-39 -1q-38 0 -69 3q-28 3 -37 11q-1 3 5.5 14t20.5 17q6 5 13.5 7.5t15.5 4.5l31 7q10 4 24 6q7 2 14.5 3t15.5 1q6 0 11.5 -0.5t11.5 -1.5
q8 -1 15 -2.5l12 -2.5q2 0 2 1q2 -1 4 -1q1 1 5 1q2 0 10 -1t16 -1q8 1 12.5 3.5t10.5 2.5q2 0 3.5 -0.5t5.5 -2.5z" />
    <glyph glyph-name="Tcommaaccent" unicode="&#x162;" horiz-adv-x="345" 
d="M115 390l-4 7q5 23 2 46.5t5 46.5q-26 6 -49 4t-48 -2q-5 0 -16.5 2t-11.5 10q0 10 17.5 16t39.5 9t43 3.5t27 0.5q0 4 -1 6q2 6 9.5 7t12.5 1q19 0 36 -12q12 2 24 3t24 1h71h18.5t24.5 -1.5t21.5 -5.5t9.5 -12q0 -14 -17.5 -20.5t-40 -9t-44 -2t-29.5 0.5l-17 -1
q0 -13 -4 -22q2 -7 1.5 -12.5t-0.5 -11.5q0 -16 -5 -29.5t-5 -27.5v-3l1 -1q4 -16 4 -36q0 -21 -1.5 -46.5t-4 -51.5t-5.5 -50.5t-6 -44.5q-2 -11 -5 -20.5t-3 -21.5q0 -11 -4.5 -22t-9.5 -21l4 -15.5t5 -15.5q-4 -10 -14 -18l-2 -2l-3.5 -3.5t-2 -2.5t1.5 0l-3 -12l-13 -7
l-3 1l-5 -12l1 -4l-4 -2l-7 -16l-6 3l-1 -1l-6 5q-10 1 -16.5 7t-10 14.5t-5 18t-1.5 17.5q0 51 9.5 102t9.5 102q0 42 6 82.5t6 81.5zM150 607q15 37 27.5 72.5t22.5 72.5q3 14 5 28t0 29q-1 5 3 9.5t7 2.5q16 -4 30 -11.5t26 -21.5q10 -14 13 -25.5t-2 -27.5
q-8 -23 -19 -44t-25 -38q-14 -16 -28.5 -30l-28.5 -28q-8 -7 -15 -2.5t-16 14.5z" />
    <glyph glyph-name="Uhungarumlaut" unicode="&#x170;" horiz-adv-x="368" 
d="M179 38l3.5 3.5l3.5 3.5q2 0 6 2l9 8l6 9q4 8 7 12l14 26l8 16l3 8v-1l9 30l4 19q3 11 5.5 22t4.5 22h-1q3 9 3 21l6 37l4 31l6 39q2 10 4 15q0 2 -0.5 2.5t-0.5 2.5q2 5 2 9.5t2 9.5q0 8 1 15t1 15l2 16q0 4 1 8t2 7q0 4 1 6l3 18q1 10 5 21l5 11q3 6 7 10l3 3l5 4l4 6
q6 8 9 10h3q4 2 12 0q2 -1 4 -3.5t4 -4.5q2 -4 2 -6v-6q-1 -4 -1 -14v-7v-11l2 -25l-2 -3l-3 -5q0 -2 -2 -6q0 -5 -0.5 -10t-1.5 -11q-2 -8 -2.5 -16.5t-2.5 -17.5l-3 -18q0 -3 -0.5 -5.5t-1.5 -5.5l-4 -28l-8.5 -56t-10.5 -52q0 -3 -0.5 -5.5t-0.5 -3.5h-2q-2 -10 -4.5 -21
t-6.5 -24q-2 -8 -5 -16l-6 -16q-3 -13 -9 -25l-5 -13l-9 -21q-2 -2 -2 -3t-1 -3q-3 -7 -5.5 -13.5t-6.5 -13.5l-10 -15.5l-10 -14.5q-6 -8 -13 -14t-14 -11q-4 -3 -12 -7q-3 -3 -9 -5q-4 -2 -8.5 -2.5t-9.5 -1.5q-5 -2 -11 0q-4 0 -7.5 1t-7.5 2l-8 3q-8 2 -15.5 6t-14.5 9
q-5 3 -8.5 5.5t-6.5 6.5l-14 13q-11 13 -18 30l-4 9l-6 18q-2 6 -4.5 12t-4.5 12q-2 4 -4 12q-3 14 -5.5 27t-4.5 26q-2 5 -2 10t-1 10q-1 8 -2.5 16t-2.5 17v29q-1 8 -1 15v14v12.5t1 11.5q2 14 4 22q1 13 1 24.5v24.5v8v5q0 2 -0.5 4t-0.5 4t0.5 4.5t0.5 4.5q0 7 1 9l-2 3
q1 2 1 8q0 4 1 7.5t3 8.5q1 3 1 11q0 2 0.5 5t0.5 5q2 8 2 14q1 7 6 13l3 10l5 10l6 9q8 11 18 14q6 0 8 -2h3l5 -2q6 -2 8 -4q6 -4 9 -7l5 -9q5 -2 7 -10q2 -5 3 -12t1 -15v-14q0 -10 -1 -14q0 -5 -0.5 -9t0.5 -6v-8.5t1 -8.5v2q0 -6 0.5 -11.5t0.5 -11.5q1 -4 1 -8v-9
q1 -3 0.5 -6.5t-0.5 -6.5q-1 -8 -2 -14.5t0 -14.5q1 0 1 -1q0 -7 -1 -11q1 -5 1.5 -14t-0.5 -20v-19v-17t-1 -21q0 -7 0.5 -14t0.5 -12t0.5 -8.5t1.5 -6.5q0 -3 1 -4l3 -24l6.5 -31.5t8.5 -31.5q4 -12 11 -26q5 -13 13 -21q3 -3 6.5 -5t7.5 -4zM257 548q-6 4 -8 8
q-8 13 -7.5 28.5t-2.5 37.5l8 28l3 8t6 17t6 16t4 6l5.5 9t4.5 6q5 3 15.5 4.5t21 2t18.5 -0.5t8 -4q12 -4 23 -11t16 -15q7 -11 0 -22t-15 -28v-4v-2q-2 -1 -6 0q-10 -5 -21.5 -10t-19.5 -10q-6 -3 -12 -12.5l-12.5 -19.5l-12.5 -19.5t-12 -12.5q-7 -3 -10 0zM113 566
q-5 2 -8 7q-8 14 -7.5 29t-2.5 37l8 28l3 8t6 17t6 16.5t4 6.5q4 10 10 14q5 3 15.5 4.5t21 2t18.5 -0.5t8 -4q12 -4 23 -11t16 -15q7 -11 0 -22t-15 -28q1 -4 -1 -6h-6l-20.5 -9t-19.5 -10q-6 -3 -12.5 -12.5t-12.5 -20t-12 -20t-12 -12.5t-10 1z" />
    <glyph glyph-name="Wdieresis" unicode="&#x1e84;" horiz-adv-x="559" 
d="M138 486q21 -57 34 -122.5t13 -125.5q0 -13 1 -31t3 -36.5t5 -35.5t7 -29l13 30q7 7 6 16q8 18 13 36.5t11 36.5q3 3 6 11t6 18l5.5 19t4.5 14q0 34 -9.5 67t-21 62.5t-20.5 55t-9 45.5q0 13 12 13l10 -5l15 2q12 -3 20 -11.5t14.5 -18l12.5 -18t13 -11.5q3 -3 6.5 -10
t7 -15t6 -15.5t4.5 -10.5q3 3 10 19t16 34t20.5 32.5t24.5 14.5q11 0 13 -8t2 -16q-2 0 -1 -1t1 0q0 -12 -8 -26.5l-17.5 -32.5t-17 -40.5t-7.5 -50.5q0 -20 -1 -40t-6 -39q5 -17 11.5 -45.5l14 -58.5t16 -56t16.5 -37q2 12 8 39t13.5 56l14 52.5t8.5 27.5q2 14 7 38t12 53
t16 59t19 56t21 45t22 24q8 -3 12 -5t5.5 -5.5t1 -9t-0.5 -14.5v-3q-7 -14 -11.5 -29.5t-10.5 -30.5q0 -6 -6.5 -31.5t-17 -61.5l-22.5 -77.5l-23.5 -80l-20 -69t-11.5 -43.5l-4.5 -18t-8 -29.5t-9.5 -28.5t-9 -15q-5 -11 -8 -14t-15 -3q-7 0 -14 4t-12 9l-3 -1
q-7 0 -15.5 15.5t-17 39t-16.5 52l-15 53.5t-11.5 44t-6.5 24q-8 -22 -18 -44.5l-20 -45t-19 -45.5t-14 -46q-2 -11 -12.5 -19t-21.5 -8q-14 0 -25 11h-4q-29 23 -38.5 48.5t-9.5 60.5q-6 8 -10.5 28.5t-8 44.5t-5 47.5t-1.5 38.5q0 7 -2.5 26t-7 43.5t-10 51t-11.5 49.5
t-12.5 39t-12.5 19q1 5 -0.5 11t-1.5 11q9 16 26 16q5 12 17 12q9 0 22 -4t24.5 -10.5t20 -16t8.5 -20.5zM242 581q-30 3 -48 25l-2 4q-1 12 0 26q4 31 20.5 46.5t33.5 15.5q25 0 37 -15.5t7 -48.5v-8q-4 -22 -21 -33.5t-27 -11.5zM378 587q-11 7 -19.5 21.5t-5.5 36.5
q2 21 9.5 36.5t33.5 15.5q10 0 20.5 -3t18.5 -9.5t12.5 -15.5t3.5 -21l-9 -21q-3 -14 -9 -22.5t-13 -13t-14.5 -6t-13.5 -1.5q-7 0 -14 3z" />
    <glyph glyph-name="Wgrave" unicode="&#x1e80;" horiz-adv-x="559" 
d="M138 486q21 -57 34 -122.5t13 -125.5q0 -13 1 -31t3 -36.5t5 -35.5t7 -29l13 30q7 7 6 16q8 18 13 36.5t11 36.5q3 3 6 11t6 18l5.5 19t4.5 14q0 34 -9.5 67t-21 62.5t-20.5 55t-9 45.5q0 13 12 13l10 -5l15 2q12 -3 20 -11.5t14.5 -18l12.5 -18t13 -11.5q3 -3 6.5 -10
t7 -15t6 -15.5t4.5 -10.5q3 3 10 19t16 34t20.5 32.5t24.5 14.5q11 0 13 -8t2 -16q-2 0 -1 -1t1 0q0 -12 -8 -26.5l-17.5 -32.5t-17 -40.5t-7.5 -50.5q0 -20 -1 -40t-6 -39q5 -17 11.5 -45.5l14 -58.5t16 -56t16.5 -37q2 12 8 39t13.5 56l14 52.5t8.5 27.5q2 14 7 38t12 53
t16 59t19 56t21 45t22 24q8 -3 12 -5t5.5 -5.5t1 -9t-0.5 -14.5v-3q-7 -14 -11.5 -29.5t-10.5 -30.5q0 -6 -6.5 -31.5t-17 -61.5l-22.5 -77.5l-23.5 -80l-20 -69t-11.5 -43.5l-4.5 -18t-8 -29.5t-9.5 -28.5t-9 -15q-5 -11 -8 -14t-15 -3q-7 0 -14 4t-12 9l-3 -1
q-7 0 -15.5 15.5t-17 39t-16.5 52l-15 53.5t-11.5 44t-6.5 24q-8 -22 -18 -44.5l-20 -45t-19 -45.5t-14 -46q-2 -11 -12.5 -19t-21.5 -8q-14 0 -25 11h-4q-29 23 -38.5 48.5t-9.5 60.5q-6 8 -10.5 28.5t-8 44.5t-5 47.5t-1.5 38.5q0 7 -2.5 26t-7 43.5t-10 51t-11.5 49.5
t-12.5 39t-12.5 19q1 5 -0.5 11t-1.5 11q9 16 26 16q5 12 17 12q9 0 22 -4t24.5 -10.5t20 -16t8.5 -20.5zM200 693q1 4 3.5 7.5t7.5 3.5q18 0 40 -11t42.5 -27.5t36 -36.5t19.5 -37q-4 -11 -10 -18t-18 -7q-16 0 -36.5 14t-38.5 33.5t-31 41.5t-15 37z" />
    <glyph glyph-name="Wacute" unicode="&#x1e82;" horiz-adv-x="559" 
d="M138 486q21 -57 34 -122.5t13 -125.5q0 -13 1 -31t3 -36.5t5 -35.5t7 -29l13 30q7 7 6 16q8 18 13 36.5t11 36.5q3 3 6 11t6 18l5.5 19t4.5 14q0 34 -9.5 67t-21 62.5t-20.5 55t-9 45.5q0 13 12 13l10 -5l15 2q12 -3 20 -11.5t14.5 -18l12.5 -18t13 -11.5q3 -3 6.5 -10
t7 -15t6 -15.5t4.5 -10.5q3 3 10 19t16 34t20.5 32.5t24.5 14.5q11 0 13 -8t2 -16q-2 0 -1 -1t1 0q0 -12 -8 -26.5l-17.5 -32.5t-17 -40.5t-7.5 -50.5q0 -20 -1 -40t-6 -39q5 -17 11.5 -45.5l14 -58.5t16 -56t16.5 -37q2 12 8 39t13.5 56l14 52.5t8.5 27.5q2 14 7 38t12 53
t16 59t19 56t21 45t22 24q8 -3 12 -5t5.5 -5.5t1 -9t-0.5 -14.5v-3q-7 -14 -11.5 -29.5t-10.5 -30.5q0 -6 -6.5 -31.5t-17 -61.5l-22.5 -77.5l-23.5 -80l-20 -69t-11.5 -43.5l-4.5 -18t-8 -29.5t-9.5 -28.5t-9 -15q-5 -11 -8 -14t-15 -3q-7 0 -14 4t-12 9l-3 -1
q-7 0 -15.5 15.5t-17 39t-16.5 52l-15 53.5t-11.5 44t-6.5 24q-8 -22 -18 -44.5l-20 -45t-19 -45.5t-14 -46q-2 -11 -12.5 -19t-21.5 -8q-14 0 -25 11h-4q-29 23 -38.5 48.5t-9.5 60.5q-6 8 -10.5 28.5t-8 44.5t-5 47.5t-1.5 38.5q0 7 -2.5 26t-7 43.5t-10 51t-11.5 49.5
t-12.5 39t-12.5 19q1 5 -0.5 11t-1.5 11q9 16 26 16q5 12 17 12q9 0 22 -4t24.5 -10.5t20 -16t8.5 -20.5zM281 527q-5 0 -6 2.5t-2 6.5q0 10 11.5 29.5t25.5 41l26 41.5t15 31q3 3 7 3q8 0 17.5 -6.5t18.5 -15t15 -16.5t6 -12q0 -6 -6 -17t-16 -23.5t-22 -24t-23 -19.5
q-8 -6 -19 -10t-20.5 -6.5t-17 -3.5t-8.5 -1h-2v0z" />
    <glyph glyph-name="Wcircumflex" unicode="&#x174;" horiz-adv-x="559" 
d="M138 486q21 -57 34 -122.5t13 -125.5q0 -13 1 -31t3 -36.5t5 -35.5t7 -29l13 30q7 7 6 16q8 18 13 36.5t11 36.5q3 3 6 11t6 18l5.5 19t4.5 14q0 34 -9.5 67t-21 62.5t-20.5 55t-9 45.5q0 13 12 13l10 -5l15 2q12 -3 20 -11.5t14.5 -18l12.5 -18t13 -11.5q3 -3 6.5 -10
t7 -15t6 -15.5t4.5 -10.5q3 3 10 19t16 34t20.5 32.5t24.5 14.5q11 0 13 -8t2 -16q-2 0 -1 -1t1 0q0 -12 -8 -26.5l-17.5 -32.5t-17 -40.5t-7.5 -50.5q0 -20 -1 -40t-6 -39q5 -17 11.5 -45.5l14 -58.5t16 -56t16.5 -37q2 12 8 39t13.5 56l14 52.5t8.5 27.5q2 14 7 38t12 53
t16 59t19 56t21 45t22 24q8 -3 12 -5t5.5 -5.5t1 -9t-0.5 -14.5v-3q-7 -14 -11.5 -29.5t-10.5 -30.5q0 -6 -6.5 -31.5t-17 -61.5l-22.5 -77.5l-23.5 -80l-20 -69t-11.5 -43.5l-4.5 -18t-8 -29.5t-9.5 -28.5t-9 -15q-5 -11 -8 -14t-15 -3q-7 0 -14 4t-12 9l-3 -1
q-7 0 -15.5 15.5t-17 39t-16.5 52l-15 53.5t-11.5 44t-6.5 24q-8 -22 -18 -44.5l-20 -45t-19 -45.5t-14 -46q-2 -11 -12.5 -19t-21.5 -8q-14 0 -25 11h-4q-29 23 -38.5 48.5t-9.5 60.5q-6 8 -10.5 28.5t-8 44.5t-5 47.5t-1.5 38.5q0 7 -2.5 26t-7 43.5t-10 51t-11.5 49.5
t-12.5 39t-12.5 19q1 5 -0.5 11t-1.5 11q9 16 26 16q5 12 17 12q9 0 22 -4t24.5 -10.5t20 -16t8.5 -20.5zM369 680q12 -23 29 -48t37 -42q6 -8 14.5 -13.5t10.5 -11.5q1 -6 -17 -8h-3l-10 -1q-23 3 -45 19t-49 53q-25 -22 -46 -43t-35 -21h-5q-2 -1 -7 -1q-8 0 -21.5 6
t-14.5 16l8 8t20.5 19l27 24.5l27.5 25.5q11 8 20.5 19.5t25.5 11.5h3q3 1 9 1q5 0 12 -4t9 -10z" />
    <glyph glyph-name="Yacute" unicode="&#xdd;" horiz-adv-x="308" 
d="M72 226l-23 47q0 5 -2 21l-4.5 34.5t-5 34.5l-3.5 22l2 -2v2q0 5 -4 19.5t-10 30.5t-12 29t-9 16q1 6 -0.5 12t-1.5 12q4 10 15.5 13t21.5 3q12 0 23 -12t21 -27.5t19.5 -32t17.5 -25.5q0 -17 2.5 -33.5t2.5 -33.5q0 -5 2 -25.5t5 -44.5l5.5 -44.5t4.5 -24.5q7 9 11.5 20
t7.5 22q6 7 13.5 23t14.5 34t11.5 35t4.5 26q1 2 6.5 11.5t12.5 20.5l12.5 20t7.5 9l1 1q2 6 7.5 17t12 22.5t14.5 20t15 10.5l7 -4.5t6 -6.5l-1 -9l1 -6q-9 -26 -21.5 -53.5l-25.5 -55t-23.5 -55.5t-15.5 -56l-19 -31q-4 -17 -10 -30t-14 -28q-2 -5 -8 -26t-12 -45.5
l-11 -46t-5 -26.5q0 -9 -1.5 -24t-5.5 -29.5t-11 -25.5t-19 -11l-10 -18q-8 4 -18.5 11.5t-10.5 17.5l-3 3l-1 9q0 18 4 35.5t4 35.5q0 13 3.5 28l7 30.5t5.5 30.5t-1 27q-7 3 -12 7.5t-5 12.5q0 14 3 28t4 28zM99 553q-5 0 -6 2.5t-2 6.5q0 10 11.5 29.5t25.5 41l26 41.5
t15 31q3 3 7 3q8 0 17.5 -6.5t18.5 -15t15 -16.5t6 -12q0 -6 -6 -17t-16 -23.5t-22 -24t-23 -19.5q-8 -6 -19 -10t-20.5 -6.5t-17 -3.5t-8.5 -1h-2v0z" />
    <glyph glyph-name="Ygrave" unicode="&#x1ef2;" horiz-adv-x="308" 
d="M74 223l-23 47q0 5 -2 21l-4.5 34.5t-5 34.5l-3.5 22l2 -2v2q0 5 -4 19.5t-10 30.5t-12 29t-9 16q1 6 -0.5 12t-1.5 12q4 10 15.5 13t21.5 3q12 0 23 -12t21 -27.5t19.5 -32t17.5 -25.5q0 -17 2.5 -33.5t2.5 -33.5q0 -5 2 -25.5t5 -44.5l5.5 -44.5t4.5 -24.5q7 9 11.5 20
t7.5 22q6 7 13.5 23t14.5 34t11.5 35t4.5 26q1 2 6.5 11.5t12.5 20.5l12.5 20t7.5 9l1 1q2 6 7.5 17t12 22.5t14.5 20t15 10.5l7 -4.5t6 -6.5l-1 -9l1 -6q-9 -26 -21.5 -53.5l-25.5 -55t-23.5 -55.5t-15.5 -56l-19 -31q-4 -17 -10 -30t-14 -28q-2 -5 -8 -26t-12 -45.5
l-11 -46t-5 -26.5q0 -9 -1.5 -24t-5.5 -29.5t-11 -25.5t-19 -11l-10 -18q-8 4 -18.5 11.5t-10.5 17.5l-3 3l-1 9q0 18 4 35.5t4 35.5q0 13 3.5 28l7 30.5t5.5 30.5t-1 27q-7 3 -12 7.5t-5 12.5q0 14 3 28t4 28zM38 680q1 4 3.5 7.5t7.5 3.5q18 0 40 -11t42.5 -27.5t36 -36.5
t19.5 -37q-4 -11 -10 -18t-18 -7q-16 0 -36.5 14t-38.5 33.5t-31 41.5t-15 37z" />
    <glyph glyph-name="Ydieresis" unicode="&#x178;" horiz-adv-x="308" 
d="M78 214l-23 47q0 5 -2 21l-4.5 34.5t-5 34.5l-3.5 22l2 -2v2q0 5 -4 19.5t-10 30.5t-12 29t-9 16q1 6 -0.5 12t-1.5 12q4 10 15.5 13t21.5 3q12 0 23 -12t21 -27.5t19.5 -32t17.5 -25.5q0 -17 2.5 -33.5t2.5 -33.5q0 -5 2 -25.5t5 -44.5l5.5 -44.5t4.5 -24.5q7 9 11.5 20
t7.5 22q6 7 13.5 23t14.5 34t11.5 35t4.5 26q1 2 6.5 11.5t12.5 20.5l12.5 20t7.5 9l1 1q2 6 7.5 17t12 22.5t14.5 20t15 10.5l7 -4.5t6 -6.5l-1 -9l1 -6q-9 -26 -21.5 -53.5l-25.5 -55t-23.5 -55.5t-15.5 -56l-19 -31q-4 -17 -10 -30t-14 -28q-2 -5 -8 -26t-12 -45.5
l-11 -46t-5 -26.5q0 -9 -1.5 -24t-5.5 -29.5t-11 -25.5t-19 -11l-10 -18q-8 4 -18.5 11.5t-10.5 17.5l-3 3l-1 9q0 18 4 35.5t4 35.5q0 13 3.5 28l7 30.5t5.5 30.5t-1 27q-7 3 -12 7.5t-5 12.5q0 14 3 28t4 28zM89 556q-30 3 -48 25l-2 4q-1 12 0 26q4 31 20.5 46.5
t33.5 15.5q25 0 37 -15.5t7 -48.5v-8q-4 -22 -21 -33.5t-27 -11.5zM225 562q-11 7 -19.5 21.5t-5.5 36.5q2 21 9.5 36.5t33.5 15.5q10 0 20.5 -3t18.5 -9.5t12.5 -15.5t3.5 -21l-9 -21q-3 -14 -9 -22.5t-13 -13t-14.5 -6t-13.5 -1.5q-7 0 -14 3z" />
    <glyph glyph-name="Ycircumflex" unicode="&#x176;" horiz-adv-x="308" 
d="M68 234l-23 47q0 5 -2 21l-4.5 34.5t-5 34.5l-3.5 22l2 -2v2q0 5 -4 19.5t-10 30.5t-12 29t-9 16q1 6 -0.5 12t-1.5 12q4 10 15.5 13t21.5 3q12 0 23 -12t21 -27.5t19.5 -32t17.5 -25.5q0 -17 2.5 -33.5t2.5 -33.5q0 -5 2 -25.5t5 -44.5l5.5 -44.5t4.5 -24.5q7 9 11.5 20
t7.5 22q6 7 13.5 23t14.5 34t11.5 35t4.5 26q1 2 6.5 11.5t12.5 20.5l12.5 20t7.5 9l1 1q2 6 7.5 17t12 22.5t14.5 20t15 10.5l7 -4.5t6 -6.5l-1 -9l1 -6q-9 -26 -21.5 -53.5l-25.5 -55t-23.5 -55.5t-15.5 -56l-19 -31q-4 -17 -10 -30t-14 -28q-2 -5 -8 -26t-12 -45.5
l-11 -46t-5 -26.5q0 -9 -1.5 -24t-5.5 -29.5t-11 -25.5t-19 -11l-10 -18q-8 4 -18.5 11.5t-10.5 17.5l-3 3l-1 9q0 18 4 35.5t4 35.5q0 13 3.5 28l7 30.5t5.5 30.5t-1 27q-7 3 -12 7.5t-5 12.5q0 14 3 28t4 28zM173 699q12 -23 29 -48t37 -42q6 -8 14.5 -13.5t10.5 -11.5
q1 -6 -17 -8h-3l-10 -1q-23 3 -45 19t-49 53q-25 -22 -46 -43t-35 -21h-5q-2 -1 -7 -1q-8 0 -21.5 6t-14.5 16l8 8t20.5 19l27 24.5l27.5 25.5q11 8 20.5 19.5t25.5 11.5h3q3 1 9 1q5 0 12 -4t9 -10z" />
    <glyph glyph-name="Zacute" unicode="&#x179;" horiz-adv-x="374" 
d="M144 29l7 -3q28 2 58.5 -1t59.5 -3q24 0 47 4.5t43 19.5q5 1 9 3.5t7 5.5q8 0 12 -5.5t4 -13.5q0 -11 -8 -22.5t-19.5 -21.5t-24 -18t-21.5 -11q-36 -13 -77 -14t-79 -1q-8 0 -16 -0.5t-16 -1.5v1q-9 1 -18 -2.5t-18 -8t-17 -8t-14 -3.5q-20 0 -33.5 8.5t-6.5 31.5
q-5 17 1 32.5t14 29.5l115.5 187l114.5 188l-1 1l12 15l-1 2l10 13l-1 1l6 9h-2l-38 -7l-6 2q-33 -6 -62 -15t-64 -9q-12 0 -23 3.5t-11 20.5q0 14 10.5 16.5t21.5 2.5l4 2q4 2 17 5.5t26 7.5l23.5 7.5t10.5 5.5l-1 2q7 -1 13 -1h13q23 11 50 18.5t53 7.5q5 0 15 2l20.5 -2
t19.5 -4.5t14.5 -11t5.5 -20.5q0 -6 -12 -28t-30.5 -52.5l-41 -66l-43.5 -68.5l-37.5 -59.5l-23.5 -38.5q-8 -14 -16.5 -32.5l-17.5 -37.5t-18 -36t-19 -28zM182 517q-5 0 -6 2.5t-2 6.5q0 10 11.5 29.5t25.5 41l26 41.5t15 31q3 3 7 3q8 0 17.5 -6.5t18.5 -15t15 -16.5
t6 -12q0 -6 -6 -17t-16 -23.5t-22 -24t-23 -19.5q-8 -6 -19 -10t-20.5 -6.5t-17 -3.5t-8.5 -1h-2v0z" />
    <glyph glyph-name="Zcaron" unicode="&#x17d;" horiz-adv-x="374" 
d="M144 29l7 -3q28 2 58.5 -1t59.5 -3q24 0 47 4.5t43 19.5q5 1 9 3.5t7 5.5q8 0 12 -5.5t4 -13.5q0 -11 -8 -22.5t-19.5 -21.5t-24 -18t-21.5 -11q-36 -13 -77 -14t-79 -1q-8 0 -16 -0.5t-16 -1.5v1q-9 1 -18 -2.5t-18 -8t-17 -8t-14 -3.5q-20 0 -33.5 8.5t-6.5 31.5
q-5 17 1 32.5t14 29.5l115.5 187l114.5 188l-1 1l12 15l-1 2l10 13l-1 1l6 9h-2l-38 -7l-6 2q-33 -6 -62 -15t-64 -9q-12 0 -23 3.5t-11 20.5q0 14 10.5 16.5t21.5 2.5l4 2q4 2 17 5.5t26 7.5l23.5 7.5t10.5 5.5l-1 2q7 -1 13 -1h13q23 11 50 18.5t53 7.5q5 0 15 2l20.5 -2
t19.5 -4.5t14.5 -11t5.5 -20.5q0 -6 -12 -28t-30.5 -52.5l-41 -66l-43.5 -68.5l-37.5 -59.5l-23.5 -38.5q-8 -14 -16.5 -32.5l-17.5 -37.5t-18 -36t-19 -28zM203 567q-12 23 -29 48t-36 42q-6 8 -14.5 13.5t-11.5 11.5q0 6 18 8h2l11 1q22 -3 44 -19t49 -53q25 22 46 43
t35 21h5q2 1 8 1q8 0 21 -6t15 -16l-8 -8t-20.5 -19l-27.5 -24.5l-28 -25.5q-11 -8 -20.5 -19.5t-24.5 -11.5h-3q-3 -1 -10 -1q-5 0 -12 4t-9 10z" />
    <glyph glyph-name="Zdotaccent" unicode="&#x17b;" horiz-adv-x="374" 
d="M144 29l7 -3q28 2 58.5 -1t59.5 -3q24 0 47 4.5t43 19.5q5 1 9 3.5t7 5.5q8 0 12 -5.5t4 -13.5q0 -11 -8 -22.5t-19.5 -21.5t-24 -18t-21.5 -11q-36 -13 -77 -14t-79 -1q-8 0 -16 -0.5t-16 -1.5v1q-9 1 -18 -2.5t-18 -8t-17 -8t-14 -3.5q-20 0 -33.5 8.5t-6.5 31.5
q-5 17 1 32.5t14 29.5l115.5 187l114.5 188l-1 1l12 15l-1 2l10 13l-1 1l6 9h-2l-38 -7l-6 2q-33 -6 -62 -15t-64 -9q-12 0 -23 3.5t-11 20.5q0 14 10.5 16.5t21.5 2.5l4 2q4 2 17 5.5t26 7.5l23.5 7.5t10.5 5.5l-1 2q7 -1 13 -1h13q23 11 50 18.5t53 7.5q5 0 15 2l20.5 -2
t19.5 -4.5t14.5 -11t5.5 -20.5q0 -6 -12 -28t-30.5 -52.5l-41 -66l-43.5 -68.5l-37.5 -59.5l-23.5 -38.5q-8 -14 -16.5 -32.5l-17.5 -37.5t-18 -36t-19 -28zM248 561q-29 5 -45.5 20t-18.5 32q-2 27 12 38.5t37 11.5t43 -9.5t25 -35.5q1 -14 -3.5 -25t-11.5 -18.5t-15 -11.5
t-13 -4q-4 0 -10 2z" />
    <glyph glyph-name="aring" unicode="&#xe5;" horiz-adv-x="366" 
d="M223 180q-26 -11 -52.5 -15.5t-53.5 -12.5q-13 -26 -28.5 -50.5t-26.5 -50.5h-1l-24 -61q-6 -5 -9 -13t-11 -11h-6l-17 -10q-5 0 -7 3t-4 7q-1 11 1.5 21t3.5 20q3 3 6 9t6 13t5.5 13.5t2.5 10.5l7 10q8 30 20.5 65t26.5 61l-11 -1q-3 2 -6 6t-3 8q-1 7 4.5 16.5t13 19.5
t15 18.5t11.5 14.5q9 35 27.5 71l35.5 68q3 5 9.5 21.5l13.5 34.5l13 33t8 16l2 6l13 7l28 -13.5t31 -17t25.5 -21t12.5 -25.5q2 -11 0.5 -23.5t-2.5 -23.5q3 -14 6.5 -27.5t8.5 -27.5v-58q2 -5 5.5 -2.5t5.5 4.5q17 2 18 -12q0 -1 -3.5 -5l-8 -9.5l-8.5 -10t-5 -5.5
q-3 -9 -2.5 -24t2.5 -32l4 -33.5t4 -28.5q1 -8 1.5 -32.5t0.5 -50.5v-46.5v-21.5q3 -5 4 -10t2 -11q2 -23 -6.5 -31t-31.5 -10q-9 -1 -16.5 5t-14 14.5t-12 17.5t-9.5 14q-2 22 -12.5 44t-12.5 44q-4 31 -0.5 61t0.5 60zM221 228q-5 40 -1 80.5t0 79.5q-1 2 -1.5 5t-1.5 5
q-9 -9 -23 -16h-1l-9 -9q-2 -4 -6.5 -16.5t-10 -30t-11 -37t-11 -37t-9 -31t-4.5 -18.5q21 2 45 9.5t44 15.5zM240 575q-10 -6 -18.5 -9.5t-17.5 -3.5q-15 0 -26.5 7t-20 17.5t-13.5 22.5t-6 22q-1 16 5 31t16 26.5t22 18t22 6.5q7 -2 10.5 -8t5.5 -11q1 -9 -1 -8t-1 -4
q-7 0 -15 -7t-14.5 -18t-10.5 -24t-3 -25q1 -13 8 -18.5t12 -5.5q12 0 21.5 9t16 22t10 27.5t2.5 25.5q-2 12 -10.5 16t-9.5 7q0 5 5 7t7 2q6 0 10 -3.5t7 -8.5l7 -3q6 -3 9.5 -9.5t4.5 -12.5v-2q1 -2 1 -4.5t1 -5.5v-24q0 -2 1 -2.5t1 -2.5q-3 -6 -6.5 -14.5t-8 -15.5
t-10.5 -12t-13 -5z" />
    <glyph glyph-name="aacute" unicode="&#xe1;" horiz-adv-x="366" 
d="M223 180q-26 -11 -52.5 -15.5t-53.5 -12.5q-13 -26 -28.5 -50.5t-26.5 -50.5h-1l-24 -61q-6 -5 -9 -13t-11 -11h-6l-17 -10q-5 0 -7 3t-4 7q-1 11 1.5 21t3.5 20q3 3 6 9t6 13t5.5 13.5t2.5 10.5l7 10q8 30 20.5 65t26.5 61l-11 -1q-3 2 -6 6t-3 8q-1 7 4.5 16.5t13 19.5
t15 18.5t11.5 14.5q9 35 27.5 71l35.5 68q3 5 9.5 21.5l13.5 34.5l13 33t8 16l2 6l13 7l28 -13.5t31 -17t25.5 -21t12.5 -25.5q2 -11 0.5 -23.5t-2.5 -23.5q3 -14 6.5 -27.5t8.5 -27.5v-58q2 -5 5.5 -2.5t5.5 4.5q17 2 18 -12q0 -1 -3.5 -5l-8 -9.5l-8.5 -10t-5 -5.5
q-3 -9 -2.5 -24t2.5 -32l4 -33.5t4 -28.5q1 -8 1.5 -32.5t0.5 -50.5v-46.5v-21.5q3 -5 4 -10t2 -11q2 -23 -6.5 -31t-31.5 -10q-9 -1 -16.5 5t-14 14.5t-12 17.5t-9.5 14q-2 22 -12.5 44t-12.5 44q-4 31 -0.5 61t0.5 60zM221 228q-5 40 -1 80.5t0 79.5q-1 2 -1.5 5t-1.5 5
q-9 -9 -23 -16h-1l-9 -9q-2 -4 -6.5 -16.5t-10 -30t-11 -37t-11 -37t-9 -31t-4.5 -18.5q21 2 45 9.5t44 15.5zM215 559q-5 0 -6 2.5t-2 6.5q0 10 11.5 29.5t25.5 41l26 41.5t15 31q3 3 7 3q8 0 17.5 -6.5t18.5 -15t15 -16.5t6 -12q0 -6 -6 -17t-16 -23.5t-22 -24t-23 -19.5
q-8 -6 -19 -10t-20.5 -6.5t-17 -3.5t-8.5 -1h-2v0z" />
    <glyph glyph-name="abreve" unicode="&#x103;" horiz-adv-x="366" 
d="M223 180q-26 -11 -52.5 -15.5t-53.5 -12.5q-13 -26 -28.5 -50.5t-26.5 -50.5h-1l-24 -61q-6 -5 -9 -13t-11 -11h-6l-17 -10q-5 0 -7 3t-4 7q-1 11 1.5 21t3.5 20q3 3 6 9t6 13t5.5 13.5t2.5 10.5l7 10q8 30 20.5 65t26.5 61l-11 -1q-3 2 -6 6t-3 8q-1 7 4.5 16.5t13 19.5
t15 18.5t11.5 14.5q9 35 27.5 71l35.5 68q3 5 9.5 21.5l13.5 34.5l13 33t8 16l2 6l13 7l28 -13.5t31 -17t25.5 -21t12.5 -25.5q2 -11 0.5 -23.5t-2.5 -23.5q3 -14 6.5 -27.5t8.5 -27.5v-58q2 -5 5.5 -2.5t5.5 4.5q17 2 18 -12q0 -1 -3.5 -5l-8 -9.5l-8.5 -10t-5 -5.5
q-3 -9 -2.5 -24t2.5 -32l4 -33.5t4 -28.5q1 -8 1.5 -32.5t0.5 -50.5v-46.5v-21.5q3 -5 4 -10t2 -11q2 -23 -6.5 -31t-31.5 -10q-9 -1 -16.5 5t-14 14.5t-12 17.5t-9.5 14q-2 22 -12.5 44t-12.5 44q-4 31 -0.5 61t0.5 60zM221 228q-5 40 -1 80.5t0 79.5q-1 2 -1.5 5t-1.5 5
q-9 -9 -23 -16h-1l-9 -9q-2 -4 -6.5 -16.5t-10 -30t-11 -37t-11 -37t-9 -31t-4.5 -18.5q21 2 45 9.5t44 15.5zM309 698q-1 2 -2 6t-2 9q-1 6 1.5 11.5t10.5 7.5q8 -20 16 -32.5t10 -28.5v-8t-1 -9q-2 -9 -9 -20t-17.5 -22.5t-22.5 -22t-23 -16.5q-18 -11 -36.5 -16t-35.5 -5
t-33 7.5t-29 20.5t-22 29t-10 34q-1 5 -0.5 9t1.5 9q1 7 6.5 19t14.5 23.5t20.5 20t23.5 8.5q3 0 7.5 -1t6.5 -3q-2 -6 -9.5 -14t-16 -18.5t-15 -23.5t-4.5 -29q2 -19 20 -27.5t38 -8.5t40.5 7.5t37 20t26 28t8.5 31.5v4z" />
    <glyph glyph-name="agrave" unicode="&#xe0;" horiz-adv-x="366" 
d="M225 182q-26 -11 -52.5 -15.5t-53.5 -12.5q-13 -26 -28.5 -50.5t-26.5 -50.5h-1l-24 -61q-6 -5 -9 -13t-11 -11h-6l-17 -10q-5 0 -7 3t-4 7q-1 11 1.5 21t3.5 20q3 3 6 9t6 13t5.5 13.5t2.5 10.5l7 10q8 30 20.5 65t26.5 61l-11 -1q-3 2 -6 6t-3 8q-1 7 4.5 16.5t13 19.5
t15 18.5t11.5 14.5q9 35 27.5 71l35.5 68q3 5 9.5 21.5l13.5 34.5l13 33t8 16l2 6l13 7l28 -13.5t31 -17t25.5 -21t12.5 -25.5q2 -11 0.5 -23.5t-2.5 -23.5q3 -14 6.5 -27.5t8.5 -27.5v-58q2 -5 5.5 -2.5t5.5 4.5q17 2 18 -12q0 -1 -3.5 -5l-8 -9.5l-8.5 -10t-5 -5.5
q-3 -9 -2.5 -24t2.5 -32l4 -33.5t4 -28.5q1 -8 1.5 -32.5t0.5 -50.5v-46.5v-21.5q3 -5 4 -10t2 -11q2 -23 -6.5 -31t-31.5 -10q-9 -1 -16.5 5t-14 14.5t-12 17.5t-9.5 14q-2 22 -12.5 44t-12.5 44q-4 31 -0.5 61t0.5 60zM223 230q-5 40 -1 80.5t0 79.5q-1 2 -1.5 5t-1.5 5
q-9 -9 -23 -16h-1l-9 -9q-2 -4 -6.5 -16.5t-10 -30t-11 -37t-11 -37t-9 -31t-4.5 -18.5q21 2 45 9.5t44 15.5zM78 690q1 4 3.5 7.5t7.5 3.5q18 0 40 -11t42.5 -27.5t36 -36.5t19.5 -37q-4 -11 -10 -18t-18 -7q-16 0 -36.5 14t-38.5 33.5t-31 41.5t-15 37z" />
    <glyph glyph-name="atilde" unicode="&#xe3;" horiz-adv-x="366" 
d="M223 180q-26 -11 -52.5 -15.5t-53.5 -12.5q-13 -26 -28.5 -50.5t-26.5 -50.5h-1l-24 -61q-6 -5 -9 -13t-11 -11h-6l-17 -10q-5 0 -7 3t-4 7q-1 11 1.5 21t3.5 20q3 3 6 9t6 13t5.5 13.5t2.5 10.5l7 10q8 30 20.5 65t26.5 61l-11 -1q-3 2 -6 6t-3 8q-1 7 4.5 16.5t13 19.5
t15 18.5t11.5 14.5q9 35 27.5 71l35.5 68q3 5 9.5 21.5l13.5 34.5l13 33t8 16l2 6l13 7l28 -13.5t31 -17t25.5 -21t12.5 -25.5q2 -11 0.5 -23.5t-2.5 -23.5q3 -14 6.5 -27.5t8.5 -27.5v-58q2 -5 5.5 -2.5t5.5 4.5q17 2 18 -12q0 -1 -3.5 -5l-8 -9.5l-8.5 -10t-5 -5.5
q-3 -9 -2.5 -24t2.5 -32l4 -33.5t4 -28.5q1 -8 1.5 -32.5t0.5 -50.5v-46.5v-21.5q3 -5 4 -10t2 -11q2 -23 -6.5 -31t-31.5 -10q-9 -1 -16.5 5t-14 14.5t-12 17.5t-9.5 14q-2 22 -12.5 44t-12.5 44q-4 31 -0.5 61t0.5 60zM221 228q-5 40 -1 80.5t0 79.5q-1 2 -1.5 5t-1.5 5
q-9 -9 -23 -16h-1l-9 -9q-2 -4 -6.5 -16.5t-10 -30t-11 -37t-11 -37t-9 -31t-4.5 -18.5q21 2 45 9.5t44 15.5zM306 602q-5 -2 -7.5 -2.5t-6.5 -1.5q-17 -4 -36.5 -11.5t-39.5 -9.5q-10 -1 -16 1.5t-14 4.5q-10 -1 -18 2q-10 5 -13 17q-17 -7 -28 -10t-24 -4q-26 -2 -38 14
q0 8 3.5 11t9.5 10q4 3 7.5 6t6.5 5q4 2 6.5 2t7.5 1q16 4 35 12t38 10q20 3 39.5 -1.5t29.5 -22.5q21 5 40.5 9t36.5 2q5 -10 4 -17q0 -13 -11 -18q-3 -3 -6.5 -5.5t-5.5 -3.5z" />
    <glyph glyph-name="amacron" unicode="&#x101;" horiz-adv-x="366" 
d="M223 180q-26 -11 -52.5 -15.5t-53.5 -12.5q-13 -26 -28.5 -50.5t-26.5 -50.5h-1l-24 -61q-6 -5 -9 -13t-11 -11h-6l-17 -10q-5 0 -7 3t-4 7q-1 11 1.5 21t3.5 20q3 3 6 9t6 13t5.5 13.5t2.5 10.5l7 10q8 30 20.5 65t26.5 61l-11 -1q-3 2 -6 6t-3 8q-1 7 4.5 16.5t13 19.5
t15 18.5t11.5 14.5q9 35 27.5 71l35.5 68q3 5 9.5 21.5l13.5 34.5l13 33t8 16l2 6l13 7l28 -13.5t31 -17t25.5 -21t12.5 -25.5q2 -11 0.5 -23.5t-2.5 -23.5q3 -14 6.5 -27.5t8.5 -27.5v-58q2 -5 5.5 -2.5t5.5 4.5q17 2 18 -12q0 -1 -3.5 -5l-8 -9.5l-8.5 -10t-5 -5.5
q-3 -9 -2.5 -24t2.5 -32l4 -33.5t4 -28.5q1 -8 1.5 -32.5t0.5 -50.5v-46.5v-21.5q3 -5 4 -10t2 -11q2 -23 -6.5 -31t-31.5 -10q-9 -1 -16.5 5t-14 14.5t-12 17.5t-9.5 14q-2 22 -12.5 44t-12.5 44q-4 31 -0.5 61t0.5 60zM221 228q-5 40 -1 80.5t0 79.5q-1 2 -1.5 5t-1.5 5
q-9 -9 -23 -16h-1l-9 -9q-2 -4 -6.5 -16.5t-10 -30t-11 -37t-11 -37t-9 -31t-4.5 -18.5q21 2 45 9.5t44 15.5zM254 643q12 3 23 5l22 4q3 3 9 3q5 -1 8.5 -6t6.5 -10q8 -14 8 -27.5t-10 -23.5q-5 -2 -9 -3t-9 -2l-12 -2t-12 -3q-6 -1 -11.5 -1h-11.5q-5 -1 -10.5 -1h-11.5
q-5 0 -10 -0.5t-10 -0.5q-2 0 -3 1t-2 1q-2 0 -3 -1t-6 -2h-5.5t-9.5 1q-4 1 -14 1q-12 0 -31 -1t-39 -1q-38 0 -69 3q-28 3 -37 11q-1 3 5.5 14t20.5 17q6 5 13.5 7.5t15.5 4.5l31 7q10 4 24 6q7 2 14.5 3t15.5 1q6 0 11.5 -0.5t11.5 -1.5q8 -1 15 -2.5l12 -2.5q2 0 2 1
q2 -1 4 -1q1 1 5 1q2 0 10 -1t16 -1q8 1 12.5 3.5t10.5 2.5q2 0 3.5 -0.5t5.5 -2.5z" />
    </font>
</defs>
</svg>
